<?xml version="1.0" encoding="UTF-8" standalone="no"?>
<!-- Created with Inkscape (http://www.inkscape.org/) -->

<svg
   width="110.39381mm"
   height="74.101883mm"
   viewBox="0 0 110.39381 74.101883"
   version="1.1"
   id="svg1"
   inkscape:version="1.3.2 (091e20e, 2023-11-25)"
   sodipodi:docname="drawing.svg"
   xmlns:inkscape="http://www.inkscape.org/namespaces/inkscape"
   xmlns:sodipodi="http://sodipodi.sourceforge.net/DTD/sodipodi-0.dtd"
   xmlns="http://www.w3.org/2000/svg"
   xmlns:svg="http://www.w3.org/2000/svg">
  <sodipodi:namedview
     id="namedview1"
     pagecolor="#ffffff"
     bordercolor="#000000"
     borderopacity="0.25"
     inkscape:showpageshadow="2"
     inkscape:pageopacity="0.0"
     inkscape:pagecheckerboard="0"
     inkscape:deskcolor="#d1d1d1"
     inkscape:document-units="mm"
     inkscape:zoom="0.2102413"
     inkscape:cx="206.90511"
     inkscape:cy="137.93674"
     inkscape:window-width="1312"
     inkscape:window-height="449"
     inkscape:window-x="0"
     inkscape:window-y="38"
     inkscape:window-maximized="0"
     inkscape:current-layer="layer1" />
  <defs
     id="defs1">
    <clipPath
       id="clip-0">
      <path
         clip-rule="nonzero"
         d="m 213,53.300781 h 86.61719 V 183 H 213 Z m 0,0"
         id="path117" />
    </clipPath>
    <clipPath
       id="clip-1">
      <path
         clip-rule="nonzero"
         d="m 141,194 h 146 v 42.32031 H 141 Z m 0,0"
         id="path118" />
    </clipPath>
    <clipPath
       id="clip-2">
      <path
         clip-rule="nonzero"
         d="M 127.90234,53.300781 H 215 V 185 h -87.09766 z m 0,0"
         id="path119" />
    </clipPath>
  </defs>
  <g
     inkscape:label="Layer 1"
     inkscape:groupmode="layer"
     id="layer1"
     transform="translate(-50.012436,-111.38958)">
    <g
       clip-path="url(#clip-0)"
       id="g1706"
       transform="matrix(0.35277777,0,0,0.35277777,30.019374,92.586252)">
      <path
         fill="none"
         stroke-width="0.712"
         stroke-linecap="round"
         stroke-linejoin="round"
         stroke="#000000"
         stroke-opacity="1"
         stroke-miterlimit="10"
         d="M 0.00111875,-0.001825 Z M 74.282369,43.845831 C 59.555806,69.615363 31.805806,86.98255 0.00111875,86.98255 V -0.001825 L 73.856587,-41.607294 c 7.398438,12.652344 11.644532,27.375 11.644532,43.089844 0,15.414063 -4.082032,29.875 -11.21875,42.363281 z m 0,0"
         transform="matrix(1,0,0,-1,213.7606,140.6388)"
         id="path1705" />
    </g>
    <path
       fill="none"
       stroke-width="0.251178"
       stroke-linecap="round"
       stroke-linejoin="round"
       stroke="#000000"
       stroke-opacity="1"
       stroke-miterlimit="4"
       d="m 105.7219,146.35454 -0.29214,-0.16398 -0.28939,0.16949"
       id="path1706" />
    <path
       fill="none"
       stroke-width="0.251178"
       stroke-linecap="round"
       stroke-linejoin="round"
       stroke="#000000"
       stroke-opacity="1"
       stroke-dasharray="1.927, 1.927"
       stroke-miterlimit="4"
       d="M 104.55608,146.70595 80.264022,161.04443"
       id="path1707" />
    <path
       fill="none"
       stroke-width="0.251178"
       stroke-linecap="round"
       stroke-linejoin="round"
       stroke="#000000"
       stroke-opacity="1"
       stroke-miterlimit="4"
       d="m 79.971879,161.21669 -0.28801,0.17088 c 0.05788,0.0951 0.117133,0.19017 0.176389,0.28387"
       id="path1708" />
    <g
       clip-path="url(#clip-1)"
       id="g1709"
       transform="matrix(0.35277777,0,0,0.35277777,30.019374,92.586252)">
      <path
         fill="none"
         stroke-width="0.712"
         stroke-linecap="round"
         stroke-linejoin="round"
         stroke="#000000"
         stroke-opacity="1"
         stroke-dasharray="1.919, 1.919"
         stroke-miterlimit="4"
         d="M -0.00179375,-2.1875e-4 C 15.287269,-23.203344 41.576331,-38.515844 71.443519,-38.515844 c 30.820311,0 57.828121,16.3125 72.875001,40.769532"
         transform="matrix(1,0,0,-1,142.3182,197.449)"
         id="path1709" />
    </g>
    <path
       fill="none"
       stroke-width="0.251178"
       stroke-linecap="round"
       stroke-linejoin="round"
       stroke="#000000"
       stroke-opacity="1"
       stroke-miterlimit="4"
       d="m 131.31345,161.15605 c 0.0579,-0.0951 0.11437,-0.19154 0.17087,-0.28801 l -0.29214,-0.16398"
       id="path1710" />
    <path
       fill="none"
       stroke-width="0.251178"
       stroke-linecap="round"
       stroke-linejoin="round"
       stroke="#000000"
       stroke-opacity="1"
       stroke-dasharray="1.927, 1.927"
       stroke-miterlimit="4"
       d="M 130.59963,160.37057 106.01681,146.52128"
       id="path1711" />
    <g
       clip-path="url(#clip-2)"
       id="g1712"
       transform="matrix(0.35277777,0,0,0.35277777,30.019374,92.586252)">
      <path
         fill="none"
         stroke-width="0.712"
         stroke-linecap="round"
         stroke-linejoin="round"
         stroke="#000000"
         stroke-opacity="1"
         stroke-miterlimit="10"
         d="M -5.9375e-4,7e-4 C -6.609969,-12.136019 -10.367781,-26.050081 -10.367781,-40.84305 c 0,-16.328125 4.578125,-31.582031 12.519531,-44.5625 l 72.980469,43.078125 V 44.65695 C 42.702531,44.65695 14.491594,26.602262 -5.9375e-4,7e-4 Z m 0,0"
         transform="matrix(1,0,0,-1,138.6295,98.3132)"
         id="path1712" />
    </g>
    <path
       fill="none"
       stroke-width="0.335139"
       stroke-linecap="round"
       stroke-linejoin="round"
       stroke="#000000"
       stroke-opacity="1"
       stroke-miterlimit="4"
       d="m 95.596076,137.8052 15.711014,-5.71335"
       id="path1713" />
    <path
       fill-rule="nonzero"
       fill="#000000"
       fill-opacity="1"
       d="m 113.52987,131.28294 -2.66789,2.42122 0.27837,-1.55168 -1.20854,-1.0101 z m 0,0"
       id="path1714"
       style="stroke-width:0.352778" />
    <path
       fill="none"
       stroke-width="0.335139"
       stroke-linecap="round"
       stroke-linejoin="round"
       stroke="#000000"
       stroke-opacity="1"
       stroke-miterlimit="4"
       d="m 116.07786,139.74134 -0.1943,0.27285"
       id="path1715" />
    <path
       fill="none"
       stroke-width="0.335139"
       stroke-linecap="round"
       stroke-linejoin="round"
       stroke="#000000"
       stroke-opacity="1"
       stroke-dasharray="1.945, 1.945"
       stroke-miterlimit="4"
       d="m 115.48668,140.57367 -8.54797,12.02201"
       id="path1716" />
    <path
       fill="none"
       stroke-width="0.335139"
       stroke-linecap="round"
       stroke-linejoin="round"
       stroke="#000000"
       stroke-opacity="1"
       stroke-miterlimit="4"
       d="m 106.74028,152.87542 -0.19431,0.27285"
       id="path1717" />
    <path
       fill-rule="nonzero"
       fill="#000000"
       fill-opacity="1"
       d="m 105.17482,155.07752 0.82131,-3.5071 0.65181,1.43454 1.56959,0.14469 z m 0,0"
       id="path1718"
       style="stroke-width:0.352778" />
    <g
       fill="#000000"
       fill-opacity="1"
       id="g1719"
       transform="matrix(0.35277777,0,0,0.35277777,30.019374,92.586252)">
      <g
         id="use1718"
         transform="translate(161.45641,108.1766)">
        <path
           d="m 1.40625,-4.75 h 0.9375 V -5.484375 H 0.484375 v 6.96875 H 2.34375 v -0.71875 h -0.9375 z m 0,0"
           id="path184" />
      </g>
      <g
         id="use1719"
         transform="translate(163.9872,108.1766)">
        <path
           d="m 0.296875,-1.671875 c 0,0.671875 0.34375,1.8125 2.328125,1.8125 0.484375,0 2.15625,-0.140625 2.15625,-1.78125 0,-0.984375 -0.6875,-1.28125 -1.4375,-1.46875 L 2.015625,-3.4375 C 1.796875,-3.484375 1.4375,-3.578125 1.4375,-4 c 0,-0.5 0.515625,-0.65625 0.953125,-0.65625 1,0 1.09375,0.578125 1.125,0.828125 h 1.09375 C 4.59375,-4.5 4.140625,-5.59375 2.46875,-5.59375 c -1.765625,0 -2.09375,1.0625 -2.09375,1.671875 0,1.203125 0.859375,1.40625 1.734375,1.609375 l 0.59375,0.140625 c 0.5625,0.125 0.984375,0.25 0.984375,0.671875 0,0.578125 -0.609375,0.703125 -1.140625,0.703125 -1,0 -1.15625,-0.578125 -1.15625,-0.875 z m 0,0"
           id="path183" />
      </g>
    </g>
    <g
       fill="#000000"
       fill-opacity="1"
       id="g1725"
       transform="matrix(0.35277777,0,0,0.35277777,30.019374,92.586252)">
      <g
         id="use1720"
         transform="translate(168.86639,108.1766)">
        <path
           d="m 4.09375,-4.046875 h -1.125 L 2.140625,-1.0625 H 2.125 L 1.265625,-4.046875 h -1.1875 L 1.5625,0.171875 C 1.46875,0.71875 1.25,0.78125 0.859375,0.78125 0.78125,0.78125 0.703125,0.765625 0.65625,0.765625 v 0.84375 C 0.8125,1.625 1,1.625 1.140625,1.625 c 0.921875,0 1.0625,-0.203125 1.5625,-1.6875 z m 0,0"
           id="path182" />
      </g>
      <g
         id="use1721"
         transform="translate(173.092,108.1766)">
        <path
           d="m 6.265625,-2.796875 c 0,-0.890625 -0.609375,-1.34375 -1.390625,-1.34375 -0.65625,0 -0.953125,0.4375 -1.078125,0.640625 -0.28125,-0.4375 -0.546875,-0.640625 -1.125,-0.640625 -0.71875,0 -1.015625,0.421875 -1.15625,0.6875 H 1.5 v -0.59375 H 0.484375 V 0 h 1.0625 v -2.453125 c 0,-0.453125 0.15625,-0.796875 0.65625,-0.796875 0.640625,0 0.640625,0.484375 0.640625,0.8125 V 0 h 1.0625 V -2.421875 C 3.90625,-2.90625 4.09375,-3.25 4.625,-3.25 c 0.3125,0 0.578125,0.203125 0.578125,0.796875 V 0 h 1.0625 z m 0,0"
           id="path181" />
      </g>
      <g
         id="use1722"
         transform="translate(179.8484,108.1766)">
        <path
           d="m 3.296875,-1.984375 c 0,0.46875 -0.1875,1.21875 -0.875,1.21875 -0.671875,0 -0.9375,-0.5625 -0.9375,-1.15625 0,-0.65625 0.171875,-1.3125 0.90625,-1.3125 0.671875,0 0.90625,0.609375 0.90625,1.25 z M 1.53125,-5.453125 H 0.46875 V 0 H 1.5 v -0.515625 h 0.015625 c 0.265625,0.46875 0.734375,0.625 1.171875,0.625 1.203125,0 1.703125,-1.0625 1.703125,-2.171875 0,-1.40625 -0.796875,-2.078125 -1.6875,-2.078125 -0.671875,0 -1,0.359375 -1.15625,0.625 H 1.53125 Z m 0,0"
           id="path180" />
      </g>
      <g
         id="use1723"
         transform="translate(184.492,108.1766)">
        <path
           d="m 4.390625,-2.015625 c 0,-1.46875 -0.984375,-2.125 -2.0625,-2.125 -1.09375,0 -2.0625,0.65625 -2.0625,2.125 0,1.453125 0.96875,2.125 2.0625,2.125 1.078125,0 2.0625,-0.671875 2.0625,-2.125 z m -1.09375,0 c 0,0.515625 -0.15625,1.21875 -0.96875,1.21875 C 1.5,-0.796875 1.359375,-1.5 1.359375,-2.015625 1.359375,-2.53125 1.5,-3.25 2.328125,-3.25 c 0.8125,0 0.96875,0.71875 0.96875,1.234375 z m 0,0"
           id="path177" />
      </g>
      <g
         id="use1724"
         transform="translate(189.1356,108.1766)">
        <path
           d="M 1.59375,-5.453125 H 0.53125 V 0 h 1.0625 z m 0,0"
           id="path176" />
      </g>
      <g
         id="use1725"
         transform="translate(191.2484,108.1766)">
        <path
           d="M 1.125,0.765625 H 0.1875 v 0.71875 h 1.859375 v -6.96875 H 0.1875 V -4.75 H 1.125 Z m 0,0"
           id="path173" />
      </g>
    </g>
    <g
       fill="#000000"
       fill-opacity="1"
       id="g1726"
       transform="matrix(0.35277777,0,0,0.35277777,30.019374,92.586252)">
      <g
         id="use1726"
         transform="translate(189.01401,192.64301)">
        <path
           d="m 1.40625,-4.75 h 0.9375 V -5.484375 H 0.484375 v 6.96875 H 2.34375 v -0.71875 h -0.9375 z m 0,0"
           id="path185" />
      </g>
    </g>
    <g
       fill="#000000"
       fill-opacity="1"
       id="g1729"
       transform="matrix(0.35277777,0,0,0.35277777,30.019374,92.586252)">
      <g
         id="use1727"
         transform="translate(191.5448,192.64301)">
        <path
           d="m 1.71875,-1.96875 h 1.296875 c 1.46875,0 1.75,-1.25 1.75,-1.734375 0,-1.078125 -0.640625,-1.75 -1.703125,-1.75 H 0.578125 V 0 H 1.71875 Z m 0,-0.9375 V -4.515625 H 2.625 c 0.703125,0 1,0.21875 1,0.75 0,0.25 0,0.859375 -0.859375,0.859375 z m 0,0"
           id="path172" />
      </g>
      <g
         id="use1728"
         transform="translate(196.46201,192.64301)">
        <path
           d="m 0.484375,0 h 1.0625 v -2.109375 c 0,-0.4375 0.15625,-0.953125 0.984375,-0.953125 0.09375,0 0.203125,0 0.296875,0.015625 V -4.125 c -0.0625,-0.015625 -0.125,-0.015625 -0.203125,-0.015625 -0.640625,0 -0.890625,0.390625 -1.109375,0.796875 H 1.5 V -4.046875 H 0.484375 Z m 0,0"
           id="path171" />
      </g>
      <g
         id="use1729"
         transform="translate(199.2664,192.64301)">
        <path
           d="m 4.390625,-2.015625 c 0,-1.46875 -0.984375,-2.125 -2.0625,-2.125 -1.09375,0 -2.0625,0.65625 -2.0625,2.125 0,1.453125 0.96875,2.125 2.0625,2.125 1.078125,0 2.0625,-0.671875 2.0625,-2.125 z m -1.09375,0 c 0,0.515625 -0.15625,1.21875 -0.96875,1.21875 C 1.5,-0.796875 1.359375,-1.5 1.359375,-2.015625 1.359375,-2.53125 1.5,-3.25 2.328125,-3.25 c 0.8125,0 0.96875,0.71875 0.96875,1.234375 z m 0,0"
           id="path178" />
      </g>
    </g>
    <g
       fill="#000000"
       fill-opacity="1"
       id="g1740"
       transform="matrix(0.35277777,0,0,0.35277777,30.019374,92.586252)">
      <g
         id="use1730"
         transform="translate(203.91,192.64301)">
        <path
           d="m 4.140625,-2.796875 c 0,-0.890625 -0.609375,-1.34375 -1.40625,-1.34375 -0.765625,0 -1.0625,0.453125 -1.203125,0.6875 H 1.515625 v -0.59375 H 0.5 V 0 h 1.0625 v -2.3125 c 0,-0.625 0.359375,-0.9375 0.828125,-0.9375 0.671875,0 0.6875,0.5 0.6875,0.796875 V 0 h 1.0625 z m 0,0"
           id="path166" />
      </g>
      <g
         id="use1731"
         transform="translate(208.53841,192.64301)">
        <path
           d="m 4.140625,-4.046875 h -1.0625 v 2.34375 c 0,0.71875 -0.46875,0.90625 -0.828125,0.90625 -0.328125,0 -0.6875,-0.109375 -0.6875,-0.734375 V -4.046875 H 0.5 V -1.375 c 0,1.03125 0.578125,1.484375 1.375,1.484375 0.5625,0 0.984375,-0.25 1.234375,-0.671875 H 3.125 V 0 h 1.015625 z m 0,0"
           id="path164" />
      </g>
      <g
         id="use1732"
         transform="translate(213.16679,192.64301)">
        <path
           d="m 4.140625,-2.796875 c 0,-0.890625 -0.609375,-1.34375 -1.40625,-1.34375 -0.765625,0 -1.0625,0.453125 -1.203125,0.6875 H 1.515625 v -0.59375 H 0.5 V 0 h 1.0625 v -2.3125 c 0,-0.625 0.359375,-0.9375 0.828125,-0.9375 0.671875,0 0.6875,0.5 0.6875,0.796875 V 0 h 1.0625 z m 0,0"
           id="path167" />
      </g>
      <g
         id="use1733"
         transform="translate(217.7952,192.64301)">
        <path
           d="m 2.890625,-1.46875 c 0,0.1875 -0.1875,0.703125 -0.71875,0.703125 -0.8125,0 -0.8125,-0.875 -0.8125,-1.3125 0,-0.5 0.171875,-1.171875 0.828125,-1.171875 H 2.25 c 0.453125,0 0.609375,0.390625 0.65625,0.65625 H 3.984375 C 3.875,-3.859375 2.828125,-4.140625 2.1875,-4.140625 c -1.359375,0 -1.921875,0.921875 -1.921875,2.234375 0,0.84375 0.34375,2.015625 1.859375,2.015625 1.484375,0 1.8125,-1.171875 1.84375,-1.578125 z m 0,0"
           id="path163" />
      </g>
      <g
         id="use1734"
         transform="translate(222.0056,192.64301)">
        <path
           d="M 0.53125,-4.046875 V 0 h 1.0625 V -4.046875 Z M 1.59375,-5.5 h -1.0625 v 0.984375 h 1.0625 z m 0,0"
           id="path160" />
      </g>
      <g
         id="use1735"
         transform="translate(224.1032,192.64301)">
        <path
           d="m 3.765625,-2.984375 c 0,-0.984375 -1.046875,-1.15625 -1.609375,-1.15625 -0.828125,0 -1.6875,0.171875 -1.8125,1.40625 H 1.375 c 0.03125,-0.234375 0.125,-0.5625 0.65625,-0.5625 0.265625,0 0.6875,0.03125 0.6875,0.46875 0,0.234375 -0.203125,0.296875 -0.359375,0.328125 l -0.96875,0.140625 c -0.671875,0.09375 -1.171875,0.5 -1.171875,1.28125 0,0.84375 0.625,1.1875 1.234375,1.1875 0.71875,0 1.0625,-0.34375 1.296875,-0.59375 C 2.78125,-0.25 2.796875,-0.1875 2.859375,0 H 4 V -0.15625 C 3.875,-0.203125 3.765625,-0.3125 3.765625,-0.796875 Z m -1.046875,1.53125 c 0,0.5 -0.46875,0.796875 -0.9375,0.796875 -0.203125,0 -0.5,-0.109375 -0.5,-0.484375 0,-0.4375 0.328125,-0.53125 0.71875,-0.609375 0.4375,-0.0625 0.625,-0.140625 0.71875,-0.21875 z m 0,0"
           id="path158" />
      </g>
      <g
         id="use1736"
         transform="translate(228.3136,192.64301)">
        <path
           d="M 1.6875,-5.140625 H 0.625 v 1.09375 H 0.078125 V -3.28125 H 0.625 v 2.453125 c 0,0.53125 0.171875,0.875 1.078125,0.875 H 1.84375 c 0.171875,0 0.328125,-0.015625 0.5,-0.015625 v -0.8125 C 2.265625,-0.765625 2.1875,-0.765625 2.125,-0.765625 c -0.4375,0 -0.4375,-0.078125 -0.4375,-0.3125 V -3.28125 H 2.34375 V -4.046875 H 1.6875 Z m 0,0"
           id="path156" />
      </g>
      <g
         id="use1737"
         transform="translate(230.82919,192.64301)">
        <path
           d="M 0.53125,-4.046875 V 0 h 1.0625 V -4.046875 Z M 1.59375,-5.5 h -1.0625 v 0.984375 h 1.0625 z m 0,0"
           id="path161" />
      </g>
      <g
         id="use1738"
         transform="translate(232.9268,192.64301)">
        <path
           d="m 4.390625,-2.015625 c 0,-1.46875 -0.984375,-2.125 -2.0625,-2.125 -1.09375,0 -2.0625,0.65625 -2.0625,2.125 0,1.453125 0.96875,2.125 2.0625,2.125 1.078125,0 2.0625,-0.671875 2.0625,-2.125 z m -1.09375,0 c 0,0.515625 -0.15625,1.21875 -0.96875,1.21875 C 1.5,-0.796875 1.359375,-1.5 1.359375,-2.015625 1.359375,-2.53125 1.5,-3.25 2.328125,-3.25 c 0.8125,0 0.96875,0.71875 0.96875,1.234375 z m 0,0"
           id="path179" />
      </g>
      <g
         id="use1739"
         transform="translate(237.55521,192.64301)">
        <path
           d="m 4.140625,-2.796875 c 0,-0.890625 -0.609375,-1.34375 -1.40625,-1.34375 -0.765625,0 -1.0625,0.453125 -1.203125,0.6875 H 1.515625 v -0.59375 H 0.5 V 0 h 1.0625 v -2.3125 c 0,-0.625 0.359375,-0.9375 0.828125,-0.9375 0.671875,0 0.6875,0.5 0.6875,0.796875 V 0 h 1.0625 z m 0,0"
           id="path168" />
      </g>
      <g
         id="use1740"
         transform="translate(242.18359,192.64301)">
        <path
           d="M 1.125,0.765625 H 0.1875 v 0.71875 h 1.859375 v -6.96875 H 0.1875 V -4.75 H 1.125 Z m 0,0"
           id="path174" />
      </g>
    </g>
    <g
       fill="#000000"
       fill-opacity="1"
       id="g1742"
       transform="matrix(0.35277777,0,0,0.35277777,30.019374,92.586252)">
      <g
         id="use1741"
         transform="translate(211.2972,205.54021)">
        <path
           d="M 2.359375,-5.59375 H 1.46875 L -0.25,0.140625 h 0.890625 z m 0,0"
           id="path154" />
      </g>
      <g
         id="use1742"
         transform="translate(213.41,205.54021)">
        <path
           d="M 1.6875,-5.140625 H 0.625 v 1.09375 H 0.078125 V -3.28125 H 0.625 v 2.453125 c 0,0.53125 0.171875,0.875 1.078125,0.875 H 1.84375 c 0.171875,0 0.328125,-0.015625 0.5,-0.015625 v -0.8125 C 2.265625,-0.765625 2.1875,-0.765625 2.125,-0.765625 c -0.4375,0 -0.4375,-0.078125 -0.4375,-0.3125 V -3.28125 H 2.34375 V -4.046875 H 1.6875 Z m 0,0"
           id="path157" />
      </g>
    </g>
    <g
       fill="#000000"
       fill-opacity="1"
       id="g1744"
       transform="matrix(0.35277777,0,0,0.35277777,30.019374,92.586252)">
      <g
         id="use1743"
         transform="translate(215.75079,205.54021)">
        <path
           d="m 4.140625,-4.046875 h -1.0625 v 2.34375 c 0,0.71875 -0.46875,0.90625 -0.828125,0.90625 -0.328125,0 -0.6875,-0.109375 -0.6875,-0.734375 V -4.046875 H 0.5 V -1.375 c 0,1.03125 0.578125,1.484375 1.375,1.484375 0.5625,0 0.984375,-0.25 1.234375,-0.671875 H 3.125 V 0 h 1.015625 z m 0,0"
           id="path165" />
      </g>
      <g
         id="use1744"
         transform="translate(220.39439,205.54021)">
        <path
           d="M 2.359375,-5.59375 H 1.46875 L -0.25,0.140625 h 0.890625 z m 0,0"
           id="path155" />
      </g>
    </g>
    <g
       fill="#000000"
       fill-opacity="1"
       id="g1753"
       transform="matrix(0.35277777,0,0,0.35277777,30.019374,92.586252)">
      <g
         id="use1745"
         transform="translate(233.2612,103.1226)">
        <path
           d="m 1.40625,-4.75 h 0.9375 V -5.484375 H 0.484375 v 6.96875 H 2.34375 v -0.71875 h -0.9375 z m 0,0"
           id="path186" />
      </g>
      <g
         id="use1746"
         transform="translate(235.79201,103.1226)">
        <path
           d="M 5.8125,-5.453125 H 4.15625 L 3.1875,-1.15625 H 3.171875 L 2.1875,-5.453125 H 0.53125 V 0 h 1.0625 V -4.5625 H 1.609375 L 2.59375,0 h 1.125 L 4.734375,-4.5625 H 4.75 V 0 h 1.0625 z m 0,0"
           id="path153" />
      </g>
      <g
         id="use1747"
         transform="translate(242.1228,103.1226)">
        <path
           d="M 2.875,-1.1875 C 2.78125,-0.890625 2.484375,-0.75 2.1875,-0.75 1.328125,-0.75 1.265625,-1.421875 1.234375,-1.734375 h 2.78125 v -0.1875 c 0,-1.84375 -1.109375,-2.21875 -1.90625,-2.21875 -1.765625,0 -1.9375,1.546875 -1.9375,2.03125 0,1.671875 0.875,2.21875 2.015625,2.21875 0.6875,0 1.5,-0.328125 1.78125,-1.296875 z M 1.265625,-2.421875 c 0.0625,-0.53125 0.328125,-0.84375 0.828125,-0.84375 0.34375,0 0.765625,0.1875 0.828125,0.84375 z m 0,0"
           id="path152" />
      </g>
      <g
         id="use1748"
         transform="translate(246.3484,103.1226)">
        <path
           d="m 3.765625,-2.984375 c 0,-0.984375 -1.046875,-1.15625 -1.609375,-1.15625 -0.828125,0 -1.6875,0.171875 -1.8125,1.40625 H 1.375 c 0.03125,-0.234375 0.125,-0.5625 0.65625,-0.5625 0.265625,0 0.6875,0.03125 0.6875,0.46875 0,0.234375 -0.203125,0.296875 -0.359375,0.328125 l -0.96875,0.140625 c -0.671875,0.09375 -1.171875,0.5 -1.171875,1.28125 0,0.84375 0.625,1.1875 1.234375,1.1875 0.71875,0 1.0625,-0.34375 1.296875,-0.59375 C 2.78125,-0.25 2.796875,-0.1875 2.859375,0 H 4 V -0.15625 C 3.875,-0.203125 3.765625,-0.3125 3.765625,-0.796875 Z m -1.046875,1.53125 c 0,0.5 -0.46875,0.796875 -0.9375,0.796875 -0.203125,0 -0.5,-0.109375 -0.5,-0.484375 0,-0.4375 0.328125,-0.53125 0.71875,-0.609375 0.4375,-0.0625 0.625,-0.140625 0.71875,-0.21875 z m 0,0"
           id="path159" />
      </g>
      <g
         id="use1749"
         transform="translate(250.57401,103.1226)">
        <path
           d="m 4.140625,-2.796875 c 0,-0.890625 -0.609375,-1.34375 -1.40625,-1.34375 -0.765625,0 -1.0625,0.453125 -1.203125,0.6875 H 1.515625 v -0.59375 H 0.5 V 0 h 1.0625 v -2.3125 c 0,-0.625 0.359375,-0.9375 0.828125,-0.9375 0.671875,0 0.6875,0.5 0.6875,0.796875 V 0 h 1.0625 z m 0,0"
           id="path169" />
      </g>
      <g
         id="use1750"
         transform="translate(255.21761,103.1226)">
        <path
           d="M 0.53125,-4.046875 V 0 h 1.0625 V -4.046875 Z M 1.59375,-5.5 h -1.0625 v 0.984375 h 1.0625 z m 0,0"
           id="path162" />
      </g>
      <g
         id="use1751"
         transform="translate(257.33041,103.1226)">
        <path
           d="m 4.140625,-2.796875 c 0,-0.890625 -0.609375,-1.34375 -1.40625,-1.34375 -0.765625,0 -1.0625,0.453125 -1.203125,0.6875 H 1.515625 v -0.59375 H 0.5 V 0 h 1.0625 v -2.3125 c 0,-0.625 0.359375,-0.9375 0.828125,-0.9375 0.671875,0 0.6875,0.5 0.6875,0.796875 V 0 h 1.0625 z m 0,0"
           id="path170" />
      </g>
      <g
         id="use1752"
         transform="translate(261.974,103.1226)">
        <path
           d="M 3.1875,-4.046875 V -3.4375 H 3.171875 c -0.140625,-0.265625 -0.4375,-0.703125 -1.1875,-0.703125 -0.890625,0 -1.6875,0.671875 -1.6875,2.078125 0,1.40625 0.78125,2.078125 1.75,2.078125 0.640625,0 0.90625,-0.28125 1.078125,-0.59375 L 3.140625,-0.5625 v 0.484375 c 0,0.640625 -0.28125,0.921875 -0.84375,0.921875 -0.625,0 -0.703125,-0.203125 -0.75,-0.40625 h -1.15625 c 0.046875,0.859375 0.9375,1.203125 1.765625,1.203125 1.984375,0 2.046875,-1.15625 2.046875,-1.859375 V -4.046875 Z M 1.390625,-2 c 0,-0.9375 0.453125,-1.234375 0.84375,-1.234375 0.59375,0 0.90625,0.53125 0.90625,1.1875 0,0.5625 -0.171875,1.171875 -0.90625,1.171875 -0.625,0 -0.84375,-0.609375 -0.84375,-1.125 z m 0,0"
           id="path151" />
      </g>
      <g
         id="use1753"
         transform="translate(266.61761,103.1226)">
        <path
           d="M 1.125,0.765625 H 0.1875 v 0.71875 h 1.859375 v -6.96875 H 0.1875 V -4.75 H 1.125 Z m 0,0"
           id="path175" />
      </g>
    </g>
    <g
       fill="#000000"
       fill-opacity="1"
       id="g1754"
       transform="matrix(0.35277777,0,0,0.35277777,30.019374,92.586252)">
      <g
         id="use1754"
         transform="translate(174.2776,130.89301)">
        <path
           d="M 1.296875,-3.484375 C 1.296875,-3.875 1.328125,-4.5 2.0625,-4.5 c 0.515625,0 0.75,0.421875 0.75,0.765625 0,0.609375 -0.390625,0.890625 -1.359375,1.59375 C 0.28125,-1.296875 0.234375,-0.625 0.203125,0 H 3.875 V -0.9375 H 1.546875 c 0.109375,-0.25 0.484375,-0.5 1.203125,-1 0.515625,-0.359375 1.125,-0.828125 1.125,-1.75 0,-1.09375 -0.828125,-1.703125 -1.859375,-1.703125 -0.46875,0 -1.75,0.15625 -1.75,1.90625 z m 0,0"
           id="path149" />
      </g>
    </g>
    <g
       fill="#000000"
       fill-opacity="1"
       id="g1755"
       transform="matrix(0.35277777,0,0,0.35277777,30.019374,92.586252)">
      <g
         id="use1755"
         transform="translate(249.092,115.9286)">
        <path
           d="M 1.296875,-3.484375 C 1.296875,-3.875 1.328125,-4.5 2.0625,-4.5 c 0.515625,0 0.75,0.421875 0.75,0.765625 0,0.609375 -0.390625,0.890625 -1.359375,1.59375 C 0.28125,-1.296875 0.234375,-0.625 0.203125,0 H 3.875 V -0.9375 H 1.546875 c 0.109375,-0.25 0.484375,-0.5 1.203125,-1 0.515625,-0.359375 1.125,-0.828125 1.125,-1.75 0,-1.09375 -0.828125,-1.703125 -1.859375,-1.703125 -0.46875,0 -1.75,0.15625 -1.75,1.90625 z m 0,0"
           id="path150" />
      </g>
    </g>
    <g
       fill="#000000"
       fill-opacity="1"
       id="g1761"
       transform="matrix(0.35277777,0,0,0.35277777,30.019374,92.586252)">
      <g
         id="use1756"
         transform="translate(56.579498,249.3221)">
        <path
           d="M 3.84375,-3.484375 H 3.671875 C 3.515625,-3.09375 3.375,-3 2.921875,-3 h -1 l 0.5,-2.28125 h 1.09375 c 0.515625,0 0.5625,0.09375 0.53125,0.625 h 0.15625 L 4.40625,-5.546875 h -3.25 L 1.125,-5.375 h 0.09375 c 0.4375,0 0.46875,0.234375 0.390625,0.59375 l -0.8125,3.84375 C 0.65625,-0.34375 0.53125,-0.1875 0.125,-0.171875 L 0.09375,0 H 1.875 l 0.03125,-0.171875 c -0.3125,0 -0.5625,-0.078125 -0.5,-0.375 l 0.46875,-2.1875 h 0.796875 c 0.5,0 0.640625,0.109375 0.734375,0.546875 H 3.5625 Z m 0,0"
           id="path148" />
      </g>
      <g
         id="use1757"
         transform="translate(60.6395,249.3221)">
        <path
           d="M 1.953125,-3.375 H 1.75 l -1.15625,0.25 -0.046875,0.203125 C 0.703125,-2.9375 0.890625,-2.96875 0.9375,-2.96875 c 0.296875,0 0.3125,0.171875 0.25,0.484375 L 0.796875,-0.6875 c -0.09375,0.484375 -0.15625,0.515625 -0.640625,0.515625 L 0.125,0 h 1.75 l 0.03125,-0.171875 c -0.578125,0 -0.609375,-0.0625 -0.5,-0.640625 z M 1.96875,-4.453125 c 0,-0.1875 -0.140625,-0.328125 -0.3125,-0.328125 -0.1875,0 -0.34375,0.140625 -0.34375,0.328125 0,0.171875 0.15625,0.328125 0.34375,0.328125 0.171875,0 0.3125,-0.15625 0.3125,-0.328125 z m 0,0"
           id="path147" />
      </g>
      <g
         id="use1758"
         transform="translate(63.039501,249.3221)">
        <path
           d="m 3.640625,-3.40625 c -2.234375,0 -3.1875,1.328125 -3.1875,2.359375 0,0.5625 0.265625,0.953125 0.75,1.140625 C 0.328125,0.5 -0.34375,1.078125 -0.34375,1.703125 -0.34375,2.265625 0.125,2.75 1.046875,2.75 c 0.71875,0 1.40625,-0.234375 1.546875,-0.953125 z m -1.125,2.8125 c -0.1875,0.234375 -0.421875,0.359375 -0.6875,0.359375 -0.484375,0 -0.78125,-0.359375 -0.78125,-0.984375 0,-0.375 0.140625,-0.859375 0.421875,-1.21875 C 1.734375,-2.75 2.265625,-3.046875 3.03125,-3 Z M 1.984375,1.9375 C 1.90625,2.3125 1.75,2.515625 1.265625,2.515625 0.6875,2.515625 0.1875,2.046875 0.1875,1.5 0.1875,1.3125 0.28125,1.03125 0.484375,0.8125 0.875,0.4375 1.1875,0.296875 1.484375,0.1875 1.796875,0.09375 2.09375,0.015625 2.4375,-0.28125 l 0.015625,0.015625 z m 0,0"
           id="path146" />
      </g>
      <g
         id="use1759"
         transform="translate(66.889503,249.3221)">
        <path
           d="M 3.890625,-3.40625 H 3.6875 L 2.703125,-3.125 2.671875,-2.953125 c 0.0625,0 0.09375,-0.015625 0.1875,-0.015625 0.203125,0 0.328125,0.140625 0.265625,0.4375 l -0.34375,1.625 c -0.34375,0.390625 -0.765625,0.640625 -1.078125,0.640625 -0.28125,0 -0.5,-0.25 -0.5,-0.53125 0,-0.09375 0.015625,-0.1875 0.0625,-0.40625 L 1.71875,-3.40625 H 1.515625 L 0.53125,-3.125 0.5,-2.953125 c 0.078125,0 0.125,0 0.15625,0 0.3125,0 0.359375,0.125 0.296875,0.46875 l -0.25,1.15625 C 0.65625,-1.09375 0.625,-0.9375 0.625,-0.75 c 0,0.515625 0.328125,0.859375 0.78125,0.859375 0.359375,0 0.734375,-0.1875 1.28125,-0.671875 L 2.703125,-0.546875 2.5625,0.09375 3.71875,-0.09375 3.765625,-0.265625 c -0.34375,0.03125 -0.421875,-0.0625 -0.421875,-0.296875 0,-0.125 0,-0.25 0.046875,-0.421875 z m 0,0"
           id="path145" />
      </g>
      <g
         id="use1760"
         transform="translate(71.059502,249.3221)">
        <path
           d="M 1.6875,-3.34375 H 1.484375 l -1,0.21875 -0.03125,0.203125 c 0.078125,-0.015625 0.1875,-0.03125 0.328125,-0.03125 0.265625,0 0.265625,0.265625 0.203125,0.609375 L 0.65625,-0.8125 c -0.125,0.578125 -0.1875,0.640625 -0.578125,0.640625 L 0.046875,0 h 1.625 l 0.03125,-0.171875 H 1.5625 C 1.234375,-0.171875 1.125,-0.3125 1.1875,-0.625 L 1.296875,-1.140625 C 1.40625,-1.65625 1.890625,-2.8125 2.171875,-2.8125 2.25,-2.8125 2.3125,-2.765625 2.5625,-2.515625 L 2.90625,-3.125 C 2.765625,-3.3125 2.65625,-3.40625 2.5,-3.40625 c -0.234375,0 -0.515625,0.21875 -0.734375,0.625 -0.125,0.21875 -0.203125,0.375 -0.328125,0.71875 L 1.421875,-2.09375 Z m 0,0"
           id="path144" />
      </g>
      <g
         id="use1761"
         transform="translate(73.869499,249.3221)">
        <path
           d="m 0.90625,-1.46875 c 1.296875,-0.1875 2.125,-0.78125 2.125,-1.359375 0,-0.359375 -0.25,-0.578125 -0.65625,-0.578125 -1.03125,0 -2.0625,1.1875 -2.0625,2.40625 0,0.703125 0.390625,1.109375 1.09375,1.109375 0.609375,0 1,-0.265625 1.5,-1.046875 L 2.8125,-1.0625 c -0.375,0.5 -0.734375,0.71875 -1.125,0.71875 -0.5,0 -0.890625,-0.328125 -0.78125,-1.125 z m 0.03125,-0.1875 c 0.046875,-0.515625 0.5,-1.390625 1.078125,-1.390625 0.21875,0 0.421875,0.203125 0.421875,0.390625 0,0.515625 -0.625,0.84375 -1.5,1 z m 0,0"
           id="path143" />
      </g>
    </g>
    <g
       fill="#000000"
       fill-opacity="1"
       id="g1765"
       transform="matrix(0.35277777,0,0,0.35277777,30.019374,92.586252)">
      <g
         id="use1762"
         transform="translate(76.999001,249.3221)" />
      <g
         id="use1763"
         transform="translate(79.249001,249.3221)">
        <path
           d="m 1.609375,-4.921875 c 0.46875,-0.390625 0.78125,-0.546875 1.15625,-0.546875 0.453125,0 0.796875,0.34375 0.796875,0.84375 0,0.71875 -0.6875,1.28125 -1.859375,1.546875 l -0.03125,0.171875 c 0.171875,-0.015625 0.25,-0.015625 0.34375,-0.015625 1,0 1.1875,0.625 1.1875,0.96875 0,0.4375 -0.359375,1.640625 -1.578125,1.640625 -0.4375,0 -0.765625,-0.140625 -1.265625,-0.484375 l -0.125,0.125 c 0.5,0.53125 1.046875,0.78125 1.640625,0.78125 1.109375,0 2.03125,-0.84375 2.03125,-1.875 0,-0.6875 -0.46875,-1.265625 -1.203125,-1.4375 v -0.03125 c 1.046875,-0.359375 1.5625,-0.90625 1.5625,-1.625 0,-0.578125 -0.46875,-0.984375 -1.109375,-0.984375 -0.59375,0 -1.203125,0.296875 -1.671875,0.796875 z m 0,0"
           id="path142" />
      </g>
      <g
         id="use1764"
         transform="translate(83.829002,249.3221)">
        <path
           d="m 1.078125,-0.734375 c -0.234375,0 -0.421875,0.1875 -0.421875,0.421875 0,0.21875 0.1875,0.421875 0.421875,0.421875 C 1.3125,0.109375 1.5,-0.09375 1.5,-0.3125 1.5,-0.546875 1.3125,-0.734375 1.078125,-0.734375 Z m 0,0"
           id="path141" />
      </g>
      <g
         id="use1765"
         transform="translate(86.429001,249.3221)">
        <path
           d="M 3.34375,-5.875 H 3.1875 l -1.296875,0.578125 -0.046875,0.1875 c 0.109375,-0.03125 0.421875,-0.09375 0.484375,-0.09375 0.140625,0 0.234375,0.09375 0.234375,0.25 0,0.078125 -0.03125,0.296875 -0.078125,0.46875 L 1.6875,-0.65625 c -0.09375,0.390625 -0.234375,0.484375 -0.625,0.484375 H 0.921875 L 0.875,0 h 1.96875 l 0.046875,-0.171875 h -0.1875 c -0.375,0 -0.484375,-0.171875 -0.359375,-0.75 z m 0,0"
           id="path140" />
      </g>
    </g>
    <g
       fill="#000000"
       fill-opacity="1"
       id="g1842"
       transform="matrix(0.35277777,0,0,0.35277777,30.019374,92.586252)">
      <g
         id="use1768"
         transform="translate(96.008698,249.3221)">
        <path
           d="m 4.15625,-0.734375 c 0.125,0.390625 -0.0625,0.5625 -0.453125,0.5625 V 0 H 5.71875 v -0.171875 c -0.515625,0 -0.65625,-0.15625 -0.8125,-0.6875 l -1.671875,-4.9375 H 2.65625 L 1.0625,-1.0625 C 0.890625,-0.546875 0.765625,-0.25 0.21875,-0.171875 V 0 h 1.484375 v -0.171875 c -0.609375,-0.015625 -0.5,-0.4375 -0.3125,-1 L 1.78125,-2.3125 H 3.625 Z M 3.5,-2.671875 H 1.890625 L 2.6875,-5.09375 h 0.015625 z m 0,0"
           id="path139" />
      </g>
      <g
         id="use1769"
         transform="translate(101.9487,249.3221)" />
      <g
         id="use1770"
         transform="translate(104.1987,249.3221)">
        <path
           d="m 3.75,-2.40625 c 0,-0.84375 -0.59375,-1.234375 -1.1875,-1.234375 -0.453125,0 -0.78125,0.1875 -1.234375,0.703125 V -6.28125 H 1.15625 l -1.140625,0.125 v 0.171875 c 0.5,0 0.640625,0.0625 0.640625,0.53125 v 4.609375 c 0,0.5625 -0.109375,0.65625 -0.640625,0.671875 V 0 h 1.90625 v -0.171875 c -0.4375,0 -0.59375,-0.109375 -0.59375,-0.484375 v -1.9375 c 0.34375,-0.46875 0.625,-0.671875 1.03125,-0.671875 0.4375,0 0.703125,0.3125 0.703125,0.78125 v 1.75 c 0,0.453125 -0.109375,0.5625 -0.578125,0.5625 V 0 H 4.3125 V -0.171875 C 3.84375,-0.171875 3.75,-0.3125 3.75,-0.84375 Z m 0,0"
           id="path134" />
      </g>
      <g
         id="use1771"
         transform="translate(108.5787,249.3221)">
        <path
           d="m 1.609375,-2.8125 c -0.125,-0.3125 -0.015625,-0.5 0.25,-0.546875 V -3.53125 H 0.15625 v 0.171875 c 0.40625,0.015625 0.546875,0.125 0.71875,0.53125 L 2.15625,0.09375 1.6875,1.375 C 1.46875,2 1.21875,2.25 0.796875,2.25 0.671875,2.25 0.59375,2.234375 0.453125,2.171875 L 0.21875,2.78125 c 0.1875,0.109375 0.296875,0.15625 0.4375,0.15625 0.4375,0 0.890625,-0.484375 1.171875,-1.296875 L 3.234375,-2.53125 C 3.4375,-3.125 3.671875,-3.359375 4.046875,-3.359375 V -3.53125 h -1.25 v 0.171875 c 0.390625,0.015625 0.421875,0.25 0.28125,0.671875 l -0.625,1.875 z m 0,0"
           id="path131" />
      </g>
      <g
         id="use1772"
         transform="translate(112.7487,249.3221)">
        <path
           d="m 0.703125,2.125 c 0,0.390625 -0.140625,0.484375 -0.609375,0.484375 V 2.78125 H 1.984375 V 2.609375 c -0.5,0 -0.59375,-0.15625 -0.59375,-0.59375 V -0.3125 c 0.40625,0.3125 0.6875,0.421875 1.0625,0.421875 1.015625,0 1.765625,-0.8125 1.765625,-1.90625 0,-1.046875 -0.671875,-1.84375 -1.59375,-1.84375 -0.453125,0 -0.78125,0.15625 -1.234375,0.59375 v -0.59375 H 1.21875 l -1.125,0.109375 v 0.171875 c 0.53125,0 0.609375,0.0625 0.609375,0.546875 z m 0.6875,-4.90625 c 0.328125,-0.375 0.59375,-0.53125 0.953125,-0.53125 0.671875,0 1.140625,0.6875 1.140625,1.640625 C 3.484375,-0.796875 3,-0.125 2.375,-0.125 c -0.34375,0 -0.71875,-0.171875 -0.984375,-0.4375 z m 0,0"
           id="path128" />
      </g>
      <g
         id="use1773"
         transform="translate(117.3287,249.3221)">
        <path
           d="m 4.234375,-1.765625 c 0,-1.078125 -0.828125,-1.875 -1.9375,-1.875 -1.109375,0 -1.953125,0.796875 -1.953125,1.875 0,1.078125 0.84375,1.875 1.953125,1.875 1.109375,0 1.9375,-0.796875 1.9375,-1.875 z m -0.75,0 c 0,0.859375 -0.359375,1.671875 -1.1875,1.671875 -0.828125,0 -1.203125,-0.75 -1.203125,-1.671875 0,-1.015625 0.453125,-1.671875 1.203125,-1.671875 0.8125,0 1.1875,0.78125 1.1875,1.671875 z m 0,0"
           id="path113" />
      </g>
      <g
         id="use1774"
         transform="translate(121.9087,249.3221)">
        <path
           d="M 1.515625,-4.734375 H 1.34375 c -0.296875,0.609375 -0.703125,1.03125 -1.1875,1.28125 v 0.15625 h 0.671875 v 2.375 c 0,0.609375 0.421875,1.03125 1.015625,1.03125 0.40625,0 0.765625,-0.203125 1.078125,-0.59375 l -0.109375,-0.125 c -0.21875,0.234375 -0.40625,0.34375 -0.65625,0.34375 -0.390625,0 -0.640625,-0.25 -0.640625,-0.75 v -2.28125 h 1.21875 v -0.25 h -1.21875 z m 0,0"
           id="path106" />
      </g>
      <g
         id="use1775"
         transform="translate(124.8287,249.3221)">
        <path
           d="m 3.75,-2.40625 c 0,-0.84375 -0.59375,-1.234375 -1.1875,-1.234375 -0.453125,0 -0.78125,0.1875 -1.234375,0.703125 V -6.28125 H 1.15625 l -1.140625,0.125 v 0.171875 c 0.5,0 0.640625,0.0625 0.640625,0.53125 v 4.609375 c 0,0.5625 -0.109375,0.65625 -0.640625,0.671875 V 0 h 1.90625 v -0.171875 c -0.4375,0 -0.59375,-0.109375 -0.59375,-0.484375 v -1.9375 c 0.34375,-0.46875 0.625,-0.671875 1.03125,-0.671875 0.4375,0 0.703125,0.3125 0.703125,0.78125 v 1.75 c 0,0.453125 -0.109375,0.5625 -0.578125,0.5625 V 0 H 4.3125 V -0.171875 C 3.84375,-0.171875 3.75,-0.3125 3.75,-0.84375 Z m 0,0"
           id="path135" />
      </g>
      <g
         id="use1776"
         transform="translate(129.20869,249.3221)">
        <path
           d="m 3.671875,-2.15625 c 0.046875,-0.828125 -0.71875,-1.484375 -1.53125,-1.484375 -1,0 -1.78125,0.84375 -1.78125,1.90625 0,1.078125 0.796875,1.84375 1.90625,1.84375 0.625,0 1.03125,-0.203125 1.46875,-0.765625 v -0.25 c -0.515625,0.5625 -0.765625,0.734375 -1.25,0.734375 C 2,-0.171875 1.046875,-0.5625 1.0625,-2.15625 Z M 1.0625,-2.328125 C 1.109375,-2.984375 1.453125,-3.4375 2.046875,-3.4375 2.5,-3.4375 3.03125,-3.109375 3,-2.328125 Z m 0,0"
           id="path58" />
      </g>
      <g
         id="use1777"
         transform="translate(133.26871,249.3221)">
        <path
           d="M 1.515625,-4.734375 H 1.34375 c -0.296875,0.609375 -0.703125,1.03125 -1.1875,1.28125 v 0.15625 h 0.671875 v 2.375 c 0,0.609375 0.421875,1.03125 1.015625,1.03125 0.40625,0 0.765625,-0.203125 1.078125,-0.59375 l -0.109375,-0.125 c -0.21875,0.234375 -0.40625,0.34375 -0.65625,0.34375 -0.390625,0 -0.640625,-0.25 -0.640625,-0.75 v -2.28125 h 1.21875 v -0.25 h -1.21875 z m 0,0"
           id="path107" />
      </g>
      <g
         id="use1778"
         transform="translate(136.18871,249.3221)">
        <path
           d="M 1.484375,-3.640625 H 1.3125 L 0.140625,-3.53125 v 0.171875 c 0.515625,0 0.671875,0.046875 0.671875,0.53125 v 2.171875 c 0,0.421875 -0.125,0.484375 -0.671875,0.484375 V 0 h 1.9375 v -0.171875 c -0.5,0 -0.59375,-0.140625 -0.59375,-0.484375 z M 1.15625,-5.46875 c -0.234375,0 -0.4375,0.1875 -0.4375,0.421875 0,0.25 0.203125,0.453125 0.4375,0.453125 0.25,0 0.4375,-0.203125 0.4375,-0.453125 0,-0.234375 -0.1875,-0.421875 -0.4375,-0.421875 z m 0,0"
           id="path52" />
      </g>
      <g
         id="use1779"
         transform="translate(138.4787,249.3221)">
        <path
           d="M 3.59375,-3.640625 H 3.421875 c -0.0625,0.125 -0.15625,0.203125 -0.234375,0.203125 -0.1875,0 -0.484375,-0.203125 -1,-0.203125 -1.015625,0 -1.84375,0.875 -1.84375,1.953125 0,1.0625 0.734375,1.796875 1.78125,1.796875 0.640625,0 1.1875,-0.265625 1.5625,-0.78125 V -0.9375 c -0.375,0.515625 -0.890625,0.75 -1.3125,0.75 -0.71875,0 -1.328125,-0.8125 -1.328125,-1.78125 0,-0.875 0.484375,-1.46875 1.1875,-1.46875 0.578125,0 1.03125,0.40625 1.1875,1.046875 H 3.59375 Z m 0,0"
           id="path49" />
      </g>
      <g
         id="use1780"
         transform="translate(142.3287,249.3221)">
        <path
           d="m 2.9375,-2.34375 c 0,-0.953125 -0.6875,-1.296875 -1.28125,-1.296875 -0.640625,0 -1.15625,0.4375 -1.3125,1.09375 L 0.53125,-2.5 c 0.15625,-0.515625 0.53125,-0.765625 0.9375,-0.765625 0.5,0 0.796875,0.359375 0.796875,0.859375 v 0.265625 c -0.578125,0.34375 -1.96875,0.296875 -1.96875,1.3125 0,0.515625 0.46875,0.9375 1.015625,0.9375 0.375,0 0.59375,-0.125 0.953125,-0.5 0.109375,0.34375 0.296875,0.5 0.59375,0.5 0.40625,0 0.65625,-0.28125 0.6875,-0.71875 H 3.375 c -0.078125,0.25 -0.125,0.34375 -0.234375,0.34375 -0.15625,0 -0.203125,-0.140625 -0.203125,-0.546875 z m -0.671875,1.625 C 2.125,-0.421875 1.734375,-0.265625 1.53125,-0.265625 c -0.296875,0 -0.546875,-0.296875 -0.546875,-0.65625 0,-0.71875 0.609375,-0.703125 1.28125,-1 z m 0,0"
           id="path41" />
      </g>
      <g
         id="use1781"
         transform="translate(145.9787,249.3221)">
        <path
           d="m 0.875,-0.84375 c 0,0.53125 -0.109375,0.671875 -0.46875,0.671875 H 0.234375 V 0 h 1.96875 v -0.171875 h -0.09375 c -0.421875,0 -0.546875,-0.125 -0.546875,-0.5 V -6.28125 H 1.390625 l -1.21875,0.125 v 0.171875 H 0.40625 c 0.359375,0 0.46875,0.140625 0.46875,0.46875 z m 0,0"
           id="path37" />
      </g>
      <g
         id="use1782"
         transform="translate(148.37869,249.3221)" />
      <g
         id="use1783"
         transform="translate(150.62869,249.3221)">
        <path
           d="M 1.515625,-4.734375 H 1.34375 c -0.296875,0.609375 -0.703125,1.03125 -1.1875,1.28125 v 0.15625 h 0.671875 v 2.375 c 0,0.609375 0.421875,1.03125 1.015625,1.03125 0.40625,0 0.765625,-0.203125 1.078125,-0.59375 l -0.109375,-0.125 c -0.21875,0.234375 -0.40625,0.34375 -0.65625,0.34375 -0.390625,0 -0.640625,-0.25 -0.640625,-0.75 v -2.28125 h 1.21875 v -0.25 h -1.21875 z m 0,0"
           id="path108" />
      </g>
      <g
         id="use1784"
         transform="translate(153.54871,249.3221)">
        <path
           d="m 3.75,-2.40625 c 0,-0.84375 -0.59375,-1.234375 -1.1875,-1.234375 -0.453125,0 -0.78125,0.1875 -1.234375,0.703125 V -6.28125 H 1.15625 l -1.140625,0.125 v 0.171875 c 0.5,0 0.640625,0.0625 0.640625,0.53125 v 4.609375 c 0,0.5625 -0.109375,0.65625 -0.640625,0.671875 V 0 h 1.90625 v -0.171875 c -0.4375,0 -0.59375,-0.109375 -0.59375,-0.484375 v -1.9375 c 0.34375,-0.46875 0.625,-0.671875 1.03125,-0.671875 0.4375,0 0.703125,0.3125 0.703125,0.78125 v 1.75 c 0,0.453125 -0.109375,0.5625 -0.578125,0.5625 V 0 H 4.3125 V -0.171875 C 3.84375,-0.171875 3.75,-0.3125 3.75,-0.84375 Z m 0,0"
           id="path136" />
      </g>
      <g
         id="use1785"
         transform="translate(157.9287,249.3221)">
        <path
           d="m 1.484375,-2.609375 c 0.3125,-0.3125 0.515625,-0.4375 0.75,-0.4375 0.234375,0 0.546875,0.15625 0.828125,0.3125 l 0.28125,-0.625 c -0.1875,-0.15625 -0.453125,-0.28125 -0.65625,-0.28125 -0.234375,0 -0.546875,0.203125 -1.203125,0.765625 V -3.640625 H 1.3125 l -1.25,0.109375 v 0.171875 c 0.609375,0 0.734375,0.0625 0.734375,0.578125 v 1.9375 c 0,0.53125 -0.0625,0.671875 -0.59375,0.671875 V 0 H 2.0625 v -0.171875 c -0.46875,0 -0.578125,-0.109375 -0.578125,-0.5 z m 0,0"
           id="path29" />
      </g>
      <g
         id="use1786"
         transform="translate(161.3687,249.3221)">
        <path
           d="m 3.671875,-2.15625 c 0.046875,-0.828125 -0.71875,-1.484375 -1.53125,-1.484375 -1,0 -1.78125,0.84375 -1.78125,1.90625 0,1.078125 0.796875,1.84375 1.90625,1.84375 0.625,0 1.03125,-0.203125 1.46875,-0.765625 v -0.25 c -0.515625,0.5625 -0.765625,0.734375 -1.25,0.734375 C 2,-0.171875 1.046875,-0.5625 1.0625,-2.15625 Z M 1.0625,-2.328125 C 1.109375,-2.984375 1.453125,-3.4375 2.046875,-3.4375 2.5,-3.4375 3.03125,-3.109375 3,-2.328125 Z m 0,0"
           id="path59" />
      </g>
      <g
         id="use1787"
         transform="translate(165.4287,249.3221)">
        <path
           d="m 3.671875,-2.15625 c 0.046875,-0.828125 -0.71875,-1.484375 -1.53125,-1.484375 -1,0 -1.78125,0.84375 -1.78125,1.90625 0,1.078125 0.796875,1.84375 1.90625,1.84375 0.625,0 1.03125,-0.203125 1.46875,-0.765625 v -0.25 c -0.515625,0.5625 -0.765625,0.734375 -1.25,0.734375 C 2,-0.171875 1.046875,-0.5625 1.0625,-2.15625 Z M 1.0625,-2.328125 C 1.109375,-2.984375 1.453125,-3.4375 2.046875,-3.4375 2.5,-3.4375 3.03125,-3.109375 3,-2.328125 Z m 0,0"
           id="path60" />
      </g>
      <g
         id="use1788"
         transform="translate(169.48869,249.3221)">
        <path
           d="M 2.546875,-1.953125 H 0.578125 V -1.5625 h 1.96875 z m 0,0"
           id="path28" />
      </g>
      <g
         id="use1789"
         transform="translate(172.6187,249.3221)">
        <path
           d="m 1.5625,-2.84375 c -0.15625,-0.390625 -0.09375,-0.5 0.296875,-0.515625 V -3.53125 h -1.71875 v 0.171875 c 0.375,0 0.5625,0.15625 0.65625,0.390625 L 2.03125,0.078125 h 0.171875 l 1.109375,-2.78125 1.125,2.78125 h 0.171875 l 1.09375,-2.78125 c 0.234375,-0.59375 0.34375,-0.65625 0.828125,-0.65625 V -3.53125 h -1.375 v 0.171875 C 5.625,-3.34375 5.6875,-3.15625 5.515625,-2.703125 L 4.78125,-0.859375 3.984375,-2.84375 c -0.109375,-0.3125 -0.0625,-0.5 0.40625,-0.515625 V -3.53125 H 2.6875 v 0.171875 c 0.265625,0.015625 0.359375,0.078125 0.515625,0.375 l -0.828125,2.125 z m 0,0"
           id="path26" />
      </g>
      <g
         id="use1790"
         transform="translate(179.2887,249.3221)">
        <path
           d="m 2.9375,-2.34375 c 0,-0.953125 -0.6875,-1.296875 -1.28125,-1.296875 -0.640625,0 -1.15625,0.4375 -1.3125,1.09375 L 0.53125,-2.5 c 0.15625,-0.515625 0.53125,-0.765625 0.9375,-0.765625 0.5,0 0.796875,0.359375 0.796875,0.859375 v 0.265625 c -0.578125,0.34375 -1.96875,0.296875 -1.96875,1.3125 0,0.515625 0.46875,0.9375 1.015625,0.9375 0.375,0 0.59375,-0.125 0.953125,-0.5 0.109375,0.34375 0.296875,0.5 0.59375,0.5 0.40625,0 0.65625,-0.28125 0.6875,-0.71875 H 3.375 c -0.078125,0.25 -0.125,0.34375 -0.234375,0.34375 -0.15625,0 -0.203125,-0.140625 -0.203125,-0.546875 z m -0.671875,1.625 C 2.125,-0.421875 1.734375,-0.265625 1.53125,-0.265625 c -0.296875,0 -0.546875,-0.296875 -0.546875,-0.65625 0,-0.71875 0.609375,-0.703125 1.28125,-1 z m 0,0"
           id="path42" />
      </g>
      <g
         id="use1791"
         transform="translate(182.93871,249.3221)">
        <path
           d="m 1.609375,-2.8125 c -0.125,-0.3125 -0.015625,-0.5 0.25,-0.546875 V -3.53125 H 0.15625 v 0.171875 c 0.40625,0.015625 0.546875,0.125 0.71875,0.53125 L 2.15625,0.09375 1.6875,1.375 C 1.46875,2 1.21875,2.25 0.796875,2.25 0.671875,2.25 0.59375,2.234375 0.453125,2.171875 L 0.21875,2.78125 c 0.1875,0.109375 0.296875,0.15625 0.4375,0.15625 0.4375,0 0.890625,-0.484375 1.171875,-1.296875 L 3.234375,-2.53125 C 3.4375,-3.125 3.671875,-3.359375 4.046875,-3.359375 V -3.53125 h -1.25 v 0.171875 c 0.390625,0.015625 0.421875,0.25 0.28125,0.671875 l -0.625,1.875 z m 0,0"
           id="path132" />
      </g>
      <g
         id="use1792"
         transform="translate(187.1087,249.3221)" />
      <g
         id="use1793"
         transform="translate(189.3587,249.3221)">
        <path
           d="M 3.59375,-3.640625 H 3.421875 c -0.0625,0.125 -0.15625,0.203125 -0.234375,0.203125 -0.1875,0 -0.484375,-0.203125 -1,-0.203125 -1.015625,0 -1.84375,0.875 -1.84375,1.953125 0,1.0625 0.734375,1.796875 1.78125,1.796875 0.640625,0 1.1875,-0.265625 1.5625,-0.78125 V -0.9375 c -0.375,0.515625 -0.890625,0.75 -1.3125,0.75 -0.71875,0 -1.328125,-0.8125 -1.328125,-1.78125 0,-0.875 0.484375,-1.46875 1.1875,-1.46875 0.578125,0 1.03125,0.40625 1.1875,1.046875 H 3.59375 Z m 0,0"
           id="path50" />
      </g>
      <g
         id="use1794"
         transform="translate(193.20869,249.3221)">
        <path
           d="m 4.234375,-1.765625 c 0,-1.078125 -0.828125,-1.875 -1.9375,-1.875 -1.109375,0 -1.953125,0.796875 -1.953125,1.875 0,1.078125 0.84375,1.875 1.953125,1.875 1.109375,0 1.9375,-0.796875 1.9375,-1.875 z m -0.75,0 c 0,0.859375 -0.359375,1.671875 -1.1875,1.671875 -0.828125,0 -1.203125,-0.75 -1.203125,-1.671875 0,-1.015625 0.453125,-1.671875 1.203125,-1.671875 0.8125,0 1.1875,0.78125 1.1875,1.671875 z m 0,0"
           id="path114" />
      </g>
      <g
         id="use1795"
         transform="translate(197.7887,249.3221)">
        <path
           d="M 3.828125,-6.28125 H 3.65625 l -1.171875,0.125 v 0.171875 H 2.6875 c 0.34375,0 0.46875,0.09375 0.46875,0.609375 v 2.171875 c -0.453125,-0.3125 -0.8125,-0.4375 -1.203125,-0.4375 -0.90625,0 -1.65625,0.796875 -1.65625,1.796875 0,0.828125 0.5625,1.84375 2.0625,1.84375 h 2.0625 v -0.171875 c -0.453125,0 -0.59375,-0.125 -0.59375,-0.515625 z M 3.15625,-0.703125 c 0,0.390625 -0.171875,0.546875 -0.5625,0.546875 -1.15625,0 -1.546875,-0.984375 -1.546875,-1.828125 0,-0.859375 0.4375,-1.453125 1.078125,-1.453125 0.359375,0 0.75,0.234375 1.03125,0.609375 z m 0,0"
           id="path24" />
      </g>
      <g
         id="use1796"
         transform="translate(202.3687,249.3221)">
        <path
           d="m 3.671875,-2.15625 c 0.046875,-0.828125 -0.71875,-1.484375 -1.53125,-1.484375 -1,0 -1.78125,0.84375 -1.78125,1.90625 0,1.078125 0.796875,1.84375 1.90625,1.84375 0.625,0 1.03125,-0.203125 1.46875,-0.765625 v -0.25 c -0.515625,0.5625 -0.765625,0.734375 -1.25,0.734375 C 2,-0.171875 1.046875,-0.5625 1.0625,-2.15625 Z M 1.0625,-2.328125 C 1.109375,-2.984375 1.453125,-3.4375 2.046875,-3.4375 2.5,-3.4375 3.03125,-3.109375 3,-2.328125 Z m 0,0"
           id="path98" />
      </g>
      <g
         id="use1797"
         transform="translate(206.4287,249.3221)" />
      <g
         id="use1798"
         transform="translate(208.6787,249.3221)">
        <path
           d="m 1.46875,-3.265625 h 0.875 V -3.53125 h -0.875 v -1.703125 c 0,-0.546875 0.265625,-0.828125 0.65625,-0.828125 0.421875,0 0.71875,0.296875 0.671875,0.96875 H 2.96875 L 3.3125,-5.984375 c -0.25,-0.1875 -0.609375,-0.296875 -1,-0.296875 -1.109375,0 -1.515625,1.046875 -1.515625,1.90625 v 0.6875 c -0.15625,0.109375 -0.25,0.140625 -0.5,0.25 v 0.171875 h 0.5 v 2.625 c 0,0.34375 -0.140625,0.46875 -0.5,0.46875 H 0.140625 V 0 H 2.15625 V -0.171875 H 1.984375 c -0.328125,0 -0.515625,-0.125 -0.515625,-0.53125 z m 0,0"
           id="path22" />
      </g>
      <g
         id="use1799"
         transform="translate(211.2787,249.3221)">
        <path
           d="m 4.234375,-1.765625 c 0,-1.078125 -0.828125,-1.875 -1.9375,-1.875 -1.109375,0 -1.953125,0.796875 -1.953125,1.875 0,1.078125 0.84375,1.875 1.953125,1.875 1.109375,0 1.9375,-0.796875 1.9375,-1.875 z m -0.75,0 c 0,0.859375 -0.359375,1.671875 -1.1875,1.671875 -0.828125,0 -1.203125,-0.75 -1.203125,-1.671875 0,-1.015625 0.453125,-1.671875 1.203125,-1.671875 0.8125,0 1.1875,0.78125 1.1875,1.671875 z m 0,0"
           id="path115" />
      </g>
      <g
         id="use1800"
         transform="translate(215.8587,249.3221)">
        <path
           d="m 1.484375,-2.609375 c 0.3125,-0.3125 0.515625,-0.4375 0.75,-0.4375 0.234375,0 0.546875,0.15625 0.828125,0.3125 l 0.28125,-0.625 c -0.1875,-0.15625 -0.453125,-0.28125 -0.65625,-0.28125 -0.234375,0 -0.546875,0.203125 -1.203125,0.765625 V -3.640625 H 1.3125 l -1.25,0.109375 v 0.171875 c 0.609375,0 0.734375,0.0625 0.734375,0.578125 v 1.9375 c 0,0.53125 -0.0625,0.671875 -0.59375,0.671875 V 0 H 2.0625 v -0.171875 c -0.46875,0 -0.578125,-0.109375 -0.578125,-0.5 z m 0,0"
           id="path30" />
      </g>
      <g
         id="use1801"
         transform="translate(219.29871,249.3221)" />
      <g
         id="use1802"
         transform="translate(221.54871,249.3221)">
        <path
           d="M 1.515625,-4.734375 H 1.34375 c -0.296875,0.609375 -0.703125,1.03125 -1.1875,1.28125 v 0.15625 h 0.671875 v 2.375 c 0,0.609375 0.421875,1.03125 1.015625,1.03125 0.40625,0 0.765625,-0.203125 1.078125,-0.59375 l -0.109375,-0.125 c -0.21875,0.234375 -0.40625,0.34375 -0.65625,0.34375 -0.390625,0 -0.640625,-0.25 -0.640625,-0.75 v -2.28125 h 1.21875 v -0.25 h -1.21875 z m 0,0"
           id="path109" />
      </g>
      <g
         id="use1803"
         transform="translate(224.4687,249.3221)">
        <path
           d="m 3.75,-2.40625 c 0,-0.84375 -0.59375,-1.234375 -1.1875,-1.234375 -0.453125,0 -0.78125,0.1875 -1.234375,0.703125 V -6.28125 H 1.15625 l -1.140625,0.125 v 0.171875 c 0.5,0 0.640625,0.0625 0.640625,0.53125 v 4.609375 c 0,0.5625 -0.109375,0.65625 -0.640625,0.671875 V 0 h 1.90625 v -0.171875 c -0.4375,0 -0.59375,-0.109375 -0.59375,-0.484375 v -1.9375 c 0.34375,-0.46875 0.625,-0.671875 1.03125,-0.671875 0.4375,0 0.703125,0.3125 0.703125,0.78125 v 1.75 c 0,0.453125 -0.109375,0.5625 -0.578125,0.5625 V 0 H 4.3125 V -0.171875 C 3.84375,-0.171875 3.75,-0.3125 3.75,-0.84375 Z m 0,0"
           id="path137" />
      </g>
      <g
         id="use1804"
         transform="translate(228.84869,249.3221)">
        <path
           d="m 3.671875,-2.15625 c 0.046875,-0.828125 -0.71875,-1.484375 -1.53125,-1.484375 -1,0 -1.78125,0.84375 -1.78125,1.90625 0,1.078125 0.796875,1.84375 1.90625,1.84375 0.625,0 1.03125,-0.203125 1.46875,-0.765625 v -0.25 c -0.515625,0.5625 -0.765625,0.734375 -1.25,0.734375 C 2,-0.171875 1.046875,-0.5625 1.0625,-2.15625 Z M 1.0625,-2.328125 C 1.109375,-2.984375 1.453125,-3.4375 2.046875,-3.4375 2.5,-3.4375 3.03125,-3.109375 3,-2.328125 Z m 0,0"
           id="path99" />
      </g>
      <g
         id="use1805"
         transform="translate(232.90871,249.3221)" />
      <g
         id="use1806"
         transform="translate(235.15871,249.3221)">
        <path
           d="m 0.875,-0.84375 c 0,0.53125 -0.109375,0.671875 -0.46875,0.671875 H 0.234375 V 0 h 1.96875 v -0.171875 h -0.09375 c -0.421875,0 -0.546875,-0.125 -0.546875,-0.5 V -6.28125 H 1.390625 l -1.21875,0.125 v 0.171875 H 0.40625 c 0.359375,0 0.46875,0.140625 0.46875,0.46875 z m 0,0"
           id="path38" />
      </g>
      <g
         id="use1807"
         transform="translate(237.5587,249.3221)">
        <path
           d="m 4.234375,-1.765625 c 0,-1.078125 -0.828125,-1.875 -1.9375,-1.875 -1.109375,0 -1.953125,0.796875 -1.953125,1.875 0,1.078125 0.84375,1.875 1.953125,1.875 1.109375,0 1.9375,-0.796875 1.9375,-1.875 z m -0.75,0 c 0,0.859375 -0.359375,1.671875 -1.1875,1.671875 -0.828125,0 -1.203125,-0.75 -1.203125,-1.671875 0,-1.015625 0.453125,-1.671875 1.203125,-1.671875 0.8125,0 1.1875,0.78125 1.1875,1.671875 z m 0,0"
           id="path116" />
      </g>
      <g
         id="use1808"
         transform="translate(242.1387,249.3221)">
        <path
           d="M 4.046875,-3.59375 H 2.90625 c -0.109375,0 -0.28125,-0.015625 -0.453125,-0.03125 -0.171875,0 -0.34375,-0.015625 -0.46875,-0.015625 -0.859375,0 -1.5,0.625 -1.5,1.484375 0,0.65625 0.390625,1.140625 1.109375,1.34375 v 0.015625 C 0.890625,-0.546875 0.5,-0.234375 0.5,0.171875 0.5,0.46875 0.796875,0.703125 1.265625,0.8125 V 0.84375 C 0.375,1.203125 0.125,1.5625 0.125,1.953125 c 0,0.640625 0.703125,1.078125 1.734375,1.078125 1.21875,0 2.1875,-0.65625 2.1875,-1.484375 0,-0.25 -0.09375,-0.421875 -0.296875,-0.625 -0.5,-0.5 -2.359375,-0.5 -2.640625,-0.828125 -0.046875,-0.0625 -0.0625,-0.078125 -0.0625,-0.203125 0,-0.21875 0.59375,-0.625 1.140625,-0.65625 0.75,-0.046875 1.328125,-0.703125 1.328125,-1.40625 0,-0.34375 -0.125,-0.6875 -0.40625,-1.03125 h 0.9375 z M 1.125,-2.234375 C 1.125,-2.953125 1.46875,-3.4375 2,-3.4375 c 0.515625,0 0.875,0.484375 0.875,1.203125 0,0.828125 -0.359375,1.28125 -0.890625,1.28125 -0.515625,0 -0.859375,-0.5 -0.859375,-1.28125 z m 2.546875,4.09375 c 0,0.46875 -0.546875,0.796875 -1.328125,0.796875 -1.015625,0 -1.78125,-0.390625 -1.78125,-0.890625 0,-0.359375 0.375,-0.671875 1.03125,-0.84375 1.703125,0.28125 2.078125,0.5 2.078125,0.9375 z m 0,0"
           id="path19" />
      </g>
      <g
         id="use1809"
         transform="translate(246.3087,249.3221)">
        <path
           d="m 4.234375,-1.765625 c 0,-1.078125 -0.828125,-1.875 -1.9375,-1.875 -1.109375,0 -1.953125,0.796875 -1.953125,1.875 0,1.078125 0.84375,1.875 1.953125,1.875 1.109375,0 1.9375,-0.796875 1.9375,-1.875 z m -0.75,0 c 0,0.859375 -0.359375,1.671875 -1.1875,1.671875 -0.828125,0 -1.203125,-0.75 -1.203125,-1.671875 0,-1.015625 0.453125,-1.671875 1.203125,-1.671875 0.8125,0 1.1875,0.78125 1.1875,1.671875 z m 0,0"
           id="path120" />
      </g>
      <g
         id="use1810"
         transform="translate(250.8887,249.3221)">
        <path
           d="M 4.046875,-3.59375 H 2.90625 c -0.109375,0 -0.28125,-0.015625 -0.453125,-0.03125 -0.171875,0 -0.34375,-0.015625 -0.46875,-0.015625 -0.859375,0 -1.5,0.625 -1.5,1.484375 0,0.65625 0.390625,1.140625 1.109375,1.34375 v 0.015625 C 0.890625,-0.546875 0.5,-0.234375 0.5,0.171875 0.5,0.46875 0.796875,0.703125 1.265625,0.8125 V 0.84375 C 0.375,1.203125 0.125,1.5625 0.125,1.953125 c 0,0.640625 0.703125,1.078125 1.734375,1.078125 1.21875,0 2.1875,-0.65625 2.1875,-1.484375 0,-0.25 -0.09375,-0.421875 -0.296875,-0.625 -0.5,-0.5 -2.359375,-0.5 -2.640625,-0.828125 -0.046875,-0.0625 -0.0625,-0.078125 -0.0625,-0.203125 0,-0.21875 0.59375,-0.625 1.140625,-0.65625 0.75,-0.046875 1.328125,-0.703125 1.328125,-1.40625 0,-0.34375 -0.125,-0.6875 -0.40625,-1.03125 h 0.9375 z M 1.125,-2.234375 C 1.125,-2.953125 1.46875,-3.4375 2,-3.4375 c 0.515625,0 0.875,0.484375 0.875,1.203125 0,0.828125 -0.359375,1.28125 -0.890625,1.28125 -0.515625,0 -0.859375,-0.5 -0.859375,-1.28125 z m 2.546875,4.09375 c 0,0.46875 -0.546875,0.796875 -1.328125,0.796875 -1.015625,0 -1.78125,-0.390625 -1.78125,-0.890625 0,-0.359375 0.375,-0.671875 1.03125,-0.84375 1.703125,0.28125 2.078125,0.5 2.078125,0.9375 z m 0,0"
           id="path20" />
      </g>
      <g
         id="use1811"
         transform="translate(255.0587,249.3221)">
        <path
           d="m 1.484375,-2.609375 c 0.3125,-0.3125 0.515625,-0.4375 0.75,-0.4375 0.234375,0 0.546875,0.15625 0.828125,0.3125 l 0.28125,-0.625 c -0.1875,-0.15625 -0.453125,-0.28125 -0.65625,-0.28125 -0.234375,0 -0.546875,0.203125 -1.203125,0.765625 V -3.640625 H 1.3125 l -1.25,0.109375 v 0.171875 c 0.609375,0 0.734375,0.0625 0.734375,0.578125 v 1.9375 c 0,0.53125 -0.0625,0.671875 -0.59375,0.671875 V 0 H 2.0625 v -0.171875 c -0.46875,0 -0.578125,-0.109375 -0.578125,-0.5 z m 0,0"
           id="path31" />
      </g>
      <g
         id="use1812"
         transform="translate(258.49869,249.3221)">
        <path
           d="m 2.9375,-2.34375 c 0,-0.953125 -0.6875,-1.296875 -1.28125,-1.296875 -0.640625,0 -1.15625,0.4375 -1.3125,1.09375 L 0.53125,-2.5 c 0.15625,-0.515625 0.53125,-0.765625 0.9375,-0.765625 0.5,0 0.796875,0.359375 0.796875,0.859375 v 0.265625 c -0.578125,0.34375 -1.96875,0.296875 -1.96875,1.3125 0,0.515625 0.46875,0.9375 1.015625,0.9375 0.375,0 0.59375,-0.125 0.953125,-0.5 0.109375,0.34375 0.296875,0.5 0.59375,0.5 0.40625,0 0.65625,-0.28125 0.6875,-0.71875 H 3.375 c -0.078125,0.25 -0.125,0.34375 -0.234375,0.34375 -0.15625,0 -0.203125,-0.140625 -0.203125,-0.546875 z m -0.671875,1.625 C 2.125,-0.421875 1.734375,-0.265625 1.53125,-0.265625 c -0.296875,0 -0.546875,-0.296875 -0.546875,-0.65625 0,-0.71875 0.609375,-0.703125 1.28125,-1 z m 0,0"
           id="path43" />
      </g>
      <g
         id="use1813"
         transform="translate(262.14871,249.3221)">
        <path
           d="m 6.375,-2.4375 c 0,-0.90625 -0.703125,-1.203125 -1.203125,-1.203125 -0.484375,0 -0.9375,0.265625 -1.3125,0.796875 C 3.6875,-3.375 3.21875,-3.640625 2.75,-3.640625 c -0.46875,0 -0.96875,0.296875 -1.265625,0.734375 H 1.46875 V -3.640625 H 1.296875 l -1.21875,0.109375 v 0.171875 h 0.21875 c 0.328125,0 0.5,0.125 0.5,0.515625 v 2.109375 c 0,0.53125 -0.1875,0.5625 -0.609375,0.5625 V 0 h 1.875 v -0.15625 c -0.4375,0 -0.59375,-0.140625 -0.59375,-0.5 v -1.921875 c 0.234375,-0.40625 0.625,-0.6875 1.015625,-0.6875 0.390625,0 0.75,0.25 0.75,0.78125 v 1.640625 c 0,0.625 -0.109375,0.671875 -0.578125,0.671875 V 0 h 1.859375 v -0.171875 c -0.484375,0 -0.59375,-0.140625 -0.59375,-0.515625 v -1.890625 c 0.3125,-0.46875 0.625,-0.6875 1,-0.6875 0.46875,0 0.765625,0.28125 0.765625,0.734375 v 1.6875 c 0,0.578125 -0.09375,0.671875 -0.59375,0.671875 V 0 h 1.875 v -0.171875 c -0.484375,0 -0.59375,-0.125 -0.59375,-0.484375 z m 0,0"
           id="path16" />
      </g>
      <g
         id="use1814"
         transform="translate(269.33871,249.3221)" />
      <g
         id="use1815"
         transform="translate(271.58871,249.3221)">
        <path
           d="m 3.859375,-0.40625 h -2.8125 c 1.90625,-1.71875 2.6875,-2.796875 2.6875,-3.859375 0,-0.953125 -0.6875,-1.609375 -1.453125,-1.609375 -1.03125,0 -1.515625,1.078125 -1.515625,1.59375 H 0.9375 C 1,-5.015625 1.484375,-5.3125 1.984375,-5.3125 c 0.640625,0 1.046875,0.5 1.046875,1.3125 0,0.84375 -0.46875,1.75 -2.453125,3.796875 V 0 h 3.28125 z m 0,0"
           id="path15" />
      </g>
      <g
         id="use1816"
         transform="translate(276.1687,249.3221)">
        <path
           d="M 0.875,1.71875 C 1.59375,1.546875 2.09375,0.953125 2.09375,0.265625 c 0,-0.5625 -0.296875,-0.96875 -0.734375,-0.96875 -0.265625,0 -0.484375,0.21875 -0.484375,0.46875 0,0.28125 0.234375,0.484375 0.53125,0.484375 0.140625,0 0.171875,0.015625 0.171875,0.1875 0,0.546875 -0.171875,0.84375 -0.703125,1.109375 z m 0,0"
           id="path14" />
      </g>
      <g
         id="use1817"
         transform="translate(279.08871,249.3221)" />
      <g
         id="use1818"
         transform="translate(281.33871,249.3221)">
        <path
           d="m 1.5625,-2.84375 c -0.15625,-0.390625 -0.09375,-0.5 0.296875,-0.515625 V -3.53125 h -1.71875 v 0.171875 c 0.375,0 0.5625,0.15625 0.65625,0.390625 L 2.03125,0.078125 h 0.171875 l 1.109375,-2.78125 1.125,2.78125 h 0.171875 l 1.09375,-2.78125 c 0.234375,-0.59375 0.34375,-0.65625 0.828125,-0.65625 V -3.53125 h -1.375 v 0.171875 C 5.625,-3.34375 5.6875,-3.15625 5.515625,-2.703125 L 4.78125,-0.859375 3.984375,-2.84375 c -0.109375,-0.3125 -0.0625,-0.5 0.40625,-0.515625 V -3.53125 H 2.6875 v 0.171875 c 0.265625,0.015625 0.359375,0.078125 0.515625,0.375 l -0.828125,2.125 z m 0,0"
           id="path27" />
      </g>
      <g
         id="use1819"
         transform="translate(288.0087,249.3221)">
        <path
           d="m 3.75,-2.40625 c 0,-0.84375 -0.59375,-1.234375 -1.1875,-1.234375 -0.453125,0 -0.78125,0.1875 -1.234375,0.703125 V -6.28125 H 1.15625 l -1.140625,0.125 v 0.171875 c 0.5,0 0.640625,0.0625 0.640625,0.53125 v 4.609375 c 0,0.5625 -0.109375,0.65625 -0.640625,0.671875 V 0 h 1.90625 v -0.171875 c -0.4375,0 -0.59375,-0.109375 -0.59375,-0.484375 v -1.9375 c 0.34375,-0.46875 0.625,-0.671875 1.03125,-0.671875 0.4375,0 0.703125,0.3125 0.703125,0.78125 v 1.75 c 0,0.453125 -0.109375,0.5625 -0.578125,0.5625 V 0 H 4.3125 V -0.171875 C 3.84375,-0.171875 3.75,-0.3125 3.75,-0.84375 Z m 0,0"
           id="path138" />
      </g>
      <g
         id="use1820"
         transform="translate(292.3887,249.3221)">
        <path
           d="m 3.671875,-2.15625 c 0.046875,-0.828125 -0.71875,-1.484375 -1.53125,-1.484375 -1,0 -1.78125,0.84375 -1.78125,1.90625 0,1.078125 0.796875,1.84375 1.90625,1.84375 0.625,0 1.03125,-0.203125 1.46875,-0.765625 v -0.25 c -0.515625,0.5625 -0.765625,0.734375 -1.25,0.734375 C 2,-0.171875 1.046875,-0.5625 1.0625,-2.15625 Z M 1.0625,-2.328125 C 1.109375,-2.984375 1.453125,-3.4375 2.046875,-3.4375 2.5,-3.4375 3.03125,-3.109375 3,-2.328125 Z m 0,0"
           id="path100" />
      </g>
      <g
         id="use1821"
         transform="translate(296.4487,249.3221)">
        <path
           d="m 1.484375,-2.609375 c 0.3125,-0.3125 0.515625,-0.4375 0.75,-0.4375 0.234375,0 0.546875,0.15625 0.828125,0.3125 l 0.28125,-0.625 c -0.1875,-0.15625 -0.453125,-0.28125 -0.65625,-0.28125 -0.234375,0 -0.546875,0.203125 -1.203125,0.765625 V -3.640625 H 1.3125 l -1.25,0.109375 v 0.171875 c 0.609375,0 0.734375,0.0625 0.734375,0.578125 v 1.9375 c 0,0.53125 -0.0625,0.671875 -0.59375,0.671875 V 0 H 2.0625 v -0.171875 c -0.46875,0 -0.578125,-0.109375 -0.578125,-0.5 z m 0,0"
           id="path32" />
      </g>
      <g
         id="use1822"
         transform="translate(299.8887,249.3221)">
        <path
           d="m 3.671875,-2.15625 c 0.046875,-0.828125 -0.71875,-1.484375 -1.53125,-1.484375 -1,0 -1.78125,0.84375 -1.78125,1.90625 0,1.078125 0.796875,1.84375 1.90625,1.84375 0.625,0 1.03125,-0.203125 1.46875,-0.765625 v -0.25 c -0.515625,0.5625 -0.765625,0.734375 -1.25,0.734375 C 2,-0.171875 1.046875,-0.5625 1.0625,-2.15625 Z M 1.0625,-2.328125 C 1.109375,-2.984375 1.453125,-3.4375 2.046875,-3.4375 2.5,-3.4375 3.03125,-3.109375 3,-2.328125 Z m 0,0"
           id="path101" />
      </g>
      <g
         id="use1823"
         transform="translate(303.9487,249.3221)" />
      <g
         id="use1824"
         transform="translate(306.1987,249.3221)">
        <path
           d="m 1.484375,-2.609375 c 0.3125,-0.3125 0.515625,-0.4375 0.75,-0.4375 0.234375,0 0.546875,0.15625 0.828125,0.3125 l 0.28125,-0.625 c -0.1875,-0.15625 -0.453125,-0.28125 -0.65625,-0.28125 -0.234375,0 -0.546875,0.203125 -1.203125,0.765625 V -3.640625 H 1.3125 l -1.25,0.109375 v 0.171875 c 0.609375,0 0.734375,0.0625 0.734375,0.578125 v 1.9375 c 0,0.53125 -0.0625,0.671875 -0.59375,0.671875 V 0 H 2.0625 v -0.171875 c -0.46875,0 -0.578125,-0.109375 -0.578125,-0.5 z m 0,0"
           id="path33" />
      </g>
      <g
         id="use1825"
         transform="translate(309.6387,249.3221)">
        <path
           d="m 3.671875,-2.15625 c 0.046875,-0.828125 -0.71875,-1.484375 -1.53125,-1.484375 -1,0 -1.78125,0.84375 -1.78125,1.90625 0,1.078125 0.796875,1.84375 1.90625,1.84375 0.625,0 1.03125,-0.203125 1.46875,-0.765625 v -0.25 c -0.515625,0.5625 -0.765625,0.734375 -1.25,0.734375 C 2,-0.171875 1.046875,-0.5625 1.0625,-2.15625 Z M 1.0625,-2.328125 C 1.109375,-2.984375 1.453125,-3.4375 2.046875,-3.4375 2.5,-3.4375 3.03125,-3.109375 3,-2.328125 Z m 0,0"
           id="path102" />
      </g>
      <g
         id="use1826"
         transform="translate(313.6987,249.3221)">
        <path
           d="M 1.515625,-4.734375 H 1.34375 c -0.296875,0.609375 -0.703125,1.03125 -1.1875,1.28125 v 0.15625 h 0.671875 v 2.375 c 0,0.609375 0.421875,1.03125 1.015625,1.03125 0.40625,0 0.765625,-0.203125 1.078125,-0.59375 l -0.109375,-0.125 c -0.21875,0.234375 -0.40625,0.34375 -0.65625,0.34375 -0.390625,0 -0.640625,-0.25 -0.640625,-0.75 v -2.28125 h 1.21875 v -0.25 h -1.21875 z m 0,0"
           id="path110" />
      </g>
      <g
         id="use1827"
         transform="translate(316.61871,249.3221)">
        <path
           d="m 1.484375,-2.609375 c 0.3125,-0.3125 0.515625,-0.4375 0.75,-0.4375 0.234375,0 0.546875,0.15625 0.828125,0.3125 l 0.28125,-0.625 c -0.1875,-0.15625 -0.453125,-0.28125 -0.65625,-0.28125 -0.234375,0 -0.546875,0.203125 -1.203125,0.765625 V -3.640625 H 1.3125 l -1.25,0.109375 v 0.171875 c 0.609375,0 0.734375,0.0625 0.734375,0.578125 v 1.9375 c 0,0.53125 -0.0625,0.671875 -0.59375,0.671875 V 0 H 2.0625 v -0.171875 c -0.46875,0 -0.578125,-0.109375 -0.578125,-0.5 z m 0,0"
           id="path34" />
      </g>
      <g
         id="use1828"
         transform="translate(320.05869,249.3221)">
        <path
           d="M 1.484375,-3.640625 H 1.3125 L 0.140625,-3.53125 v 0.171875 c 0.515625,0 0.671875,0.046875 0.671875,0.53125 v 2.171875 c 0,0.421875 -0.125,0.484375 -0.671875,0.484375 V 0 h 1.9375 v -0.171875 c -0.5,0 -0.59375,-0.140625 -0.59375,-0.484375 z M 1.15625,-5.46875 c -0.234375,0 -0.4375,0.1875 -0.4375,0.421875 0,0.25 0.203125,0.453125 0.4375,0.453125 0.25,0 0.4375,-0.203125 0.4375,-0.453125 0,-0.234375 -0.1875,-0.421875 -0.4375,-0.421875 z m 0,0"
           id="path53" />
      </g>
      <g
         id="use1829"
         transform="translate(322.34869,249.3221)">
        <path
           d="m 3.671875,-2.15625 c 0.046875,-0.828125 -0.71875,-1.484375 -1.53125,-1.484375 -1,0 -1.78125,0.84375 -1.78125,1.90625 0,1.078125 0.796875,1.84375 1.90625,1.84375 0.625,0 1.03125,-0.203125 1.46875,-0.765625 v -0.25 c -0.515625,0.5625 -0.765625,0.734375 -1.25,0.734375 C 2,-0.171875 1.046875,-0.5625 1.0625,-2.15625 Z M 1.0625,-2.328125 C 1.109375,-2.984375 1.453125,-3.4375 2.046875,-3.4375 2.5,-3.4375 3.03125,-3.109375 3,-2.328125 Z m 0,0"
           id="path103" />
      </g>
      <g
         id="use1830"
         transform="translate(326.40869,249.3221)">
        <path
           d="M 1.59375,-2.75 C 1.4375,-3.140625 1.53125,-3.328125 1.875,-3.359375 V -3.53125 H 0.15625 v 0.171875 c 0.421875,0.015625 0.515625,0.078125 0.75,0.65625 l 1.140625,2.78125 h 0.15625 L 3.34375,-2.84375 C 3.515625,-3.234375 3.625,-3.3125 4.03125,-3.359375 V -3.53125 H 2.734375 v 0.171875 C 3.25,-3.3125 3.25,-3.109375 3.078125,-2.65625 l -0.6875,1.796875 z m 0,0"
           id="path13" />
      </g>
      <g
         id="use1831"
         transform="translate(330.5787,249.3221)">
        <path
           d="m 2.9375,-2.34375 c 0,-0.953125 -0.6875,-1.296875 -1.28125,-1.296875 -0.640625,0 -1.15625,0.4375 -1.3125,1.09375 L 0.53125,-2.5 c 0.15625,-0.515625 0.53125,-0.765625 0.9375,-0.765625 0.5,0 0.796875,0.359375 0.796875,0.859375 v 0.265625 c -0.578125,0.34375 -1.96875,0.296875 -1.96875,1.3125 0,0.515625 0.46875,0.9375 1.015625,0.9375 0.375,0 0.59375,-0.125 0.953125,-0.5 0.109375,0.34375 0.296875,0.5 0.59375,0.5 0.40625,0 0.65625,-0.28125 0.6875,-0.71875 H 3.375 c -0.078125,0.25 -0.125,0.34375 -0.234375,0.34375 -0.15625,0 -0.203125,-0.140625 -0.203125,-0.546875 z m -0.671875,1.625 C 2.125,-0.421875 1.734375,-0.265625 1.53125,-0.265625 c -0.296875,0 -0.546875,-0.296875 -0.546875,-0.65625 0,-0.71875 0.609375,-0.703125 1.28125,-1 z m 0,0"
           id="path44" />
      </g>
      <g
         id="use1832"
         transform="translate(334.2287,249.3221)">
        <path
           d="m 0.875,-0.84375 c 0,0.53125 -0.109375,0.671875 -0.46875,0.671875 H 0.234375 V 0 h 1.96875 v -0.171875 h -0.09375 c -0.421875,0 -0.546875,-0.125 -0.546875,-0.5 V -6.28125 H 1.390625 l -1.21875,0.125 v 0.171875 H 0.40625 c 0.359375,0 0.46875,0.140625 0.46875,0.46875 z m 0,0"
           id="path39" />
      </g>
      <g
         id="use1833"
         transform="translate(336.62869,249.3221)" />
      <g
         id="use1834"
         transform="translate(338.87869,249.3221)">
        <path
           d="m 4.234375,-1.765625 c 0,-1.078125 -0.828125,-1.875 -1.9375,-1.875 -1.109375,0 -1.953125,0.796875 -1.953125,1.875 0,1.078125 0.84375,1.875 1.953125,1.875 1.109375,0 1.9375,-0.796875 1.9375,-1.875 z m -0.75,0 c 0,0.859375 -0.359375,1.671875 -1.1875,1.671875 -0.828125,0 -1.203125,-0.75 -1.203125,-1.671875 0,-1.015625 0.453125,-1.671875 1.203125,-1.671875 0.8125,0 1.1875,0.78125 1.1875,1.671875 z m 0,0"
           id="path121" />
      </g>
      <g
         id="use1835"
         transform="translate(343.45871,249.3221)">
        <path
           d="m 1.46875,-3.265625 h 0.875 V -3.53125 h -0.875 v -1.703125 c 0,-0.546875 0.265625,-0.828125 0.65625,-0.828125 0.421875,0 0.71875,0.296875 0.671875,0.96875 H 2.96875 L 3.3125,-5.984375 c -0.25,-0.1875 -0.609375,-0.296875 -1,-0.296875 -1.109375,0 -1.515625,1.046875 -1.515625,1.90625 v 0.6875 c -0.15625,0.109375 -0.25,0.140625 -0.5,0.25 v 0.171875 h 0.5 v 2.625 c 0,0.34375 -0.140625,0.46875 -0.5,0.46875 H 0.140625 V 0 H 2.15625 V -0.171875 H 1.984375 c -0.328125,0 -0.515625,-0.125 -0.515625,-0.53125 z m 0,0"
           id="path23" />
      </g>
      <g
         id="use1836"
         transform="translate(346.05869,249.3221)" />
      <g
         id="use1837"
         transform="translate(348.30869,249.3221)">
        <path
           d="m 2.625,-2.546875 v -1.09375 H 2.453125 c -0.046875,0.125 -0.125,0.171875 -0.21875,0.171875 -0.234375,0 -0.34375,-0.171875 -0.71875,-0.171875 -0.578125,0 -1.078125,0.46875 -1.078125,1.015625 0,1.203125 1.875,0.9375 1.875,1.921875 0,0.359375 -0.265625,0.609375 -0.609375,0.609375 -0.4375,0 -1,-0.28125 -1.140625,-1.03125 H 0.390625 V 0.09375 H 0.5625 c 0,-0.140625 0.09375,-0.25 0.234375,-0.25 0.15625,0 0.5,0.265625 0.890625,0.265625 0.609375,0 1.125,-0.5 1.125,-1.09375 0,-1.3125 -1.859375,-1.078125 -1.859375,-1.96875 0,-0.296875 0.234375,-0.484375 0.59375,-0.484375 0.40625,0 0.796875,0.296875 0.875,0.890625 z m 0,0"
           id="path11" />
      </g>
      <g
         id="use1838"
         transform="translate(351.43869,249.3221)">
        <path
           d="m 4.234375,-1.765625 c 0,-1.078125 -0.828125,-1.875 -1.9375,-1.875 -1.109375,0 -1.953125,0.796875 -1.953125,1.875 0,1.078125 0.84375,1.875 1.953125,1.875 1.109375,0 1.9375,-0.796875 1.9375,-1.875 z m -0.75,0 c 0,0.859375 -0.359375,1.671875 -1.1875,1.671875 -0.828125,0 -1.203125,-0.75 -1.203125,-1.671875 0,-1.015625 0.453125,-1.671875 1.203125,-1.671875 0.8125,0 1.1875,0.78125 1.1875,1.671875 z m 0,0"
           id="path122" />
      </g>
      <g
         id="use1839"
         transform="translate(356.01871,249.3221)">
        <path
           d="M 3.84375,-3.640625 H 3.6875 L 2.484375,-3.53125 v 0.171875 c 0.609375,0.015625 0.6875,0.0625 0.6875,0.5625 v 1.90625 C 2.875,-0.5 2.5625,-0.3125 2.234375,-0.3125 1.75,-0.3125 1.4375,-0.609375 1.4375,-1.109375 v -2.53125 H 1.265625 L 0.125,-3.53125 v 0.171875 c 0.5,0 0.625,0.125 0.625,0.46875 v 1.8125 c 0,0.65625 0.453125,1.1875 1.15625,1.1875 0.484375,0 0.890625,-0.234375 1.25,-0.6875 H 3.171875 V 0.0625 L 4.453125,0 v -0.171875 c -0.46875,0 -0.609375,-0.109375 -0.609375,-0.5 z m 0,0"
           id="path9" />
      </g>
      <g
         id="use1840"
         transform="translate(360.59869,249.3221)">
        <path
           d="m 3.84375,-2.375 c 0,-0.84375 -0.609375,-1.265625 -1.1875,-1.265625 -0.453125,0 -0.859375,0.234375 -1.28125,0.703125 V -3.640625 H 1.203125 L 0.09375,-3.53125 v 0.171875 c 0.484375,0 0.59375,0.09375 0.59375,0.515625 v 2 c 0,0.640625 -0.125,0.671875 -0.59375,0.671875 V 0 h 1.875 V -0.171875 C 1.4375,-0.171875 1.375,-0.3125 1.375,-0.84375 v -1.734375 c 0.34375,-0.46875 0.65625,-0.6875 1,-0.6875 0.390625,0 0.796875,0.234375 0.796875,0.8125 v 1.84375 c 0,0.328125 -0.125,0.4375 -0.609375,0.4375 V 0 h 1.890625 v -0.171875 c -0.5,0 -0.609375,-0.140625 -0.609375,-0.59375 z m 0,0"
           id="path4" />
      </g>
      <g
         id="use1841"
         transform="translate(365.17871,249.3221)">
        <path
           d="M 3.828125,-6.28125 H 3.65625 l -1.171875,0.125 v 0.171875 H 2.6875 c 0.34375,0 0.46875,0.09375 0.46875,0.609375 v 2.171875 c -0.453125,-0.3125 -0.8125,-0.4375 -1.203125,-0.4375 -0.90625,0 -1.65625,0.796875 -1.65625,1.796875 0,0.828125 0.5625,1.84375 2.0625,1.84375 h 2.0625 v -0.171875 c -0.453125,0 -0.59375,-0.125 -0.59375,-0.515625 z M 3.15625,-0.703125 c 0,0.390625 -0.171875,0.546875 -0.5625,0.546875 -1.15625,0 -1.546875,-0.984375 -1.546875,-1.828125 0,-0.859375 0.4375,-1.453125 1.078125,-1.453125 0.359375,0 0.75,0.234375 1.03125,0.609375 z m 0,0"
           id="path25" />
      </g>
      <g
         id="use1842"
         transform="translate(369.7587,249.3221)" />
    </g>
    <g
       fill="#000000"
       fill-opacity="1"
       id="g1882"
       transform="matrix(0.35277777,0,0,0.35277777,30.019374,92.586252)">
      <g
         id="use1843"
         transform="translate(96.008698,260.32211)">
        <path
           d="M 1.484375,-3.640625 H 1.3125 L 0.140625,-3.53125 v 0.171875 c 0.515625,0 0.671875,0.046875 0.671875,0.53125 v 2.171875 c 0,0.421875 -0.125,0.484375 -0.671875,0.484375 V 0 h 1.9375 v -0.171875 c -0.5,0 -0.59375,-0.140625 -0.59375,-0.484375 z M 1.15625,-5.46875 c -0.234375,0 -0.4375,0.1875 -0.4375,0.421875 0,0.25 0.203125,0.453125 0.4375,0.453125 0.25,0 0.4375,-0.203125 0.4375,-0.453125 0,-0.234375 -0.1875,-0.421875 -0.4375,-0.421875 z m 0,0"
           id="path54" />
      </g>
      <g
         id="use1844"
         transform="translate(98.298698,260.32211)">
        <path
           d="m 6.375,-2.4375 c 0,-0.90625 -0.703125,-1.203125 -1.203125,-1.203125 -0.484375,0 -0.9375,0.265625 -1.3125,0.796875 C 3.6875,-3.375 3.21875,-3.640625 2.75,-3.640625 c -0.46875,0 -0.96875,0.296875 -1.265625,0.734375 H 1.46875 V -3.640625 H 1.296875 l -1.21875,0.109375 v 0.171875 h 0.21875 c 0.328125,0 0.5,0.125 0.5,0.515625 v 2.109375 c 0,0.53125 -0.1875,0.5625 -0.609375,0.5625 V 0 h 1.875 v -0.15625 c -0.4375,0 -0.59375,-0.140625 -0.59375,-0.5 v -1.921875 c 0.234375,-0.40625 0.625,-0.6875 1.015625,-0.6875 0.390625,0 0.75,0.25 0.75,0.78125 v 1.640625 c 0,0.625 -0.109375,0.671875 -0.578125,0.671875 V 0 h 1.859375 v -0.171875 c -0.484375,0 -0.59375,-0.140625 -0.59375,-0.515625 v -1.890625 c 0.3125,-0.46875 0.625,-0.6875 1,-0.6875 0.46875,0 0.765625,0.28125 0.765625,0.734375 v 1.6875 c 0,0.578125 -0.09375,0.671875 -0.59375,0.671875 V 0 h 1.875 v -0.171875 c -0.484375,0 -0.59375,-0.125 -0.59375,-0.484375 z m 0,0"
           id="path17" />
      </g>
      <g
         id="use1845"
         transform="translate(105.4887,260.32211)">
        <path
           d="m 2.9375,-2.34375 c 0,-0.953125 -0.6875,-1.296875 -1.28125,-1.296875 -0.640625,0 -1.15625,0.4375 -1.3125,1.09375 L 0.53125,-2.5 c 0.15625,-0.515625 0.53125,-0.765625 0.9375,-0.765625 0.5,0 0.796875,0.359375 0.796875,0.859375 v 0.265625 c -0.578125,0.34375 -1.96875,0.296875 -1.96875,1.3125 0,0.515625 0.46875,0.9375 1.015625,0.9375 0.375,0 0.59375,-0.125 0.953125,-0.5 0.109375,0.34375 0.296875,0.5 0.59375,0.5 0.40625,0 0.65625,-0.28125 0.6875,-0.71875 H 3.375 c -0.078125,0.25 -0.125,0.34375 -0.234375,0.34375 -0.15625,0 -0.203125,-0.140625 -0.203125,-0.546875 z m -0.671875,1.625 C 2.125,-0.421875 1.734375,-0.265625 1.53125,-0.265625 c -0.296875,0 -0.546875,-0.296875 -0.546875,-0.65625 0,-0.71875 0.609375,-0.703125 1.28125,-1 z m 0,0"
           id="path45" />
      </g>
      <g
         id="use1846"
         transform="translate(109.1387,260.32211)">
        <path
           d="M 4.046875,-3.59375 H 2.90625 c -0.109375,0 -0.28125,-0.015625 -0.453125,-0.03125 -0.171875,0 -0.34375,-0.015625 -0.46875,-0.015625 -0.859375,0 -1.5,0.625 -1.5,1.484375 0,0.65625 0.390625,1.140625 1.109375,1.34375 v 0.015625 C 0.890625,-0.546875 0.5,-0.234375 0.5,0.171875 0.5,0.46875 0.796875,0.703125 1.265625,0.8125 V 0.84375 C 0.375,1.203125 0.125,1.5625 0.125,1.953125 c 0,0.640625 0.703125,1.078125 1.734375,1.078125 1.21875,0 2.1875,-0.65625 2.1875,-1.484375 0,-0.25 -0.09375,-0.421875 -0.296875,-0.625 -0.5,-0.5 -2.359375,-0.5 -2.640625,-0.828125 -0.046875,-0.0625 -0.0625,-0.078125 -0.0625,-0.203125 0,-0.21875 0.59375,-0.625 1.140625,-0.65625 0.75,-0.046875 1.328125,-0.703125 1.328125,-1.40625 0,-0.34375 -0.125,-0.6875 -0.40625,-1.03125 h 0.9375 z M 1.125,-2.234375 C 1.125,-2.953125 1.46875,-3.4375 2,-3.4375 c 0.515625,0 0.875,0.484375 0.875,1.203125 0,0.828125 -0.359375,1.28125 -0.890625,1.28125 -0.515625,0 -0.859375,-0.5 -0.859375,-1.28125 z m 2.546875,4.09375 c 0,0.46875 -0.546875,0.796875 -1.328125,0.796875 -1.015625,0 -1.78125,-0.390625 -1.78125,-0.890625 0,-0.359375 0.375,-0.671875 1.03125,-0.84375 1.703125,0.28125 2.078125,0.5 2.078125,0.9375 z m 0,0"
           id="path21" />
      </g>
      <g
         id="use1847"
         transform="translate(113.3087,260.32211)">
        <path
           d="m 3.671875,-2.15625 c 0.046875,-0.828125 -0.71875,-1.484375 -1.53125,-1.484375 -1,0 -1.78125,0.84375 -1.78125,1.90625 0,1.078125 0.796875,1.84375 1.90625,1.84375 0.625,0 1.03125,-0.203125 1.46875,-0.765625 v -0.25 c -0.515625,0.5625 -0.765625,0.734375 -1.25,0.734375 C 2,-0.171875 1.046875,-0.5625 1.0625,-2.15625 Z M 1.0625,-2.328125 C 1.109375,-2.984375 1.453125,-3.4375 2.046875,-3.4375 2.5,-3.4375 3.03125,-3.109375 3,-2.328125 Z m 0,0"
           id="path104" />
      </g>
      <g
         id="use1848"
         transform="translate(117.3687,260.32211)">
        <path
           d="m 2.625,-2.546875 v -1.09375 H 2.453125 c -0.046875,0.125 -0.125,0.171875 -0.21875,0.171875 -0.234375,0 -0.34375,-0.171875 -0.71875,-0.171875 -0.578125,0 -1.078125,0.46875 -1.078125,1.015625 0,1.203125 1.875,0.9375 1.875,1.921875 0,0.359375 -0.265625,0.609375 -0.609375,0.609375 -0.4375,0 -1,-0.28125 -1.140625,-1.03125 H 0.390625 V 0.09375 H 0.5625 c 0,-0.140625 0.09375,-0.25 0.234375,-0.25 0.15625,0 0.5,0.265625 0.890625,0.265625 0.609375,0 1.125,-0.5 1.125,-1.09375 0,-1.3125 -1.859375,-1.078125 -1.859375,-1.96875 0,-0.296875 0.234375,-0.484375 0.59375,-0.484375 0.40625,0 0.796875,0.296875 0.875,0.890625 z m 0,0"
           id="path12" />
      </g>
      <g
         id="use1849"
         transform="translate(120.4987,260.32211)" />
      <g
         id="use1850"
         transform="translate(122.7487,260.32211)">
        <path
           d="m 4.234375,-1.765625 c 0,-1.078125 -0.828125,-1.875 -1.9375,-1.875 -1.109375,0 -1.953125,0.796875 -1.953125,1.875 0,1.078125 0.84375,1.875 1.953125,1.875 1.109375,0 1.9375,-0.796875 1.9375,-1.875 z m -0.75,0 c 0,0.859375 -0.359375,1.671875 -1.1875,1.671875 -0.828125,0 -1.203125,-0.75 -1.203125,-1.671875 0,-1.015625 0.453125,-1.671875 1.203125,-1.671875 0.8125,0 1.1875,0.78125 1.1875,1.671875 z m 0,0"
           id="path123" />
      </g>
      <g
         id="use1851"
         transform="translate(127.3287,260.32211)">
        <path
           d="m 1.484375,-2.609375 c 0.3125,-0.3125 0.515625,-0.4375 0.75,-0.4375 0.234375,0 0.546875,0.15625 0.828125,0.3125 l 0.28125,-0.625 c -0.1875,-0.15625 -0.453125,-0.28125 -0.65625,-0.28125 -0.234375,0 -0.546875,0.203125 -1.203125,0.765625 V -3.640625 H 1.3125 l -1.25,0.109375 v 0.171875 c 0.609375,0 0.734375,0.0625 0.734375,0.578125 v 1.9375 c 0,0.53125 -0.0625,0.671875 -0.59375,0.671875 V 0 H 2.0625 v -0.171875 c -0.46875,0 -0.578125,-0.109375 -0.578125,-0.5 z m 0,0"
           id="path35" />
      </g>
      <g
         id="use1852"
         transform="translate(130.76871,260.32211)" />
      <g
         id="use1853"
         transform="translate(133.01871,260.32211)">
        <path
           d="m 0.703125,2.125 c 0,0.390625 -0.140625,0.484375 -0.609375,0.484375 V 2.78125 H 1.984375 V 2.609375 c -0.5,0 -0.59375,-0.15625 -0.59375,-0.59375 V -0.3125 c 0.40625,0.3125 0.6875,0.421875 1.0625,0.421875 1.015625,0 1.765625,-0.8125 1.765625,-1.90625 0,-1.046875 -0.671875,-1.84375 -1.59375,-1.84375 -0.453125,0 -0.78125,0.15625 -1.234375,0.59375 v -0.59375 H 1.21875 l -1.125,0.109375 v 0.171875 c 0.53125,0 0.609375,0.0625 0.609375,0.546875 z m 0.6875,-4.90625 c 0.328125,-0.375 0.59375,-0.53125 0.953125,-0.53125 0.671875,0 1.140625,0.6875 1.140625,1.640625 C 3.484375,-0.796875 3,-0.125 2.375,-0.125 c -0.34375,0 -0.71875,-0.171875 -0.984375,-0.4375 z m 0,0"
           id="path129" />
      </g>
      <g
         id="use1854"
         transform="translate(137.59869,260.32211)">
        <path
           d="m 1.484375,-2.609375 c 0.3125,-0.3125 0.515625,-0.4375 0.75,-0.4375 0.234375,0 0.546875,0.15625 0.828125,0.3125 l 0.28125,-0.625 c -0.1875,-0.15625 -0.453125,-0.28125 -0.65625,-0.28125 -0.234375,0 -0.546875,0.203125 -1.203125,0.765625 V -3.640625 H 1.3125 l -1.25,0.109375 v 0.171875 c 0.609375,0 0.734375,0.0625 0.734375,0.578125 v 1.9375 c 0,0.53125 -0.0625,0.671875 -0.59375,0.671875 V 0 H 2.0625 v -0.171875 c -0.46875,0 -0.578125,-0.109375 -0.578125,-0.5 z m 0,0"
           id="path36" />
      </g>
      <g
         id="use1855"
         transform="translate(141.0387,260.32211)">
        <path
           d="m 4.234375,-1.765625 c 0,-1.078125 -0.828125,-1.875 -1.9375,-1.875 -1.109375,0 -1.953125,0.796875 -1.953125,1.875 0,1.078125 0.84375,1.875 1.953125,1.875 1.109375,0 1.9375,-0.796875 1.9375,-1.875 z m -0.75,0 c 0,0.859375 -0.359375,1.671875 -1.1875,1.671875 -0.828125,0 -1.203125,-0.75 -1.203125,-1.671875 0,-1.015625 0.453125,-1.671875 1.203125,-1.671875 0.8125,0 1.1875,0.78125 1.1875,1.671875 z m 0,0"
           id="path124" />
      </g>
      <g
         id="use1856"
         transform="translate(145.6187,260.32211)">
        <path
           d="m 3.84375,-2.375 c 0,-0.84375 -0.609375,-1.265625 -1.1875,-1.265625 -0.453125,0 -0.859375,0.234375 -1.28125,0.703125 V -3.640625 H 1.203125 L 0.09375,-3.53125 v 0.171875 c 0.484375,0 0.59375,0.09375 0.59375,0.515625 v 2 c 0,0.640625 -0.125,0.671875 -0.59375,0.671875 V 0 h 1.875 V -0.171875 C 1.4375,-0.171875 1.375,-0.3125 1.375,-0.84375 v -1.734375 c 0.34375,-0.46875 0.65625,-0.6875 1,-0.6875 0.390625,0 0.796875,0.234375 0.796875,0.8125 v 1.84375 c 0,0.328125 -0.125,0.4375 -0.609375,0.4375 V 0 h 1.890625 v -0.171875 c -0.5,0 -0.609375,-0.140625 -0.609375,-0.59375 z m 0,0"
           id="path5" />
      </g>
      <g
         id="use1857"
         transform="translate(150.1987,260.32211)">
        <path
           d="M 3.84375,-3.640625 H 3.6875 L 2.484375,-3.53125 v 0.171875 c 0.609375,0.015625 0.6875,0.0625 0.6875,0.5625 v 1.90625 C 2.875,-0.5 2.5625,-0.3125 2.234375,-0.3125 1.75,-0.3125 1.4375,-0.609375 1.4375,-1.109375 v -2.53125 H 1.265625 L 0.125,-3.53125 v 0.171875 c 0.5,0 0.625,0.125 0.625,0.46875 v 1.8125 c 0,0.65625 0.453125,1.1875 1.15625,1.1875 0.484375,0 0.890625,-0.234375 1.25,-0.6875 H 3.171875 V 0.0625 L 4.453125,0 v -0.171875 c -0.46875,0 -0.609375,-0.109375 -0.609375,-0.5 z m 0,0"
           id="path10" />
      </g>
      <g
         id="use1858"
         transform="translate(154.7787,260.32211)">
        <path
           d="m 3.84375,-2.375 c 0,-0.84375 -0.609375,-1.265625 -1.1875,-1.265625 -0.453125,0 -0.859375,0.234375 -1.28125,0.703125 V -3.640625 H 1.203125 L 0.09375,-3.53125 v 0.171875 c 0.484375,0 0.59375,0.09375 0.59375,0.515625 v 2 c 0,0.640625 -0.125,0.671875 -0.59375,0.671875 V 0 h 1.875 V -0.171875 C 1.4375,-0.171875 1.375,-0.3125 1.375,-0.84375 v -1.734375 c 0.34375,-0.46875 0.65625,-0.6875 1,-0.6875 0.390625,0 0.796875,0.234375 0.796875,0.8125 v 1.84375 c 0,0.328125 -0.125,0.4375 -0.609375,0.4375 V 0 h 1.890625 v -0.171875 c -0.5,0 -0.609375,-0.140625 -0.609375,-0.59375 z m 0,0"
           id="path6" />
      </g>
      <g
         id="use1859"
         transform="translate(159.3587,260.32211)">
        <path
           d="M 3.59375,-3.640625 H 3.421875 c -0.0625,0.125 -0.15625,0.203125 -0.234375,0.203125 -0.1875,0 -0.484375,-0.203125 -1,-0.203125 -1.015625,0 -1.84375,0.875 -1.84375,1.953125 0,1.0625 0.734375,1.796875 1.78125,1.796875 0.640625,0 1.1875,-0.265625 1.5625,-0.78125 V -0.9375 c -0.375,0.515625 -0.890625,0.75 -1.3125,0.75 -0.71875,0 -1.328125,-0.8125 -1.328125,-1.78125 0,-0.875 0.484375,-1.46875 1.1875,-1.46875 0.578125,0 1.03125,0.40625 1.1875,1.046875 H 3.59375 Z m 0,0"
           id="path51" />
      </g>
      <g
         id="use1860"
         transform="translate(163.20869,260.32211)">
        <path
           d="M 1.484375,-3.640625 H 1.3125 L 0.140625,-3.53125 v 0.171875 c 0.515625,0 0.671875,0.046875 0.671875,0.53125 v 2.171875 c 0,0.421875 -0.125,0.484375 -0.671875,0.484375 V 0 h 1.9375 v -0.171875 c -0.5,0 -0.59375,-0.140625 -0.59375,-0.484375 z M 1.15625,-5.46875 c -0.234375,0 -0.4375,0.1875 -0.4375,0.421875 0,0.25 0.203125,0.453125 0.4375,0.453125 0.25,0 0.4375,-0.203125 0.4375,-0.453125 0,-0.234375 -0.1875,-0.421875 -0.4375,-0.421875 z m 0,0"
           id="path55" />
      </g>
      <g
         id="use1861"
         transform="translate(165.4987,260.32211)">
        <path
           d="m 2.9375,-2.34375 c 0,-0.953125 -0.6875,-1.296875 -1.28125,-1.296875 -0.640625,0 -1.15625,0.4375 -1.3125,1.09375 L 0.53125,-2.5 c 0.15625,-0.515625 0.53125,-0.765625 0.9375,-0.765625 0.5,0 0.796875,0.359375 0.796875,0.859375 v 0.265625 c -0.578125,0.34375 -1.96875,0.296875 -1.96875,1.3125 0,0.515625 0.46875,0.9375 1.015625,0.9375 0.375,0 0.59375,-0.125 0.953125,-0.5 0.109375,0.34375 0.296875,0.5 0.59375,0.5 0.40625,0 0.65625,-0.28125 0.6875,-0.71875 H 3.375 c -0.078125,0.25 -0.125,0.34375 -0.234375,0.34375 -0.15625,0 -0.203125,-0.140625 -0.203125,-0.546875 z m -0.671875,1.625 C 2.125,-0.421875 1.734375,-0.265625 1.53125,-0.265625 c -0.296875,0 -0.546875,-0.296875 -0.546875,-0.65625 0,-0.71875 0.609375,-0.703125 1.28125,-1 z m 0,0"
           id="path46" />
      </g>
      <g
         id="use1862"
         transform="translate(169.1487,260.32211)">
        <path
           d="M 1.515625,-4.734375 H 1.34375 c -0.296875,0.609375 -0.703125,1.03125 -1.1875,1.28125 v 0.15625 h 0.671875 v 2.375 c 0,0.609375 0.421875,1.03125 1.015625,1.03125 0.40625,0 0.765625,-0.203125 1.078125,-0.59375 l -0.109375,-0.125 c -0.21875,0.234375 -0.40625,0.34375 -0.65625,0.34375 -0.390625,0 -0.640625,-0.25 -0.640625,-0.75 v -2.28125 h 1.21875 v -0.25 h -1.21875 z m 0,0"
           id="path111" />
      </g>
      <g
         id="use1863"
         transform="translate(172.0687,260.32211)">
        <path
           d="M 1.484375,-3.640625 H 1.3125 L 0.140625,-3.53125 v 0.171875 c 0.515625,0 0.671875,0.046875 0.671875,0.53125 v 2.171875 c 0,0.421875 -0.125,0.484375 -0.671875,0.484375 V 0 h 1.9375 v -0.171875 c -0.5,0 -0.59375,-0.140625 -0.59375,-0.484375 z M 1.15625,-5.46875 c -0.234375,0 -0.4375,0.1875 -0.4375,0.421875 0,0.25 0.203125,0.453125 0.4375,0.453125 0.25,0 0.4375,-0.203125 0.4375,-0.453125 0,-0.234375 -0.1875,-0.421875 -0.4375,-0.421875 z m 0,0"
           id="path56" />
      </g>
      <g
         id="use1864"
         transform="translate(174.3587,260.32211)">
        <path
           d="m 4.234375,-1.765625 c 0,-1.078125 -0.828125,-1.875 -1.9375,-1.875 -1.109375,0 -1.953125,0.796875 -1.953125,1.875 0,1.078125 0.84375,1.875 1.953125,1.875 1.109375,0 1.9375,-0.796875 1.9375,-1.875 z m -0.75,0 c 0,0.859375 -0.359375,1.671875 -1.1875,1.671875 -0.828125,0 -1.203125,-0.75 -1.203125,-1.671875 0,-1.015625 0.453125,-1.671875 1.203125,-1.671875 0.8125,0 1.1875,0.78125 1.1875,1.671875 z m 0,0"
           id="path125" />
      </g>
      <g
         id="use1865"
         transform="translate(178.93871,260.32211)">
        <path
           d="m 3.84375,-2.375 c 0,-0.84375 -0.609375,-1.265625 -1.1875,-1.265625 -0.453125,0 -0.859375,0.234375 -1.28125,0.703125 V -3.640625 H 1.203125 L 0.09375,-3.53125 v 0.171875 c 0.484375,0 0.59375,0.09375 0.59375,0.515625 v 2 c 0,0.640625 -0.125,0.671875 -0.59375,0.671875 V 0 h 1.875 V -0.171875 C 1.4375,-0.171875 1.375,-0.3125 1.375,-0.84375 v -1.734375 c 0.34375,-0.46875 0.65625,-0.6875 1,-0.6875 0.390625,0 0.796875,0.234375 0.796875,0.8125 v 1.84375 c 0,0.328125 -0.125,0.4375 -0.609375,0.4375 V 0 h 1.890625 v -0.171875 c -0.5,0 -0.609375,-0.140625 -0.609375,-0.59375 z m 0,0"
           id="path7" />
      </g>
      <g
         id="use1866"
         transform="translate(183.51871,260.32211)" />
      <g
         id="use1867"
         transform="translate(185.76871,260.32211)">
        <path
           d="m 6.375,-2.4375 c 0,-0.90625 -0.703125,-1.203125 -1.203125,-1.203125 -0.484375,0 -0.9375,0.265625 -1.3125,0.796875 C 3.6875,-3.375 3.21875,-3.640625 2.75,-3.640625 c -0.46875,0 -0.96875,0.296875 -1.265625,0.734375 H 1.46875 V -3.640625 H 1.296875 l -1.21875,0.109375 v 0.171875 h 0.21875 c 0.328125,0 0.5,0.125 0.5,0.515625 v 2.109375 c 0,0.53125 -0.1875,0.5625 -0.609375,0.5625 V 0 h 1.875 v -0.15625 c -0.4375,0 -0.59375,-0.140625 -0.59375,-0.5 v -1.921875 c 0.234375,-0.40625 0.625,-0.6875 1.015625,-0.6875 0.390625,0 0.75,0.25 0.75,0.78125 v 1.640625 c 0,0.625 -0.109375,0.671875 -0.578125,0.671875 V 0 h 1.859375 v -0.171875 c -0.484375,0 -0.59375,-0.140625 -0.59375,-0.515625 v -1.890625 c 0.3125,-0.46875 0.625,-0.6875 1,-0.6875 0.46875,0 0.765625,0.28125 0.765625,0.734375 v 1.6875 c 0,0.578125 -0.09375,0.671875 -0.59375,0.671875 V 0 h 1.875 v -0.171875 c -0.484375,0 -0.59375,-0.125 -0.59375,-0.484375 z m 0,0"
           id="path18" />
      </g>
      <g
         id="use1868"
         transform="translate(192.95869,260.32211)">
        <path
           d="m 2.9375,-2.34375 c 0,-0.953125 -0.6875,-1.296875 -1.28125,-1.296875 -0.640625,0 -1.15625,0.4375 -1.3125,1.09375 L 0.53125,-2.5 c 0.15625,-0.515625 0.53125,-0.765625 0.9375,-0.765625 0.5,0 0.796875,0.359375 0.796875,0.859375 v 0.265625 c -0.578125,0.34375 -1.96875,0.296875 -1.96875,1.3125 0,0.515625 0.46875,0.9375 1.015625,0.9375 0.375,0 0.59375,-0.125 0.953125,-0.5 0.109375,0.34375 0.296875,0.5 0.59375,0.5 0.40625,0 0.65625,-0.28125 0.6875,-0.71875 H 3.375 c -0.078125,0.25 -0.125,0.34375 -0.234375,0.34375 -0.15625,0 -0.203125,-0.140625 -0.203125,-0.546875 z m -0.671875,1.625 C 2.125,-0.421875 1.734375,-0.265625 1.53125,-0.265625 c -0.296875,0 -0.546875,-0.296875 -0.546875,-0.65625 0,-0.71875 0.609375,-0.703125 1.28125,-1 z m 0,0"
           id="path47" />
      </g>
      <g
         id="use1869"
         transform="translate(196.6087,260.32211)">
        <path
           d="m 1.609375,-2.8125 c -0.125,-0.3125 -0.015625,-0.5 0.25,-0.546875 V -3.53125 H 0.15625 v 0.171875 c 0.40625,0.015625 0.546875,0.125 0.71875,0.53125 L 2.15625,0.09375 1.6875,1.375 C 1.46875,2 1.21875,2.25 0.796875,2.25 0.671875,2.25 0.59375,2.234375 0.453125,2.171875 L 0.21875,2.78125 c 0.1875,0.109375 0.296875,0.15625 0.4375,0.15625 0.4375,0 0.890625,-0.484375 1.171875,-1.296875 L 3.234375,-2.53125 C 3.4375,-3.125 3.671875,-3.359375 4.046875,-3.359375 V -3.53125 h -1.25 v 0.171875 c 0.390625,0.015625 0.421875,0.25 0.28125,0.671875 l -0.625,1.875 z m 0,0"
           id="path133" />
      </g>
      <g
         id="use1870"
         transform="translate(200.7787,260.32211)" />
      <g
         id="use1871"
         transform="translate(203.0287,260.32211)">
        <path
           d="M 1.296875,-6.28125 H 1.125 l -1.140625,0.125 v 0.171875 c 0.578125,0 0.640625,0.0625 0.640625,0.609375 v 5.3125 c 0.46875,0.078125 0.8125,0.109375 1.09375,0.109375 1.828125,0 2.40625,-1.109375 2.40625,-1.953125 0,-0.96875 -0.71875,-1.734375 -1.640625,-1.734375 -0.421875,0 -0.890625,0.203125 -1.1875,0.53125 z m 0,3.4375 c 0.28125,-0.359375 0.546875,-0.5 0.90625,-0.5 0.546875,0 1.1875,0.5 1.1875,1.515625 0,1.203125 -0.703125,1.6875 -1.484375,1.6875 -0.5,0 -0.609375,-0.21875 -0.609375,-0.6875 z m 0,0"
           id="path3" />
      </g>
      <g
         id="use1872"
         transform="translate(207.5087,260.32211)">
        <path
           d="m 3.671875,-2.15625 c 0.046875,-0.828125 -0.71875,-1.484375 -1.53125,-1.484375 -1,0 -1.78125,0.84375 -1.78125,1.90625 0,1.078125 0.796875,1.84375 1.90625,1.84375 0.625,0 1.03125,-0.203125 1.46875,-0.765625 v -0.25 c -0.515625,0.5625 -0.765625,0.734375 -1.25,0.734375 C 2,-0.171875 1.046875,-0.5625 1.0625,-2.15625 Z M 1.0625,-2.328125 C 1.109375,-2.984375 1.453125,-3.4375 2.046875,-3.4375 2.5,-3.4375 3.03125,-3.109375 3,-2.328125 Z m 0,0"
           id="path105" />
      </g>
      <g
         id="use1873"
         transform="translate(211.5687,260.32211)" />
      <g
         id="use1874"
         transform="translate(213.8187,260.32211)">
        <path
           d="m 4.234375,-1.765625 c 0,-1.078125 -0.828125,-1.875 -1.9375,-1.875 -1.109375,0 -1.953125,0.796875 -1.953125,1.875 0,1.078125 0.84375,1.875 1.953125,1.875 1.109375,0 1.9375,-0.796875 1.9375,-1.875 z m -0.75,0 c 0,0.859375 -0.359375,1.671875 -1.1875,1.671875 -0.828125,0 -1.203125,-0.75 -1.203125,-1.671875 0,-1.015625 0.453125,-1.671875 1.203125,-1.671875 0.8125,0 1.1875,0.78125 1.1875,1.671875 z m 0,0"
           id="path126" />
      </g>
      <g
         id="use1875"
         transform="translate(218.3987,260.32211)">
        <path
           d="m 0.703125,2.125 c 0,0.390625 -0.140625,0.484375 -0.609375,0.484375 V 2.78125 H 1.984375 V 2.609375 c -0.5,0 -0.59375,-0.15625 -0.59375,-0.59375 V -0.3125 c 0.40625,0.3125 0.6875,0.421875 1.0625,0.421875 1.015625,0 1.765625,-0.8125 1.765625,-1.90625 0,-1.046875 -0.671875,-1.84375 -1.59375,-1.84375 -0.453125,0 -0.78125,0.15625 -1.234375,0.59375 v -0.59375 H 1.21875 l -1.125,0.109375 v 0.171875 c 0.53125,0 0.609375,0.0625 0.609375,0.546875 z m 0.6875,-4.90625 c 0.328125,-0.375 0.59375,-0.53125 0.953125,-0.53125 0.671875,0 1.140625,0.6875 1.140625,1.640625 C 3.484375,-0.796875 3,-0.125 2.375,-0.125 c -0.34375,0 -0.71875,-0.171875 -0.984375,-0.4375 z m 0,0"
           id="path130" />
      </g>
      <g
         id="use1876"
         transform="translate(222.9787,260.32211)">
        <path
           d="M 1.515625,-4.734375 H 1.34375 c -0.296875,0.609375 -0.703125,1.03125 -1.1875,1.28125 v 0.15625 h 0.671875 v 2.375 c 0,0.609375 0.421875,1.03125 1.015625,1.03125 0.40625,0 0.765625,-0.203125 1.078125,-0.59375 l -0.109375,-0.125 c -0.21875,0.234375 -0.40625,0.34375 -0.65625,0.34375 -0.390625,0 -0.640625,-0.25 -0.640625,-0.75 v -2.28125 h 1.21875 v -0.25 h -1.21875 z m 0,0"
           id="path112" />
      </g>
      <g
         id="use1877"
         transform="translate(225.8987,260.32211)">
        <path
           d="M 1.484375,-3.640625 H 1.3125 L 0.140625,-3.53125 v 0.171875 c 0.515625,0 0.671875,0.046875 0.671875,0.53125 v 2.171875 c 0,0.421875 -0.125,0.484375 -0.671875,0.484375 V 0 h 1.9375 v -0.171875 c -0.5,0 -0.59375,-0.140625 -0.59375,-0.484375 z M 1.15625,-5.46875 c -0.234375,0 -0.4375,0.1875 -0.4375,0.421875 0,0.25 0.203125,0.453125 0.4375,0.453125 0.25,0 0.4375,-0.203125 0.4375,-0.453125 0,-0.234375 -0.1875,-0.421875 -0.4375,-0.421875 z m 0,0"
           id="path57" />
      </g>
      <g
         id="use1878"
         transform="translate(228.18871,260.32211)">
        <path
           d="m 4.234375,-1.765625 c 0,-1.078125 -0.828125,-1.875 -1.9375,-1.875 -1.109375,0 -1.953125,0.796875 -1.953125,1.875 0,1.078125 0.84375,1.875 1.953125,1.875 1.109375,0 1.9375,-0.796875 1.9375,-1.875 z m -0.75,0 c 0,0.859375 -0.359375,1.671875 -1.1875,1.671875 -0.828125,0 -1.203125,-0.75 -1.203125,-1.671875 0,-1.015625 0.453125,-1.671875 1.203125,-1.671875 0.8125,0 1.1875,0.78125 1.1875,1.671875 z m 0,0"
           id="path127" />
      </g>
      <g
         id="use1879"
         transform="translate(232.76871,260.32211)">
        <path
           d="m 3.84375,-2.375 c 0,-0.84375 -0.609375,-1.265625 -1.1875,-1.265625 -0.453125,0 -0.859375,0.234375 -1.28125,0.703125 V -3.640625 H 1.203125 L 0.09375,-3.53125 v 0.171875 c 0.484375,0 0.59375,0.09375 0.59375,0.515625 v 2 c 0,0.640625 -0.125,0.671875 -0.59375,0.671875 V 0 h 1.875 V -0.171875 C 1.4375,-0.171875 1.375,-0.3125 1.375,-0.84375 v -1.734375 c 0.34375,-0.46875 0.65625,-0.6875 1,-0.6875 0.390625,0 0.796875,0.234375 0.796875,0.8125 v 1.84375 c 0,0.328125 -0.125,0.4375 -0.609375,0.4375 V 0 h 1.890625 v -0.171875 c -0.5,0 -0.609375,-0.140625 -0.609375,-0.59375 z m 0,0"
           id="path8" />
      </g>
      <g
         id="use1880"
         transform="translate(237.34869,260.32211)">
        <path
           d="m 2.9375,-2.34375 c 0,-0.953125 -0.6875,-1.296875 -1.28125,-1.296875 -0.640625,0 -1.15625,0.4375 -1.3125,1.09375 L 0.53125,-2.5 c 0.15625,-0.515625 0.53125,-0.765625 0.9375,-0.765625 0.5,0 0.796875,0.359375 0.796875,0.859375 v 0.265625 c -0.578125,0.34375 -1.96875,0.296875 -1.96875,1.3125 0,0.515625 0.46875,0.9375 1.015625,0.9375 0.375,0 0.59375,-0.125 0.953125,-0.5 0.109375,0.34375 0.296875,0.5 0.59375,0.5 0.40625,0 0.65625,-0.28125 0.6875,-0.71875 H 3.375 c -0.078125,0.25 -0.125,0.34375 -0.234375,0.34375 -0.15625,0 -0.203125,-0.140625 -0.203125,-0.546875 z m -0.671875,1.625 C 2.125,-0.421875 1.734375,-0.265625 1.53125,-0.265625 c -0.296875,0 -0.546875,-0.296875 -0.546875,-0.65625 0,-0.71875 0.609375,-0.703125 1.28125,-1 z m 0,0"
           id="path48" />
      </g>
      <g
         id="use1881"
         transform="translate(240.9987,260.32211)">
        <path
           d="m 0.875,-0.84375 c 0,0.53125 -0.109375,0.671875 -0.46875,0.671875 H 0.234375 V 0 h 1.96875 v -0.171875 h -0.09375 c -0.421875,0 -0.546875,-0.125 -0.546875,-0.5 V -6.28125 H 1.390625 l -1.21875,0.125 v 0.171875 H 0.40625 c 0.359375,0 0.46875,0.140625 0.46875,0.46875 z m 0,0"
           id="path40" />
      </g>
      <g
         id="use1882"
         transform="translate(243.3987,260.32211)">
        <path
           d="m 1.453125,-0.703125 c -0.25,0 -0.46875,0.21875 -0.46875,0.46875 0,0.265625 0.21875,0.484375 0.46875,0.484375 0.265625,0 0.484375,-0.21875 0.484375,-0.484375 0,-0.25 -0.21875,-0.46875 -0.484375,-0.46875 z m 0,0"
           id="path1" />
      </g>
    </g>
  </g>
</svg>
