<?xml version="1.0" encoding="UTF-8" standalone="no"?>
<!-- Created with Inkscape (http://www.inkscape.org/) -->

<svg
   width="132.43452mm"
   height="54.677357mm"
   viewBox="0 0 132.43452 54.677357"
   version="1.1"
   id="svg1"
   inkscape:version="1.3.2 (091e20e, 2023-11-25)"
   sodipodi:docname="sen_dag2.svg"
   xmlns:inkscape="http://www.inkscape.org/namespaces/inkscape"
   xmlns:sodipodi="http://sodipodi.sourceforge.net/DTD/sodipodi-0.dtd"
   xmlns="http://www.w3.org/2000/svg"
   xmlns:svg="http://www.w3.org/2000/svg">
  <sodipodi:namedview
     id="namedview1"
     pagecolor="#ffffff"
     bordercolor="#000000"
     borderopacity="0.25"
     inkscape:showpageshadow="2"
     inkscape:pageopacity="0.0"
     inkscape:pagecheckerboard="0"
     inkscape:deskcolor="#d1d1d1"
     inkscape:document-units="mm"
     inkscape:zoom="0.2102413"
     inkscape:cx="416.18844"
     inkscape:cy="366.24583"
     inkscape:window-width="1312"
     inkscape:window-height="449"
     inkscape:window-x="0"
     inkscape:window-y="38"
     inkscape:window-maximized="0"
     inkscape:current-layer="layer1" />
  <defs
     id="defs1" />
  <g
     inkscape:label="Layer 1"
     inkscape:groupmode="layer"
     id="layer1"
     transform="translate(4.4811942,-51.858333)">
    <g
       fill="#000000"
       fill-opacity="1"
       id="g105"
       transform="matrix(0.35277777,0,0,0.35277777,-45.99474,12.216976)">
      <g
         id="use104"
         transform="translate(118.397,193.57201)">
        <path
           d="m 2.71875,-7.953125 c -0.5625,0 -0.859375,-0.03125 -1.40625,-0.0625 -0.046875,0.0625 -0.09375,0.203125 -0.09375,0.296875 0,0.03125 0.015625,0.0625 0.03125,0.0625 0.125,0 0.421875,0.078125 0.59375,0.203125 0.265625,0.1875 0.40625,0.390625 0.578125,0.8125 l 1.0625,2.625 -2.84375,3.21875 c -0.40625,0.421875 -1.1875,0.484375 -1.28125,0.484375 -0.015625,0.03125 -0.09375,0.28125 -0.078125,0.34375 0.453125,-0.015625 0.8125,-0.0625 1.40625,-0.0625 0.40625,0 0.84375,0.046875 1.25,0.0625 C 1.953125,0 2.015625,-0.234375 1.984375,-0.3125 1.375,-0.3125 1.1875,-0.515625 1.1875,-0.59375 c 0,-0.078125 0.0625,-0.171875 0.09375,-0.203125 0.265625,-0.328125 1.546875,-1.875 2.40625,-2.84375 l 1.171875,2.84375 c 0,0.03125 0.03125,0.109375 0.015625,0.140625 -0.046875,0.21875 -0.609375,0.34375 -0.734375,0.34375 -0.046875,0 -0.078125,0.140625 -0.078125,0.25 0,0.046875 0.015625,0.09375 0.03125,0.09375 0.625,-0.015625 1.015625,-0.0625 1.65625,-0.0625 0.453125,0 0.6875,0.046875 1.140625,0.0625 0,-0.015625 0.09375,-0.28125 0.046875,-0.34375 -0.359375,0 -0.859375,-0.140625 -1.015625,-0.484375 l -1.46875,-3.5625 2.578125,-2.796875 c 0.390625,-0.4375 1,-0.5 1.078125,-0.5 0.078125,-0.046875 0.109375,-0.203125 0.109375,-0.296875 0,-0.015625 0,-0.046875 0,-0.0625 -0.28125,0.03125 -0.671875,0.078125 -1.265625,0.078125 -0.40625,0 -0.734375,-0.03125 -1.1875,-0.078125 -0.03125,0.0625 -0.0625,0.21875 -0.0625,0.3125 0,0.03125 0.015625,0.046875 0.015625,0.046875 0.609375,0 0.734375,0.203125 0.734375,0.296875 0,0.0625 -0.0625,0.15625 -0.09375,0.203125 C 6.125,-6.828125 5.140625,-5.71875 4.28125,-4.75 L 3.375,-6.90625 C 3.328125,-7.046875 3.296875,-7.171875 3.328125,-7.265625 c 0.046875,-0.3125 0.59375,-0.390625 0.75,-0.390625 0.0625,0 0.09375,-0.28125 0.078125,-0.359375 -0.453125,0.03125 -0.875,0.0625 -1.4375,0.0625 z m 0,0"
           id="path75" />
      </g>
    </g>
    <g
       fill="#000000"
       fill-opacity="1"
       id="g106"
       transform="matrix(0.35277777,0,0,0.35277777,-45.99474,12.216976)">
      <g
         id="use105"
         transform="translate(126.439,195.36501)">
        <path
           d="M 2.46875,1.046875 C 2.46875,1.421875 2.09375,1.75 1.5,1.75 0.8125,1.75 0.234375,1.5625 0.234375,0.96875 c 0,-0.5 0.546875,-0.765625 0.890625,-0.921875 0.515625,0.15625 1.34375,0.4375 1.34375,1 z m -0.578125,-4.65625 c 0.328125,0 0.53125,0.5625 0.53125,1 0,0.546875 -0.28125,1.265625 -0.859375,1.265625 -0.375,0 -0.546875,-0.40625 -0.546875,-0.84375 0,-0.625 0.3125,-1.421875 0.875,-1.421875 z m 1.0625,0.21875 h 0.09375 c 0.171875,0 0.453125,0.015625 0.5625,0.015625 0.0625,0 0.09375,-0.0625 0.09375,-0.125 0,-0.109375 -0.234375,-0.265625 -0.359375,-0.296875 C 3.25,-3.78125 3,-3.65625 2.859375,-3.65625 c -0.03125,0 -0.046875,0 -0.078125,-0.015625 -0.21875,-0.109375 -0.421875,-0.1875 -0.75,-0.1875 -0.828125,0 -1.6875,0.734375 -1.6875,1.734375 0,0.703125 0.734375,1.046875 1.015625,1.046875 -0.296875,0.0625 -0.890625,0.375 -0.890625,0.59375 0,0.15625 0.125,0.25 0.21875,0.328125 l 0.15625,0.109375 c -0.515625,0.234375 -1.265625,0.640625 -1.265625,1.25 0,0.546875 0.578125,0.859375 1.375,0.859375 1.265625,0 2.078125,-0.53125 2.078125,-1.375 0,-1.03125 -1.78125,-1.125 -1.78125,-1.421875 0,-0.1875 0.71875,-0.359375 1.015625,-0.546875 0.1875,-0.109375 0.8125,-0.546875 0.8125,-1.484375 0,-0.234375 -0.109375,-0.5625 -0.125,-0.625 z m 0,0"
           id="path44" />
      </g>
    </g>
    <g
       fill="#000000"
       fill-opacity="1"
       id="g107"
       transform="matrix(0.35277777,0,0,0.35277777,-45.99474,12.216976)">
      <g
         id="use106"
         transform="translate(130.49817,195.36501)">
        <path
           d="m 2.421875,-3.859375 c -1.015625,0 -2.21875,1.3125 -2.21875,2.625 0,0.828125 0.34375,1.28125 0.984375,1.28125 0.5625,0 1.21875,-0.75 1.34375,-0.953125 0,-0.046875 -0.078125,-0.171875 -0.109375,-0.171875 C 2.390625,-1.046875 1.90625,-0.46875 1.5,-0.46875 c -0.4375,0 -0.609375,-0.421875 -0.609375,-0.953125 0,-0.046875 0.015625,-0.265625 0.015625,-0.28125 0.5625,0 2.109375,-0.75 2.109375,-1.59375 0,-0.265625 -0.125,-0.5625 -0.59375,-0.5625 z m -1.5,1.921875 C 0.96875,-2.390625 1.375,-3.5 1.984375,-3.5 c 0.171875,0 0.375,0.125 0.375,0.359375 0,0.65625 -1.09375,1.203125 -1.4375,1.203125 z m 0,0"
           id="path80" />
      </g>
    </g>
    <g
       fill="#000000"
       fill-opacity="1"
       id="g108"
       transform="matrix(0.35277777,0,0,0.35277777,-45.99474,12.216976)">
      <g
         id="use107"
         transform="translate(133.88226,195.36501)">
        <path
           d="m 2.109375,-3.578125 c 0.3125,0 0.453125,0.453125 0.453125,1.15625 0,0.890625 -0.421875,2.1875 -1.15625,2.1875 -0.3125,0 -0.5,-0.453125 -0.5,-1.171875 0,-0.875 0.453125,-2.171875 1.203125,-2.171875 z m 0.109375,-0.28125 c -1.015625,0 -2.015625,1.390625 -2.015625,2.625 0,0.765625 0.328125,1.28125 1.046875,1.28125 1.015625,0 2.015625,-1.359375 2.015625,-2.59375 0,-0.765625 -0.328125,-1.3125 -1.046875,-1.3125 z m 0,0"
           id="path47" />
      </g>
    </g>
    <g
       fill="#000000"
       fill-opacity="1"
       id="g113"
       transform="matrix(0.35277777,0,0,0.35277777,-45.99474,12.216976)">
      <g
         id="use108"
         transform="translate(184.34399,195.259)">
        <path
           d="m 4.5,-7.78125 c -2.28125,0 -3.9375,1.84375 -3.9375,4.03125 0,2.0625 1.59375,3.828125 3.890625,3.828125 1.078125,0 1.875,-0.171875 2.515625,-0.53125 C 7.140625,-0.59375 7.375,-1.90625 7.375,-2.140625 7.265625,-2.21875 7.125,-2.25 7,-2.234375 6.921875,-1.859375 6.734375,-1.28125 6.28125,-0.875 5.953125,-0.578125 5.46875,-0.3125 4.75,-0.3125 2.71875,-0.3125 1.71875,-2.1875 1.71875,-4 c 0,-1.640625 1.109375,-3.40625 2.84375,-3.40625 1.953125,0 2.21875,1.34375 2.28125,1.703125 0.046875,0.03125 0.078125,0.03125 0.15625,0.03125 0.109375,0 0.25,-0.0625 0.25,-0.140625 0,-0.109375 -0.265625,-1.734375 -0.265625,-1.734375 C 6.125,-7.734375 5.265625,-7.78125 4.5,-7.78125 Z m 0,0"
           id="path70" />
      </g>
      <g
         id="use109"
         transform="translate(192.21053,195.259)">
        <path
           d="m 2.875,-4.859375 c 1.0625,0 1.671875,1.328125 1.671875,2.5 0,1.015625 -0.375,2.0625 -1.390625,2.0625 C 2.078125,-0.296875 1.5,-1.625 1.5,-2.78125 1.5,-3.828125 1.859375,-4.859375 2.875,-4.859375 Z M 3.015625,-5.25 c -1.4375,0 -2.53125,1.15625 -2.53125,2.703125 0,1.5 0.984375,2.625 2.546875,2.625 1.4375,0 2.515625,-1.171875 2.515625,-2.71875 0,-1.5 -0.96875,-2.609375 -2.53125,-2.609375 z m 0,0"
           id="path66" />
      </g>
      <g
         id="use110"
         transform="translate(198.22398,195.259)">
        <path
           d="m 1.890625,-5.15625 v -1.421875 c 0,-0.046875 -0.125,-0.046875 -0.1875,0.015625 -0.015625,0.03125 -0.484375,0.484375 -0.71875,0.734375 v 0.671875 h -0.4375 c -0.015625,0 -0.3125,0.3125 -0.3125,0.359375 0,0.046875 0.03125,0.109375 0.0625,0.109375 h 0.6875 v 3.46875 c 0,1.03125 0.640625,1.296875 1.25,1.296875 0.578125,0 1.046875,-0.453125 1.203125,-0.640625 0.015625,-0.015625 0.046875,-0.125 0.046875,-0.1875 0,-0.03125 0,-0.0625 -0.03125,-0.078125 -0.078125,0.0625 -0.421875,0.28125 -0.765625,0.28125 -0.53125,0 -0.796875,-0.34375 -0.796875,-0.984375 V -4.6875 h 1.4375 c 0.109375,-0.109375 0.15625,-0.234375 0.15625,-0.34375 0,-0.078125 0,-0.125 -0.046875,-0.125 z m 0,0"
           id="path61" />
      </g>
      <g
         id="use111"
         transform="translate(201.89424,195.259)">
        <path
           d="m 1.890625,-5.15625 v -1.421875 c 0,-0.046875 -0.125,-0.046875 -0.1875,0.015625 -0.015625,0.03125 -0.484375,0.484375 -0.71875,0.734375 v 0.671875 h -0.4375 c -0.015625,0 -0.3125,0.3125 -0.3125,0.359375 0,0.046875 0.03125,0.109375 0.0625,0.109375 h 0.6875 v 3.46875 c 0,1.03125 0.640625,1.296875 1.25,1.296875 0.578125,0 1.046875,-0.453125 1.203125,-0.640625 0.015625,-0.015625 0.046875,-0.125 0.046875,-0.1875 0,-0.03125 0,-0.0625 -0.03125,-0.078125 -0.078125,0.0625 -0.421875,0.28125 -0.765625,0.28125 -0.53125,0 -0.796875,-0.34375 -0.796875,-0.984375 V -4.6875 h 1.4375 c 0.109375,-0.109375 0.15625,-0.234375 0.15625,-0.34375 0,-0.078125 0,-0.125 -0.046875,-0.125 z m 0,0"
           id="path62" />
      </g>
      <g
         id="use112"
         transform="translate(205.56448,195.259)">
        <path
           d="m 2.875,-4.859375 c 1.0625,0 1.671875,1.328125 1.671875,2.5 0,1.015625 -0.375,2.0625 -1.390625,2.0625 C 2.078125,-0.296875 1.5,-1.625 1.5,-2.78125 1.5,-3.828125 1.859375,-4.859375 2.875,-4.859375 Z M 3.015625,-5.25 c -1.4375,0 -2.53125,1.15625 -2.53125,2.703125 0,1.5 0.984375,2.625 2.546875,2.625 1.4375,0 2.515625,-1.171875 2.515625,-2.71875 0,-1.5 -0.96875,-2.609375 -2.53125,-2.609375 z m 0,0"
           id="path67" />
      </g>
      <g
         id="use113"
         transform="translate(211.57794,195.259)">
        <path
           d="m 3.8125,-5.234375 c -0.578125,0 -1.34375,0.609375 -1.59375,0.859375 0,0.015625 -0.015625,0.03125 -0.03125,0.03125 -0.03125,0 -0.03125,-0.046875 -0.03125,-0.0625 0,-0.09375 0.0625,-0.578125 0.078125,-0.65625 0,-0.03125 -0.078125,-0.078125 -0.140625,-0.078125 -0.46875,0.1875 -1.09375,0.3125 -1.6875,0.375 v 0.3125 c 0.078125,0 0.6875,0 0.78125,0.203125 C 1.25,-4.09375 1.25,-3.734375 1.25,-3.578125 v 2.1875 c 0,0.359375 0,0.703125 -0.0625,0.90625 -0.046875,0.125 -0.609375,0.1875 -0.75,0.1875 V 0.03125 c 0.46875,-0.015625 0.796875,-0.0625 1.25,-0.0625 0.46875,0 0.78125,0.046875 1.265625,0.0625 V -0.296875 C 2.8125,-0.296875 2.25,-0.359375 2.21875,-0.484375 2.140625,-0.6875 2.140625,-1.03125 2.140625,-1.390625 v -2.5 c 0,-0.109375 0.703125,-0.65625 1.140625,-0.65625 0.9375,0 1.171875,0.46875 1.171875,1.96875 v 1.1875 c 0,0.359375 0,0.703125 -0.0625,0.90625 -0.046875,0.125 -0.59375,0.1875 -0.75,0.1875 V 0.03125 c 0.484375,-0.015625 0.78125,-0.0625 1.25,-0.0625 0.46875,0 0.78125,0.046875 1.28125,0.0625 v -0.328125 c -0.15625,0 -0.734375,-0.0625 -0.765625,-0.1875 C 5.34375,-0.6875 5.34375,-1.015625 5.34375,-1.375 v -1.328125 c 0,-1.734375 -0.25,-2.53125 -1.53125,-2.53125 z m 0,0"
           id="path74" />
      </g>
    </g>
    <g
       fill="#000000"
       fill-opacity="1"
       id="g114"
       transform="matrix(0.35277777,0,0,0.35277777,-45.99474,12.216976)">
      <g
         id="use114"
         transform="translate(220.5563,195.259)">
        <path
           d="M 3.046875,-7.765625 C 1.875,-7.765625 0.75,-6.96875 0.75,-5.71875 c 0,1.171875 1.140625,1.8125 2.03125,2.34375 0.796875,0.453125 1.5625,0.703125 1.5625,1.671875 0,0.90625 -0.65625,1.421875 -1.40625,1.421875 C 1.546875,-0.28125 1.09375,-1.625 1,-2.0625 0.984375,-2.125 0.953125,-2.171875 0.875,-2.171875 c -0.109375,0 -0.234375,0.0625 -0.296875,0.140625 0,0.140625 0.09375,1.109375 0.234375,1.796875 0.578125,0.125 1.3125,0.359375 2.109375,0.359375 1.234375,0 2.4375,-0.859375 2.4375,-2.140625 0,-1.15625 -1.265625,-1.765625 -2.03125,-2.25 -0.765625,-0.484375 -1.625,-0.890625 -1.625,-1.8125 0,-0.5625 0.3125,-1.296875 1.265625,-1.296875 0.984375,0 1.5625,1.078125 1.640625,1.65625 0.03125,0.046875 0.09375,0.046875 0.125,0.046875 0.078125,0 0.25,-0.03125 0.234375,-0.109375 C 4.953125,-6.09375 4.90625,-6.84375 4.8125,-7.453125 4.046875,-7.625 3.78125,-7.765625 3.046875,-7.765625 Z m 0,0"
           id="path71" />
      </g>
    </g>
    <g
       fill="#000000"
       fill-opacity="1"
       id="g118"
       transform="matrix(0.35277777,0,0,0.35277777,-45.99474,12.216976)">
      <g
         id="use115"
         transform="translate(226.35457,195.259)">
        <path
           d="m 4.15625,-3.734375 v 2.515625 c 0,0.28125 -0.578125,0.640625 -1.09375,0.640625 -0.828125,0 -1.203125,-0.5625 -1.203125,-1.796875 v -1.71875 c 0,-0.34375 0.046875,-0.71875 0.09375,-0.8125 0,-0.046875 -0.078125,-0.234375 -0.140625,-0.234375 -0.40625,0.125 -1,0.21875 -1.609375,0.234375 v 0.296875 c 0.171875,0 0.53125,0.03125 0.671875,0.25 0.09375,0.171875 0.09375,0.46875 0.09375,0.625 V -2.25 c 0,0.984375 0.21875,2.328125 1.484375,2.328125 0.609375,0 1.359375,-0.421875 1.6875,-0.765625 0,0 0.015625,0 0.015625,0.046875 v 0.546875 c 0,0.078125 0.046875,0.1875 0.109375,0.1875 0.015625,0 0.90625,-0.296875 1.53125,-0.328125 0.0625,0 0.078125,-0.15625 0.078125,-0.1875 0,-0.03125 0,-0.109375 -0.03125,-0.125 C 5.8125,-0.5625 5.21875,-0.53125 5.15625,-0.75 5.0625,-1.078125 5.0625,-1.515625 5.0625,-1.65625 v -2.4375 c 0,-0.34375 0.046875,-0.65625 0.09375,-0.765625 0,-0.046875 -0.078125,-0.28125 -0.140625,-0.28125 -0.421875,0.125 -1.015625,0.21875 -1.625,0.234375 v 0.296875 c 0.15625,0 0.546875,0.03125 0.671875,0.25 0.09375,0.171875 0.09375,0.46875 0.09375,0.625 z m 0,0"
           id="path60" />
      </g>
      <g
         id="use116"
         transform="translate(232.43977,195.259)">
        <path
           d="m 1.015625,-6.921875 c 0,0.328125 0.265625,0.59375 0.59375,0.59375 0.3125,0 0.578125,-0.265625 0.578125,-0.59375 C 2.1875,-7.25 1.921875,-7.5 1.609375,-7.5 c -0.328125,0 -0.59375,0.25 -0.59375,0.578125 z m 1.125,3.125 V -4.1875 c 0,-0.109375 0.078125,-0.671875 0.078125,-0.765625 0,-0.0625 -0.0625,-0.1875 -0.125,-0.1875 C 1.625,-4.890625 1,-4.734375 0.40625,-4.65625 v 0.3125 c 0.078125,0 0.6875,0 0.78125,0.203125 C 1.25,-4 1.25,-3.6875 1.25,-3.53125 v 2.1875 c 0,0.34375 0,0.65625 -0.0625,0.859375 -0.046875,0.125 -0.609375,0.1875 -0.75,0.1875 V 0.03125 c 0.46875,-0.015625 0.796875,-0.0625 1.25,-0.0625 0.46875,0 0.78125,0.046875 1.25,0.0625 v -0.328125 c -0.140625,0 -0.703125,-0.0625 -0.734375,-0.1875 C 2.140625,-0.6875 2.140625,-1 2.140625,-1.34375 Z m 0,0"
           id="path55" />
      </g>
      <g
         id="use117"
         transform="translate(235.60789,195.259)">
        <path
           d="m 1.890625,-5.15625 v -1.421875 c 0,-0.046875 -0.125,-0.046875 -0.1875,0.015625 -0.015625,0.03125 -0.484375,0.484375 -0.71875,0.734375 v 0.671875 h -0.4375 c -0.015625,0 -0.3125,0.3125 -0.3125,0.359375 0,0.046875 0.03125,0.109375 0.0625,0.109375 h 0.6875 v 3.46875 c 0,1.03125 0.640625,1.296875 1.25,1.296875 0.578125,0 1.046875,-0.453125 1.203125,-0.640625 0.015625,-0.015625 0.046875,-0.125 0.046875,-0.1875 0,-0.03125 0,-0.0625 -0.03125,-0.078125 -0.078125,0.0625 -0.421875,0.28125 -0.765625,0.28125 -0.53125,0 -0.796875,-0.34375 -0.796875,-0.984375 V -4.6875 h 1.4375 c 0.109375,-0.109375 0.15625,-0.234375 0.15625,-0.34375 0,-0.078125 0,-0.125 -0.046875,-0.125 z m 0,0"
           id="path63" />
      </g>
      <g
         id="use118"
         transform="translate(239.27814,195.259)">
        <path
           d="m 0.5625,-0.53125 c 0,0.359375 0.3125,0.65625 0.65625,0.65625 0.34375,0 0.625,-0.296875 0.625,-0.65625 0,-0.34375 -0.28125,-0.625 -0.625,-0.625 -0.34375,0 -0.65625,0.28125 -0.65625,0.625 z m 0,0"
           id="path54" />
      </g>
    </g>
    <g
       fill="#000000"
       fill-opacity="1"
       id="g121"
       transform="matrix(0.35277777,0,0,0.35277777,-45.99474,12.216976)">
      <g
         id="use119"
         transform="translate(272.05399,194.22501)">
        <path
           d="M 3.046875,-7.765625 C 1.875,-7.765625 0.75,-6.96875 0.75,-5.71875 c 0,1.171875 1.140625,1.8125 2.03125,2.34375 0.796875,0.453125 1.5625,0.703125 1.5625,1.671875 0,0.90625 -0.65625,1.421875 -1.40625,1.421875 C 1.546875,-0.28125 1.09375,-1.625 1,-2.0625 0.984375,-2.125 0.953125,-2.171875 0.875,-2.171875 c -0.109375,0 -0.234375,0.0625 -0.296875,0.140625 0,0.140625 0.09375,1.109375 0.234375,1.796875 0.578125,0.125 1.3125,0.359375 2.109375,0.359375 1.234375,0 2.4375,-0.859375 2.4375,-2.140625 0,-1.15625 -1.265625,-1.765625 -2.03125,-2.25 -0.765625,-0.484375 -1.625,-0.890625 -1.625,-1.8125 0,-0.5625 0.3125,-1.296875 1.265625,-1.296875 0.984375,0 1.5625,1.078125 1.640625,1.65625 0.03125,0.046875 0.09375,0.046875 0.125,0.046875 0.078125,0 0.25,-0.03125 0.234375,-0.109375 C 4.953125,-6.09375 4.90625,-6.84375 4.8125,-7.453125 4.046875,-7.625 3.78125,-7.765625 3.046875,-7.765625 Z m 0,0"
           id="path72" />
      </g>
      <g
         id="use120"
         transform="translate(277.91205,194.22501)">
        <path
           d="m 1.0625,-6.515625 v 5.171875 c 0,0.34375 0,0.65625 -0.0625,0.859375 -0.03125,0.125 -0.59375,0.1875 -0.734375,0.1875 V 0.03125 c 0.46875,-0.015625 0.78125,-0.0625 1.234375,-0.0625 0.46875,0 0.796875,0.046875 1.28125,0.0625 v -0.328125 c -0.15625,0 -0.71875,-0.0625 -0.765625,-0.1875 C 1.953125,-0.6875 1.953125,-1 1.953125,-1.34375 v -5.546875 c 0,-0.65625 0.140625,-1.015625 0.140625,-1.015625 C 2.09375,-8 2.015625,-8.109375 1.953125,-8.109375 1.46875,-7.875 0.875,-7.703125 0.28125,-7.640625 c -0.046875,0.015625 -0.015625,0.3125 0,0.3125 0.3125,0 0.65625,0.03125 0.71875,0.203125 0.0625,0.140625 0.0625,0.4375 0.0625,0.609375 z m 0,0"
           id="path50" />
      </g>
      <g
         id="use121"
         transform="translate(280.92474,194.22501)">
        <path
           d="m 2.21875,-0.53125 c -0.453125,0 -0.8125,-0.40625 -0.8125,-0.84375 0,-0.453125 0.296875,-0.765625 0.734375,-0.9375 C 2.359375,-2.390625 2.9375,-2.5625 3.25,-2.671875 v 1.640625 c 0,0.125 -0.625,0.5 -1.03125,0.5 z m 0.625,-4.6875 C 1.984375,-5.21875 1.0625,-4.578125 0.703125,-4.25 0.65625,-4.1875 0.625,-4 0.625,-3.9375 c 0,0.25 0.140625,0.5 0.390625,0.5 0.28125,0 0.484375,-0.171875 0.546875,-0.578125 0.09375,-0.46875 0.25,-0.75 0.65625,-0.75 0.59375,0 1.03125,0.609375 1.03125,1.140625 v 0.328125 c 0,0.21875 -0.015625,0.265625 -0.140625,0.3125 -0.34375,0.15625 -1.40625,0.5 -2.0625,0.734375 C 0.78125,-2.15625 0.4375,-1.765625 0.4375,-1.28125 c 0,0.78125 0.609375,1.375 1.375,1.375 0.421875,0 1.328125,-0.640625 1.46875,-0.78125 C 3.359375,-0.328125 3.671875,0.078125 4,0.078125 c 0.25,0 0.75,-0.3125 0.890625,-0.453125 0.03125,-0.0625 0.0625,-0.15625 0.0625,-0.21875 0,-0.046875 -0.015625,-0.09375 -0.046875,-0.09375 -0.046875,0.015625 -0.1875,0.15625 -0.40625,0.15625 -0.265625,0 -0.359375,-0.25 -0.359375,-0.5625 V -3.5625 c 0,-0.921875 -0.609375,-1.65625 -1.296875,-1.65625 z m 0,0"
           id="path45" />
      </g>
    </g>
    <g
       fill="#000000"
       fill-opacity="1"
       id="g122"
       transform="matrix(0.35277777,0,0,0.35277777,-45.99474,12.216976)">
      <g
         id="use122"
         transform="translate(285.86224,194.22501)">
        <path
           d="m 1.21875,-5.078125 c -0.484375,0 -0.703125,-0.03125 -1.1875,-0.0625 V -4.8125 c 0.140625,0 0.53125,0 0.65625,0.25 C 1.34375,-3.21875 1.859375,-1.75 2.625,0.078125 2.640625,0.109375 2.6875,0.125 2.734375,0.125 c 0.09375,0 0.28125,-0.09375 0.3125,-0.203125 0.6875,-1.703125 1.09375,-2.625 1.8125,-4.3125 C 5,-4.71875 5.5,-4.8125 5.59375,-4.8125 c 0.046875,0 0.078125,-0.25 0.03125,-0.328125 -0.46875,0.03125 -0.65625,0.0625 -1.109375,0.0625 -0.484375,0 -0.59375,-0.03125 -0.96875,-0.0625 V -4.8125 c 0.40625,0 0.703125,0.15625 0.703125,0.40625 0,0.078125 -0.015625,0.21875 -0.078125,0.375 -0.453125,1.125 -1.0625,2.71875 -1.0625,2.71875 l -1.3125,-3.234375 v -0.0625 c 0,-0.171875 0.46875,-0.203125 0.5625,-0.203125 0.0625,0 0.078125,-0.25 0.0625,-0.328125 -0.484375,0.03125 -0.75,0.0625 -1.203125,0.0625 z m 0,0"
           id="path78" />
      </g>
    </g>
    <g
       fill="#000000"
       fill-opacity="1"
       id="g125"
       transform="matrix(0.35277777,0,0,0.35277777,-45.99474,12.216976)">
      <g
         id="use123"
         transform="translate(291.3497,194.22501)">
        <path
           d="m 1.359375,-3.390625 c -0.015625,0 0.25,-1.421875 1.265625,-1.421875 0.71875,0 0.953125,0.78125 0.953125,1.125 0,0.234375 -0.125,0.296875 -0.265625,0.296875 z m -0.0625,0.421875 c 0.15625,0 2.640625,-0.0625 3,-0.078125 0.21875,-0.015625 0.28125,-0.234375 0.28125,-0.5625 0,-0.484375 -0.359375,-1.625 -1.78125,-1.625 -1.046875,0 -2.3125,1.234375 -2.3125,2.84375 0,1.40625 0.96875,2.484375 2.359375,2.484375 0.921875,0 1.5,-0.671875 1.71875,-1 0.046875,-0.0625 0.09375,-0.15625 0.09375,-0.21875 0,-0.109375 -0.109375,-0.171875 -0.109375,-0.171875 C 4.390625,-1.09375 3.90625,-0.65625 3.25,-0.65625 c -1.03125,0 -1.953125,-0.75 -1.953125,-2.21875 z m 0,0"
           id="path76" />
      </g>
      <g
         id="use124"
         transform="translate(296.40674,194.22501)">
        <path
           d="m 3.59375,-5.21875 c -0.53125,0 -1.15625,0.765625 -1.390625,1.265625 -0.015625,0.015625 -0.0625,0.015625 -0.0625,-0.03125 0,-0.125 0.078125,-1 0.09375,-1.078125 0,-0.03125 -0.078125,-0.078125 -0.140625,-0.078125 -0.46875,0.1875 -1.09375,0.3125 -1.6875,0.375 v 0.3125 c 0.078125,0 0.6875,0 0.78125,0.203125 C 1.25,-4.09375 1.25,-3.78125 1.25,-3.625 v 2.234375 c 0,0.359375 0,0.703125 -0.0625,0.90625 -0.046875,0.125 -0.609375,0.1875 -0.75,0.1875 V 0.03125 c 0.46875,-0.015625 0.859375,-0.0625 1.328125,-0.0625 0.453125,0 0.984375,0.046875 1.46875,0.0625 v -0.328125 c -0.15625,0 -0.984375,-0.0625 -1.015625,-0.1875 C 2.140625,-0.6875 2.140625,-1.03125 2.140625,-1.390625 v -1.84375 c 0,-0.28125 0.4375,-1.09375 0.953125,-1.09375 0.234375,0 0.34375,0.078125 0.4375,0.140625 0.140625,0.09375 0.28125,0.25 0.453125,0.25 0.109375,0 0.390625,-0.1875 0.390625,-0.625 0,-0.140625 -0.03125,-0.25 -0.046875,-0.3125 C 4.21875,-5.0625 3.90625,-5.21875 3.59375,-5.21875 Z m 0,0"
           id="path48" />
      </g>
      <g
         id="use125"
         transform="translate(300.94971,194.22501)">
        <path
           d="m 1.21875,-5.078125 c -0.484375,0 -0.953125,-0.03125 -1.1875,-0.0625 V -4.8125 c 0.140625,0 0.515625,0 0.640625,0.25 0.71875,1.53125 1.21875,2.8125 1.890625,4.5 C 2.515625,0.078125 2.171875,0.890625 1.984375,1.140625 1.5,1.796875 1.1875,1.8125 0.625,1.8125 0.5625,1.890625 0.484375,2.015625 0.484375,2.15625 0.484375,2.578125 0.78125,2.671875 1,2.671875 1.40625,2.671875 1.765625,2.40625 2.046875,2 2.46875,1.359375 2.6875,0.609375 2.984375,-0.125 3.6875,-1.8125 4.078125,-2.71875 4.78125,-4.390625 4.9375,-4.71875 5.453125,-4.8125 5.546875,-4.8125 c 0.046875,0 0.078125,-0.25 0.015625,-0.328125 -0.25,0.03125 -0.546875,0.0625 -1,0.0625 -0.484375,0 -0.890625,-0.03125 -1.078125,-0.0625 V -4.8125 c 0.40625,0 0.703125,0.15625 0.703125,0.40625 0,0.078125 -0.015625,0.21875 -0.078125,0.359375 C 3.65625,-2.921875 3.0625,-1.34375 3.0625,-1.34375 L 1.796875,-4.546875 c -0.03125,-0.03125 -0.03125,-0.046875 -0.03125,-0.0625 0,-0.171875 0.5,-0.203125 0.59375,-0.203125 0.0625,0 0.078125,-0.25 0.0625,-0.328125 -0.21875,0.03125 -0.75,0.0625 -1.203125,0.0625 z m 0,0"
           id="path87" />
      </g>
    </g>
    <g
       fill="#000000"
       fill-opacity="1"
       id="g129"
       transform="matrix(0.35277777,0,0,0.35277777,-45.99474,12.216976)">
      <g
         id="use126"
         transform="translate(306.556,196.01801)">
        <path
           d="m 1.90625,-0.984375 c 0,0.25 0,0.484375 -0.046875,0.625 -0.03125,0.09375 -0.4375,0.140625 -0.546875,0.140625 -0.03125,0.046875 -0.046875,0.203125 0,0.25 0.359375,-0.015625 0.578125,-0.046875 0.90625,-0.046875 0.34375,0 0.609375,0.03125 0.96875,0.046875 0.03125,-0.046875 0.03125,-0.203125 0,-0.25 -0.109375,0 -0.53125,-0.046875 -0.5625,-0.140625 C 2.578125,-0.5 2.578125,-0.734375 2.578125,-0.984375 V -4.53125 c 0,-0.53125 0.078125,-0.828125 0.078125,-0.828125 C 2.640625,-5.40625 2.625,-5.5 2.5625,-5.5 H 2.546875 c -0.015625,0 -0.78125,0.375 -1.484375,0.703125 -0.03125,0 -0.015625,0.03125 -0.015625,0.046875 0,0.0625 0.046875,0.109375 0.078125,0.140625 0.140625,-0.046875 0.484375,-0.171875 0.609375,-0.171875 0.125,0 0.171875,0.078125 0.171875,0.328125 z m 0,0"
           id="path41" />
      </g>
      <g
         id="use127"
         transform="translate(310.80804,196.01801)">
        <path
           d="m 2.125,-0.234375 c -0.453125,0 -0.9375,-0.40625 -0.9375,-1.109375 0,-0.546875 0.203125,-0.890625 0.671875,-1.1875 0.015625,-0.015625 0.03125,-0.015625 0.046875,-0.015625 0.015625,0 0.03125,0.015625 0.046875,0.015625 0.125,0.078125 1.09375,0.640625 1.09375,1.34375 0,0.578125 -0.359375,0.953125 -0.921875,0.953125 z m 0,-4.96875 c 0.515625,0 0.84375,0.546875 0.84375,1.046875 0,0.46875 -0.25,0.8125 -0.59375,1.046875 -0.03125,0.015625 -0.03125,0 -0.046875,0 -0.015625,0 -0.03125,0 -0.046875,0 -0.328125,-0.1875 -0.890625,-0.5 -0.890625,-1.15625 0,-0.515625 0.3125,-0.9375 0.734375,-0.9375 z M 2.171875,-5.5 c -0.75,0 -1.421875,0.65625 -1.421875,1.390625 0,0.625 0.515625,1.125 0.875,1.34375 0.015625,0 0.03125,0.015625 0,0.046875 -0.328125,0.203125 -1.109375,0.65625 -1.109375,1.40625 0,0.828125 0.65625,1.390625 1.59375,1.390625 0.859375,0 1.640625,-0.640625 1.640625,-1.5 0,-0.625 -0.609375,-1.1875 -1.125,-1.46875 -0.03125,-0.015625 -0.046875,-0.046875 0,-0.046875 0.390625,-0.25 0.953125,-0.640625 0.953125,-1.3125 0,-0.796875 -0.640625,-1.25 -1.40625,-1.25 z m 0,0"
           id="path37" />
      </g>
      <g
         id="use128"
         transform="translate(315.06009,196.01801)">
        <path
           d="m 2.203125,-5.5 c -0.65625,0 -1.15625,0.4375 -1.421875,0.84375 0,0.078125 0.0625,0.171875 0.109375,0.171875 0.078125,-0.0625 0.421875,-0.5625 0.953125,-0.5625 0.5,0 0.84375,0.34375 0.84375,0.796875 0,0.75 -0.640625,1.109375 -1.328125,1.265625 -0.015625,0.03125 -0.015625,0.0625 -0.015625,0.09375 0,0.0625 0.015625,0.125 0.046875,0.171875 C 1.5,-2.75 1.71875,-2.828125 1.90625,-2.828125 c 0.5625,0 1.09375,0.5 1.09375,1.203125 0,0.96875 -0.546875,1.328125 -1.015625,1.328125 -0.21875,0 -0.453125,-0.046875 -0.625,-0.21875 -0.140625,-0.140625 -0.25,-0.375 -0.484375,-0.375 -0.1875,0 -0.359375,0.15625 -0.359375,0.40625 0,0.140625 0.125,0.296875 0.171875,0.328125 0.28125,0.140625 0.640625,0.203125 0.875,0.203125 1.0625,0 2.171875,-0.734375 2.171875,-1.90625 0,-0.84375 -0.703125,-1.3125 -1.1875,-1.390625 0.296875,-0.171875 0.78125,-0.59375 0.78125,-1.15625 0,-0.703125 -0.6875,-1.09375 -1.125,-1.09375 z m 0,0"
           id="path35" />
      </g>
      <g
         id="use129"
         transform="translate(319.31213,196.01801)">
        <path
           d="m 2.1875,-5.171875 c 0.625,0 1.0625,1.046875 1.0625,2.390625 0,1.34375 -0.390625,2.484375 -1.15625,2.484375 -0.625,0 -1.078125,-1.09375 -1.078125,-2.4375 0,-1.34375 0.453125,-2.4375 1.171875,-2.4375 z m -0.0625,-0.3125 c -1.171875,0 -1.859375,1.265625 -1.859375,2.75 C 0.265625,-1.25 0.96875,0.03125 2.125,0.03125 3.3125,0.03125 4,-1.25 4,-2.734375 c 0,-1.484375 -0.671875,-2.75 -1.875,-2.75 z m 0,0"
           id="path30" />
      </g>
    </g>
    <g
       fill="#000000"
       fill-opacity="1"
       id="g130"
       transform="matrix(0.35277777,0,0,0.35277777,-45.99474,12.216976)">
      <g
         id="use130"
         transform="translate(314.633,265.48801)">
        <path
           d="m 6.046875,-5.59375 c 0,-1.34375 -1.234375,-2.109375 -2.484375,-2.109375 -0.6875,0 -1.203125,0.03125 -1.65625,0.03125 -0.453125,0 -0.90625,-0.03125 -1.375,-0.046875 -0.0625,0.0625 -0.046875,0.265625 0,0.328125 0.140625,0 0.765625,0.046875 0.796875,0.1875 0.0625,0.1875 0.0625,0.515625 0.0625,0.875 v 4.984375 c 0,0.34375 0,0.65625 -0.0625,0.859375 -0.03125,0.125 -0.65625,0.1875 -0.796875,0.1875 -0.046875,0.0625 -0.0625,0.265625 0,0.328125 0.46875,-0.015625 0.921875,-0.0625 1.375,-0.0625 0.453125,0 0.875,0.046875 1.359375,0.0625 0.0625,-0.0625 0.046875,-0.265625 0,-0.328125 C 3.125,-0.296875 2.5,-0.359375 2.46875,-0.484375 2.40625,-0.6875 2.40625,-1 2.40625,-1.34375 v -4.984375 c 0,-0.34375 0,-0.734375 0.0625,-0.875 C 2.515625,-7.3125 2.90625,-7.3125 3.046875,-7.3125 c 1.296875,0 1.921875,0.765625 1.921875,1.921875 0,1.171875 -0.71875,1.8125 -1.65625,1.8125 C 3.125,-3.578125 3,-3.625 2.875,-3.65625 2.828125,-3.671875 2.8125,-3.625 2.8125,-3.59375 c 0,0.140625 0.125,0.234375 0.15625,0.265625 0.125,0.046875 0.375,0.09375 0.515625,0.09375 1.53125,0 2.5625,-0.9375 2.5625,-2.359375 z m 0,0"
           id="path85" />
      </g>
    </g>
    <g
       fill="#000000"
       fill-opacity="1"
       id="g137"
       transform="matrix(0.35277777,0,0,0.35277777,-45.99474,12.216976)">
      <g
         id="use131"
         transform="translate(320.64645,265.48801)">
        <path
           d="m 2.875,-4.859375 c 1.0625,0 1.671875,1.328125 1.671875,2.5 0,1.015625 -0.375,2.0625 -1.390625,2.0625 C 2.078125,-0.296875 1.5,-1.625 1.5,-2.78125 1.5,-3.828125 1.859375,-4.859375 2.875,-4.859375 Z M 3.015625,-5.25 c -1.4375,0 -2.53125,1.15625 -2.53125,2.703125 0,1.5 0.984375,2.625 2.546875,2.625 1.4375,0 2.515625,-1.171875 2.515625,-2.71875 0,-1.5 -0.96875,-2.609375 -2.53125,-2.609375 z m 0,0"
           id="path68" />
      </g>
      <g
         id="use132"
         transform="translate(326.65994,265.48801)">
        <path
           d="m 1.0625,-6.515625 v 5.171875 c 0,0.34375 0,0.65625 -0.0625,0.859375 -0.03125,0.125 -0.59375,0.1875 -0.734375,0.1875 V 0.03125 c 0.46875,-0.015625 0.78125,-0.0625 1.234375,-0.0625 0.46875,0 0.796875,0.046875 1.28125,0.0625 v -0.328125 c -0.15625,0 -0.71875,-0.0625 -0.765625,-0.1875 C 1.953125,-0.6875 1.953125,-1 1.953125,-1.34375 v -5.546875 c 0,-0.65625 0.140625,-1.015625 0.140625,-1.015625 C 2.09375,-8 2.015625,-8.109375 1.953125,-8.109375 1.46875,-7.875 0.875,-7.703125 0.28125,-7.640625 c -0.046875,0.015625 -0.015625,0.3125 0,0.3125 0.3125,0 0.65625,0.03125 0.71875,0.203125 0.0625,0.140625 0.0625,0.4375 0.0625,0.609375 z m 0,0"
           id="path51" />
      </g>
      <g
         id="use133"
         transform="translate(329.67264,265.48801)">
        <path
           d="m 1.015625,-6.921875 c 0,0.328125 0.265625,0.59375 0.59375,0.59375 0.3125,0 0.578125,-0.265625 0.578125,-0.59375 C 2.1875,-7.25 1.921875,-7.5 1.609375,-7.5 c -0.328125,0 -0.59375,0.25 -0.59375,0.578125 z m 1.125,3.125 V -4.1875 c 0,-0.109375 0.078125,-0.671875 0.078125,-0.765625 0,-0.0625 -0.0625,-0.1875 -0.125,-0.1875 C 1.625,-4.890625 1,-4.734375 0.40625,-4.65625 v 0.3125 c 0.078125,0 0.6875,0 0.78125,0.203125 C 1.25,-4 1.25,-3.6875 1.25,-3.53125 v 2.1875 c 0,0.34375 0,0.65625 -0.0625,0.859375 -0.046875,0.125 -0.609375,0.1875 -0.75,0.1875 V 0.03125 c 0.46875,-0.015625 0.796875,-0.0625 1.25,-0.0625 0.46875,0 0.78125,0.046875 1.25,0.0625 v -0.328125 c -0.140625,0 -0.703125,-0.0625 -0.734375,-0.1875 C 2.140625,-0.6875 2.140625,-1 2.140625,-1.34375 Z m 0,0"
           id="path56" />
      </g>
      <g
         id="use134"
         transform="translate(332.84076,265.48801)">
        <path
           d="m 1.890625,-5.15625 v -1.421875 c 0,-0.046875 -0.125,-0.046875 -0.1875,0.015625 -0.015625,0.03125 -0.484375,0.484375 -0.71875,0.734375 v 0.671875 h -0.4375 c -0.015625,0 -0.3125,0.3125 -0.3125,0.359375 0,0.046875 0.03125,0.109375 0.0625,0.109375 h 0.6875 v 3.46875 c 0,1.03125 0.640625,1.296875 1.25,1.296875 0.578125,0 1.046875,-0.453125 1.203125,-0.640625 0.015625,-0.015625 0.046875,-0.125 0.046875,-0.1875 0,-0.03125 0,-0.0625 -0.03125,-0.078125 -0.078125,0.0625 -0.421875,0.28125 -0.765625,0.28125 -0.53125,0 -0.796875,-0.34375 -0.796875,-0.984375 V -4.6875 h 1.4375 c 0.109375,-0.109375 0.15625,-0.234375 0.15625,-0.34375 0,-0.078125 0,-0.125 -0.046875,-0.125 z m 0,0"
           id="path64" />
      </g>
      <g
         id="use135"
         transform="translate(336.51102,265.48801)">
        <path
           d="m 1.015625,-6.921875 c 0,0.328125 0.265625,0.59375 0.59375,0.59375 0.3125,0 0.578125,-0.265625 0.578125,-0.59375 C 2.1875,-7.25 1.921875,-7.5 1.609375,-7.5 c -0.328125,0 -0.59375,0.25 -0.59375,0.578125 z m 1.125,3.125 V -4.1875 c 0,-0.109375 0.078125,-0.671875 0.078125,-0.765625 0,-0.0625 -0.0625,-0.1875 -0.125,-0.1875 C 1.625,-4.890625 1,-4.734375 0.40625,-4.65625 v 0.3125 c 0.078125,0 0.6875,0 0.78125,0.203125 C 1.25,-4 1.25,-3.6875 1.25,-3.53125 v 2.1875 c 0,0.34375 0,0.65625 -0.0625,0.859375 -0.046875,0.125 -0.609375,0.1875 -0.75,0.1875 V 0.03125 c 0.46875,-0.015625 0.796875,-0.0625 1.25,-0.0625 0.46875,0 0.78125,0.046875 1.25,0.0625 v -0.328125 c -0.140625,0 -0.703125,-0.0625 -0.734375,-0.1875 C 2.140625,-0.6875 2.140625,-1 2.140625,-1.34375 Z m 0,0"
           id="path57" />
      </g>
      <g
         id="use136"
         transform="translate(339.67914,265.48801)">
        <path
           d="m 4.546875,-4.609375 c 0,-0.140625 -0.078125,-0.296875 -0.125,-0.34375 -0.28125,-0.1875 -0.65625,-0.28125 -1.078125,-0.28125 -1.234375,0 -2.875,1.171875 -2.875,2.921875 0,1.25 0.953125,2.40625 2.40625,2.40625 0.921875,0 1.515625,-0.671875 1.734375,-1 0.03125,-0.0625 0.0625,-0.15625 0.0625,-0.21875 0,-0.09375 -0.078125,-0.15625 -0.09375,-0.15625 -0.15625,0.1875 -0.609375,0.59375 -1.265625,0.59375 -1.078125,0 -1.9375,-0.625 -1.9375,-2.03125 0,-1.265625 0.703125,-2 1.34375,-2 0.3125,0 0.40625,0.0625 0.671875,0.234375 0.203125,0.140625 0.453125,0.4375 0.703125,0.4375 0.203125,0 0.453125,-0.15625 0.453125,-0.5625 z m 0,0"
           id="path83" />
      </g>
      <g
         id="use137"
         transform="translate(344.68839,265.48801)">
        <path
           d="m 2.3125,-5.21875 c -0.875,0 -1.71875,0.5625 -1.71875,1.453125 0,0.640625 0.421875,1.015625 0.90625,1.296875 0.6875,0.390625 1.4375,0.625 1.4375,1.359375 0,0.546875 -0.375,0.859375 -0.84375,0.859375 -0.640625,0 -1.15625,-0.625 -1.296875,-1.125 -0.03125,-0.03125 -0.0625,-0.03125 -0.09375,-0.03125 -0.0625,0 -0.171875,0.046875 -0.21875,0.078125 0,0.296875 0.109375,0.984375 0.203125,1.234375 C 1.203125,0 1.53125,0.125 2.0625,0.125 c 0.96875,0 1.828125,-0.671875 1.828125,-1.640625 0,-0.765625 -0.828125,-1.15625 -1.375,-1.453125 C 2,-3.296875 1.5,-3.484375 1.5,-4.109375 c 0,-0.421875 0.25,-0.75 0.828125,-0.75 0.515625,0 0.890625,0.65625 1,1.09375 0.0625,0.046875 0.15625,0.078125 0.203125,0.078125 0.0625,0 0.125,-0.03125 0.125,-0.078125 C 3.640625,-4.1875 3.59375,-4.703125 3.515625,-5.0625 2.984375,-5.125 2.765625,-5.21875 2.3125,-5.21875 Z m 0,0"
           id="path81" />
      </g>
    </g>
    <g
       fill="#000000"
       fill-opacity="1"
       id="g141"
       transform="matrix(0.35277777,0,0,0.35277777,-45.99474,12.216976)">
      <g
         id="use138"
         transform="translate(349.01599,267.28201)">
        <path
           d="m 1.90625,-0.984375 c 0,0.25 0,0.484375 -0.046875,0.625 -0.03125,0.09375 -0.4375,0.140625 -0.546875,0.140625 -0.03125,0.046875 -0.046875,0.203125 0,0.25 0.359375,-0.015625 0.578125,-0.046875 0.90625,-0.046875 0.34375,0 0.609375,0.03125 0.96875,0.046875 0.03125,-0.046875 0.03125,-0.203125 0,-0.25 -0.109375,0 -0.53125,-0.046875 -0.5625,-0.140625 C 2.578125,-0.5 2.578125,-0.734375 2.578125,-0.984375 V -4.53125 c 0,-0.53125 0.078125,-0.828125 0.078125,-0.828125 C 2.640625,-5.40625 2.625,-5.5 2.5625,-5.5 H 2.546875 c -0.015625,0 -0.78125,0.375 -1.484375,0.703125 -0.03125,0 -0.015625,0.03125 -0.015625,0.046875 0,0.0625 0.046875,0.109375 0.078125,0.140625 0.140625,-0.046875 0.484375,-0.171875 0.609375,-0.171875 0.125,0 0.171875,0.078125 0.171875,0.328125 z m 0,0"
           id="path42" />
      </g>
      <g
         id="use139"
         transform="translate(353.26804,267.28201)">
        <path
           d="m 2.125,-0.234375 c -0.453125,0 -0.9375,-0.40625 -0.9375,-1.109375 0,-0.546875 0.203125,-0.890625 0.671875,-1.1875 0.015625,-0.015625 0.03125,-0.015625 0.046875,-0.015625 0.015625,0 0.03125,0.015625 0.046875,0.015625 0.125,0.078125 1.09375,0.640625 1.09375,1.34375 0,0.578125 -0.359375,0.953125 -0.921875,0.953125 z m 0,-4.96875 c 0.515625,0 0.84375,0.546875 0.84375,1.046875 0,0.46875 -0.25,0.8125 -0.59375,1.046875 -0.03125,0.015625 -0.03125,0 -0.046875,0 -0.015625,0 -0.03125,0 -0.046875,0 -0.328125,-0.1875 -0.890625,-0.5 -0.890625,-1.15625 0,-0.515625 0.3125,-0.9375 0.734375,-0.9375 z M 2.171875,-5.5 c -0.75,0 -1.421875,0.65625 -1.421875,1.390625 0,0.625 0.515625,1.125 0.875,1.34375 0.015625,0 0.03125,0.015625 0,0.046875 -0.328125,0.203125 -1.109375,0.65625 -1.109375,1.40625 0,0.828125 0.65625,1.390625 1.59375,1.390625 0.859375,0 1.640625,-0.640625 1.640625,-1.5 0,-0.625 -0.609375,-1.1875 -1.125,-1.46875 -0.03125,-0.015625 -0.046875,-0.046875 0,-0.046875 0.390625,-0.25 0.953125,-0.640625 0.953125,-1.3125 0,-0.796875 -0.640625,-1.25 -1.40625,-1.25 z m 0,0"
           id="path38" />
      </g>
      <g
         id="use140"
         transform="translate(357.52008,267.28201)">
        <path
           d="m 2.203125,-5.5 c -0.65625,0 -1.15625,0.4375 -1.421875,0.84375 0,0.078125 0.0625,0.171875 0.109375,0.171875 0.078125,-0.0625 0.421875,-0.5625 0.953125,-0.5625 0.5,0 0.84375,0.34375 0.84375,0.796875 0,0.75 -0.640625,1.109375 -1.328125,1.265625 -0.015625,0.03125 -0.015625,0.0625 -0.015625,0.09375 0,0.0625 0.015625,0.125 0.046875,0.171875 C 1.5,-2.75 1.71875,-2.828125 1.90625,-2.828125 c 0.5625,0 1.09375,0.5 1.09375,1.203125 0,0.96875 -0.546875,1.328125 -1.015625,1.328125 -0.21875,0 -0.453125,-0.046875 -0.625,-0.21875 -0.140625,-0.140625 -0.25,-0.375 -0.484375,-0.375 -0.1875,0 -0.359375,0.15625 -0.359375,0.40625 0,0.140625 0.125,0.296875 0.171875,0.328125 0.28125,0.140625 0.640625,0.203125 0.875,0.203125 1.0625,0 2.171875,-0.734375 2.171875,-1.90625 0,-0.84375 -0.703125,-1.3125 -1.1875,-1.390625 0.296875,-0.171875 0.78125,-0.59375 0.78125,-1.15625 0,-0.703125 -0.6875,-1.09375 -1.125,-1.09375 z m 0,0"
           id="path36" />
      </g>
      <g
         id="use141"
         transform="translate(361.77213,267.28201)">
        <path
           d="m 2.1875,-5.171875 c 0.625,0 1.0625,1.046875 1.0625,2.390625 0,1.34375 -0.390625,2.484375 -1.15625,2.484375 -0.625,0 -1.078125,-1.09375 -1.078125,-2.4375 0,-1.34375 0.453125,-2.4375 1.171875,-2.4375 z m -0.0625,-0.3125 c -1.171875,0 -1.859375,1.265625 -1.859375,2.75 C 0.265625,-1.25 0.96875,0.03125 2.125,0.03125 3.3125,0.03125 4,-1.25 4,-2.734375 c 0,-1.484375 -0.671875,-2.75 -1.875,-2.75 z m 0,0"
           id="path31" />
      </g>
    </g>
    <g
       fill="#000000"
       fill-opacity="1"
       id="g144"
       transform="matrix(0.35277777,0,0,0.35277777,-45.99474,12.216976)">
      <g
         id="use142"
         transform="translate(357.09299,194.22501)">
        <path
           d="M 3.046875,-7.765625 C 1.875,-7.765625 0.75,-6.96875 0.75,-5.71875 c 0,1.171875 1.140625,1.8125 2.03125,2.34375 0.796875,0.453125 1.5625,0.703125 1.5625,1.671875 0,0.90625 -0.65625,1.421875 -1.40625,1.421875 C 1.546875,-0.28125 1.09375,-1.625 1,-2.0625 0.984375,-2.125 0.953125,-2.171875 0.875,-2.171875 c -0.109375,0 -0.234375,0.0625 -0.296875,0.140625 0,0.140625 0.09375,1.109375 0.234375,1.796875 0.578125,0.125 1.3125,0.359375 2.109375,0.359375 1.234375,0 2.4375,-0.859375 2.4375,-2.140625 0,-1.15625 -1.265625,-1.765625 -2.03125,-2.25 -0.765625,-0.484375 -1.625,-0.890625 -1.625,-1.8125 0,-0.5625 0.3125,-1.296875 1.265625,-1.296875 0.984375,0 1.5625,1.078125 1.640625,1.65625 0.03125,0.046875 0.09375,0.046875 0.125,0.046875 0.078125,0 0.25,-0.03125 0.234375,-0.109375 C 4.953125,-6.09375 4.90625,-6.84375 4.8125,-7.453125 4.046875,-7.625 3.78125,-7.765625 3.046875,-7.765625 Z m 0,0"
           id="path73" />
      </g>
      <g
         id="use143"
         transform="translate(362.95105,194.22501)">
        <path
           d="m 1.0625,-6.515625 v 5.171875 c 0,0.34375 0,0.65625 -0.0625,0.859375 -0.03125,0.125 -0.59375,0.1875 -0.734375,0.1875 V 0.03125 c 0.46875,-0.015625 0.78125,-0.0625 1.234375,-0.0625 0.46875,0 0.796875,0.046875 1.28125,0.0625 v -0.328125 c -0.15625,0 -0.71875,-0.0625 -0.765625,-0.1875 C 1.953125,-0.6875 1.953125,-1 1.953125,-1.34375 v -5.546875 c 0,-0.65625 0.140625,-1.015625 0.140625,-1.015625 C 2.09375,-8 2.015625,-8.109375 1.953125,-8.109375 1.46875,-7.875 0.875,-7.703125 0.28125,-7.640625 c -0.046875,0.015625 -0.015625,0.3125 0,0.3125 0.3125,0 0.65625,0.03125 0.71875,0.203125 0.0625,0.140625 0.0625,0.4375 0.0625,0.609375 z m 0,0"
           id="path52" />
      </g>
      <g
         id="use144"
         transform="translate(365.96375,194.22501)">
        <path
           d="m 2.21875,-0.53125 c -0.453125,0 -0.8125,-0.40625 -0.8125,-0.84375 0,-0.453125 0.296875,-0.765625 0.734375,-0.9375 C 2.359375,-2.390625 2.9375,-2.5625 3.25,-2.671875 v 1.640625 c 0,0.125 -0.625,0.5 -1.03125,0.5 z m 0.625,-4.6875 C 1.984375,-5.21875 1.0625,-4.578125 0.703125,-4.25 0.65625,-4.1875 0.625,-4 0.625,-3.9375 c 0,0.25 0.140625,0.5 0.390625,0.5 0.28125,0 0.484375,-0.171875 0.546875,-0.578125 0.09375,-0.46875 0.25,-0.75 0.65625,-0.75 0.59375,0 1.03125,0.609375 1.03125,1.140625 v 0.328125 c 0,0.21875 -0.015625,0.265625 -0.140625,0.3125 -0.34375,0.15625 -1.40625,0.5 -2.0625,0.734375 C 0.78125,-2.15625 0.4375,-1.765625 0.4375,-1.28125 c 0,0.78125 0.609375,1.375 1.375,1.375 0.421875,0 1.328125,-0.640625 1.46875,-0.78125 C 3.359375,-0.328125 3.671875,0.078125 4,0.078125 c 0.25,0 0.75,-0.3125 0.890625,-0.453125 0.03125,-0.0625 0.0625,-0.15625 0.0625,-0.21875 0,-0.046875 -0.015625,-0.09375 -0.046875,-0.09375 -0.046875,0.015625 -0.1875,0.15625 -0.40625,0.15625 -0.265625,0 -0.359375,-0.25 -0.359375,-0.5625 V -3.5625 c 0,-0.921875 -0.609375,-1.65625 -1.296875,-1.65625 z m 0,0"
           id="path46" />
      </g>
    </g>
    <g
       fill="#000000"
       fill-opacity="1"
       id="g145"
       transform="matrix(0.35277777,0,0,0.35277777,-45.99474,12.216976)">
      <g
         id="use145"
         transform="translate(370.90125,194.22501)">
        <path
           d="m 1.21875,-5.078125 c -0.484375,0 -0.703125,-0.03125 -1.1875,-0.0625 V -4.8125 c 0.140625,0 0.53125,0 0.65625,0.25 C 1.34375,-3.21875 1.859375,-1.75 2.625,0.078125 2.640625,0.109375 2.6875,0.125 2.734375,0.125 c 0.09375,0 0.28125,-0.09375 0.3125,-0.203125 0.6875,-1.703125 1.09375,-2.625 1.8125,-4.3125 C 5,-4.71875 5.5,-4.8125 5.59375,-4.8125 c 0.046875,0 0.078125,-0.25 0.03125,-0.328125 -0.46875,0.03125 -0.65625,0.0625 -1.109375,0.0625 -0.484375,0 -0.59375,-0.03125 -0.96875,-0.0625 V -4.8125 c 0.40625,0 0.703125,0.15625 0.703125,0.40625 0,0.078125 -0.015625,0.21875 -0.078125,0.375 -0.453125,1.125 -1.0625,2.71875 -1.0625,2.71875 l -1.3125,-3.234375 v -0.0625 c 0,-0.171875 0.46875,-0.203125 0.5625,-0.203125 0.0625,0 0.078125,-0.25 0.0625,-0.328125 -0.484375,0.03125 -0.75,0.0625 -1.203125,0.0625 z m 0,0"
           id="path79" />
      </g>
    </g>
    <g
       fill="#000000"
       fill-opacity="1"
       id="g148"
       transform="matrix(0.35277777,0,0,0.35277777,-45.99474,12.216976)">
      <g
         id="use146"
         transform="translate(376.3887,194.22501)">
        <path
           d="m 1.359375,-3.390625 c -0.015625,0 0.25,-1.421875 1.265625,-1.421875 0.71875,0 0.953125,0.78125 0.953125,1.125 0,0.234375 -0.125,0.296875 -0.265625,0.296875 z m -0.0625,0.421875 c 0.15625,0 2.640625,-0.0625 3,-0.078125 0.21875,-0.015625 0.28125,-0.234375 0.28125,-0.5625 0,-0.484375 -0.359375,-1.625 -1.78125,-1.625 -1.046875,0 -2.3125,1.234375 -2.3125,2.84375 0,1.40625 0.96875,2.484375 2.359375,2.484375 0.921875,0 1.5,-0.671875 1.71875,-1 0.046875,-0.0625 0.09375,-0.15625 0.09375,-0.21875 0,-0.109375 -0.109375,-0.171875 -0.109375,-0.171875 C 4.390625,-1.09375 3.90625,-0.65625 3.25,-0.65625 c -1.03125,0 -1.953125,-0.75 -1.953125,-2.21875 z m 0,0"
           id="path77" />
      </g>
      <g
         id="use147"
         transform="translate(381.44574,194.22501)">
        <path
           d="m 3.59375,-5.21875 c -0.53125,0 -1.15625,0.765625 -1.390625,1.265625 -0.015625,0.015625 -0.0625,0.015625 -0.0625,-0.03125 0,-0.125 0.078125,-1 0.09375,-1.078125 0,-0.03125 -0.078125,-0.078125 -0.140625,-0.078125 -0.46875,0.1875 -1.09375,0.3125 -1.6875,0.375 v 0.3125 c 0.078125,0 0.6875,0 0.78125,0.203125 C 1.25,-4.09375 1.25,-3.78125 1.25,-3.625 v 2.234375 c 0,0.359375 0,0.703125 -0.0625,0.90625 -0.046875,0.125 -0.609375,0.1875 -0.75,0.1875 V 0.03125 c 0.46875,-0.015625 0.859375,-0.0625 1.328125,-0.0625 0.453125,0 0.984375,0.046875 1.46875,0.0625 v -0.328125 c -0.15625,0 -0.984375,-0.0625 -1.015625,-0.1875 C 2.140625,-0.6875 2.140625,-1.03125 2.140625,-1.390625 v -1.84375 c 0,-0.28125 0.4375,-1.09375 0.953125,-1.09375 0.234375,0 0.34375,0.078125 0.4375,0.140625 0.140625,0.09375 0.28125,0.25 0.453125,0.25 0.109375,0 0.390625,-0.1875 0.390625,-0.625 0,-0.140625 -0.03125,-0.25 -0.046875,-0.3125 C 4.21875,-5.0625 3.90625,-5.21875 3.59375,-5.21875 Z m 0,0"
           id="path49" />
      </g>
      <g
         id="use148"
         transform="translate(385.98871,194.22501)">
        <path
           d="m 1.21875,-5.078125 c -0.484375,0 -0.953125,-0.03125 -1.1875,-0.0625 V -4.8125 c 0.140625,0 0.515625,0 0.640625,0.25 0.71875,1.53125 1.21875,2.8125 1.890625,4.5 C 2.515625,0.078125 2.171875,0.890625 1.984375,1.140625 1.5,1.796875 1.1875,1.8125 0.625,1.8125 0.5625,1.890625 0.484375,2.015625 0.484375,2.15625 0.484375,2.578125 0.78125,2.671875 1,2.671875 1.40625,2.671875 1.765625,2.40625 2.046875,2 2.46875,1.359375 2.6875,0.609375 2.984375,-0.125 3.6875,-1.8125 4.078125,-2.71875 4.78125,-4.390625 4.9375,-4.71875 5.453125,-4.8125 5.546875,-4.8125 c 0.046875,0 0.078125,-0.25 0.015625,-0.328125 -0.25,0.03125 -0.546875,0.0625 -1,0.0625 -0.484375,0 -0.890625,-0.03125 -1.078125,-0.0625 V -4.8125 c 0.40625,0 0.703125,0.15625 0.703125,0.40625 0,0.078125 -0.015625,0.21875 -0.078125,0.359375 C 3.65625,-2.921875 3.0625,-1.34375 3.0625,-1.34375 L 1.796875,-4.546875 c -0.03125,-0.03125 -0.03125,-0.046875 -0.03125,-0.0625 0,-0.171875 0.5,-0.203125 0.59375,-0.203125 0.0625,0 0.078125,-0.25 0.0625,-0.328125 -0.21875,0.03125 -0.75,0.0625 -1.203125,0.0625 z m 0,0"
           id="path88" />
      </g>
    </g>
    <g
       fill="#000000"
       fill-opacity="1"
       id="g152"
       transform="matrix(0.35277777,0,0,0.35277777,-45.99474,12.216976)">
      <g
         id="use149"
         transform="translate(391.59601,196.01801)">
        <path
           d="m 1.90625,-0.984375 c 0,0.25 0,0.484375 -0.046875,0.625 -0.03125,0.09375 -0.4375,0.140625 -0.546875,0.140625 -0.03125,0.046875 -0.046875,0.203125 0,0.25 0.359375,-0.015625 0.578125,-0.046875 0.90625,-0.046875 0.34375,0 0.609375,0.03125 0.96875,0.046875 0.03125,-0.046875 0.03125,-0.203125 0,-0.25 -0.109375,0 -0.53125,-0.046875 -0.5625,-0.140625 C 2.578125,-0.5 2.578125,-0.734375 2.578125,-0.984375 V -4.53125 c 0,-0.53125 0.078125,-0.828125 0.078125,-0.828125 C 2.640625,-5.40625 2.625,-5.5 2.5625,-5.5 H 2.546875 c -0.015625,0 -0.78125,0.375 -1.484375,0.703125 -0.03125,0 -0.015625,0.03125 -0.015625,0.046875 0,0.0625 0.046875,0.109375 0.078125,0.140625 0.140625,-0.046875 0.484375,-0.171875 0.609375,-0.171875 0.125,0 0.171875,0.078125 0.171875,0.328125 z m 0,0"
           id="path43" />
      </g>
      <g
         id="use150"
         transform="translate(395.84805,196.01801)">
        <path
           d="m 2.125,-0.234375 c -0.453125,0 -0.9375,-0.40625 -0.9375,-1.109375 0,-0.546875 0.203125,-0.890625 0.671875,-1.1875 0.015625,-0.015625 0.03125,-0.015625 0.046875,-0.015625 0.015625,0 0.03125,0.015625 0.046875,0.015625 0.125,0.078125 1.09375,0.640625 1.09375,1.34375 0,0.578125 -0.359375,0.953125 -0.921875,0.953125 z m 0,-4.96875 c 0.515625,0 0.84375,0.546875 0.84375,1.046875 0,0.46875 -0.25,0.8125 -0.59375,1.046875 -0.03125,0.015625 -0.03125,0 -0.046875,0 -0.015625,0 -0.03125,0 -0.046875,0 -0.328125,-0.1875 -0.890625,-0.5 -0.890625,-1.15625 0,-0.515625 0.3125,-0.9375 0.734375,-0.9375 z M 2.171875,-5.5 c -0.75,0 -1.421875,0.65625 -1.421875,1.390625 0,0.625 0.515625,1.125 0.875,1.34375 0.015625,0 0.03125,0.015625 0,0.046875 -0.328125,0.203125 -1.109375,0.65625 -1.109375,1.40625 0,0.828125 0.65625,1.390625 1.59375,1.390625 0.859375,0 1.640625,-0.640625 1.640625,-1.5 0,-0.625 -0.609375,-1.1875 -1.125,-1.46875 -0.03125,-0.015625 -0.046875,-0.046875 0,-0.046875 0.390625,-0.25 0.953125,-0.640625 0.953125,-1.3125 0,-0.796875 -0.640625,-1.25 -1.40625,-1.25 z m 0,0"
           id="path39" />
      </g>
      <g
         id="use151"
         transform="translate(400.1001,196.01801)">
        <path
           d="m 1.1875,-2.625 c 0.28125,-0.296875 0.59375,-0.34375 0.84375,-0.34375 0.765625,0 1.078125,0.65625 1.078125,1.390625 0,0.765625 -0.40625,1.34375 -0.9375,1.34375 -0.6875,0 -1.015625,-1.03125 -1.015625,-1.796875 0,-0.203125 0.015625,-0.40625 0.03125,-0.59375 z m 1.078125,-0.765625 c -0.28125,0 -0.703125,0.140625 -1,0.390625 0.375,-1.515625 1.65625,-2.0625 2.375,-2.296875 0,-0.046875 -0.03125,-0.25 -0.109375,-0.25 -0.71875,0.1875 -1.6875,0.71875 -2.28125,1.390625 -0.546875,0.59375 -0.828125,1.390625 -0.828125,2.265625 0,0.921875 0.640625,1.9375 1.671875,1.9375 0.96875,0 1.75,-0.828125 1.75,-1.78125 0,-0.609375 -0.375,-1.65625 -1.578125,-1.65625 z m 0,0"
           id="path29" />
      </g>
      <g
         id="use152"
         transform="translate(404.35214,196.01801)">
        <path
           d="m 2.1875,-5.171875 c 0.625,0 1.0625,1.046875 1.0625,2.390625 0,1.34375 -0.390625,2.484375 -1.15625,2.484375 -0.625,0 -1.078125,-1.09375 -1.078125,-2.4375 0,-1.34375 0.453125,-2.4375 1.171875,-2.4375 z m -0.0625,-0.3125 c -1.171875,0 -1.859375,1.265625 -1.859375,2.75 C 0.265625,-1.25 0.96875,0.03125 2.125,0.03125 3.3125,0.03125 4,-1.25 4,-2.734375 c 0,-1.484375 -0.671875,-2.75 -1.875,-2.75 z m 0,0"
           id="path32" />
      </g>
    </g>
    <g
       fill="#000000"
       fill-opacity="1"
       id="g153"
       transform="matrix(0.35277777,0,0,0.35277777,-45.99474,12.216976)">
      <g
         id="use153"
         transform="translate(442.19199,194.62199)">
        <path
           d="m 6.046875,-5.59375 c 0,-1.34375 -1.234375,-2.109375 -2.484375,-2.109375 -0.6875,0 -1.203125,0.03125 -1.65625,0.03125 -0.453125,0 -0.90625,-0.03125 -1.375,-0.046875 -0.0625,0.0625 -0.046875,0.265625 0,0.328125 0.140625,0 0.765625,0.046875 0.796875,0.1875 0.0625,0.1875 0.0625,0.515625 0.0625,0.875 v 4.984375 c 0,0.34375 0,0.65625 -0.0625,0.859375 -0.03125,0.125 -0.65625,0.1875 -0.796875,0.1875 -0.046875,0.0625 -0.0625,0.265625 0,0.328125 0.46875,-0.015625 0.921875,-0.0625 1.375,-0.0625 0.453125,0 0.875,0.046875 1.359375,0.0625 0.0625,-0.0625 0.046875,-0.265625 0,-0.328125 C 3.125,-0.296875 2.5,-0.359375 2.46875,-0.484375 2.40625,-0.6875 2.40625,-1 2.40625,-1.34375 v -4.984375 c 0,-0.34375 0,-0.734375 0.0625,-0.875 C 2.515625,-7.3125 2.90625,-7.3125 3.046875,-7.3125 c 1.296875,0 1.921875,0.765625 1.921875,1.921875 0,1.171875 -0.71875,1.8125 -1.65625,1.8125 C 3.125,-3.578125 3,-3.625 2.875,-3.65625 2.828125,-3.671875 2.8125,-3.625 2.8125,-3.59375 c 0,0.140625 0.125,0.234375 0.15625,0.265625 0.125,0.046875 0.375,0.09375 0.515625,0.09375 1.53125,0 2.5625,-0.9375 2.5625,-2.359375 z m 0,0"
           id="path86" />
      </g>
    </g>
    <g
       fill="#000000"
       fill-opacity="1"
       id="g160"
       transform="matrix(0.35277777,0,0,0.35277777,-45.99474,12.216976)">
      <g
         id="use154"
         transform="translate(448.20547,194.62199)">
        <path
           d="m 2.875,-4.859375 c 1.0625,0 1.671875,1.328125 1.671875,2.5 0,1.015625 -0.375,2.0625 -1.390625,2.0625 C 2.078125,-0.296875 1.5,-1.625 1.5,-2.78125 1.5,-3.828125 1.859375,-4.859375 2.875,-4.859375 Z M 3.015625,-5.25 c -1.4375,0 -2.53125,1.15625 -2.53125,2.703125 0,1.5 0.984375,2.625 2.546875,2.625 1.4375,0 2.515625,-1.171875 2.515625,-2.71875 0,-1.5 -0.96875,-2.609375 -2.53125,-2.609375 z m 0,0"
           id="path69" />
      </g>
      <g
         id="use155"
         transform="translate(454.21893,194.62199)">
        <path
           d="m 1.0625,-6.515625 v 5.171875 c 0,0.34375 0,0.65625 -0.0625,0.859375 -0.03125,0.125 -0.59375,0.1875 -0.734375,0.1875 V 0.03125 c 0.46875,-0.015625 0.78125,-0.0625 1.234375,-0.0625 0.46875,0 0.796875,0.046875 1.28125,0.0625 v -0.328125 c -0.15625,0 -0.71875,-0.0625 -0.765625,-0.1875 C 1.953125,-0.6875 1.953125,-1 1.953125,-1.34375 v -5.546875 c 0,-0.65625 0.140625,-1.015625 0.140625,-1.015625 C 2.09375,-8 2.015625,-8.109375 1.953125,-8.109375 1.46875,-7.875 0.875,-7.703125 0.28125,-7.640625 c -0.046875,0.015625 -0.015625,0.3125 0,0.3125 0.3125,0 0.65625,0.03125 0.71875,0.203125 0.0625,0.140625 0.0625,0.4375 0.0625,0.609375 z m 0,0"
           id="path53" />
      </g>
      <g
         id="use156"
         transform="translate(457.23163,194.62199)">
        <path
           d="m 1.015625,-6.921875 c 0,0.328125 0.265625,0.59375 0.59375,0.59375 0.3125,0 0.578125,-0.265625 0.578125,-0.59375 C 2.1875,-7.25 1.921875,-7.5 1.609375,-7.5 c -0.328125,0 -0.59375,0.25 -0.59375,0.578125 z m 1.125,3.125 V -4.1875 c 0,-0.109375 0.078125,-0.671875 0.078125,-0.765625 0,-0.0625 -0.0625,-0.1875 -0.125,-0.1875 C 1.625,-4.890625 1,-4.734375 0.40625,-4.65625 v 0.3125 c 0.078125,0 0.6875,0 0.78125,0.203125 C 1.25,-4 1.25,-3.6875 1.25,-3.53125 v 2.1875 c 0,0.34375 0,0.65625 -0.0625,0.859375 -0.046875,0.125 -0.609375,0.1875 -0.75,0.1875 V 0.03125 c 0.46875,-0.015625 0.796875,-0.0625 1.25,-0.0625 0.46875,0 0.78125,0.046875 1.25,0.0625 v -0.328125 c -0.140625,0 -0.703125,-0.0625 -0.734375,-0.1875 C 2.140625,-0.6875 2.140625,-1 2.140625,-1.34375 Z m 0,0"
           id="path58" />
      </g>
      <g
         id="use157"
         transform="translate(460.39978,194.62199)">
        <path
           d="m 1.890625,-5.15625 v -1.421875 c 0,-0.046875 -0.125,-0.046875 -0.1875,0.015625 -0.015625,0.03125 -0.484375,0.484375 -0.71875,0.734375 v 0.671875 h -0.4375 c -0.015625,0 -0.3125,0.3125 -0.3125,0.359375 0,0.046875 0.03125,0.109375 0.0625,0.109375 h 0.6875 v 3.46875 c 0,1.03125 0.640625,1.296875 1.25,1.296875 0.578125,0 1.046875,-0.453125 1.203125,-0.640625 0.015625,-0.015625 0.046875,-0.125 0.046875,-0.1875 0,-0.03125 0,-0.0625 -0.03125,-0.078125 -0.078125,0.0625 -0.421875,0.28125 -0.765625,0.28125 -0.53125,0 -0.796875,-0.34375 -0.796875,-0.984375 V -4.6875 h 1.4375 c 0.109375,-0.109375 0.15625,-0.234375 0.15625,-0.34375 0,-0.078125 0,-0.125 -0.046875,-0.125 z m 0,0"
           id="path65" />
      </g>
      <g
         id="use158"
         transform="translate(464.07001,194.62199)">
        <path
           d="m 1.015625,-6.921875 c 0,0.328125 0.265625,0.59375 0.59375,0.59375 0.3125,0 0.578125,-0.265625 0.578125,-0.59375 C 2.1875,-7.25 1.921875,-7.5 1.609375,-7.5 c -0.328125,0 -0.59375,0.25 -0.59375,0.578125 z m 1.125,3.125 V -4.1875 c 0,-0.109375 0.078125,-0.671875 0.078125,-0.765625 0,-0.0625 -0.0625,-0.1875 -0.125,-0.1875 C 1.625,-4.890625 1,-4.734375 0.40625,-4.65625 v 0.3125 c 0.078125,0 0.6875,0 0.78125,0.203125 C 1.25,-4 1.25,-3.6875 1.25,-3.53125 v 2.1875 c 0,0.34375 0,0.65625 -0.0625,0.859375 -0.046875,0.125 -0.609375,0.1875 -0.75,0.1875 V 0.03125 c 0.46875,-0.015625 0.796875,-0.0625 1.25,-0.0625 0.46875,0 0.78125,0.046875 1.25,0.0625 v -0.328125 c -0.140625,0 -0.703125,-0.0625 -0.734375,-0.1875 C 2.140625,-0.6875 2.140625,-1 2.140625,-1.34375 Z m 0,0"
           id="path59" />
      </g>
      <g
         id="use159"
         transform="translate(467.23816,194.62199)">
        <path
           d="m 4.546875,-4.609375 c 0,-0.140625 -0.078125,-0.296875 -0.125,-0.34375 -0.28125,-0.1875 -0.65625,-0.28125 -1.078125,-0.28125 -1.234375,0 -2.875,1.171875 -2.875,2.921875 0,1.25 0.953125,2.40625 2.40625,2.40625 0.921875,0 1.515625,-0.671875 1.734375,-1 0.03125,-0.0625 0.0625,-0.15625 0.0625,-0.21875 0,-0.09375 -0.078125,-0.15625 -0.09375,-0.15625 -0.15625,0.1875 -0.609375,0.59375 -1.265625,0.59375 -1.078125,0 -1.9375,-0.625 -1.9375,-2.03125 0,-1.265625 0.703125,-2 1.34375,-2 0.3125,0 0.40625,0.0625 0.671875,0.234375 0.203125,0.140625 0.453125,0.4375 0.703125,0.4375 0.203125,0 0.453125,-0.15625 0.453125,-0.5625 z m 0,0"
           id="path84" />
      </g>
      <g
         id="use160"
         transform="translate(472.24738,194.62199)">
        <path
           d="m 2.3125,-5.21875 c -0.875,0 -1.71875,0.5625 -1.71875,1.453125 0,0.640625 0.421875,1.015625 0.90625,1.296875 0.6875,0.390625 1.4375,0.625 1.4375,1.359375 0,0.546875 -0.375,0.859375 -0.84375,0.859375 -0.640625,0 -1.15625,-0.625 -1.296875,-1.125 -0.03125,-0.03125 -0.0625,-0.03125 -0.09375,-0.03125 -0.0625,0 -0.171875,0.046875 -0.21875,0.078125 0,0.296875 0.109375,0.984375 0.203125,1.234375 C 1.203125,0 1.53125,0.125 2.0625,0.125 c 0.96875,0 1.828125,-0.671875 1.828125,-1.640625 0,-0.765625 -0.828125,-1.15625 -1.375,-1.453125 C 2,-3.296875 1.5,-3.484375 1.5,-4.109375 c 0,-0.421875 0.25,-0.75 0.828125,-0.75 0.515625,0 0.890625,0.65625 1,1.09375 0.0625,0.046875 0.15625,0.078125 0.203125,0.078125 0.0625,0 0.125,-0.03125 0.125,-0.078125 C 3.640625,-4.1875 3.59375,-4.703125 3.515625,-5.0625 2.984375,-5.125 2.765625,-5.21875 2.3125,-5.21875 Z m 0,0"
           id="path82" />
      </g>
    </g>
    <g
       fill="#000000"
       fill-opacity="1"
       id="g164"
       transform="matrix(0.35277777,0,0,0.35277777,-45.99474,12.216976)">
      <g
         id="use161"
         transform="translate(476.57501,196.416)">
        <path
           d="M 3.890625,-1.28125 C 3.84375,-1.3125 3.75,-1.328125 3.703125,-1.328125 c -0.046875,0 -0.078125,0 -0.09375,0.046875 -0.1875,0.453125 -0.375,0.65625 -0.71875,0.65625 H 1.1875 c 0.390625,-0.421875 1.265625,-1.40625 1.875,-2.140625 0.296875,-0.375 0.484375,-0.8125 0.484375,-1.296875 0,-0.734375 -0.65625,-1.4375 -1.484375,-1.4375 -0.890625,0 -1.515625,0.953125 -1.578125,1.15625 0,0.046875 0.109375,0.140625 0.171875,0.140625 C 0.765625,-4.375 1.1875,-4.9375 1.875,-4.9375 c 0.546875,0 0.953125,0.453125 0.953125,1.03125 0,0.421875 -0.0625,0.765625 -0.421875,1.28125 -0.5,0.734375 -1.3125,1.703125 -2.03125,2.5 0,0.03125 0.046875,0.109375 0.078125,0.125 h 2.96875 c 0.046875,-0.15625 0.28125,-0.859375 0.46875,-1.28125 z m 0,0"
           id="path28" />
      </g>
      <g
         id="use162"
         transform="translate(480.82706,196.416)">
        <path
           d="m 2.1875,-5.171875 c 0.625,0 1.0625,1.046875 1.0625,2.390625 0,1.34375 -0.390625,2.484375 -1.15625,2.484375 -0.625,0 -1.078125,-1.09375 -1.078125,-2.4375 0,-1.34375 0.453125,-2.4375 1.171875,-2.4375 z m -0.0625,-0.3125 c -1.171875,0 -1.859375,1.265625 -1.859375,2.75 C 0.265625,-1.25 0.96875,0.03125 2.125,0.03125 3.3125,0.03125 4,-1.25 4,-2.734375 c 0,-1.484375 -0.671875,-2.75 -1.875,-2.75 z m 0,0"
           id="path33" />
      </g>
      <g
         id="use163"
         transform="translate(485.0791,196.416)">
        <path
           d="m 2.1875,-5.171875 c 0.625,0 1.0625,1.046875 1.0625,2.390625 0,1.34375 -0.390625,2.484375 -1.15625,2.484375 -0.625,0 -1.078125,-1.09375 -1.078125,-2.4375 0,-1.34375 0.453125,-2.4375 1.171875,-2.4375 z m -0.0625,-0.3125 c -1.171875,0 -1.859375,1.265625 -1.859375,2.75 C 0.265625,-1.25 0.96875,0.03125 2.125,0.03125 3.3125,0.03125 4,-1.25 4,-2.734375 c 0,-1.484375 -0.671875,-2.75 -1.875,-2.75 z m 0,0"
           id="path34" />
      </g>
      <g
         id="use164"
         transform="translate(489.33115,196.416)">
        <path
           d="m 2.125,-0.234375 c -0.453125,0 -0.9375,-0.40625 -0.9375,-1.109375 0,-0.546875 0.203125,-0.890625 0.671875,-1.1875 0.015625,-0.015625 0.03125,-0.015625 0.046875,-0.015625 0.015625,0 0.03125,0.015625 0.046875,0.015625 0.125,0.078125 1.09375,0.640625 1.09375,1.34375 0,0.578125 -0.359375,0.953125 -0.921875,0.953125 z m 0,-4.96875 c 0.515625,0 0.84375,0.546875 0.84375,1.046875 0,0.46875 -0.25,0.8125 -0.59375,1.046875 -0.03125,0.015625 -0.03125,0 -0.046875,0 -0.015625,0 -0.03125,0 -0.046875,0 -0.328125,-0.1875 -0.890625,-0.5 -0.890625,-1.15625 0,-0.515625 0.3125,-0.9375 0.734375,-0.9375 z M 2.171875,-5.5 c -0.75,0 -1.421875,0.65625 -1.421875,1.390625 0,0.625 0.515625,1.125 0.875,1.34375 0.015625,0 0.03125,0.015625 0,0.046875 -0.328125,0.203125 -1.109375,0.65625 -1.109375,1.40625 0,0.828125 0.65625,1.390625 1.59375,1.390625 0.859375,0 1.640625,-0.640625 1.640625,-1.5 0,-0.625 -0.609375,-1.1875 -1.125,-1.46875 -0.03125,-0.015625 -0.046875,-0.046875 0,-0.046875 0.390625,-0.25 0.953125,-0.640625 0.953125,-1.3125 0,-0.796875 -0.640625,-1.25 -1.40625,-1.25 z m 0,0"
           id="path40" />
      </g>
    </g>
    <path
       fill="none"
       stroke-width="0.421756"
       stroke-linecap="butt"
       stroke-linejoin="miter"
       stroke="#ff6666"
       stroke-opacity="1"
       stroke-miterlimit="10"
       d="M 4.1768731,76.846966 C 21.166707,67.036712 38.217173,65.088166 51.982396,74.726165"
       id="path164" />
    <path
       fill-rule="nonzero"
       fill="#ff6666"
       fill-opacity="1"
       stroke-width="0.421749"
       stroke-linecap="butt"
       stroke-linejoin="miter"
       stroke="#ff6666"
       stroke-opacity="1"
       stroke-miterlimit="10"
       d="m 53.797272,75.996717 -1.897559,-2.778125 0.169499,1.568207 -1.531001,0.376205 z m 0,0"
       id="path165" />
    <path
       fill="none"
       stroke-width="0.281167"
       stroke-linecap="butt"
       stroke-linejoin="miter"
       stroke="#000000"
       stroke-opacity="1"
       stroke-miterlimit="10"
       d="m 34.129911,76.871771 c 15.482259,-8.937956 28.864387,-6.6449 43.566676,-1.295356"
       id="path166" />
    <path
       fill-rule="nonzero"
       fill="#000000"
       fill-opacity="1"
       stroke-width="0.281165"
       stroke-linecap="butt"
       stroke-linejoin="miter"
       stroke="#000000"
       stroke-opacity="1"
       stroke-miterlimit="10"
       d="m 79.417757,76.203422 -2.127691,-1.827278 0.472667,1.225076 -1.149283,0.633897 z m 0,0"
       id="path167" />
    <path
       fill="none"
       stroke-width="0.281167"
       stroke-linecap="butt"
       stroke-linejoin="miter"
       stroke="#000000"
       stroke-opacity="1"
       stroke-miterlimit="10"
       d="M 2.7395789,76.159325 C 25.31598,53.584304 58.136713,58.028477 82.461843,75.059651"
       id="path168" />
    <path
       fill-rule="nonzero"
       fill="#000000"
       fill-opacity="1"
       stroke-width="0.281162"
       stroke-linecap="butt"
       stroke-linejoin="miter"
       stroke="#000000"
       stroke-opacity="1"
       stroke-miterlimit="10"
       d="m 83.962527,76.111093 -1.583366,-2.316482 0.14056,1.305002 -1.274685,0.315571 z m 0,0"
       id="path169" />
    <path
       fill="none"
       stroke-width="0.281167"
       stroke-linecap="butt"
       stroke-linejoin="miter"
       stroke="#000000"
       stroke-opacity="1"
       stroke-miterlimit="10"
       d="M 1.2223593,76.159325 C 23.394992,37.757536 78.16512,51.047336 112.66293,75.20021"
       id="path170" />
    <path
       fill-rule="nonzero"
       fill="#000000"
       fill-opacity="1"
       stroke-width="0.281162"
       stroke-linecap="butt"
       stroke-linejoin="miter"
       stroke="#000000"
       stroke-opacity="1"
       stroke-miterlimit="10"
       d="m 114.16361,76.251653 -1.58199,-2.316482 0.13918,1.305002 -1.27468,0.315571 z m 0,0"
       id="path171" />
    <path
       fill="none"
       stroke-width="0.281167"
       stroke-linecap="butt"
       stroke-linejoin="miter"
       stroke="#000000"
       stroke-opacity="1"
       stroke-miterlimit="10"
       d="m 69.803185,79.747736 h 6.467133"
       id="path172" />
    <path
       fill-rule="nonzero"
       fill="#000000"
       fill-opacity="1"
       stroke-width="0.281167"
       stroke-linecap="butt"
       stroke-linejoin="miter"
       stroke="#000000"
       stroke-opacity="1"
       stroke-miterlimit="10"
       d="m 78.103109,79.747736 -2.625163,-0.989431 0.862652,0.989431 -0.862652,0.988054 z m 0,0"
       id="path173" />
    <path
       fill="none"
       stroke-width="0.421756"
       stroke-linecap="butt"
       stroke-linejoin="miter"
       stroke="#ff6666"
       stroke-opacity="1"
       stroke-miterlimit="10"
       d="m 40.744494,79.747736 h 4.943023"
       id="path174" />
    <path
       fill-rule="nonzero"
       fill="#ff6666"
       fill-opacity="1"
       stroke-width="0.421756"
       stroke-linecap="butt"
       stroke-linejoin="miter"
       stroke="#ff6666"
       stroke-opacity="1"
       stroke-miterlimit="10"
       d="m 47.902025,79.747736 -3.146061,-1.187868 1.036284,1.187868 -1.036284,1.186491 z m 0,0"
       id="path175" />
    <path
       fill="none"
       stroke-width="0.281167"
       stroke-linecap="butt"
       stroke-linejoin="miter"
       stroke="#000000"
       stroke-opacity="1"
       stroke-miterlimit="10"
       d="M 4.1768731,79.747736 H 15.32796"
       id="path176" />
    <path
       fill-rule="nonzero"
       fill="#000000"
       fill-opacity="1"
       stroke-width="0.281167"
       stroke-linecap="butt"
       stroke-linejoin="miter"
       stroke="#000000"
       stroke-opacity="1"
       stroke-miterlimit="10"
       d="m 17.160749,79.747736 -2.625163,-0.989431 0.862653,0.989431 -0.862653,0.988054 z m 0,0"
       id="path177" />
    <path
       fill="none"
       stroke-width="0.281167"
       stroke-linecap="butt"
       stroke-linejoin="miter"
       stroke="#000000"
       stroke-opacity="1"
       stroke-miterlimit="10"
       d="m 99.803075,79.747736 h 6.489185"
       id="path178" />
    <path
       fill-rule="nonzero"
       fill="#000000"
       fill-opacity="1"
       stroke-width="0.281167"
       stroke-linecap="butt"
       stroke-linejoin="miter"
       stroke="#000000"
       stroke-opacity="1"
       stroke-miterlimit="10"
       d="m 108.12505,79.747736 -2.62516,-0.989431 0.86265,0.989431 -0.86265,0.988054 z m 0,0"
       id="path179" />
    <path
       fill="none"
       stroke-width="0.421756"
       stroke-linecap="butt"
       stroke-linejoin="miter"
       stroke="#ff6666"
       stroke-opacity="1"
       stroke-miterlimit="10"
       d="m -0.8474549,83.336148 c 0,26.549282 37.8216359,21.410582 61.5555879,21.410582"
       id="path180" />
    <path
       fill-rule="nonzero"
       fill="#ff6666"
       fill-opacity="1"
       stroke-width="0.421756"
       stroke-linecap="butt"
       stroke-linejoin="miter"
       stroke="#ff6666"
       stroke-opacity="1"
       stroke-miterlimit="10"
       d="m 62.924018,104.74673 -3.147439,-1.18649 1.037663,1.18649 -1.037663,1.18787 z m 0,0"
       id="path181" />
    <path
       fill="none"
       stroke-width="0.421756"
       stroke-linecap="butt"
       stroke-linejoin="miter"
       stroke="#6666ff"
       stroke-opacity="1"
       stroke-dasharray="2.98883, 2.98883"
       stroke-miterlimit="10"
       d="m 84.782459,104.74673 c 15.873621,0 34.371031,-5.858043 34.371031,-18.917711"
       id="path182" />
    <path
       fill-rule="nonzero"
       fill="#6666ff"
       fill-opacity="1"
       stroke-width="0.421756"
       stroke-linecap="butt"
       stroke-linejoin="miter"
       stroke="#6666ff"
       stroke-opacity="1"
       stroke-miterlimit="10"
       d="m 119.15349,83.614511 -1.18649,3.146062 1.18649,-1.037663 1.18787,1.037663 z m 0,0"
       id="path183" />
    <g
       fill="#6666ff"
       fill-opacity="1"
       id="g184"
       transform="matrix(0.35277777,0,0,0.35277777,-45.99474,12.216976)">
      <g
         id="use183"
         transform="translate(428.22101,245.45799)">
        <path
           d="m -0.40625,-3.546875 c -0.84375,-1.625 -1.25,-3.71875 -0.734375,-5.0625 C -1.125,-8.625 -1.34375,-8.703125 -1.421875,-8.71875 c -0.71875,1.578125 -0.78125,3.5625 0.265625,5.5625 1.0625,2.015625 2.71875,3.09375 4.421875,3.421875 0.03125,-0.0625 0.09375,-0.3125 0.078125,-0.296875 -1.421875,-0.359375 -2.890625,-1.890625 -3.75,-3.515625 z m 0,0"
           id="path27" />
      </g>
      <g
         id="use184"
         transform="translate(430.92343,244.04749)">
        <path
           d="m 2.265625,-1.09375 c 1.484375,-0.78125 2,-2.46875 1.28125,-3.828125 -0.484375,-0.953125 -1.75,-1.78125 -3.015625,-1.125 -0.390625,0.21875 -0.890625,1.03125 -1,1.234375 C -0.5,-4.734375 -0.5625,-4.84375 -0.578125,-4.90625 l -1.0625,-2.015625 C -1.9375,-7.5 -2,-7.890625 -2,-7.890625 -2.046875,-7.96875 -2.140625,-8.03125 -2.203125,-8 c -0.328125,0.4375 -0.765625,0.859375 -1.265625,1.1875 -0.03125,0.03125 0.125,0.296875 0.140625,0.28125 0.28125,-0.15625 0.578125,-0.265625 0.71875,-0.140625 0.125,0.09375 0.265625,0.359375 0.34375,0.5 L 0.15625,-1.53125 c 0.109375,0.21875 0.28125,0.5625 0.28125,0.828125 0.015625,0.0625 0.1875,0.171875 0.25,0.15625 0.1875,-0.203125 0.453125,-0.25 0.71875,-0.296875 0.25,-0.0625 0.671875,-0.15625 0.859375,-0.25 z M 0.34375,-5.171875 c 0.953125,-0.5 1.9375,-0.09375 2.5625,1.09375 0.4375,0.859375 0.25,2.078125 -0.515625,2.46875 -0.46875,0.25 -1.140625,0.234375 -1.375,-0.21875 l -1.3125,-2.515625 c -0.03125,-0.0625 -0.03125,-0.078125 0,-0.140625 0.03125,-0.125 0.375,-0.546875 0.640625,-0.6875 z m 0,0"
           id="path26" />
      </g>
    </g>
    <g
       fill="#6666ff"
       fill-opacity="1"
       id="g185"
       transform="matrix(0.35277777,0,0,0.35277777,-45.99474,12.216976)">
      <g
         id="use185"
         transform="translate(435.83023,241.48643)">
        <path
           d="m 0.78125,-4.171875 c -1.046875,-2 -2.703125,-3.078125 -4.40625,-3.390625 -0.046875,0.078125 -0.09375,0.296875 -0.09375,0.296875 1.421875,0.328125 2.890625,1.875 3.734375,3.5 0.859375,1.625 1.265625,3.703125 0.75,5.078125 0,0 0.203125,0.109375 0.296875,0.109375 0.71875,-1.59375 0.78125,-3.578125 -0.28125,-5.59375 z m 0,0"
           id="path25" />
      </g>
    </g>
    <path
       fill="none"
       stroke-width="0.421756"
       stroke-linecap="butt"
       stroke-linejoin="miter"
       stroke="#6666ff"
       stroke-opacity="1"
       stroke-miterlimit="10"
       d="m 61.195958,83.154247 9.549805,15.912206"
       id="path185" />
    <path
       fill-rule="nonzero"
       fill="#6666ff"
       fill-opacity="1"
       stroke-width="0.421751"
       stroke-linecap="butt"
       stroke-linejoin="miter"
       stroke="#6666ff"
       stroke-opacity="1"
       stroke-miterlimit="10"
       d="m 71.8854,100.96677 -0.602202,-3.31005 -0.483692,1.500684 -1.551671,-0.278364 z m 0,0"
       id="path186" />
    <g
       fill="#6666ff"
       fill-opacity="1"
       id="g186"
       transform="matrix(0.35277777,0,0,0.35277777,-45.99474,12.216976)">
      <g
         id="use186"
         transform="translate(322.08801,219.21201)">
        <path
           d="m 3.515625,-0.625 c 1.5625,-0.9375 3.625,-1.453125 5.015625,-1.015625 C 8.546875,-1.625 8.625,-1.859375 8.609375,-1.9375 6.984375,-2.5625 5.015625,-2.5 3.078125,-1.34375 1.125,-0.171875 0.140625,1.546875 -0.078125,3.28125 0.015625,3.3125 0.25,3.359375 0.234375,3.34375 0.5,1.90625 1.9375,0.328125 3.515625,-0.625 Z m 0,0"
           id="path24" />
      </g>
    </g>
    <g
       fill="#6666ff"
       fill-opacity="1"
       id="g187"
       transform="matrix(0.35277777,0,0,0.35277777,-45.99474,12.216976)">
      <g
         id="use187"
         transform="translate(323.50903,221.57996)">
        <path
           d="M 1.59375,1.640625 C 1.359375,1.25 1.515625,0.71875 1.890625,0.5 2.28125,0.265625 2.703125,0.359375 3.078125,0.640625 3.265625,0.78125 3.71875,1.203125 3.96875,1.40625 L 2.5625,2.25 C 2.453125,2.3125 1.796875,1.984375 1.59375,1.640625 Z M 5.9375,-0.25 C 5.484375,-0.984375 4.46875,-1.453125 4,-1.578125 3.9375,-1.59375 3.765625,-1.53125 3.703125,-1.5 3.484375,-1.359375 3.34375,-1.109375 3.46875,-0.890625 c 0.15625,0.234375 0.390625,0.3125 0.765625,0.171875 0.46875,-0.171875 0.796875,-0.1875 1,0.171875 0.3125,0.5 0,1.1875 -0.453125,1.46875 L 4.5,1.078125 c -0.1875,0.125 -0.234375,0.125 -0.34375,0.0625 C 3.84375,0.921875 3,0.171875 2.453125,-0.265625 2.25,-0.4375 1.734375,-0.53125 1.3125,-0.28125 0.640625,0.125 0.453125,0.9375 0.859375,1.59375 1.078125,1.96875 2.078125,2.40625 2.28125,2.453125 2.015625,2.703125 1.828125,3.1875 2,3.484375 2.125,3.6875 2.640625,3.953125 2.84375,4 2.90625,4 3,3.984375 3.0625,3.9375 3.09375,3.921875 3.140625,3.875 3.125,3.84375 3.078125,3.828125 2.875,3.78125 2.765625,3.59375 2.625,3.359375 2.796875,3.140625 3.0625,2.984375 L 5.171875,1.71875 C 5.96875,1.234375 6.28125,0.34375 5.9375,-0.25 Z m 0,0"
           id="path23" />
      </g>
    </g>
    <g
       fill="#6666ff"
       fill-opacity="1"
       id="g188"
       transform="matrix(0.35277777,0,0,0.35277777,-45.99474,12.216976)">
      <g
         id="use188"
         transform="translate(326.03738,225.79306)">
        <path
           d="m 4.203125,0.53125 c 1.9375,-1.15625 2.921875,-2.875 3.125,-4.609375 -0.0625,-0.046875 -0.296875,-0.078125 -0.28125,-0.0625 -0.265625,1.4375 -1.71875,3 -3.28125,3.9375 C 2.1875,0.75 0.140625,1.28125 -1.25,0.84375 -1.265625,0.828125 -1.34375,1.046875 -1.359375,1.140625 0.28125,1.765625 2.25,1.703125 4.203125,0.53125 Z m 0,0"
           id="path22" />
      </g>
    </g>
  </g>
</svg>
