<?xml version="1.0" encoding="UTF-8" standalone="no"?>
<!-- Created with Inkscape (http://www.inkscape.org/) -->

<svg
   width="103.39879mm"
   height="43.512222mm"
   viewBox="0 0 103.39879 43.512222"
   version="1.1"
   id="svg1"
   inkscape:version="1.3.2 (091e20e, 2023-11-25)"
   sodipodi:docname="sen_dag1.svg"
   xmlns:inkscape="http://www.inkscape.org/namespaces/inkscape"
   xmlns:sodipodi="http://sodipodi.sourceforge.net/DTD/sodipodi-0.dtd"
   xmlns="http://www.w3.org/2000/svg"
   xmlns:svg="http://www.w3.org/2000/svg">
  <sodipodi:namedview
     id="namedview1"
     pagecolor="#ffffff"
     bordercolor="#000000"
     borderopacity="0.25"
     inkscape:showpageshadow="2"
     inkscape:pageopacity="0.0"
     inkscape:pagecheckerboard="0"
     inkscape:deskcolor="#d1d1d1"
     inkscape:document-units="mm"
     inkscape:zoom="0.2102413"
     inkscape:cx="197.39223"
     inkscape:cy="80.859469"
     inkscape:window-width="1312"
     inkscape:window-height="449"
     inkscape:window-x="0"
     inkscape:window-y="38"
     inkscape:window-maximized="0"
     inkscape:current-layer="layer1" />
  <defs
     id="defs1" />
  <g
     inkscape:label="Layer 1"
     inkscape:groupmode="layer"
     id="layer1"
     transform="translate(-53.291908,-126.85858)">
    <g
       fill="#000000"
       fill-opacity="1"
       id="g1820"
       transform="matrix(0.35277777,0,0,0.35277777,-2.7395013,-54.185337)">
      <g
         id="use1820"
         transform="translate(159.55,563.73102)">
        <path
           d="m 2.71875,-7.953125 c -0.5625,0 -0.859375,-0.03125 -1.40625,-0.0625 -0.046875,0.0625 -0.09375,0.203125 -0.09375,0.296875 0,0.03125 0.015625,0.0625 0.03125,0.0625 0.125,0 0.421875,0.078125 0.59375,0.203125 0.265625,0.1875 0.40625,0.390625 0.578125,0.8125 l 1.0625,2.625 -2.84375,3.21875 c -0.40625,0.421875 -1.1875,0.484375 -1.28125,0.484375 -0.015625,0.03125 -0.09375,0.28125 -0.078125,0.34375 0.453125,-0.015625 0.8125,-0.0625 1.40625,-0.0625 0.40625,0 0.84375,0.046875 1.25,0.0625 C 1.953125,0 2.015625,-0.234375 1.984375,-0.3125 1.375,-0.3125 1.1875,-0.515625 1.1875,-0.59375 c 0,-0.078125 0.0625,-0.171875 0.09375,-0.203125 0.265625,-0.328125 1.546875,-1.875 2.40625,-2.84375 l 1.171875,2.84375 c 0,0.03125 0.03125,0.109375 0.015625,0.140625 -0.046875,0.21875 -0.609375,0.34375 -0.734375,0.34375 -0.046875,0 -0.078125,0.140625 -0.078125,0.25 0,0.046875 0.015625,0.09375 0.03125,0.09375 0.625,-0.015625 1.015625,-0.0625 1.65625,-0.0625 0.453125,0 0.6875,0.046875 1.140625,0.0625 0,-0.015625 0.09375,-0.28125 0.046875,-0.34375 -0.359375,0 -0.859375,-0.140625 -1.015625,-0.484375 l -1.46875,-3.5625 2.578125,-2.796875 c 0.390625,-0.4375 1,-0.5 1.078125,-0.5 0.078125,-0.046875 0.109375,-0.203125 0.109375,-0.296875 0,-0.015625 0,-0.046875 0,-0.0625 -0.28125,0.03125 -0.671875,0.078125 -1.265625,0.078125 -0.40625,0 -0.734375,-0.03125 -1.1875,-0.078125 -0.03125,0.0625 -0.0625,0.21875 -0.0625,0.3125 0,0.03125 0.015625,0.046875 0.015625,0.046875 0.609375,0 0.734375,0.203125 0.734375,0.296875 0,0.0625 -0.0625,0.15625 -0.09375,0.203125 C 6.125,-6.828125 5.140625,-5.71875 4.28125,-4.75 L 3.375,-6.90625 C 3.328125,-7.046875 3.296875,-7.171875 3.328125,-7.265625 c 0.046875,-0.3125 0.59375,-0.390625 0.75,-0.390625 0.0625,0 0.09375,-0.28125 0.078125,-0.359375 -0.453125,0.03125 -0.875,0.0625 -1.4375,0.0625 z m 0,0"
           id="path68" />
      </g>
    </g>
    <g
       fill="#000000"
       fill-opacity="1"
       id="g1824"
       transform="matrix(0.35277777,0,0,0.35277777,-2.7395013,-54.185337)">
      <g
         id="use1821"
         transform="translate(167.153,565.52399)">
        <path
           d="m 1.90625,-0.984375 c 0,0.25 0,0.484375 -0.046875,0.625 -0.03125,0.09375 -0.4375,0.140625 -0.546875,0.140625 -0.03125,0.046875 -0.046875,0.203125 0,0.25 0.359375,-0.015625 0.578125,-0.046875 0.90625,-0.046875 0.34375,0 0.609375,0.03125 0.96875,0.046875 0.03125,-0.046875 0.03125,-0.203125 0,-0.25 -0.109375,0 -0.53125,-0.046875 -0.5625,-0.140625 C 2.578125,-0.5 2.578125,-0.734375 2.578125,-0.984375 V -4.53125 c 0,-0.53125 0.078125,-0.828125 0.078125,-0.828125 C 2.640625,-5.40625 2.625,-5.5 2.5625,-5.5 H 2.546875 c -0.015625,0 -0.78125,0.375 -1.484375,0.703125 -0.03125,0 -0.015625,0.03125 -0.015625,0.046875 0,0.0625 0.046875,0.109375 0.078125,0.140625 0.140625,-0.046875 0.484375,-0.171875 0.609375,-0.171875 0.125,0 0.171875,0.078125 0.171875,0.328125 z m 0,0"
           id="path63" />
      </g>
      <g
         id="use1822"
         transform="translate(171.40504,565.52399)">
        <path
           d="m 2.125,-0.234375 c -0.453125,0 -0.9375,-0.40625 -0.9375,-1.109375 0,-0.546875 0.203125,-0.890625 0.671875,-1.1875 0.015625,-0.015625 0.03125,-0.015625 0.046875,-0.015625 0.015625,0 0.03125,0.015625 0.046875,0.015625 0.125,0.078125 1.09375,0.640625 1.09375,1.34375 0,0.578125 -0.359375,0.953125 -0.921875,0.953125 z m 0,-4.96875 c 0.515625,0 0.84375,0.546875 0.84375,1.046875 0,0.46875 -0.25,0.8125 -0.59375,1.046875 -0.03125,0.015625 -0.03125,0 -0.046875,0 -0.015625,0 -0.03125,0 -0.046875,0 -0.328125,-0.1875 -0.890625,-0.5 -0.890625,-1.15625 0,-0.515625 0.3125,-0.9375 0.734375,-0.9375 z M 2.171875,-5.5 c -0.75,0 -1.421875,0.65625 -1.421875,1.390625 0,0.625 0.515625,1.125 0.875,1.34375 0.015625,0 0.03125,0.015625 0,0.046875 -0.328125,0.203125 -1.109375,0.65625 -1.109375,1.40625 0,0.828125 0.65625,1.390625 1.59375,1.390625 0.859375,0 1.640625,-0.640625 1.640625,-1.5 0,-0.625 -0.609375,-1.1875 -1.125,-1.46875 -0.03125,-0.015625 -0.046875,-0.046875 0,-0.046875 0.390625,-0.25 0.953125,-0.640625 0.953125,-1.3125 0,-0.796875 -0.640625,-1.25 -1.40625,-1.25 z m 0,0"
           id="path57" />
      </g>
      <g
         id="use1823"
         transform="translate(175.65709,565.52399)">
        <path
           d="m 2.125,-3.390625 c -0.21875,0 -0.671875,0.078125 -0.90625,0.171875 C 1.328125,-3.703125 1.421875,-4.25 1.53125,-4.765625 H 2.25 c 0.4375,0 0.75,-0.015625 1,-0.046875 C 3.40625,-5 3.5,-5.359375 3.5,-5.421875 c 0,-0.046875 -0.0625,-0.0625 -0.109375,-0.09375 0,0 -0.4375,0.078125 -0.78125,0.078125 H 1.34375 c -0.09375,0.53125 -0.3125,1.59375 -0.5,2.546875 0,0.0625 0.03125,0.125 0.0625,0.125 C 1.046875,-2.84375 1.453125,-2.90625 1.625,-2.90625 c 1,0 1.375,0.734375 1.375,1.28125 0,0.984375 -0.546875,1.328125 -1.015625,1.328125 -0.21875,0 -0.453125,-0.046875 -0.625,-0.21875 -0.140625,-0.140625 -0.25,-0.375 -0.484375,-0.375 -0.1875,0 -0.359375,0.15625 -0.359375,0.40625 0,0.140625 0.125,0.296875 0.171875,0.328125 0.28125,0.140625 0.640625,0.203125 0.875,0.203125 1.0625,0 2.171875,-0.734375 2.171875,-1.90625 0,-0.734375 -0.59375,-1.53125 -1.609375,-1.53125 z m 0,0"
           id="path54" />
      </g>
      <g
         id="use1824"
         transform="translate(179.90913,565.52399)">
        <path
           d="m 2.1875,-5.171875 c 0.625,0 1.0625,1.046875 1.0625,2.390625 0,1.34375 -0.390625,2.484375 -1.15625,2.484375 -0.625,0 -1.078125,-1.09375 -1.078125,-2.4375 0,-1.34375 0.453125,-2.4375 1.171875,-2.4375 z m -0.0625,-0.3125 c -1.171875,0 -1.859375,1.265625 -1.859375,2.75 C 0.265625,-1.25 0.96875,0.03125 2.125,0.03125 3.3125,0.03125 4,-1.25 4,-2.734375 c 0,-1.484375 -0.671875,-2.75 -1.875,-2.75 z m 0,0"
           id="path46" />
      </g>
    </g>
    <g
       fill="#000000"
       fill-opacity="1"
       id="g1827"
       transform="matrix(0.35277777,0,0,0.35277777,-2.7395013,-54.185337)">
      <g
         id="use1825"
         transform="translate(230.901,563.40198)">
        <path
           d="M 3.046875,-7.765625 C 1.875,-7.765625 0.75,-6.96875 0.75,-5.71875 c 0,1.171875 1.140625,1.8125 2.03125,2.34375 0.796875,0.453125 1.5625,0.703125 1.5625,1.671875 0,0.90625 -0.65625,1.421875 -1.40625,1.421875 C 1.546875,-0.28125 1.09375,-1.625 1,-2.0625 0.984375,-2.125 0.953125,-2.171875 0.875,-2.171875 c -0.109375,0 -0.234375,0.0625 -0.296875,0.140625 0,0.140625 0.09375,1.109375 0.234375,1.796875 0.578125,0.125 1.3125,0.359375 2.109375,0.359375 1.234375,0 2.4375,-0.859375 2.4375,-2.140625 0,-1.15625 -1.265625,-1.765625 -2.03125,-2.25 -0.765625,-0.484375 -1.625,-0.890625 -1.625,-1.8125 0,-0.5625 0.3125,-1.296875 1.265625,-1.296875 0.984375,0 1.5625,1.078125 1.640625,1.65625 0.03125,0.046875 0.09375,0.046875 0.125,0.046875 0.078125,0 0.25,-0.03125 0.234375,-0.109375 C 4.953125,-6.09375 4.90625,-6.84375 4.8125,-7.453125 4.046875,-7.625 3.78125,-7.765625 3.046875,-7.765625 Z m 0,0"
           id="path74" />
      </g>
      <g
         id="use1826"
         transform="translate(236.75905,563.40198)">
        <path
           d="m 1.0625,-6.515625 v 5.171875 c 0,0.34375 0,0.65625 -0.0625,0.859375 -0.03125,0.125 -0.59375,0.1875 -0.734375,0.1875 V 0.03125 c 0.46875,-0.015625 0.78125,-0.0625 1.234375,-0.0625 0.46875,0 0.796875,0.046875 1.28125,0.0625 v -0.328125 c -0.15625,0 -0.71875,-0.0625 -0.765625,-0.1875 C 1.953125,-0.6875 1.953125,-1 1.953125,-1.34375 v -5.546875 c 0,-0.65625 0.140625,-1.015625 0.140625,-1.015625 C 2.09375,-8 2.015625,-8.109375 1.953125,-8.109375 1.46875,-7.875 0.875,-7.703125 0.28125,-7.640625 c -0.046875,0.015625 -0.015625,0.3125 0,0.3125 0.3125,0 0.65625,0.03125 0.71875,0.203125 0.0625,0.140625 0.0625,0.4375 0.0625,0.609375 z m 0,0"
           id="path21" />
      </g>
      <g
         id="use1827"
         transform="translate(239.77176,563.40198)">
        <path
           d="m 2.21875,-0.53125 c -0.453125,0 -0.8125,-0.40625 -0.8125,-0.84375 0,-0.453125 0.296875,-0.765625 0.734375,-0.9375 C 2.359375,-2.390625 2.9375,-2.5625 3.25,-2.671875 v 1.640625 c 0,0.125 -0.625,0.5 -1.03125,0.5 z m 0.625,-4.6875 C 1.984375,-5.21875 1.0625,-4.578125 0.703125,-4.25 0.65625,-4.1875 0.625,-4 0.625,-3.9375 c 0,0.25 0.140625,0.5 0.390625,0.5 0.28125,0 0.484375,-0.171875 0.546875,-0.578125 0.09375,-0.46875 0.25,-0.75 0.65625,-0.75 0.59375,0 1.03125,0.609375 1.03125,1.140625 v 0.328125 c 0,0.21875 -0.015625,0.265625 -0.140625,0.3125 -0.34375,0.15625 -1.40625,0.5 -2.0625,0.734375 C 0.78125,-2.15625 0.4375,-1.765625 0.4375,-1.28125 c 0,0.78125 0.609375,1.375 1.375,1.375 0.421875,0 1.328125,-0.640625 1.46875,-0.78125 C 3.359375,-0.328125 3.671875,0.078125 4,0.078125 c 0.25,0 0.75,-0.3125 0.890625,-0.453125 0.03125,-0.0625 0.0625,-0.15625 0.0625,-0.21875 0,-0.046875 -0.015625,-0.09375 -0.046875,-0.09375 -0.046875,0.015625 -0.1875,0.15625 -0.40625,0.15625 -0.265625,0 -0.359375,-0.25 -0.359375,-0.5625 V -3.5625 c 0,-0.921875 -0.609375,-1.65625 -1.296875,-1.65625 z m 0,0"
           id="path35" />
      </g>
    </g>
    <g
       fill="#000000"
       fill-opacity="1"
       id="g1828"
       transform="matrix(0.35277777,0,0,0.35277777,-2.7395013,-54.185337)">
      <g
         id="use1828"
         transform="translate(244.70926,563.40198)">
        <path
           d="m 1.21875,-5.078125 c -0.484375,0 -0.703125,-0.03125 -1.1875,-0.0625 V -4.8125 c 0.140625,0 0.53125,0 0.65625,0.25 C 1.34375,-3.21875 1.859375,-1.75 2.625,0.078125 2.640625,0.109375 2.6875,0.125 2.734375,0.125 c 0.09375,0 0.28125,-0.09375 0.3125,-0.203125 0.6875,-1.703125 1.09375,-2.625 1.8125,-4.3125 C 5,-4.71875 5.5,-4.8125 5.59375,-4.8125 c 0.046875,0 0.078125,-0.25 0.03125,-0.328125 -0.46875,0.03125 -0.65625,0.0625 -1.109375,0.0625 -0.484375,0 -0.59375,-0.03125 -0.96875,-0.0625 V -4.8125 c 0.40625,0 0.703125,0.15625 0.703125,0.40625 0,0.078125 -0.015625,0.21875 -0.078125,0.375 -0.453125,1.125 -1.0625,2.71875 -1.0625,2.71875 l -1.3125,-3.234375 v -0.0625 c 0,-0.171875 0.46875,-0.203125 0.5625,-0.203125 0.0625,0 0.078125,-0.25 0.0625,-0.328125 -0.484375,0.03125 -0.75,0.0625 -1.203125,0.0625 z m 0,0"
           id="path72" />
      </g>
    </g>
    <g
       fill="#000000"
       fill-opacity="1"
       id="g1831"
       transform="matrix(0.35277777,0,0,0.35277777,-2.7395013,-54.185337)">
      <g
         id="use1829"
         transform="translate(250.19669,563.40198)">
        <path
           d="m 1.359375,-3.390625 c -0.015625,0 0.25,-1.421875 1.265625,-1.421875 0.71875,0 0.953125,0.78125 0.953125,1.125 0,0.234375 -0.125,0.296875 -0.265625,0.296875 z m -0.0625,0.421875 c 0.15625,0 2.640625,-0.0625 3,-0.078125 0.21875,-0.015625 0.28125,-0.234375 0.28125,-0.5625 0,-0.484375 -0.359375,-1.625 -1.78125,-1.625 -1.046875,0 -2.3125,1.234375 -2.3125,2.84375 0,1.40625 0.96875,2.484375 2.359375,2.484375 0.921875,0 1.5,-0.671875 1.71875,-1 0.046875,-0.0625 0.09375,-0.15625 0.09375,-0.21875 0,-0.109375 -0.109375,-0.171875 -0.109375,-0.171875 C 4.390625,-1.09375 3.90625,-0.65625 3.25,-0.65625 c -1.03125,0 -1.953125,-0.75 -1.953125,-2.21875 z m 0,0"
           id="path39" />
      </g>
      <g
         id="use1830"
         transform="translate(255.25374,563.40198)">
        <path
           d="m 3.59375,-5.21875 c -0.53125,0 -1.15625,0.765625 -1.390625,1.265625 -0.015625,0.015625 -0.0625,0.015625 -0.0625,-0.03125 0,-0.125 0.078125,-1 0.09375,-1.078125 0,-0.03125 -0.078125,-0.078125 -0.140625,-0.078125 -0.46875,0.1875 -1.09375,0.3125 -1.6875,0.375 v 0.3125 c 0.078125,0 0.6875,0 0.78125,0.203125 C 1.25,-4.09375 1.25,-3.78125 1.25,-3.625 v 2.234375 c 0,0.359375 0,0.703125 -0.0625,0.90625 -0.046875,0.125 -0.609375,0.1875 -0.75,0.1875 V 0.03125 c 0.46875,-0.015625 0.859375,-0.0625 1.328125,-0.0625 0.453125,0 0.984375,0.046875 1.46875,0.0625 v -0.328125 c -0.15625,0 -0.984375,-0.0625 -1.015625,-0.1875 C 2.140625,-0.6875 2.140625,-1.03125 2.140625,-1.390625 v -1.84375 c 0,-0.28125 0.4375,-1.09375 0.953125,-1.09375 0.234375,0 0.34375,0.078125 0.4375,0.140625 0.140625,0.09375 0.28125,0.25 0.453125,0.25 0.109375,0 0.390625,-0.1875 0.390625,-0.625 0,-0.140625 -0.03125,-0.25 -0.046875,-0.3125 C 4.21875,-5.0625 3.90625,-5.21875 3.59375,-5.21875 Z m 0,0"
           id="path33" />
      </g>
      <g
         id="use1831"
         transform="translate(259.79672,563.40198)">
        <path
           d="m 1.21875,-5.078125 c -0.484375,0 -0.953125,-0.03125 -1.1875,-0.0625 V -4.8125 c 0.140625,0 0.515625,0 0.640625,0.25 0.71875,1.53125 1.21875,2.8125 1.890625,4.5 C 2.515625,0.078125 2.171875,0.890625 1.984375,1.140625 1.5,1.796875 1.1875,1.8125 0.625,1.8125 0.5625,1.890625 0.484375,2.015625 0.484375,2.15625 0.484375,2.578125 0.78125,2.671875 1,2.671875 1.40625,2.671875 1.765625,2.40625 2.046875,2 2.46875,1.359375 2.6875,0.609375 2.984375,-0.125 3.6875,-1.8125 4.078125,-2.71875 4.78125,-4.390625 4.9375,-4.71875 5.453125,-4.8125 5.546875,-4.8125 c 0.046875,0 0.078125,-0.25 0.015625,-0.328125 -0.25,0.03125 -0.546875,0.0625 -1,0.0625 -0.484375,0 -0.890625,-0.03125 -1.078125,-0.0625 V -4.8125 c 0.40625,0 0.703125,0.15625 0.703125,0.40625 0,0.078125 -0.015625,0.21875 -0.078125,0.359375 C 3.65625,-2.921875 3.0625,-1.34375 3.0625,-1.34375 L 1.796875,-4.546875 c -0.03125,-0.03125 -0.03125,-0.046875 -0.03125,-0.0625 0,-0.171875 0.5,-0.203125 0.59375,-0.203125 0.0625,0 0.078125,-0.25 0.0625,-0.328125 -0.21875,0.03125 -0.75,0.0625 -1.203125,0.0625 z m 0,0"
           id="path37" />
      </g>
    </g>
    <g
       fill="#000000"
       fill-opacity="1"
       id="g1835"
       transform="matrix(0.35277777,0,0,0.35277777,-2.7395013,-54.185337)">
      <g
         id="use1832"
         transform="translate(265.40302,565.19501)">
        <path
           d="m 1.90625,-0.984375 c 0,0.25 0,0.484375 -0.046875,0.625 -0.03125,0.09375 -0.4375,0.140625 -0.546875,0.140625 -0.03125,0.046875 -0.046875,0.203125 0,0.25 0.359375,-0.015625 0.578125,-0.046875 0.90625,-0.046875 0.34375,0 0.609375,0.03125 0.96875,0.046875 0.03125,-0.046875 0.03125,-0.203125 0,-0.25 -0.109375,0 -0.53125,-0.046875 -0.5625,-0.140625 C 2.578125,-0.5 2.578125,-0.734375 2.578125,-0.984375 V -4.53125 c 0,-0.53125 0.078125,-0.828125 0.078125,-0.828125 C 2.640625,-5.40625 2.625,-5.5 2.5625,-5.5 H 2.546875 c -0.015625,0 -0.78125,0.375 -1.484375,0.703125 -0.03125,0 -0.015625,0.03125 -0.015625,0.046875 0,0.0625 0.046875,0.109375 0.078125,0.140625 0.140625,-0.046875 0.484375,-0.171875 0.609375,-0.171875 0.125,0 0.171875,0.078125 0.171875,0.328125 z m 0,0"
           id="path64" />
      </g>
      <g
         id="use1833"
         transform="translate(269.65503,565.19501)">
        <path
           d="m 2.125,-0.234375 c -0.453125,0 -0.9375,-0.40625 -0.9375,-1.109375 0,-0.546875 0.203125,-0.890625 0.671875,-1.1875 0.015625,-0.015625 0.03125,-0.015625 0.046875,-0.015625 0.015625,0 0.03125,0.015625 0.046875,0.015625 0.125,0.078125 1.09375,0.640625 1.09375,1.34375 0,0.578125 -0.359375,0.953125 -0.921875,0.953125 z m 0,-4.96875 c 0.515625,0 0.84375,0.546875 0.84375,1.046875 0,0.46875 -0.25,0.8125 -0.59375,1.046875 -0.03125,0.015625 -0.03125,0 -0.046875,0 -0.015625,0 -0.03125,0 -0.046875,0 -0.328125,-0.1875 -0.890625,-0.5 -0.890625,-1.15625 0,-0.515625 0.3125,-0.9375 0.734375,-0.9375 z M 2.171875,-5.5 c -0.75,0 -1.421875,0.65625 -1.421875,1.390625 0,0.625 0.515625,1.125 0.875,1.34375 0.015625,0 0.03125,0.015625 0,0.046875 -0.328125,0.203125 -1.109375,0.65625 -1.109375,1.40625 0,0.828125 0.65625,1.390625 1.59375,1.390625 0.859375,0 1.640625,-0.640625 1.640625,-1.5 0,-0.625 -0.609375,-1.1875 -1.125,-1.46875 -0.03125,-0.015625 -0.046875,-0.046875 0,-0.046875 0.390625,-0.25 0.953125,-0.640625 0.953125,-1.3125 0,-0.796875 -0.640625,-1.25 -1.40625,-1.25 z m 0,0"
           id="path58" />
      </g>
      <g
         id="use1834"
         transform="translate(273.90707,565.19501)">
        <path
           d="m 2.125,-3.390625 c -0.21875,0 -0.671875,0.078125 -0.90625,0.171875 C 1.328125,-3.703125 1.421875,-4.25 1.53125,-4.765625 H 2.25 c 0.4375,0 0.75,-0.015625 1,-0.046875 C 3.40625,-5 3.5,-5.359375 3.5,-5.421875 c 0,-0.046875 -0.0625,-0.0625 -0.109375,-0.09375 0,0 -0.4375,0.078125 -0.78125,0.078125 H 1.34375 c -0.09375,0.53125 -0.3125,1.59375 -0.5,2.546875 0,0.0625 0.03125,0.125 0.0625,0.125 C 1.046875,-2.84375 1.453125,-2.90625 1.625,-2.90625 c 1,0 1.375,0.734375 1.375,1.28125 0,0.984375 -0.546875,1.328125 -1.015625,1.328125 -0.21875,0 -0.453125,-0.046875 -0.625,-0.21875 -0.140625,-0.140625 -0.25,-0.375 -0.484375,-0.375 -0.1875,0 -0.359375,0.15625 -0.359375,0.40625 0,0.140625 0.125,0.296875 0.171875,0.328125 0.28125,0.140625 0.640625,0.203125 0.875,0.203125 1.0625,0 2.171875,-0.734375 2.171875,-1.90625 0,-0.734375 -0.59375,-1.53125 -1.609375,-1.53125 z m 0,0"
           id="path55" />
      </g>
      <g
         id="use1835"
         transform="translate(278.15912,565.19501)">
        <path
           d="m 2.1875,-5.171875 c 0.625,0 1.0625,1.046875 1.0625,2.390625 0,1.34375 -0.390625,2.484375 -1.15625,2.484375 -0.625,0 -1.078125,-1.09375 -1.078125,-2.4375 0,-1.34375 0.453125,-2.4375 1.171875,-2.4375 z m -0.0625,-0.3125 c -1.171875,0 -1.859375,1.265625 -1.859375,2.75 C 0.265625,-1.25 0.96875,0.03125 2.125,0.03125 3.3125,0.03125 4,-1.25 4,-2.734375 c 0,-1.484375 -0.671875,-2.75 -1.875,-2.75 z m 0,0"
           id="path47" />
      </g>
    </g>
    <g
       fill="#000000"
       fill-opacity="1"
       id="g1836"
       transform="matrix(0.35277777,0,0,0.35277777,-2.7395013,-54.185337)">
      <g
         id="use1836"
         transform="translate(273.48001,634.66602)">
        <path
           d="m 6.046875,-5.59375 c 0,-1.34375 -1.234375,-2.109375 -2.484375,-2.109375 -0.6875,0 -1.203125,0.03125 -1.65625,0.03125 -0.453125,0 -0.90625,-0.03125 -1.375,-0.046875 -0.0625,0.0625 -0.046875,0.265625 0,0.328125 0.140625,0 0.765625,0.046875 0.796875,0.1875 0.0625,0.1875 0.0625,0.515625 0.0625,0.875 v 4.984375 c 0,0.34375 0,0.65625 -0.0625,0.859375 -0.03125,0.125 -0.65625,0.1875 -0.796875,0.1875 -0.046875,0.0625 -0.0625,0.265625 0,0.328125 0.46875,-0.015625 0.921875,-0.0625 1.375,-0.0625 0.453125,0 0.875,0.046875 1.359375,0.0625 0.0625,-0.0625 0.046875,-0.265625 0,-0.328125 C 3.125,-0.296875 2.5,-0.359375 2.46875,-0.484375 2.40625,-0.6875 2.40625,-1 2.40625,-1.34375 v -4.984375 c 0,-0.34375 0,-0.734375 0.0625,-0.875 C 2.515625,-7.3125 2.90625,-7.3125 3.046875,-7.3125 c 1.296875,0 1.921875,0.765625 1.921875,1.921875 0,1.171875 -0.71875,1.8125 -1.65625,1.8125 C 3.125,-3.578125 3,-3.625 2.875,-3.65625 2.828125,-3.671875 2.8125,-3.625 2.8125,-3.59375 c 0,0.140625 0.125,0.234375 0.15625,0.265625 0.125,0.046875 0.375,0.09375 0.515625,0.09375 1.53125,0 2.5625,-0.9375 2.5625,-2.359375 z m 0,0"
           id="path70" />
      </g>
    </g>
    <g
       fill="#000000"
       fill-opacity="1"
       id="g1843"
       transform="matrix(0.35277777,0,0,0.35277777,-2.7395013,-54.185337)">
      <g
         id="use1837"
         transform="translate(279.49347,634.66602)">
        <path
           d="m 2.875,-4.859375 c 1.0625,0 1.671875,1.328125 1.671875,2.5 0,1.015625 -0.375,2.0625 -1.390625,2.0625 C 2.078125,-0.296875 1.5,-1.625 1.5,-2.78125 1.5,-3.828125 1.859375,-4.859375 2.875,-4.859375 Z M 3.015625,-5.25 c -1.4375,0 -2.53125,1.15625 -2.53125,2.703125 0,1.5 0.984375,2.625 2.546875,2.625 1.4375,0 2.515625,-1.171875 2.515625,-2.71875 0,-1.5 -0.96875,-2.609375 -2.53125,-2.609375 z m 0,0"
           id="path31" />
      </g>
      <g
         id="use1838"
         transform="translate(285.50693,634.66602)">
        <path
           d="m 1.0625,-6.515625 v 5.171875 c 0,0.34375 0,0.65625 -0.0625,0.859375 -0.03125,0.125 -0.59375,0.1875 -0.734375,0.1875 V 0.03125 c 0.46875,-0.015625 0.78125,-0.0625 1.234375,-0.0625 0.46875,0 0.796875,0.046875 1.28125,0.0625 v -0.328125 c -0.15625,0 -0.71875,-0.0625 -0.765625,-0.1875 C 1.953125,-0.6875 1.953125,-1 1.953125,-1.34375 v -5.546875 c 0,-0.65625 0.140625,-1.015625 0.140625,-1.015625 C 2.09375,-8 2.015625,-8.109375 1.953125,-8.109375 1.46875,-7.875 0.875,-7.703125 0.28125,-7.640625 c -0.046875,0.015625 -0.015625,0.3125 0,0.3125 0.3125,0 0.65625,0.03125 0.71875,0.203125 0.0625,0.140625 0.0625,0.4375 0.0625,0.609375 z m 0,0"
           id="path23" />
      </g>
      <g
         id="use1839"
         transform="translate(288.51965,634.66602)">
        <path
           d="m 1.015625,-6.921875 c 0,0.328125 0.265625,0.59375 0.59375,0.59375 0.3125,0 0.578125,-0.265625 0.578125,-0.59375 C 2.1875,-7.25 1.921875,-7.5 1.609375,-7.5 c -0.328125,0 -0.59375,0.25 -0.59375,0.578125 z m 1.125,3.125 V -4.1875 c 0,-0.109375 0.078125,-0.671875 0.078125,-0.765625 0,-0.0625 -0.0625,-0.1875 -0.125,-0.1875 C 1.625,-4.890625 1,-4.734375 0.40625,-4.65625 v 0.3125 c 0.078125,0 0.6875,0 0.78125,0.203125 C 1.25,-4 1.25,-3.6875 1.25,-3.53125 v 2.1875 c 0,0.34375 0,0.65625 -0.0625,0.859375 -0.046875,0.125 -0.609375,0.1875 -0.75,0.1875 V 0.03125 c 0.46875,-0.015625 0.796875,-0.0625 1.25,-0.0625 0.46875,0 0.78125,0.046875 1.25,0.0625 v -0.328125 c -0.140625,0 -0.703125,-0.0625 -0.734375,-0.1875 C 2.140625,-0.6875 2.140625,-1 2.140625,-1.34375 Z m 0,0"
           id="path17" />
      </g>
      <g
         id="use1840"
         transform="translate(291.68777,634.66602)">
        <path
           d="m 1.890625,-5.15625 v -1.421875 c 0,-0.046875 -0.125,-0.046875 -0.1875,0.015625 -0.015625,0.03125 -0.484375,0.484375 -0.71875,0.734375 v 0.671875 h -0.4375 c -0.015625,0 -0.3125,0.3125 -0.3125,0.359375 0,0.046875 0.03125,0.109375 0.0625,0.109375 h 0.6875 v 3.46875 c 0,1.03125 0.640625,1.296875 1.25,1.296875 0.578125,0 1.046875,-0.453125 1.203125,-0.640625 0.015625,-0.015625 0.046875,-0.125 0.046875,-0.1875 0,-0.03125 0,-0.0625 -0.03125,-0.078125 -0.078125,0.0625 -0.421875,0.28125 -0.765625,0.28125 -0.53125,0 -0.796875,-0.34375 -0.796875,-0.984375 V -4.6875 h 1.4375 c 0.109375,-0.109375 0.15625,-0.234375 0.15625,-0.34375 0,-0.078125 0,-0.125 -0.046875,-0.125 z m 0,0"
           id="path41" />
      </g>
      <g
         id="use1841"
         transform="translate(295.358,634.66602)">
        <path
           d="m 1.015625,-6.921875 c 0,0.328125 0.265625,0.59375 0.59375,0.59375 0.3125,0 0.578125,-0.265625 0.578125,-0.59375 C 2.1875,-7.25 1.921875,-7.5 1.609375,-7.5 c -0.328125,0 -0.59375,0.25 -0.59375,0.578125 z m 1.125,3.125 V -4.1875 c 0,-0.109375 0.078125,-0.671875 0.078125,-0.765625 0,-0.0625 -0.0625,-0.1875 -0.125,-0.1875 C 1.625,-4.890625 1,-4.734375 0.40625,-4.65625 v 0.3125 c 0.078125,0 0.6875,0 0.78125,0.203125 C 1.25,-4 1.25,-3.6875 1.25,-3.53125 v 2.1875 c 0,0.34375 0,0.65625 -0.0625,0.859375 -0.046875,0.125 -0.609375,0.1875 -0.75,0.1875 V 0.03125 c 0.46875,-0.015625 0.796875,-0.0625 1.25,-0.0625 0.46875,0 0.78125,0.046875 1.25,0.0625 v -0.328125 c -0.140625,0 -0.703125,-0.0625 -0.734375,-0.1875 C 2.140625,-0.6875 2.140625,-1 2.140625,-1.34375 Z m 0,0"
           id="path18" />
      </g>
      <g
         id="use1842"
         transform="translate(298.52615,634.66602)">
        <path
           d="m 4.546875,-4.609375 c 0,-0.140625 -0.078125,-0.296875 -0.125,-0.34375 -0.28125,-0.1875 -0.65625,-0.28125 -1.078125,-0.28125 -1.234375,0 -2.875,1.171875 -2.875,2.921875 0,1.25 0.953125,2.40625 2.40625,2.40625 0.921875,0 1.515625,-0.671875 1.734375,-1 0.03125,-0.0625 0.0625,-0.15625 0.0625,-0.21875 0,-0.09375 -0.078125,-0.15625 -0.09375,-0.15625 -0.15625,0.1875 -0.609375,0.59375 -1.265625,0.59375 -1.078125,0 -1.9375,-0.625 -1.9375,-2.03125 0,-1.265625 0.703125,-2 1.34375,-2 0.3125,0 0.40625,0.0625 0.671875,0.234375 0.203125,0.140625 0.453125,0.4375 0.703125,0.4375 0.203125,0 0.453125,-0.15625 0.453125,-0.5625 z m 0,0"
           id="path27" />
      </g>
      <g
         id="use1843"
         transform="translate(303.53537,634.66602)">
        <path
           d="m 2.3125,-5.21875 c -0.875,0 -1.71875,0.5625 -1.71875,1.453125 0,0.640625 0.421875,1.015625 0.90625,1.296875 0.6875,0.390625 1.4375,0.625 1.4375,1.359375 0,0.546875 -0.375,0.859375 -0.84375,0.859375 -0.640625,0 -1.15625,-0.625 -1.296875,-1.125 -0.03125,-0.03125 -0.0625,-0.03125 -0.09375,-0.03125 -0.0625,0 -0.171875,0.046875 -0.21875,0.078125 0,0.296875 0.109375,0.984375 0.203125,1.234375 C 1.203125,0 1.53125,0.125 2.0625,0.125 c 0.96875,0 1.828125,-0.671875 1.828125,-1.640625 0,-0.765625 -0.828125,-1.15625 -1.375,-1.453125 C 2,-3.296875 1.5,-3.484375 1.5,-4.109375 c 0,-0.421875 0.25,-0.75 0.828125,-0.75 0.515625,0 0.890625,0.65625 1,1.09375 0.0625,0.046875 0.15625,0.078125 0.203125,0.078125 0.0625,0 0.125,-0.03125 0.125,-0.078125 C 3.640625,-4.1875 3.59375,-4.703125 3.515625,-5.0625 2.984375,-5.125 2.765625,-5.21875 2.3125,-5.21875 Z m 0,0"
           id="path29" />
      </g>
    </g>
    <g
       fill="#000000"
       fill-opacity="1"
       id="g1847"
       transform="matrix(0.35277777,0,0,0.35277777,-2.7395013,-54.185337)">
      <g
         id="use1844"
         transform="translate(307.86301,636.45898)">
        <path
           d="m 1.90625,-0.984375 c 0,0.25 0,0.484375 -0.046875,0.625 -0.03125,0.09375 -0.4375,0.140625 -0.546875,0.140625 -0.03125,0.046875 -0.046875,0.203125 0,0.25 0.359375,-0.015625 0.578125,-0.046875 0.90625,-0.046875 0.34375,0 0.609375,0.03125 0.96875,0.046875 0.03125,-0.046875 0.03125,-0.203125 0,-0.25 -0.109375,0 -0.53125,-0.046875 -0.5625,-0.140625 C 2.578125,-0.5 2.578125,-0.734375 2.578125,-0.984375 V -4.53125 c 0,-0.53125 0.078125,-0.828125 0.078125,-0.828125 C 2.640625,-5.40625 2.625,-5.5 2.5625,-5.5 H 2.546875 c -0.015625,0 -0.78125,0.375 -1.484375,0.703125 -0.03125,0 -0.015625,0.03125 -0.015625,0.046875 0,0.0625 0.046875,0.109375 0.078125,0.140625 0.140625,-0.046875 0.484375,-0.171875 0.609375,-0.171875 0.125,0 0.171875,0.078125 0.171875,0.328125 z m 0,0"
           id="path65" />
      </g>
      <g
         id="use1845"
         transform="translate(312.11505,636.45898)">
        <path
           d="m 2.125,-0.234375 c -0.453125,0 -0.9375,-0.40625 -0.9375,-1.109375 0,-0.546875 0.203125,-0.890625 0.671875,-1.1875 0.015625,-0.015625 0.03125,-0.015625 0.046875,-0.015625 0.015625,0 0.03125,0.015625 0.046875,0.015625 0.125,0.078125 1.09375,0.640625 1.09375,1.34375 0,0.578125 -0.359375,0.953125 -0.921875,0.953125 z m 0,-4.96875 c 0.515625,0 0.84375,0.546875 0.84375,1.046875 0,0.46875 -0.25,0.8125 -0.59375,1.046875 -0.03125,0.015625 -0.03125,0 -0.046875,0 -0.015625,0 -0.03125,0 -0.046875,0 -0.328125,-0.1875 -0.890625,-0.5 -0.890625,-1.15625 0,-0.515625 0.3125,-0.9375 0.734375,-0.9375 z M 2.171875,-5.5 c -0.75,0 -1.421875,0.65625 -1.421875,1.390625 0,0.625 0.515625,1.125 0.875,1.34375 0.015625,0 0.03125,0.015625 0,0.046875 -0.328125,0.203125 -1.109375,0.65625 -1.109375,1.40625 0,0.828125 0.65625,1.390625 1.59375,1.390625 0.859375,0 1.640625,-0.640625 1.640625,-1.5 0,-0.625 -0.609375,-1.1875 -1.125,-1.46875 -0.03125,-0.015625 -0.046875,-0.046875 0,-0.046875 0.390625,-0.25 0.953125,-0.640625 0.953125,-1.3125 0,-0.796875 -0.640625,-1.25 -1.40625,-1.25 z m 0,0"
           id="path59" />
      </g>
      <g
         id="use1846"
         transform="translate(316.3671,636.45898)">
        <path
           d="m 2.125,-3.390625 c -0.21875,0 -0.671875,0.078125 -0.90625,0.171875 C 1.328125,-3.703125 1.421875,-4.25 1.53125,-4.765625 H 2.25 c 0.4375,0 0.75,-0.015625 1,-0.046875 C 3.40625,-5 3.5,-5.359375 3.5,-5.421875 c 0,-0.046875 -0.0625,-0.0625 -0.109375,-0.09375 0,0 -0.4375,0.078125 -0.78125,0.078125 H 1.34375 c -0.09375,0.53125 -0.3125,1.59375 -0.5,2.546875 0,0.0625 0.03125,0.125 0.0625,0.125 C 1.046875,-2.84375 1.453125,-2.90625 1.625,-2.90625 c 1,0 1.375,0.734375 1.375,1.28125 0,0.984375 -0.546875,1.328125 -1.015625,1.328125 -0.21875,0 -0.453125,-0.046875 -0.625,-0.21875 -0.140625,-0.140625 -0.25,-0.375 -0.484375,-0.375 -0.1875,0 -0.359375,0.15625 -0.359375,0.40625 0,0.140625 0.125,0.296875 0.171875,0.328125 0.28125,0.140625 0.640625,0.203125 0.875,0.203125 1.0625,0 2.171875,-0.734375 2.171875,-1.90625 0,-0.734375 -0.59375,-1.53125 -1.609375,-1.53125 z m 0,0"
           id="path56" />
      </g>
      <g
         id="use1847"
         transform="translate(320.61914,636.45898)">
        <path
           d="m 2.1875,-5.171875 c 0.625,0 1.0625,1.046875 1.0625,2.390625 0,1.34375 -0.390625,2.484375 -1.15625,2.484375 -0.625,0 -1.078125,-1.09375 -1.078125,-2.4375 0,-1.34375 0.453125,-2.4375 1.171875,-2.4375 z m -0.0625,-0.3125 c -1.171875,0 -1.859375,1.265625 -1.859375,2.75 C 0.265625,-1.25 0.96875,0.03125 2.125,0.03125 3.3125,0.03125 4,-1.25 4,-2.734375 c 0,-1.484375 -0.671875,-2.75 -1.875,-2.75 z m 0,0"
           id="path48" />
      </g>
    </g>
    <g
       fill="#000000"
       fill-opacity="1"
       id="g1848"
       transform="matrix(0.35277777,0,0,0.35277777,-2.7395013,-54.185337)">
      <g
         id="use1848"
         transform="translate(329.629,521.211)">
        <path
           d="m 2.71875,-7.953125 c -0.5625,0 -0.859375,-0.03125 -1.40625,-0.0625 -0.046875,0.0625 -0.09375,0.203125 -0.09375,0.296875 0,0.03125 0.015625,0.0625 0.03125,0.0625 0.125,0 0.421875,0.078125 0.59375,0.203125 0.265625,0.1875 0.40625,0.390625 0.578125,0.8125 l 1.0625,2.625 -2.84375,3.21875 c -0.40625,0.421875 -1.1875,0.484375 -1.28125,0.484375 -0.015625,0.03125 -0.09375,0.28125 -0.078125,0.34375 0.453125,-0.015625 0.8125,-0.0625 1.40625,-0.0625 0.40625,0 0.84375,0.046875 1.25,0.0625 C 1.953125,0 2.015625,-0.234375 1.984375,-0.3125 1.375,-0.3125 1.1875,-0.515625 1.1875,-0.59375 c 0,-0.078125 0.0625,-0.171875 0.09375,-0.203125 0.265625,-0.328125 1.546875,-1.875 2.40625,-2.84375 l 1.171875,2.84375 c 0,0.03125 0.03125,0.109375 0.015625,0.140625 -0.046875,0.21875 -0.609375,0.34375 -0.734375,0.34375 -0.046875,0 -0.078125,0.140625 -0.078125,0.25 0,0.046875 0.015625,0.09375 0.03125,0.09375 0.625,-0.015625 1.015625,-0.0625 1.65625,-0.0625 0.453125,0 0.6875,0.046875 1.140625,0.0625 0,-0.015625 0.09375,-0.28125 0.046875,-0.34375 -0.359375,0 -0.859375,-0.140625 -1.015625,-0.484375 l -1.46875,-3.5625 2.578125,-2.796875 c 0.390625,-0.4375 1,-0.5 1.078125,-0.5 0.078125,-0.046875 0.109375,-0.203125 0.109375,-0.296875 0,-0.015625 0,-0.046875 0,-0.0625 -0.28125,0.03125 -0.671875,0.078125 -1.265625,0.078125 -0.40625,0 -0.734375,-0.03125 -1.1875,-0.078125 -0.03125,0.0625 -0.0625,0.21875 -0.0625,0.3125 0,0.03125 0.015625,0.046875 0.015625,0.046875 0.609375,0 0.734375,0.203125 0.734375,0.296875 0,0.0625 -0.0625,0.15625 -0.09375,0.203125 C 6.125,-6.828125 5.140625,-5.71875 4.28125,-4.75 L 3.375,-6.90625 C 3.328125,-7.046875 3.296875,-7.171875 3.328125,-7.265625 c 0.046875,-0.3125 0.59375,-0.390625 0.75,-0.390625 0.0625,0 0.09375,-0.28125 0.078125,-0.359375 -0.453125,0.03125 -0.875,0.0625 -1.4375,0.0625 z m 0,0"
           id="path69" />
      </g>
    </g>
    <g
       fill="#000000"
       fill-opacity="1"
       id="g1852"
       transform="matrix(0.35277777,0,0,0.35277777,-2.7395013,-54.185337)">
      <g
         id="use1849"
         transform="translate(337.23199,523.005)">
        <path
           d="m 1.90625,-0.984375 c 0,0.25 0,0.484375 -0.046875,0.625 -0.03125,0.09375 -0.4375,0.140625 -0.546875,0.140625 -0.03125,0.046875 -0.046875,0.203125 0,0.25 0.359375,-0.015625 0.578125,-0.046875 0.90625,-0.046875 0.34375,0 0.609375,0.03125 0.96875,0.046875 0.03125,-0.046875 0.03125,-0.203125 0,-0.25 -0.109375,0 -0.53125,-0.046875 -0.5625,-0.140625 C 2.578125,-0.5 2.578125,-0.734375 2.578125,-0.984375 V -4.53125 c 0,-0.53125 0.078125,-0.828125 0.078125,-0.828125 C 2.640625,-5.40625 2.625,-5.5 2.5625,-5.5 H 2.546875 c -0.015625,0 -0.78125,0.375 -1.484375,0.703125 -0.03125,0 -0.015625,0.03125 -0.015625,0.046875 0,0.0625 0.046875,0.109375 0.078125,0.140625 0.140625,-0.046875 0.484375,-0.171875 0.609375,-0.171875 0.125,0 0.171875,0.078125 0.171875,0.328125 z m 0,0"
           id="path66" />
      </g>
      <g
         id="use1850"
         transform="translate(341.48404,523.005)">
        <path
           d="m 2.125,-0.234375 c -0.453125,0 -0.9375,-0.40625 -0.9375,-1.109375 0,-0.546875 0.203125,-0.890625 0.671875,-1.1875 0.015625,-0.015625 0.03125,-0.015625 0.046875,-0.015625 0.015625,0 0.03125,0.015625 0.046875,0.015625 0.125,0.078125 1.09375,0.640625 1.09375,1.34375 0,0.578125 -0.359375,0.953125 -0.921875,0.953125 z m 0,-4.96875 c 0.515625,0 0.84375,0.546875 0.84375,1.046875 0,0.46875 -0.25,0.8125 -0.59375,1.046875 -0.03125,0.015625 -0.03125,0 -0.046875,0 -0.015625,0 -0.03125,0 -0.046875,0 -0.328125,-0.1875 -0.890625,-0.5 -0.890625,-1.15625 0,-0.515625 0.3125,-0.9375 0.734375,-0.9375 z M 2.171875,-5.5 c -0.75,0 -1.421875,0.65625 -1.421875,1.390625 0,0.625 0.515625,1.125 0.875,1.34375 0.015625,0 0.03125,0.015625 0,0.046875 -0.328125,0.203125 -1.109375,0.65625 -1.109375,1.40625 0,0.828125 0.65625,1.390625 1.59375,1.390625 0.859375,0 1.640625,-0.640625 1.640625,-1.5 0,-0.625 -0.609375,-1.1875 -1.125,-1.46875 -0.03125,-0.015625 -0.046875,-0.046875 0,-0.046875 0.390625,-0.25 0.953125,-0.640625 0.953125,-1.3125 0,-0.796875 -0.640625,-1.25 -1.40625,-1.25 z m 0,0"
           id="path60" />
      </g>
      <g
         id="use1851"
         transform="translate(345.73608,523.005)">
        <path
           d="m 1.1875,-2.625 c 0.28125,-0.296875 0.59375,-0.34375 0.84375,-0.34375 0.765625,0 1.078125,0.65625 1.078125,1.390625 0,0.765625 -0.40625,1.34375 -0.9375,1.34375 -0.6875,0 -1.015625,-1.03125 -1.015625,-1.796875 0,-0.203125 0.015625,-0.40625 0.03125,-0.59375 z m 1.078125,-0.765625 c -0.28125,0 -0.703125,0.140625 -1,0.390625 0.375,-1.515625 1.65625,-2.0625 2.375,-2.296875 0,-0.046875 -0.03125,-0.25 -0.109375,-0.25 -0.71875,0.1875 -1.6875,0.71875 -2.28125,1.390625 -0.546875,0.59375 -0.828125,1.390625 -0.828125,2.265625 0,0.921875 0.640625,1.9375 1.671875,1.9375 0.96875,0 1.75,-0.828125 1.75,-1.78125 0,-0.609375 -0.375,-1.65625 -1.578125,-1.65625 z m 0,0"
           id="path44" />
      </g>
      <g
         id="use1852"
         transform="translate(349.98813,523.005)">
        <path
           d="m 2.1875,-5.171875 c 0.625,0 1.0625,1.046875 1.0625,2.390625 0,1.34375 -0.390625,2.484375 -1.15625,2.484375 -0.625,0 -1.078125,-1.09375 -1.078125,-2.4375 0,-1.34375 0.453125,-2.4375 1.171875,-2.4375 z m -0.0625,-0.3125 c -1.171875,0 -1.859375,1.265625 -1.859375,2.75 C 0.265625,-1.25 0.96875,0.03125 2.125,0.03125 3.3125,0.03125 4,-1.25 4,-2.734375 c 0,-1.484375 -0.671875,-2.75 -1.875,-2.75 z m 0,0"
           id="path49" />
      </g>
    </g>
    <g
       fill="#000000"
       fill-opacity="1"
       id="g1855"
       transform="matrix(0.35277777,0,0,0.35277777,-2.7395013,-54.185337)">
      <g
         id="use1853"
         transform="translate(315.94,563.40198)">
        <path
           d="M 3.046875,-7.765625 C 1.875,-7.765625 0.75,-6.96875 0.75,-5.71875 c 0,1.171875 1.140625,1.8125 2.03125,2.34375 0.796875,0.453125 1.5625,0.703125 1.5625,1.671875 0,0.90625 -0.65625,1.421875 -1.40625,1.421875 C 1.546875,-0.28125 1.09375,-1.625 1,-2.0625 0.984375,-2.125 0.953125,-2.171875 0.875,-2.171875 c -0.109375,0 -0.234375,0.0625 -0.296875,0.140625 0,0.140625 0.09375,1.109375 0.234375,1.796875 0.578125,0.125 1.3125,0.359375 2.109375,0.359375 1.234375,0 2.4375,-0.859375 2.4375,-2.140625 0,-1.15625 -1.265625,-1.765625 -2.03125,-2.25 -0.765625,-0.484375 -1.625,-0.890625 -1.625,-1.8125 0,-0.5625 0.3125,-1.296875 1.265625,-1.296875 0.984375,0 1.5625,1.078125 1.640625,1.65625 0.03125,0.046875 0.09375,0.046875 0.125,0.046875 0.078125,0 0.25,-0.03125 0.234375,-0.109375 C 4.953125,-6.09375 4.90625,-6.84375 4.8125,-7.453125 4.046875,-7.625 3.78125,-7.765625 3.046875,-7.765625 Z m 0,0"
           id="path75" />
      </g>
      <g
         id="use1854"
         transform="translate(321.79803,563.40198)">
        <path
           d="m 1.0625,-6.515625 v 5.171875 c 0,0.34375 0,0.65625 -0.0625,0.859375 -0.03125,0.125 -0.59375,0.1875 -0.734375,0.1875 V 0.03125 c 0.46875,-0.015625 0.78125,-0.0625 1.234375,-0.0625 0.46875,0 0.796875,0.046875 1.28125,0.0625 v -0.328125 c -0.15625,0 -0.71875,-0.0625 -0.765625,-0.1875 C 1.953125,-0.6875 1.953125,-1 1.953125,-1.34375 v -5.546875 c 0,-0.65625 0.140625,-1.015625 0.140625,-1.015625 C 2.09375,-8 2.015625,-8.109375 1.953125,-8.109375 1.46875,-7.875 0.875,-7.703125 0.28125,-7.640625 c -0.046875,0.015625 -0.015625,0.3125 0,0.3125 0.3125,0 0.65625,0.03125 0.71875,0.203125 0.0625,0.140625 0.0625,0.4375 0.0625,0.609375 z m 0,0"
           id="path25" />
      </g>
      <g
         id="use1855"
         transform="translate(324.81076,563.40198)">
        <path
           d="m 2.21875,-0.53125 c -0.453125,0 -0.8125,-0.40625 -0.8125,-0.84375 0,-0.453125 0.296875,-0.765625 0.734375,-0.9375 C 2.359375,-2.390625 2.9375,-2.5625 3.25,-2.671875 v 1.640625 c 0,0.125 -0.625,0.5 -1.03125,0.5 z m 0.625,-4.6875 C 1.984375,-5.21875 1.0625,-4.578125 0.703125,-4.25 0.65625,-4.1875 0.625,-4 0.625,-3.9375 c 0,0.25 0.140625,0.5 0.390625,0.5 0.28125,0 0.484375,-0.171875 0.546875,-0.578125 0.09375,-0.46875 0.25,-0.75 0.65625,-0.75 0.59375,0 1.03125,0.609375 1.03125,1.140625 v 0.328125 c 0,0.21875 -0.015625,0.265625 -0.140625,0.3125 -0.34375,0.15625 -1.40625,0.5 -2.0625,0.734375 C 0.78125,-2.15625 0.4375,-1.765625 0.4375,-1.28125 c 0,0.78125 0.609375,1.375 1.375,1.375 0.421875,0 1.328125,-0.640625 1.46875,-0.78125 C 3.359375,-0.328125 3.671875,0.078125 4,0.078125 c 0.25,0 0.75,-0.3125 0.890625,-0.453125 0.03125,-0.0625 0.0625,-0.15625 0.0625,-0.21875 0,-0.046875 -0.015625,-0.09375 -0.046875,-0.09375 -0.046875,0.015625 -0.1875,0.15625 -0.40625,0.15625 -0.265625,0 -0.359375,-0.25 -0.359375,-0.5625 V -3.5625 c 0,-0.921875 -0.609375,-1.65625 -1.296875,-1.65625 z m 0,0"
           id="path36" />
      </g>
    </g>
    <g
       fill="#000000"
       fill-opacity="1"
       id="g1856"
       transform="matrix(0.35277777,0,0,0.35277777,-2.7395013,-54.185337)">
      <g
         id="use1856"
         transform="translate(329.74826,563.40198)">
        <path
           d="m 1.21875,-5.078125 c -0.484375,0 -0.703125,-0.03125 -1.1875,-0.0625 V -4.8125 c 0.140625,0 0.53125,0 0.65625,0.25 C 1.34375,-3.21875 1.859375,-1.75 2.625,0.078125 2.640625,0.109375 2.6875,0.125 2.734375,0.125 c 0.09375,0 0.28125,-0.09375 0.3125,-0.203125 0.6875,-1.703125 1.09375,-2.625 1.8125,-4.3125 C 5,-4.71875 5.5,-4.8125 5.59375,-4.8125 c 0.046875,0 0.078125,-0.25 0.03125,-0.328125 -0.46875,0.03125 -0.65625,0.0625 -1.109375,0.0625 -0.484375,0 -0.59375,-0.03125 -0.96875,-0.0625 V -4.8125 c 0.40625,0 0.703125,0.15625 0.703125,0.40625 0,0.078125 -0.015625,0.21875 -0.078125,0.375 -0.453125,1.125 -1.0625,2.71875 -1.0625,2.71875 l -1.3125,-3.234375 v -0.0625 c 0,-0.171875 0.46875,-0.203125 0.5625,-0.203125 0.0625,0 0.078125,-0.25 0.0625,-0.328125 -0.484375,0.03125 -0.75,0.0625 -1.203125,0.0625 z m 0,0"
           id="path73" />
      </g>
    </g>
    <g
       fill="#000000"
       fill-opacity="1"
       id="g1859"
       transform="matrix(0.35277777,0,0,0.35277777,-2.7395013,-54.185337)">
      <g
         id="use1857"
         transform="translate(335.23569,563.40198)">
        <path
           d="m 1.359375,-3.390625 c -0.015625,0 0.25,-1.421875 1.265625,-1.421875 0.71875,0 0.953125,0.78125 0.953125,1.125 0,0.234375 -0.125,0.296875 -0.265625,0.296875 z m -0.0625,0.421875 c 0.15625,0 2.640625,-0.0625 3,-0.078125 0.21875,-0.015625 0.28125,-0.234375 0.28125,-0.5625 0,-0.484375 -0.359375,-1.625 -1.78125,-1.625 -1.046875,0 -2.3125,1.234375 -2.3125,2.84375 0,1.40625 0.96875,2.484375 2.359375,2.484375 0.921875,0 1.5,-0.671875 1.71875,-1 0.046875,-0.0625 0.09375,-0.15625 0.09375,-0.21875 0,-0.109375 -0.109375,-0.171875 -0.109375,-0.171875 C 4.390625,-1.09375 3.90625,-0.65625 3.25,-0.65625 c -1.03125,0 -1.953125,-0.75 -1.953125,-2.21875 z m 0,0"
           id="path40" />
      </g>
      <g
         id="use1858"
         transform="translate(340.29276,563.40198)">
        <path
           d="m 3.59375,-5.21875 c -0.53125,0 -1.15625,0.765625 -1.390625,1.265625 -0.015625,0.015625 -0.0625,0.015625 -0.0625,-0.03125 0,-0.125 0.078125,-1 0.09375,-1.078125 0,-0.03125 -0.078125,-0.078125 -0.140625,-0.078125 -0.46875,0.1875 -1.09375,0.3125 -1.6875,0.375 v 0.3125 c 0.078125,0 0.6875,0 0.78125,0.203125 C 1.25,-4.09375 1.25,-3.78125 1.25,-3.625 v 2.234375 c 0,0.359375 0,0.703125 -0.0625,0.90625 -0.046875,0.125 -0.609375,0.1875 -0.75,0.1875 V 0.03125 c 0.46875,-0.015625 0.859375,-0.0625 1.328125,-0.0625 0.453125,0 0.984375,0.046875 1.46875,0.0625 v -0.328125 c -0.15625,0 -0.984375,-0.0625 -1.015625,-0.1875 C 2.140625,-0.6875 2.140625,-1.03125 2.140625,-1.390625 v -1.84375 c 0,-0.28125 0.4375,-1.09375 0.953125,-1.09375 0.234375,0 0.34375,0.078125 0.4375,0.140625 0.140625,0.09375 0.28125,0.25 0.453125,0.25 0.109375,0 0.390625,-0.1875 0.390625,-0.625 0,-0.140625 -0.03125,-0.25 -0.046875,-0.3125 C 4.21875,-5.0625 3.90625,-5.21875 3.59375,-5.21875 Z m 0,0"
           id="path34" />
      </g>
      <g
         id="use1859"
         transform="translate(344.83572,563.40198)">
        <path
           d="m 1.21875,-5.078125 c -0.484375,0 -0.953125,-0.03125 -1.1875,-0.0625 V -4.8125 c 0.140625,0 0.515625,0 0.640625,0.25 0.71875,1.53125 1.21875,2.8125 1.890625,4.5 C 2.515625,0.078125 2.171875,0.890625 1.984375,1.140625 1.5,1.796875 1.1875,1.8125 0.625,1.8125 0.5625,1.890625 0.484375,2.015625 0.484375,2.15625 0.484375,2.578125 0.78125,2.671875 1,2.671875 1.40625,2.671875 1.765625,2.40625 2.046875,2 2.46875,1.359375 2.6875,0.609375 2.984375,-0.125 3.6875,-1.8125 4.078125,-2.71875 4.78125,-4.390625 4.9375,-4.71875 5.453125,-4.8125 5.546875,-4.8125 c 0.046875,0 0.078125,-0.25 0.015625,-0.328125 -0.25,0.03125 -0.546875,0.0625 -1,0.0625 -0.484375,0 -0.890625,-0.03125 -1.078125,-0.0625 V -4.8125 c 0.40625,0 0.703125,0.15625 0.703125,0.40625 0,0.078125 -0.015625,0.21875 -0.078125,0.359375 C 3.65625,-2.921875 3.0625,-1.34375 3.0625,-1.34375 L 1.796875,-4.546875 c -0.03125,-0.03125 -0.03125,-0.046875 -0.03125,-0.0625 0,-0.171875 0.5,-0.203125 0.59375,-0.203125 0.0625,0 0.078125,-0.25 0.0625,-0.328125 -0.21875,0.03125 -0.75,0.0625 -1.203125,0.0625 z m 0,0"
           id="path38" />
      </g>
    </g>
    <g
       fill="#000000"
       fill-opacity="1"
       id="g1863"
       transform="matrix(0.35277777,0,0,0.35277777,-2.7395013,-54.185337)">
      <g
         id="use1860"
         transform="translate(350.44199,565.19501)">
        <path
           d="m 1.90625,-0.984375 c 0,0.25 0,0.484375 -0.046875,0.625 -0.03125,0.09375 -0.4375,0.140625 -0.546875,0.140625 -0.03125,0.046875 -0.046875,0.203125 0,0.25 0.359375,-0.015625 0.578125,-0.046875 0.90625,-0.046875 0.34375,0 0.609375,0.03125 0.96875,0.046875 0.03125,-0.046875 0.03125,-0.203125 0,-0.25 -0.109375,0 -0.53125,-0.046875 -0.5625,-0.140625 C 2.578125,-0.5 2.578125,-0.734375 2.578125,-0.984375 V -4.53125 c 0,-0.53125 0.078125,-0.828125 0.078125,-0.828125 C 2.640625,-5.40625 2.625,-5.5 2.5625,-5.5 H 2.546875 c -0.015625,0 -0.78125,0.375 -1.484375,0.703125 -0.03125,0 -0.015625,0.03125 -0.015625,0.046875 0,0.0625 0.046875,0.109375 0.078125,0.140625 0.140625,-0.046875 0.484375,-0.171875 0.609375,-0.171875 0.125,0 0.171875,0.078125 0.171875,0.328125 z m 0,0"
           id="path67" />
      </g>
      <g
         id="use1861"
         transform="translate(354.69403,565.19501)">
        <path
           d="m 2.125,-0.234375 c -0.453125,0 -0.9375,-0.40625 -0.9375,-1.109375 0,-0.546875 0.203125,-0.890625 0.671875,-1.1875 0.015625,-0.015625 0.03125,-0.015625 0.046875,-0.015625 0.015625,0 0.03125,0.015625 0.046875,0.015625 0.125,0.078125 1.09375,0.640625 1.09375,1.34375 0,0.578125 -0.359375,0.953125 -0.921875,0.953125 z m 0,-4.96875 c 0.515625,0 0.84375,0.546875 0.84375,1.046875 0,0.46875 -0.25,0.8125 -0.59375,1.046875 -0.03125,0.015625 -0.03125,0 -0.046875,0 -0.015625,0 -0.03125,0 -0.046875,0 -0.328125,-0.1875 -0.890625,-0.5 -0.890625,-1.15625 0,-0.515625 0.3125,-0.9375 0.734375,-0.9375 z M 2.171875,-5.5 c -0.75,0 -1.421875,0.65625 -1.421875,1.390625 0,0.625 0.515625,1.125 0.875,1.34375 0.015625,0 0.03125,0.015625 0,0.046875 -0.328125,0.203125 -1.109375,0.65625 -1.109375,1.40625 0,0.828125 0.65625,1.390625 1.59375,1.390625 0.859375,0 1.640625,-0.640625 1.640625,-1.5 0,-0.625 -0.609375,-1.1875 -1.125,-1.46875 -0.03125,-0.015625 -0.046875,-0.046875 0,-0.046875 0.390625,-0.25 0.953125,-0.640625 0.953125,-1.3125 0,-0.796875 -0.640625,-1.25 -1.40625,-1.25 z m 0,0"
           id="path61" />
      </g>
      <g
         id="use1862"
         transform="translate(358.94608,565.19501)">
        <path
           d="m 1.1875,-2.625 c 0.28125,-0.296875 0.59375,-0.34375 0.84375,-0.34375 0.765625,0 1.078125,0.65625 1.078125,1.390625 0,0.765625 -0.40625,1.34375 -0.9375,1.34375 -0.6875,0 -1.015625,-1.03125 -1.015625,-1.796875 0,-0.203125 0.015625,-0.40625 0.03125,-0.59375 z m 1.078125,-0.765625 c -0.28125,0 -0.703125,0.140625 -1,0.390625 0.375,-1.515625 1.65625,-2.0625 2.375,-2.296875 0,-0.046875 -0.03125,-0.25 -0.109375,-0.25 -0.71875,0.1875 -1.6875,0.71875 -2.28125,1.390625 -0.546875,0.59375 -0.828125,1.390625 -0.828125,2.265625 0,0.921875 0.640625,1.9375 1.671875,1.9375 0.96875,0 1.75,-0.828125 1.75,-1.78125 0,-0.609375 -0.375,-1.65625 -1.578125,-1.65625 z m 0,0"
           id="path45" />
      </g>
      <g
         id="use1863"
         transform="translate(363.19812,565.19501)">
        <path
           d="m 2.1875,-5.171875 c 0.625,0 1.0625,1.046875 1.0625,2.390625 0,1.34375 -0.390625,2.484375 -1.15625,2.484375 -0.625,0 -1.078125,-1.09375 -1.078125,-2.4375 0,-1.34375 0.453125,-2.4375 1.171875,-2.4375 z m -0.0625,-0.3125 c -1.171875,0 -1.859375,1.265625 -1.859375,2.75 C 0.265625,-1.25 0.96875,0.03125 2.125,0.03125 3.3125,0.03125 4,-1.25 4,-2.734375 c 0,-1.484375 -0.671875,-2.75 -1.875,-2.75 z m 0,0"
           id="path50" />
      </g>
    </g>
    <g
       fill="#000000"
       fill-opacity="1"
       id="g1864"
       transform="matrix(0.35277777,0,0,0.35277777,-2.7395013,-54.185337)">
      <g
         id="use1864"
         transform="translate(401.039,563.79999)">
        <path
           d="m 6.046875,-5.59375 c 0,-1.34375 -1.234375,-2.109375 -2.484375,-2.109375 -0.6875,0 -1.203125,0.03125 -1.65625,0.03125 -0.453125,0 -0.90625,-0.03125 -1.375,-0.046875 -0.0625,0.0625 -0.046875,0.265625 0,0.328125 0.140625,0 0.765625,0.046875 0.796875,0.1875 0.0625,0.1875 0.0625,0.515625 0.0625,0.875 v 4.984375 c 0,0.34375 0,0.65625 -0.0625,0.859375 -0.03125,0.125 -0.65625,0.1875 -0.796875,0.1875 -0.046875,0.0625 -0.0625,0.265625 0,0.328125 0.46875,-0.015625 0.921875,-0.0625 1.375,-0.0625 0.453125,0 0.875,0.046875 1.359375,0.0625 0.0625,-0.0625 0.046875,-0.265625 0,-0.328125 C 3.125,-0.296875 2.5,-0.359375 2.46875,-0.484375 2.40625,-0.6875 2.40625,-1 2.40625,-1.34375 v -4.984375 c 0,-0.34375 0,-0.734375 0.0625,-0.875 C 2.515625,-7.3125 2.90625,-7.3125 3.046875,-7.3125 c 1.296875,0 1.921875,0.765625 1.921875,1.921875 0,1.171875 -0.71875,1.8125 -1.65625,1.8125 C 3.125,-3.578125 3,-3.625 2.875,-3.65625 2.828125,-3.671875 2.8125,-3.625 2.8125,-3.59375 c 0,0.140625 0.125,0.234375 0.15625,0.265625 0.125,0.046875 0.375,0.09375 0.515625,0.09375 1.53125,0 2.5625,-0.9375 2.5625,-2.359375 z m 0,0"
           id="path71" />
      </g>
    </g>
    <g
       fill="#000000"
       fill-opacity="1"
       id="g1871"
       transform="matrix(0.35277777,0,0,0.35277777,-2.7395013,-54.185337)">
      <g
         id="use1865"
         transform="translate(407.05246,563.79999)">
        <path
           d="m 2.875,-4.859375 c 1.0625,0 1.671875,1.328125 1.671875,2.5 0,1.015625 -0.375,2.0625 -1.390625,2.0625 C 2.078125,-0.296875 1.5,-1.625 1.5,-2.78125 1.5,-3.828125 1.859375,-4.859375 2.875,-4.859375 Z M 3.015625,-5.25 c -1.4375,0 -2.53125,1.15625 -2.53125,2.703125 0,1.5 0.984375,2.625 2.546875,2.625 1.4375,0 2.515625,-1.171875 2.515625,-2.71875 0,-1.5 -0.96875,-2.609375 -2.53125,-2.609375 z m 0,0"
           id="path32" />
      </g>
      <g
         id="use1866"
         transform="translate(413.06592,563.79999)">
        <path
           d="m 1.0625,-6.515625 v 5.171875 c 0,0.34375 0,0.65625 -0.0625,0.859375 -0.03125,0.125 -0.59375,0.1875 -0.734375,0.1875 V 0.03125 c 0.46875,-0.015625 0.78125,-0.0625 1.234375,-0.0625 0.46875,0 0.796875,0.046875 1.28125,0.0625 v -0.328125 c -0.15625,0 -0.71875,-0.0625 -0.765625,-0.1875 C 1.953125,-0.6875 1.953125,-1 1.953125,-1.34375 v -5.546875 c 0,-0.65625 0.140625,-1.015625 0.140625,-1.015625 C 2.09375,-8 2.015625,-8.109375 1.953125,-8.109375 1.46875,-7.875 0.875,-7.703125 0.28125,-7.640625 c -0.046875,0.015625 -0.015625,0.3125 0,0.3125 0.3125,0 0.65625,0.03125 0.71875,0.203125 0.0625,0.140625 0.0625,0.4375 0.0625,0.609375 z m 0,0"
           id="path26" />
      </g>
      <g
         id="use1867"
         transform="translate(416.07864,563.79999)">
        <path
           d="m 1.015625,-6.921875 c 0,0.328125 0.265625,0.59375 0.59375,0.59375 0.3125,0 0.578125,-0.265625 0.578125,-0.59375 C 2.1875,-7.25 1.921875,-7.5 1.609375,-7.5 c -0.328125,0 -0.59375,0.25 -0.59375,0.578125 z m 1.125,3.125 V -4.1875 c 0,-0.109375 0.078125,-0.671875 0.078125,-0.765625 0,-0.0625 -0.0625,-0.1875 -0.125,-0.1875 C 1.625,-4.890625 1,-4.734375 0.40625,-4.65625 v 0.3125 c 0.078125,0 0.6875,0 0.78125,0.203125 C 1.25,-4 1.25,-3.6875 1.25,-3.53125 v 2.1875 c 0,0.34375 0,0.65625 -0.0625,0.859375 -0.046875,0.125 -0.609375,0.1875 -0.75,0.1875 V 0.03125 c 0.46875,-0.015625 0.796875,-0.0625 1.25,-0.0625 0.46875,0 0.78125,0.046875 1.25,0.0625 v -0.328125 c -0.140625,0 -0.703125,-0.0625 -0.734375,-0.1875 C 2.140625,-0.6875 2.140625,-1 2.140625,-1.34375 Z m 0,0"
           id="path19" />
      </g>
      <g
         id="use1868"
         transform="translate(419.24677,563.79999)">
        <path
           d="m 1.890625,-5.15625 v -1.421875 c 0,-0.046875 -0.125,-0.046875 -0.1875,0.015625 -0.015625,0.03125 -0.484375,0.484375 -0.71875,0.734375 v 0.671875 h -0.4375 c -0.015625,0 -0.3125,0.3125 -0.3125,0.359375 0,0.046875 0.03125,0.109375 0.0625,0.109375 h 0.6875 v 3.46875 c 0,1.03125 0.640625,1.296875 1.25,1.296875 0.578125,0 1.046875,-0.453125 1.203125,-0.640625 0.015625,-0.015625 0.046875,-0.125 0.046875,-0.1875 0,-0.03125 0,-0.0625 -0.03125,-0.078125 -0.078125,0.0625 -0.421875,0.28125 -0.765625,0.28125 -0.53125,0 -0.796875,-0.34375 -0.796875,-0.984375 V -4.6875 h 1.4375 c 0.109375,-0.109375 0.15625,-0.234375 0.15625,-0.34375 0,-0.078125 0,-0.125 -0.046875,-0.125 z m 0,0"
           id="path42" />
      </g>
      <g
         id="use1869"
         transform="translate(422.91702,563.79999)">
        <path
           d="m 1.015625,-6.921875 c 0,0.328125 0.265625,0.59375 0.59375,0.59375 0.3125,0 0.578125,-0.265625 0.578125,-0.59375 C 2.1875,-7.25 1.921875,-7.5 1.609375,-7.5 c -0.328125,0 -0.59375,0.25 -0.59375,0.578125 z m 1.125,3.125 V -4.1875 c 0,-0.109375 0.078125,-0.671875 0.078125,-0.765625 0,-0.0625 -0.0625,-0.1875 -0.125,-0.1875 C 1.625,-4.890625 1,-4.734375 0.40625,-4.65625 v 0.3125 c 0.078125,0 0.6875,0 0.78125,0.203125 C 1.25,-4 1.25,-3.6875 1.25,-3.53125 v 2.1875 c 0,0.34375 0,0.65625 -0.0625,0.859375 -0.046875,0.125 -0.609375,0.1875 -0.75,0.1875 V 0.03125 c 0.46875,-0.015625 0.796875,-0.0625 1.25,-0.0625 0.46875,0 0.78125,0.046875 1.25,0.0625 v -0.328125 c -0.140625,0 -0.703125,-0.0625 -0.734375,-0.1875 C 2.140625,-0.6875 2.140625,-1 2.140625,-1.34375 Z m 0,0"
           id="path20" />
      </g>
      <g
         id="use1870"
         transform="translate(426.08514,563.79999)">
        <path
           d="m 4.546875,-4.609375 c 0,-0.140625 -0.078125,-0.296875 -0.125,-0.34375 -0.28125,-0.1875 -0.65625,-0.28125 -1.078125,-0.28125 -1.234375,0 -2.875,1.171875 -2.875,2.921875 0,1.25 0.953125,2.40625 2.40625,2.40625 0.921875,0 1.515625,-0.671875 1.734375,-1 0.03125,-0.0625 0.0625,-0.15625 0.0625,-0.21875 0,-0.09375 -0.078125,-0.15625 -0.09375,-0.15625 -0.15625,0.1875 -0.609375,0.59375 -1.265625,0.59375 -1.078125,0 -1.9375,-0.625 -1.9375,-2.03125 0,-1.265625 0.703125,-2 1.34375,-2 0.3125,0 0.40625,0.0625 0.671875,0.234375 0.203125,0.140625 0.453125,0.4375 0.703125,0.4375 0.203125,0 0.453125,-0.15625 0.453125,-0.5625 z m 0,0"
           id="path28" />
      </g>
      <g
         id="use1871"
         transform="translate(431.09436,563.79999)">
        <path
           d="m 2.3125,-5.21875 c -0.875,0 -1.71875,0.5625 -1.71875,1.453125 0,0.640625 0.421875,1.015625 0.90625,1.296875 0.6875,0.390625 1.4375,0.625 1.4375,1.359375 0,0.546875 -0.375,0.859375 -0.84375,0.859375 -0.640625,0 -1.15625,-0.625 -1.296875,-1.125 -0.03125,-0.03125 -0.0625,-0.03125 -0.09375,-0.03125 -0.0625,0 -0.171875,0.046875 -0.21875,0.078125 0,0.296875 0.109375,0.984375 0.203125,1.234375 C 1.203125,0 1.53125,0.125 2.0625,0.125 c 0.96875,0 1.828125,-0.671875 1.828125,-1.640625 0,-0.765625 -0.828125,-1.15625 -1.375,-1.453125 C 2,-3.296875 1.5,-3.484375 1.5,-4.109375 c 0,-0.421875 0.25,-0.75 0.828125,-0.75 0.515625,0 0.890625,0.65625 1,1.09375 0.0625,0.046875 0.15625,0.078125 0.203125,0.078125 0.0625,0 0.125,-0.03125 0.125,-0.078125 C 3.640625,-4.1875 3.59375,-4.703125 3.515625,-5.0625 2.984375,-5.125 2.765625,-5.21875 2.3125,-5.21875 Z m 0,0"
           id="path30" />
      </g>
    </g>
    <g
       fill="#000000"
       fill-opacity="1"
       id="g1875"
       transform="matrix(0.35277777,0,0,0.35277777,-2.7395013,-54.185337)">
      <g
         id="use1872"
         transform="translate(435.422,565.59302)">
        <path
           d="M 3.890625,-1.28125 C 3.84375,-1.3125 3.75,-1.328125 3.703125,-1.328125 c -0.046875,0 -0.078125,0 -0.09375,0.046875 -0.1875,0.453125 -0.375,0.65625 -0.71875,0.65625 H 1.1875 c 0.390625,-0.421875 1.265625,-1.40625 1.875,-2.140625 0.296875,-0.375 0.484375,-0.8125 0.484375,-1.296875 0,-0.734375 -0.65625,-1.4375 -1.484375,-1.4375 -0.890625,0 -1.515625,0.953125 -1.578125,1.15625 0,0.046875 0.109375,0.140625 0.171875,0.140625 C 0.765625,-4.375 1.1875,-4.9375 1.875,-4.9375 c 0.546875,0 0.953125,0.453125 0.953125,1.03125 0,0.421875 -0.0625,0.765625 -0.421875,1.28125 -0.5,0.734375 -1.3125,1.703125 -2.03125,2.5 0,0.03125 0.046875,0.109375 0.078125,0.125 h 2.96875 c 0.046875,-0.15625 0.28125,-0.859375 0.46875,-1.28125 z m 0,0"
           id="path43" />
      </g>
      <g
         id="use1873"
         transform="translate(439.67404,565.59302)">
        <path
           d="m 2.1875,-5.171875 c 0.625,0 1.0625,1.046875 1.0625,2.390625 0,1.34375 -0.390625,2.484375 -1.15625,2.484375 -0.625,0 -1.078125,-1.09375 -1.078125,-2.4375 0,-1.34375 0.453125,-2.4375 1.171875,-2.4375 z m -0.0625,-0.3125 c -1.171875,0 -1.859375,1.265625 -1.859375,2.75 C 0.265625,-1.25 0.96875,0.03125 2.125,0.03125 3.3125,0.03125 4,-1.25 4,-2.734375 c 0,-1.484375 -0.671875,-2.75 -1.875,-2.75 z m 0,0"
           id="path51" />
      </g>
      <g
         id="use1874"
         transform="translate(443.92609,565.59302)">
        <path
           d="m 2.1875,-5.171875 c 0.625,0 1.0625,1.046875 1.0625,2.390625 0,1.34375 -0.390625,2.484375 -1.15625,2.484375 -0.625,0 -1.078125,-1.09375 -1.078125,-2.4375 0,-1.34375 0.453125,-2.4375 1.171875,-2.4375 z m -0.0625,-0.3125 c -1.171875,0 -1.859375,1.265625 -1.859375,2.75 C 0.265625,-1.25 0.96875,0.03125 2.125,0.03125 3.3125,0.03125 4,-1.25 4,-2.734375 c 0,-1.484375 -0.671875,-2.75 -1.875,-2.75 z m 0,0"
           id="path52" />
      </g>
      <g
         id="use1875"
         transform="translate(448.17813,565.59302)">
        <path
           d="m 2.125,-0.234375 c -0.453125,0 -0.9375,-0.40625 -0.9375,-1.109375 0,-0.546875 0.203125,-0.890625 0.671875,-1.1875 0.015625,-0.015625 0.03125,-0.015625 0.046875,-0.015625 0.015625,0 0.03125,0.015625 0.046875,0.015625 0.125,0.078125 1.09375,0.640625 1.09375,1.34375 0,0.578125 -0.359375,0.953125 -0.921875,0.953125 z m 0,-4.96875 c 0.515625,0 0.84375,0.546875 0.84375,1.046875 0,0.46875 -0.25,0.8125 -0.59375,1.046875 -0.03125,0.015625 -0.03125,0 -0.046875,0 -0.015625,0 -0.03125,0 -0.046875,0 -0.328125,-0.1875 -0.890625,-0.5 -0.890625,-1.15625 0,-0.515625 0.3125,-0.9375 0.734375,-0.9375 z M 2.171875,-5.5 c -0.75,0 -1.421875,0.65625 -1.421875,1.390625 0,0.625 0.515625,1.125 0.875,1.34375 0.015625,0 0.03125,0.015625 0,0.046875 -0.328125,0.203125 -1.109375,0.65625 -1.109375,1.40625 0,0.828125 0.65625,1.390625 1.59375,1.390625 0.859375,0 1.640625,-0.640625 1.640625,-1.5 0,-0.625 -0.609375,-1.1875 -1.125,-1.46875 -0.03125,-0.015625 -0.046875,-0.046875 0,-0.046875 0.390625,-0.25 0.953125,-0.640625 0.953125,-1.3125 0,-0.796875 -0.640625,-1.25 -1.40625,-1.25 z m 0,0"
           id="path62" />
      </g>
    </g>
    <path
       fill="none"
       stroke-width="0.421756"
       stroke-linecap="butt"
       stroke-linejoin="miter"
       stroke="#ff6666"
       stroke-opacity="1"
       stroke-miterlimit="10"
       d="M 63.878996,143.58244 H 74.425121"
       id="path1875" />
    <path
       fill-rule="nonzero"
       fill="#ff6666"
       fill-opacity="1"
       stroke-width="0.421756"
       stroke-linecap="butt"
       stroke-linejoin="miter"
       stroke="#ff6666"
       stroke-opacity="1"
       stroke-miterlimit="10"
       d="m 76.639631,143.58244 -3.146061,-1.1865 1.036285,1.1865 -1.036285,1.18649 z m 0,0"
       id="path1876" />
    <path
       fill="none"
       stroke-width="0.281167"
       stroke-linecap="butt"
       stroke-linejoin="miter"
       stroke="#000000"
       stroke-opacity="1"
       stroke-miterlimit="10"
       d="M 61.131189,140.33991 C 75.523421,125.94906 91.548625,128.58249 109.66845,128.58249"
       id="path1877" />
    <path
       fill-rule="nonzero"
       fill="#000000"
       fill-opacity="1"
       stroke-width="0.281167"
       stroke-linecap="butt"
       stroke-linejoin="miter"
       stroke="#000000"
       stroke-opacity="1"
       stroke-miterlimit="10"
       d="m 111.50124,128.58249 -2.62516,-0.98943 0.86265,0.98943 -0.86265,0.98943 z m 0,0"
       id="path1878" />
    <path
       fill="none"
       stroke-width="0.281167"
       stroke-linecap="butt"
       stroke-linejoin="miter"
       stroke="#000000"
       stroke-opacity="1"
       stroke-miterlimit="10"
       d="m 123.88016,128.58249 c 9.01099,0 9.01099,0 19.16713,10.15476"
       id="path1879" />
    <path
       fill-rule="nonzero"
       fill="#000000"
       fill-opacity="1"
       stroke-width="0.281165"
       stroke-linecap="butt"
       stroke-linejoin="miter"
       stroke="#000000"
       stroke-opacity="1"
       stroke-miterlimit="10"
       d="m 144.34264,140.03261 -1.15617,-2.55489 -0.0896,1.30914 -1.30913,0.0896 z m 0,0"
       id="path1880" />
    <path
       fill="none"
       stroke-width="0.281167"
       stroke-linecap="butt"
       stroke-linejoin="miter"
       stroke="#000000"
       stroke-opacity="1"
       stroke-miterlimit="10"
       d="m 94.701577,140.17593 15.202513,-7.60264"
       id="path1881" />
    <path
       fill-rule="nonzero"
       fill="#000000"
       fill-opacity="1"
       stroke-width="0.28115"
       stroke-linecap="butt"
       stroke-linejoin="miter"
       stroke="#000000"
       stroke-opacity="1"
       stroke-miterlimit="10"
       d="m 111.54258,131.75335 -2.78915,0.28939 1.21405,0.49885 -0.32935,1.27055 z m 0,0"
       id="path1882" />
    <path
       fill="none"
       stroke-width="0.281167"
       stroke-linecap="butt"
       stroke-linejoin="miter"
       stroke="#000000"
       stroke-opacity="1"
       stroke-miterlimit="10"
       d="m 98.540791,143.58244 h 6.467129"
       id="path1883" />
    <path
       fill-rule="nonzero"
       fill="#000000"
       fill-opacity="1"
       stroke-width="0.281167"
       stroke-linecap="butt"
       stroke-linejoin="miter"
       stroke="#000000"
       stroke-opacity="1"
       stroke-miterlimit="10"
       d="m 106.84072,143.58244 -2.62517,-0.98944 0.86266,0.98944 -0.86266,0.98943 z m 0,0"
       id="path1884" />
    <path
       fill="none"
       stroke-width="0.281167"
       stroke-linecap="butt"
       stroke-linejoin="miter"
       stroke="#000000"
       stroke-opacity="1"
       stroke-miterlimit="10"
       d="m 117.8912,131.82501 v 6.11849"
       id="path1885" />
    <path
       fill-rule="nonzero"
       fill="#000000"
       fill-opacity="1"
       stroke-width="0.281167"
       stroke-linecap="butt"
       stroke-linejoin="miter"
       stroke="#000000"
       stroke-opacity="1"
       stroke-miterlimit="10"
       d="m 117.8912,139.7763 0.98806,-2.62517 -0.98806,0.86265 -0.98943,-0.86265 z m 0,0"
       id="path1886" />
    <path
       fill="none"
       stroke-width="0.281167"
       stroke-linecap="butt"
       stroke-linejoin="miter"
       stroke="#000000"
       stroke-opacity="1"
       stroke-miterlimit="10"
       d="m 128.54068,143.58244 h 6.48918"
       id="path1887" />
    <path
       fill-rule="nonzero"
       fill="#000000"
       fill-opacity="1"
       stroke-width="0.281167"
       stroke-linecap="butt"
       stroke-linejoin="miter"
       stroke="#000000"
       stroke-opacity="1"
       stroke-miterlimit="10"
       d="m 136.86128,143.58244 -2.62379,-0.98944 0.86265,0.98944 -0.86265,0.98943 z m 0,0"
       id="path1888" />
    <path
       fill="none"
       stroke-width="0.421756"
       stroke-linecap="butt"
       stroke-linejoin="miter"
       stroke="#ff6666"
       stroke-opacity="1"
       stroke-miterlimit="10"
       d="m 57.890043,146.82496 c 0,15.875 18.497405,21.75784 31.555696,21.75784"
       id="path1889" />
    <path
       fill-rule="nonzero"
       fill="#ff6666"
       fill-opacity="1"
       stroke-width="0.421756"
       stroke-linecap="butt"
       stroke-linejoin="miter"
       stroke="#ff6666"
       stroke-opacity="1"
       stroke-miterlimit="10"
       d="m 91.661625,168.5828 -3.14744,-1.18649 1.037663,1.18649 -1.037663,1.18649 z m 0,0"
       id="path1890" />
    <path
       fill="none"
       stroke-width="0.421756"
       stroke-linecap="butt"
       stroke-linejoin="miter"
       stroke="#6666ff"
       stroke-opacity="1"
       stroke-dasharray="2.98883, 2.98883"
       stroke-miterlimit="10"
       d="m 113.51869,168.5828 c 15.875,0 34.3724,-5.85941 34.3724,-18.9177"
       id="path1891" />
    <path
       fill-rule="nonzero"
       fill="#6666ff"
       fill-opacity="1"
       stroke-width="0.421756"
       stroke-linecap="butt"
       stroke-linejoin="miter"
       stroke="#6666ff"
       stroke-opacity="1"
       stroke-miterlimit="10"
       d="m 147.89109,147.4492 -1.18649,3.14744 1.18649,-1.03766 1.18649,1.03766 z m 0,0"
       id="path1892" />
    <g
       fill="#6666ff"
       fill-opacity="1"
       id="g1893"
       transform="matrix(0.35277777,0,0,0.35277777,-2.7395013,-54.185337)">
      <g
         id="use1892"
         transform="translate(387.06799,614.63599)">
        <path
           d="m -0.40625,-3.546875 c -0.84375,-1.625 -1.25,-3.71875 -0.734375,-5.0625 C -1.125,-8.625 -1.34375,-8.703125 -1.421875,-8.71875 c -0.71875,1.578125 -0.78125,3.5625 0.265625,5.5625 1.0625,2.015625 2.71875,3.09375 4.421875,3.421875 0.03125,-0.0625 0.09375,-0.3125 0.078125,-0.296875 -1.421875,-0.359375 -2.890625,-1.890625 -3.75,-3.515625 z m 0,0"
           id="path2" />
      </g>
      <g
         id="use1893"
         transform="translate(389.77045,613.22546)">
        <path
           d="m 2.265625,-1.09375 c 1.484375,-0.78125 2,-2.46875 1.28125,-3.828125 -0.484375,-0.953125 -1.75,-1.78125 -3.015625,-1.125 -0.390625,0.21875 -0.890625,1.03125 -1,1.234375 C -0.5,-4.734375 -0.5625,-4.84375 -0.578125,-4.90625 l -1.0625,-2.015625 C -1.9375,-7.5 -2,-7.890625 -2,-7.890625 -2.046875,-7.96875 -2.140625,-8.03125 -2.203125,-8 c -0.328125,0.4375 -0.765625,0.859375 -1.265625,1.1875 -0.03125,0.03125 0.125,0.296875 0.140625,0.28125 0.28125,-0.15625 0.578125,-0.265625 0.71875,-0.140625 0.125,0.09375 0.265625,0.359375 0.34375,0.5 L 0.15625,-1.53125 c 0.109375,0.21875 0.28125,0.5625 0.28125,0.828125 0.015625,0.0625 0.1875,0.171875 0.25,0.15625 0.1875,-0.203125 0.453125,-0.25 0.71875,-0.296875 0.25,-0.0625 0.671875,-0.15625 0.859375,-0.25 z M 0.34375,-5.171875 c 0.953125,-0.5 1.9375,-0.09375 2.5625,1.09375 0.4375,0.859375 0.25,2.078125 -0.515625,2.46875 -0.46875,0.25 -1.140625,0.234375 -1.375,-0.21875 l -1.3125,-2.515625 c -0.03125,-0.0625 -0.03125,-0.078125 0,-0.140625 0.03125,-0.125 0.375,-0.546875 0.640625,-0.6875 z m 0,0"
           id="path16" />
      </g>
    </g>
    <g
       fill="#6666ff"
       fill-opacity="1"
       id="g1894"
       transform="matrix(0.35277777,0,0,0.35277777,-2.7395013,-54.185337)">
      <g
         id="use1894"
         transform="translate(394.67722,610.66443)">
        <path
           d="m 0.78125,-4.171875 c -1.046875,-2 -2.703125,-3.078125 -4.40625,-3.390625 -0.046875,0.078125 -0.09375,0.296875 -0.09375,0.296875 1.421875,0.328125 2.890625,1.875 3.734375,3.5 0.859375,1.625 1.265625,3.703125 0.75,5.078125 0,0 0.203125,0.109375 0.296875,0.109375 0.71875,-1.59375 0.78125,-3.578125 -0.28125,-5.59375 z m 0,0"
           id="path12" />
      </g>
    </g>
    <path
       fill="none"
       stroke-width="0.421756"
       stroke-linecap="butt"
       stroke-linejoin="miter"
       stroke="#6666ff"
       stroke-opacity="1"
       stroke-miterlimit="10"
       d="m 89.933565,146.98895 9.549804,15.91358"
       id="path1894" />
    <path
       fill-rule="nonzero"
       fill="#6666ff"
       fill-opacity="1"
       stroke-width="0.421751"
       stroke-linecap="butt"
       stroke-linejoin="miter"
       stroke="#6666ff"
       stroke-opacity="1"
       stroke-miterlimit="10"
       d="m 100.62301,164.80146 -0.60221,-3.30866 -0.483687,1.50068 -1.551671,-0.27974 z m 0,0"
       id="path1895" />
    <g
       fill="#6666ff"
       fill-opacity="1"
       id="g1895"
       transform="matrix(0.35277777,0,0,0.35277777,-2.7395013,-54.185337)">
      <g
         id="use1895"
         transform="translate(280.93399,588.38898)">
        <path
           d="m 3.515625,-0.625 c 1.5625,-0.9375 3.625,-1.453125 5.015625,-1.015625 C 8.546875,-1.625 8.625,-1.859375 8.609375,-1.9375 6.984375,-2.5625 5.015625,-2.5 3.078125,-1.34375 1.125,-0.171875 0.140625,1.546875 -0.078125,3.28125 0.015625,3.3125 0.25,3.359375 0.234375,3.34375 0.5,1.90625 1.9375,0.328125 3.515625,-0.625 Z m 0,0"
           id="path10" />
      </g>
    </g>
    <g
       fill="#6666ff"
       fill-opacity="1"
       id="g1896"
       transform="matrix(0.35277777,0,0,0.35277777,-2.7395013,-54.185337)">
      <g
         id="use1896"
         transform="translate(282.35504,590.75696)">
        <path
           d="M 1.59375,1.640625 C 1.359375,1.25 1.515625,0.71875 1.890625,0.5 2.28125,0.265625 2.703125,0.359375 3.078125,0.640625 3.265625,0.78125 3.71875,1.203125 3.96875,1.40625 L 2.5625,2.25 C 2.453125,2.3125 1.796875,1.984375 1.59375,1.640625 Z M 5.9375,-0.25 C 5.484375,-0.984375 4.46875,-1.453125 4,-1.578125 3.9375,-1.59375 3.765625,-1.53125 3.703125,-1.5 3.484375,-1.359375 3.34375,-1.109375 3.46875,-0.890625 c 0.15625,0.234375 0.390625,0.3125 0.765625,0.171875 0.46875,-0.171875 0.796875,-0.1875 1,0.171875 0.3125,0.5 0,1.1875 -0.453125,1.46875 L 4.5,1.078125 c -0.1875,0.125 -0.234375,0.125 -0.34375,0.0625 C 3.84375,0.921875 3,0.171875 2.453125,-0.265625 2.25,-0.4375 1.734375,-0.53125 1.3125,-0.28125 0.640625,0.125 0.453125,0.9375 0.859375,1.59375 1.078125,1.96875 2.078125,2.40625 2.28125,2.453125 2.015625,2.703125 1.828125,3.1875 2,3.484375 2.125,3.6875 2.640625,3.953125 2.84375,4 2.90625,4 3,3.984375 3.0625,3.9375 3.09375,3.921875 3.140625,3.875 3.125,3.84375 3.078125,3.828125 2.875,3.78125 2.765625,3.59375 2.625,3.359375 2.796875,3.140625 3.0625,2.984375 L 5.171875,1.71875 C 5.96875,1.234375 6.28125,0.34375 5.9375,-0.25 Z m 0,0"
           id="path7" />
      </g>
    </g>
    <g
       fill="#6666ff"
       fill-opacity="1"
       id="g1897"
       transform="matrix(0.35277777,0,0,0.35277777,-2.7395013,-54.185337)">
      <g
         id="use1897"
         transform="translate(284.88336,594.97003)">
        <path
           d="m 4.203125,0.53125 c 1.9375,-1.15625 2.921875,-2.875 3.125,-4.609375 -0.0625,-0.046875 -0.296875,-0.078125 -0.28125,-0.0625 -0.265625,1.4375 -1.71875,3 -3.28125,3.9375 C 2.1875,0.75 0.140625,1.28125 -1.25,0.84375 -1.265625,0.828125 -1.34375,1.046875 -1.359375,1.140625 0.28125,1.765625 2.25,1.703125 4.203125,0.53125 Z m 0,0"
           id="path14" />
      </g>
    </g>
  </g>
</svg>
