<?xml version="1.0" encoding="UTF-8" standalone="no"?>
<!-- Created with Inkscape (http://www.inkscape.org/) -->

<svg
   width="91.111748mm"
   height="68.347237mm"
   viewBox="0 0 91.111748 68.347237"
   version="1.1"
   id="svg1"
   inkscape:version="1.3.2 (091e20e, 2023-11-25)"
   sodipodi:docname="cod.svg"
   xmlns:inkscape="http://www.inkscape.org/namespaces/inkscape"
   xmlns:sodipodi="http://sodipodi.sourceforge.net/DTD/sodipodi-0.dtd"
   xmlns="http://www.w3.org/2000/svg"
   xmlns:svg="http://www.w3.org/2000/svg">
  <sodipodi:namedview
     id="namedview1"
     pagecolor="#ffffff"
     bordercolor="#000000"
     borderopacity="0.25"
     inkscape:showpageshadow="2"
     inkscape:pageopacity="0.0"
     inkscape:pagecheckerboard="0"
     inkscape:deskcolor="#d1d1d1"
     inkscape:document-units="mm"
     inkscape:zoom="0.2102413"
     inkscape:cx="171.23182"
     inkscape:cy="128.42386"
     inkscape:window-width="1312"
     inkscape:window-height="449"
     inkscape:window-x="0"
     inkscape:window-y="38"
     inkscape:window-maximized="0"
     inkscape:current-layer="layer1" />
  <defs
     id="defs1">
    <clipPath
       id="clip-4">
      <path
         clip-rule="nonzero"
         d="M 266,200 H 480.70312 V 371 H 266 Z m 0,0"
         id="path203" />
    </clipPath>
    <clipPath
       id="clip-5">
      <path
         clip-rule="nonzero"
         d="m 266,362 h 214.70312 v 1 H 266 Z m 0,0"
         id="path204" />
    </clipPath>
    <clipPath
       id="clip-6">
      <path
         clip-rule="nonzero"
         d="m 266,320 h 214.70312 v 1 H 266 Z m 0,0"
         id="path205" />
    </clipPath>
    <clipPath
       id="clip-7">
      <path
         clip-rule="nonzero"
         d="m 266,278 h 214.70312 v 1 H 266 Z m 0,0"
         id="path206" />
    </clipPath>
    <clipPath
       id="clip-8">
      <path
         clip-rule="nonzero"
         d="m 266,236 h 214.70312 v 2 H 266 Z m 0,0"
         id="path207" />
    </clipPath>
    <clipPath
       id="clip-9">
      <path
         clip-rule="nonzero"
         d="M 265,199.97266 H 480.70312 V 371 H 265 Z m 0,0"
         id="path208" />
    </clipPath>
    <clipPath
       id="clip-10">
      <path
         clip-rule="nonzero"
         d="M 222.43359,245 H 231 v 80 h -8.56641 z m 0,0"
         id="path209" />
    </clipPath>
  </defs>
  <g
     inkscape:label="Layer 1"
     inkscape:groupmode="layer"
     id="layer1"
     transform="translate(-58.900108,-114.3)">
    <g
       clip-path="url(#clip-4)"
       id="g742"
       transform="matrix(0.35277777,0,0,0.35277777,-19.569518,43.754093)">
      <path
         fill-rule="nonzero"
         fill="#ffffff"
         fill-opacity="1"
         d="M 266.22266,370.08203 H 480.45703 V 200.22266 H 266.22266 v 169.85937"
         id="path741" />
    </g>
    <g
       clip-path="url(#clip-5)"
       id="g743"
       transform="matrix(0.35277777,0,0,0.35277777,-19.569518,43.754093)">
      <path
         fill="none"
         stroke-width="4.10602"
         stroke-linecap="butt"
         stroke-linejoin="round"
         stroke="#c9c7c4"
         stroke-opacity="1"
         stroke-miterlimit="10"
         d="M 437.89656,340.83625 H 2580.2013"
         transform="matrix(0.1,0,0,-0.1,222.433,396.443)"
         id="path742" />
    </g>
    <g
       clip-path="url(#clip-6)"
       id="g744"
       transform="matrix(0.35277777,0,0,0.35277777,-19.569518,43.754093)">
      <path
         fill="none"
         stroke-width="4.10602"
         stroke-linecap="butt"
         stroke-linejoin="round"
         stroke="#c9c7c4"
         stroke-opacity="1"
         stroke-miterlimit="10"
         d="M 437.89656,758.805 H 2580.2013"
         transform="matrix(0.1,0,0,-0.1,222.433,396.443)"
         id="path743" />
    </g>
    <g
       clip-path="url(#clip-7)"
       id="g745"
       transform="matrix(0.35277777,0,0,0.35277777,-19.569518,43.754093)">
      <path
         fill="none"
         stroke-width="4.10602"
         stroke-linecap="butt"
         stroke-linejoin="round"
         stroke="#c9c7c4"
         stroke-opacity="1"
         stroke-miterlimit="10"
         d="M 437.89656,1176.8128 H 2580.2013"
         transform="matrix(0.1,0,0,-0.1,222.433,396.443)"
         id="path744" />
    </g>
    <g
       clip-path="url(#clip-8)"
       id="g746"
       transform="matrix(0.35277777,0,0,0.35277777,-19.569518,43.754093)">
      <path
         fill="none"
         stroke-width="4.10602"
         stroke-linecap="butt"
         stroke-linejoin="round"
         stroke="#c9c7c4"
         stroke-opacity="1"
         stroke-miterlimit="10"
         d="M 437.89656,1594.7816 H 2580.2013"
         transform="matrix(0.1,0,0,-0.1,222.433,396.443)"
         id="path745" />
    </g>
    <path
       fill="none"
       stroke-width="0.144851"
       stroke-linecap="butt"
       stroke-linejoin="round"
       stroke="#c9c7c4"
       stroke-opacity="1"
       stroke-miterlimit="10"
       d="M 77.361688,174.31081 V 114.38819"
       id="path746" />
    <path
       fill="none"
       stroke-width="0.144851"
       stroke-linecap="butt"
       stroke-linejoin="round"
       stroke="#c9c7c4"
       stroke-opacity="1"
       stroke-miterlimit="10"
       d="M 85.791148,174.31081 V 114.38819"
       id="path747" />
    <path
       fill="none"
       stroke-width="0.144851"
       stroke-linecap="butt"
       stroke-linejoin="round"
       stroke="#c9c7c4"
       stroke-opacity="1"
       stroke-miterlimit="10"
       d="M 94.221985,174.31081 V 114.38819"
       id="path748" />
    <path
       fill="none"
       stroke-width="0.144851"
       stroke-linecap="butt"
       stroke-linejoin="round"
       stroke="#c9c7c4"
       stroke-opacity="1"
       stroke-miterlimit="10"
       d="M 102.65145,174.31081 V 114.38819"
       id="path749" />
    <path
       fill="none"
       stroke-width="0.144851"
       stroke-linecap="butt"
       stroke-linejoin="round"
       stroke="#c9c7c4"
       stroke-opacity="1"
       stroke-miterlimit="10"
       d="M 111.08228,174.31081 V 114.38819"
       id="path750" />
    <path
       fill="none"
       stroke-width="0.144851"
       stroke-linecap="butt"
       stroke-linejoin="round"
       stroke="#c9c7c4"
       stroke-opacity="1"
       stroke-miterlimit="10"
       d="M 119.51312,174.31081 V 114.38819"
       id="path751" />
    <path
       fill="none"
       stroke-width="0.144851"
       stroke-linecap="butt"
       stroke-linejoin="round"
       stroke="#c9c7c4"
       stroke-opacity="1"
       stroke-miterlimit="10"
       d="M 127.94258,174.31081 V 114.38819"
       id="path752" />
    <path
       fill="none"
       stroke-width="0.144851"
       stroke-linecap="butt"
       stroke-linejoin="round"
       stroke="#c9c7c4"
       stroke-opacity="1"
       stroke-miterlimit="10"
       d="M 136.37204,174.31081 V 114.38819"
       id="path753" />
    <path
       fill="none"
       stroke-width="0.144851"
       stroke-linecap="butt"
       stroke-linejoin="round"
       stroke="#c9c7c4"
       stroke-opacity="1"
       stroke-miterlimit="10"
       d="M 144.8015,174.31081 V 114.38819"
       id="path754" />
    <path
       fill="none"
       stroke-width="0.352778"
       stroke-linecap="butt"
       stroke-linejoin="round"
       stroke="#457bc0"
       stroke-opacity="1"
       stroke-miterlimit="10"
       d="m 77.783368,162.25021 0.42168,0.4837 0.420301,0.47542 0.423058,0.6022 0.420302,-0.73311 0.42168,-2.33991 0.421679,-1.21543 0.42168,1.4056 0.420302,0.46302 0.423058,-1.49655 0.420301,0.24804 0.423058,0.14056 0.420302,1.03078 0.421679,0.72071 0.42168,0.2384 0.421679,0.59669 0.420302,-0.22186 0.423058,-0.29215 0.420302,-1.28846 0.421679,-0.62563 0.42168,-0.13643 0.42168,-0.37482 0.42168,-1.22095 0.421679,-2.3151 0.420302,1.86586 0.423058,1.70877 0.420301,0.12265 0.42168,-0.4768 0.42168,-2.4598 0.42168,-1.00321 0.420301,-0.33349 0.423058,0.34038 0.420302,-0.45889 0.423057,-0.18604 0.420302,0.57602 0.42168,0.13643 0.423057,1.19614 0.420302,0.68075 0.42168,0.67386 0.421678,0.22737 0.421683,-0.49885 0.420299,0.70143 0.423058,0.31005 0.420303,-0.7717 0.423059,-1.33532 0.420299,0.25632 0.421682,0.0717 0.421679,-1.12448 0.421679,-0.60083 0.420303,0.45613 0.423058,-1.09002 0.4203,0.0648 0.421679,1.23197 0.421684,0.34038 0.42168,-1.26642 0.42168,-0.64355 0.42167,-1.63435 0.42031,-1.49655 0.42306,0.54433 0.4203,1.61368 0.42168,0.97427 0.42168,0.75379 0.42168,1.39044 0.4203,0.60358 0.42306,-1.61644 0.4203,-1.63022 0.42305,-1.06798 0.42169,0.35691 0.4203,-0.72898 0.42167,0.88884 0.42169,-0.4079 0.4203,0.1502 0.42305,0.52504 0.42168,0.39687 0.42031,-1.8948 0.42168,-1.80385 0.42168,1.05282 0.42305,1.06247 0.42031,0.27836 0.42167,1.58888 0.42169,0.47129 0.42168,-1.05282 0.42029,-1.83555 0.42306,-0.27837 0.42031,0.12541 0.42167,1.11758 0.42168,0.13505 0.42169,-0.45062 0.42167,3.34313 0.42168,1.30775 0.42031,0.87368 0.42305,-1.15617 0.4203,-2.26688 0.42169,-1.75837 0.42168,-0.87506 0.42167,-1.44694 0.42031,-0.0248 0.42306,0.5016 0.4203,-0.31143 0.42305,0.28938 0.42031,0.61461 0.42168,1.14515 0.42167,-1.40147 0.42168,-1.25952 0.42169,-0.11438 0.42167,1.13964 0.42031,2.25171 0.42168,-5.19245 0.42305,-8.63203 0.4203,-4.08588 0.42169,-1.43592 0.42167,-1.3174 0.4203,-4.06935 0.42306,0.007 0.42168,2.64446 0.4203,-5.2021 0.42168,-9.6945 0.42169,0.56637 0.42029,12.3679 0.42306,8.09873 0.42168,1.84106 0.42168,4.52134 0.4203,0.49058 0.42169,4.33669 0.42305,6.05786 0.4203,4.41523 0.42168,0.62425 0.42168,-1.21405 0.42168,-0.2067 0.4203,-1.35462 0.42306,-2.4405 0.4203,-0.62839 0.42306,-0.0758 0.4203,-0.41754 0.42168,-0.93294 0.42168,0.86128 0.42168,-1.45797 0.42031,0.53193 0.42305,3.93567 0.4203,5.97518 0.42169,5.96001 0.42167,1.83279 0.42168,0.78686 h 8.85252"
       id="path755" />
    <g
       clip-path="url(#clip-9)"
       id="g756"
       transform="matrix(0.35277777,0,0,0.35277777,-19.569518,43.754093)">
      <path
         fill="none"
         stroke-width="5"
         stroke-linecap="round"
         stroke-linejoin="round"
         stroke="#231f20"
         stroke-opacity="1"
         stroke-miterlimit="10"
         d="M 437.89656,263.60969 H 2580.2403 V 1962.2034 H 437.89656 Z m 0,0"
         transform="matrix(0.1,0,0,-0.1,222.433,396.443)"
         id="path756" />
    </g>
    <g
       fill="#231f20"
       fill-opacity="1"
       id="g757"
       transform="matrix(0.35277777,0,0,0.35277777,-19.569518,43.754093)">
      <g
         id="use756"
         transform="translate(256.86539,364.8942)">
        <path
           d="m 2.234375,-5.4375 c -1.203125,0 -1.796875,0.984375 -1.796875,2.765625 0,1.78125 0.59375,2.765625 1.796875,2.765625 1.203125,0 1.796875,-0.984375 1.796875,-2.765625 C 4.03125,-4.4375 3.4375,-5.4375 2.234375,-5.4375 Z m 0,0.59375 c 0.65625,0 1.015625,0.609375 1.015625,2.171875 0,1.578125 -0.359375,2.1875 -1.015625,2.1875 -0.671875,0 -1.03125,-0.609375 -1.03125,-2.1875 0,-1.5625 0.359375,-2.171875 1.03125,-2.171875 z m 0,0"
           id="path54" />
      </g>
    </g>
    <g
       fill="#231f20"
       fill-opacity="1"
       id="g762"
       transform="matrix(0.35277777,0,0,0.35277777,-19.569518,43.754093)">
      <g
         id="use757"
         transform="translate(235.0502,323.09689)">
        <path
           d="m 1.828125,-5.4375 c -0.671875,0 -1.203125,0.28125 -1.625,0.8125 l 0.5,0.390625 c 0.34375,-0.40625 0.640625,-0.59375 1.078125,-0.59375 0.515625,0 0.875,0.328125 0.875,0.890625 0,0.875 -0.453125,1.390625 -2.34375,3.359375 V 0 H 3.46875 L 3.5625,-0.609375 H 1.15625 C 2.796875,-2.25 3.4375,-2.96875 3.4375,-3.96875 c 0,-0.828125 -0.625,-1.46875 -1.609375,-1.46875 z m 0,0"
           id="path52" />
      </g>
      <g
         id="use758"
         transform="translate(239.01019,323.09689)">
        <path
           d="m 2.234375,-5.4375 c -1.203125,0 -1.796875,0.984375 -1.796875,2.765625 0,1.78125 0.59375,2.765625 1.796875,2.765625 1.203125,0 1.796875,-0.984375 1.796875,-2.765625 C 4.03125,-4.4375 3.4375,-5.4375 2.234375,-5.4375 Z m 0,0.59375 c 0.65625,0 1.015625,0.609375 1.015625,2.171875 0,1.578125 -0.359375,2.1875 -1.015625,2.1875 -0.671875,0 -1.03125,-0.609375 -1.03125,-2.1875 0,-1.5625 0.359375,-2.171875 1.03125,-2.171875 z m 0,0"
           id="path55" />
      </g>
      <g
         id="use759"
         transform="translate(243.4742,323.09689)">
        <path
           d="m 2.234375,-5.4375 c -1.203125,0 -1.796875,0.984375 -1.796875,2.765625 0,1.78125 0.59375,2.765625 1.796875,2.765625 1.203125,0 1.796875,-0.984375 1.796875,-2.765625 C 4.03125,-4.4375 3.4375,-5.4375 2.234375,-5.4375 Z m 0,0.59375 c 0.65625,0 1.015625,0.609375 1.015625,2.171875 0,1.578125 -0.359375,2.1875 -1.015625,2.1875 -0.671875,0 -1.03125,-0.609375 -1.03125,-2.1875 0,-1.5625 0.359375,-2.171875 1.03125,-2.171875 z m 0,0"
           id="path56" />
      </g>
      <g
         id="use760"
         transform="translate(247.9382,323.09689)">
        <path
           d="m 2.234375,-5.4375 c -1.203125,0 -1.796875,0.984375 -1.796875,2.765625 0,1.78125 0.59375,2.765625 1.796875,2.765625 1.203125,0 1.796875,-0.984375 1.796875,-2.765625 C 4.03125,-4.4375 3.4375,-5.4375 2.234375,-5.4375 Z m 0,0.59375 c 0.65625,0 1.015625,0.609375 1.015625,2.171875 0,1.578125 -0.359375,2.1875 -1.015625,2.1875 -0.671875,0 -1.03125,-0.609375 -1.03125,-2.1875 0,-1.5625 0.359375,-2.171875 1.03125,-2.171875 z m 0,0"
           id="path57" />
      </g>
      <g
         id="use761"
         transform="translate(252.40221,323.09689)">
        <path
           d="m 2.234375,-5.4375 c -1.203125,0 -1.796875,0.984375 -1.796875,2.765625 0,1.78125 0.59375,2.765625 1.796875,2.765625 1.203125,0 1.796875,-0.984375 1.796875,-2.765625 C 4.03125,-4.4375 3.4375,-5.4375 2.234375,-5.4375 Z m 0,0.59375 c 0.65625,0 1.015625,0.609375 1.015625,2.171875 0,1.578125 -0.359375,2.1875 -1.015625,2.1875 -0.671875,0 -1.03125,-0.609375 -1.03125,-2.1875 0,-1.5625 0.359375,-2.171875 1.03125,-2.171875 z m 0,0"
           id="path58" />
      </g>
      <g
         id="use762"
         transform="translate(256.86621,323.09689)">
        <path
           d="m 2.234375,-5.4375 c -1.203125,0 -1.796875,0.984375 -1.796875,2.765625 0,1.78125 0.59375,2.765625 1.796875,2.765625 1.203125,0 1.796875,-0.984375 1.796875,-2.765625 C 4.03125,-4.4375 3.4375,-5.4375 2.234375,-5.4375 Z m 0,0.59375 c 0.65625,0 1.015625,0.609375 1.015625,2.171875 0,1.578125 -0.359375,2.1875 -1.015625,2.1875 -0.671875,0 -1.03125,-0.609375 -1.03125,-2.1875 0,-1.5625 0.359375,-2.171875 1.03125,-2.171875 z m 0,0"
           id="path59" />
      </g>
    </g>
    <g
       fill="#231f20"
       fill-opacity="1"
       id="g768"
       transform="matrix(0.35277777,0,0,0.35277777,-19.569518,43.754093)">
      <g
         id="use763"
         transform="translate(234.75372,281.2981)">
        <path
           d="M 4.015625,-1.90625 H 3.3125 v -1.4375 h -0.625 l -0.078125,1.4375 H 1.09375 L 2.546875,-5.171875 1.921875,-5.4375 0.3125,-1.84375 V -1.3125 H 2.609375 V 0 H 3.3125 v -1.3125 h 0.703125 z m 0,0"
           id="path51" />
      </g>
      <g
         id="use764"
         transform="translate(239.00972,281.2981)">
        <path
           d="m 2.234375,-5.4375 c -1.203125,0 -1.796875,0.984375 -1.796875,2.765625 0,1.78125 0.59375,2.765625 1.796875,2.765625 1.203125,0 1.796875,-0.984375 1.796875,-2.765625 C 4.03125,-4.4375 3.4375,-5.4375 2.234375,-5.4375 Z m 0,0.59375 c 0.65625,0 1.015625,0.609375 1.015625,2.171875 0,1.578125 -0.359375,2.1875 -1.015625,2.1875 -0.671875,0 -1.03125,-0.609375 -1.03125,-2.1875 0,-1.5625 0.359375,-2.171875 1.03125,-2.171875 z m 0,0"
           id="path60" />
      </g>
      <g
         id="use765"
         transform="translate(243.47371,281.2981)">
        <path
           d="m 2.234375,-5.4375 c -1.203125,0 -1.796875,0.984375 -1.796875,2.765625 0,1.78125 0.59375,2.765625 1.796875,2.765625 1.203125,0 1.796875,-0.984375 1.796875,-2.765625 C 4.03125,-4.4375 3.4375,-5.4375 2.234375,-5.4375 Z m 0,0.59375 c 0.65625,0 1.015625,0.609375 1.015625,2.171875 0,1.578125 -0.359375,2.1875 -1.015625,2.1875 -0.671875,0 -1.03125,-0.609375 -1.03125,-2.1875 0,-1.5625 0.359375,-2.171875 1.03125,-2.171875 z m 0,0"
           id="path61" />
      </g>
      <g
         id="use766"
         transform="translate(247.93771,281.2981)">
        <path
           d="m 2.234375,-5.4375 c -1.203125,0 -1.796875,0.984375 -1.796875,2.765625 0,1.78125 0.59375,2.765625 1.796875,2.765625 1.203125,0 1.796875,-0.984375 1.796875,-2.765625 C 4.03125,-4.4375 3.4375,-5.4375 2.234375,-5.4375 Z m 0,0.59375 c 0.65625,0 1.015625,0.609375 1.015625,2.171875 0,1.578125 -0.359375,2.1875 -1.015625,2.1875 -0.671875,0 -1.03125,-0.609375 -1.03125,-2.1875 0,-1.5625 0.359375,-2.171875 1.03125,-2.171875 z m 0,0"
           id="path62" />
      </g>
      <g
         id="use767"
         transform="translate(252.40172,281.2981)">
        <path
           d="m 2.234375,-5.4375 c -1.203125,0 -1.796875,0.984375 -1.796875,2.765625 0,1.78125 0.59375,2.765625 1.796875,2.765625 1.203125,0 1.796875,-0.984375 1.796875,-2.765625 C 4.03125,-4.4375 3.4375,-5.4375 2.234375,-5.4375 Z m 0,0.59375 c 0.65625,0 1.015625,0.609375 1.015625,2.171875 0,1.578125 -0.359375,2.1875 -1.015625,2.1875 -0.671875,0 -1.03125,-0.609375 -1.03125,-2.1875 0,-1.5625 0.359375,-2.171875 1.03125,-2.171875 z m 0,0"
           id="path63" />
      </g>
      <g
         id="use768"
         transform="translate(256.86572,281.2981)">
        <path
           d="m 2.234375,-5.4375 c -1.203125,0 -1.796875,0.984375 -1.796875,2.765625 0,1.78125 0.59375,2.765625 1.796875,2.765625 1.203125,0 1.796875,-0.984375 1.796875,-2.765625 C 4.03125,-4.4375 3.4375,-5.4375 2.234375,-5.4375 Z m 0,0.59375 c 0.65625,0 1.015625,0.609375 1.015625,2.171875 0,1.578125 -0.359375,2.1875 -1.015625,2.1875 -0.671875,0 -1.03125,-0.609375 -1.03125,-2.1875 0,-1.5625 0.359375,-2.171875 1.03125,-2.171875 z m 0,0"
           id="path64" />
      </g>
    </g>
    <g
       fill="#231f20"
       fill-opacity="1"
       id="g774"
       transform="matrix(0.35277777,0,0,0.35277777,-19.569518,43.754093)">
      <g
         id="use769"
         transform="translate(234.7459,239.5004)">
        <path
           d="m 2.46875,-3.515625 c -0.515625,0 -0.9375,0.203125 -1.296875,0.703125 0.046875,-1.234375 0.515625,-2.03125 1.28125,-2.03125 0.296875,0 0.578125,0.078125 0.828125,0.234375 l 0.28125,-0.5 C 3.25,-5.3125 2.890625,-5.4375 2.46875,-5.4375 c -1.265625,0 -2.03125,1.171875 -2.03125,2.921875 0,1.546875 0.5,2.609375 1.796875,2.609375 0.953125,0 1.703125,-0.734375 1.703125,-1.90625 0,-1.140625 -0.6875,-1.703125 -1.46875,-1.703125 z m -0.234375,3.03125 c -0.703125,0 -1.015625,-0.546875 -1.046875,-1.71875 0.265625,-0.4375 0.671875,-0.734375 1.15625,-0.734375 0.5,0 0.859375,0.296875 0.859375,1.140625 0,0.78125 -0.328125,1.3125 -0.96875,1.3125 z m 0,0"
           id="path50" />
      </g>
      <g
         id="use770"
         transform="translate(239.0099,239.5004)">
        <path
           d="m 2.234375,-5.4375 c -1.203125,0 -1.796875,0.984375 -1.796875,2.765625 0,1.78125 0.59375,2.765625 1.796875,2.765625 1.203125,0 1.796875,-0.984375 1.796875,-2.765625 C 4.03125,-4.4375 3.4375,-5.4375 2.234375,-5.4375 Z m 0,0.59375 c 0.65625,0 1.015625,0.609375 1.015625,2.171875 0,1.578125 -0.359375,2.1875 -1.015625,2.1875 -0.671875,0 -1.03125,-0.609375 -1.03125,-2.1875 0,-1.5625 0.359375,-2.171875 1.03125,-2.171875 z m 0,0"
           id="path65" />
      </g>
      <g
         id="use771"
         transform="translate(243.47391,239.5004)">
        <path
           d="m 2.234375,-5.4375 c -1.203125,0 -1.796875,0.984375 -1.796875,2.765625 0,1.78125 0.59375,2.765625 1.796875,2.765625 1.203125,0 1.796875,-0.984375 1.796875,-2.765625 C 4.03125,-4.4375 3.4375,-5.4375 2.234375,-5.4375 Z m 0,0.59375 c 0.65625,0 1.015625,0.609375 1.015625,2.171875 0,1.578125 -0.359375,2.1875 -1.015625,2.1875 -0.671875,0 -1.03125,-0.609375 -1.03125,-2.1875 0,-1.5625 0.359375,-2.171875 1.03125,-2.171875 z m 0,0"
           id="path66" />
      </g>
      <g
         id="use772"
         transform="translate(247.9379,239.5004)">
        <path
           d="m 2.234375,-5.4375 c -1.203125,0 -1.796875,0.984375 -1.796875,2.765625 0,1.78125 0.59375,2.765625 1.796875,2.765625 1.203125,0 1.796875,-0.984375 1.796875,-2.765625 C 4.03125,-4.4375 3.4375,-5.4375 2.234375,-5.4375 Z m 0,0.59375 c 0.65625,0 1.015625,0.609375 1.015625,2.171875 0,1.578125 -0.359375,2.1875 -1.015625,2.1875 -0.671875,0 -1.03125,-0.609375 -1.03125,-2.1875 0,-1.5625 0.359375,-2.171875 1.03125,-2.171875 z m 0,0"
           id="path67" />
      </g>
      <g
         id="use773"
         transform="translate(252.4019,239.5004)">
        <path
           d="m 2.234375,-5.4375 c -1.203125,0 -1.796875,0.984375 -1.796875,2.765625 0,1.78125 0.59375,2.765625 1.796875,2.765625 1.203125,0 1.796875,-0.984375 1.796875,-2.765625 C 4.03125,-4.4375 3.4375,-5.4375 2.234375,-5.4375 Z m 0,0.59375 c 0.65625,0 1.015625,0.609375 1.015625,2.171875 0,1.578125 -0.359375,2.1875 -1.015625,2.1875 -0.671875,0 -1.03125,-0.609375 -1.03125,-2.1875 0,-1.5625 0.359375,-2.171875 1.03125,-2.171875 z m 0,0"
           id="path68" />
      </g>
      <g
         id="use774"
         transform="translate(256.86591,239.5004)">
        <path
           d="m 2.234375,-5.4375 c -1.203125,0 -1.796875,0.984375 -1.796875,2.765625 0,1.78125 0.59375,2.765625 1.796875,2.765625 1.203125,0 1.796875,-0.984375 1.796875,-2.765625 C 4.03125,-4.4375 3.4375,-5.4375 2.234375,-5.4375 Z m 0,0.59375 c 0.65625,0 1.015625,0.609375 1.015625,2.171875 0,1.578125 -0.359375,2.1875 -1.015625,2.1875 -0.671875,0 -1.03125,-0.609375 -1.03125,-2.1875 0,-1.5625 0.359375,-2.171875 1.03125,-2.171875 z m 0,0"
           id="path69" />
      </g>
    </g>
    <path
       fill="none"
       stroke-width="0.176389"
       stroke-linecap="butt"
       stroke-linejoin="round"
       stroke="#231f20"
       stroke-opacity="1"
       stroke-miterlimit="10"
       d="m 73.289585,171.58642 h 1.058334"
       id="path774" />
    <path
       fill="none"
       stroke-width="0.176389"
       stroke-linecap="butt"
       stroke-linejoin="round"
       stroke="#231f20"
       stroke-opacity="1"
       stroke-miterlimit="10"
       d="m 73.289585,156.84141 h 1.058334"
       id="path775" />
    <path
       fill="none"
       stroke-width="0.176389"
       stroke-linecap="butt"
       stroke-linejoin="round"
       stroke="#231f20"
       stroke-opacity="1"
       stroke-miterlimit="10"
       d="m 73.289585,142.09503 h 1.058334"
       id="path776" />
    <path
       fill="none"
       stroke-width="0.176389"
       stroke-linecap="butt"
       stroke-linejoin="round"
       stroke="#231f20"
       stroke-opacity="1"
       stroke-miterlimit="10"
       d="m 73.289585,127.35002 h 1.058334"
       id="path777" />
    <path
       fill="none"
       stroke-width="0.176389"
       stroke-linecap="butt"
       stroke-linejoin="round"
       stroke="#231f20"
       stroke-opacity="1"
       stroke-miterlimit="10"
       d="m 77.361688,175.36914 v -1.05833"
       id="path778" />
    <path
       fill="none"
       stroke-width="0.176389"
       stroke-linecap="butt"
       stroke-linejoin="round"
       stroke="#231f20"
       stroke-opacity="1"
       stroke-miterlimit="10"
       d="m 85.791148,175.36914 v -1.05833"
       id="path779" />
    <path
       fill="none"
       stroke-width="0.176389"
       stroke-linecap="butt"
       stroke-linejoin="round"
       stroke="#231f20"
       stroke-opacity="1"
       stroke-miterlimit="10"
       d="m 94.221985,175.36914 v -1.05833"
       id="path780" />
    <path
       fill="none"
       stroke-width="0.176389"
       stroke-linecap="butt"
       stroke-linejoin="round"
       stroke="#231f20"
       stroke-opacity="1"
       stroke-miterlimit="10"
       d="m 102.65145,175.36914 v -1.05833"
       id="path781" />
    <path
       fill="none"
       stroke-width="0.176389"
       stroke-linecap="butt"
       stroke-linejoin="round"
       stroke="#231f20"
       stroke-opacity="1"
       stroke-miterlimit="10"
       d="m 111.08228,175.36914 v -1.05833"
       id="path782" />
    <path
       fill="none"
       stroke-width="0.176389"
       stroke-linecap="butt"
       stroke-linejoin="round"
       stroke="#231f20"
       stroke-opacity="1"
       stroke-miterlimit="10"
       d="m 119.51312,175.36914 v -1.05833"
       id="path783" />
    <path
       fill="none"
       stroke-width="0.176389"
       stroke-linecap="butt"
       stroke-linejoin="round"
       stroke="#231f20"
       stroke-opacity="1"
       stroke-miterlimit="10"
       d="m 127.94258,175.36914 v -1.05833"
       id="path784" />
    <path
       fill="none"
       stroke-width="0.176389"
       stroke-linecap="butt"
       stroke-linejoin="round"
       stroke="#231f20"
       stroke-opacity="1"
       stroke-miterlimit="10"
       d="m 136.37204,175.36914 v -1.05833"
       id="path785" />
    <path
       fill="none"
       stroke-width="0.176389"
       stroke-linecap="butt"
       stroke-linejoin="round"
       stroke="#231f20"
       stroke-opacity="1"
       stroke-miterlimit="10"
       d="m 144.8015,175.36914 v -1.05833"
       id="path786" />
    <g
       fill="#231f20"
       fill-opacity="1"
       id="g789"
       transform="matrix(0.35277777,0,0,0.35277777,-19.569518,43.754093)">
      <g
         id="use786"
         transform="translate(266.59351,381.32889)">
        <path
           d="M 2.578125,-5.359375 H 1.9375 l -1.65625,1.03125 0.3125,0.515625 1.25,-0.75 V 0 h 0.734375 z m 0,0"
           id="path40" />
      </g>
      <g
         id="use787"
         transform="translate(270.0575,381.32889)">
        <path
           d="m 2.921875,-2.875 c 0.609375,-0.296875 0.90625,-0.65625 0.90625,-1.203125 0,-0.90625 -0.8125,-1.359375 -1.625,-1.359375 -0.8125,0 -1.625,0.484375 -1.625,1.375 0,0.5625 0.265625,0.96875 0.84375,1.25 -0.65625,0.296875 -1.0625,0.703125 -1.0625,1.390625 0,0.890625 0.734375,1.515625 1.828125,1.515625 1.09375,0 1.859375,-0.625 1.859375,-1.53125 0,-0.671875 -0.390625,-1.140625 -1.125,-1.4375 z m -0.71875,-2 c 0.59375,0 0.90625,0.328125 0.90625,0.8125 0,0.46875 -0.203125,0.75 -0.671875,1.015625 L 2.296875,-3.09375 c -0.609375,-0.203125 -1,-0.40625 -1,-0.953125 0,-0.53125 0.359375,-0.828125 0.90625,-0.828125 z m 0,4.390625 C 1.53125,-0.484375 1.125,-0.828125 1.125,-1.421875 1.125,-2 1.390625,-2.375 1.90625,-2.625 l 0.203125,0.078125 C 2.96875,-2.25 3.28125,-2 3.28125,-1.421875 c 0,0.5625 -0.40625,0.9375 -1.078125,0.9375 z m 0,0"
           id="path37" />
      </g>
      <g
         id="use788"
         transform="translate(274.46552,381.32889)">
        <path
           d="M 3.46875,-5.359375 H 0.5625 v 2.703125 h 0.578125 c 0.265625,-0.125 0.46875,-0.1875 0.765625,-0.1875 0.546875,0 0.96875,0.296875 0.96875,1.109375 C 2.875,-0.9375 2.453125,-0.5 1.78125,-0.5 c -0.46875,0 -0.8125,-0.171875 -1.125,-0.515625 l -0.453125,0.4375 C 0.625,-0.15625 1.109375,0.09375 1.796875,0.09375 c 1.109375,0 1.84375,-0.734375 1.84375,-1.8125 0,-1.0625 -0.609375,-1.6875 -1.515625,-1.6875 -0.28125,0 -0.578125,0.0625 -0.859375,0.203125 V -4.78125 h 2.09375 z m 0,0"
           id="path35" />
      </g>
      <g
         id="use789"
         transform="translate(278.47351,381.32889)">
        <path
           d="m 2.234375,-5.4375 c -1.203125,0 -1.796875,0.984375 -1.796875,2.765625 0,1.78125 0.59375,2.765625 1.796875,2.765625 1.203125,0 1.796875,-0.984375 1.796875,-2.765625 C 4.03125,-4.4375 3.4375,-5.4375 2.234375,-5.4375 Z m 0,0.59375 c 0.65625,0 1.015625,0.609375 1.015625,2.171875 0,1.578125 -0.359375,2.1875 -1.015625,2.1875 -0.671875,0 -1.03125,-0.609375 -1.03125,-2.1875 0,-1.5625 0.359375,-2.171875 1.03125,-2.171875 z m 0,0"
           id="path70" />
      </g>
    </g>
    <g
       fill="#231f20"
       fill-opacity="1"
       id="g793"
       transform="matrix(0.35277777,0,0,0.35277777,-19.569518,43.754093)">
      <g
         id="use790"
         transform="translate(290.71744,381.32889)">
        <path
           d="M 2.578125,-5.359375 H 1.9375 l -1.65625,1.03125 0.3125,0.515625 1.25,-0.75 V 0 h 0.734375 z m 0,0"
           id="path41" />
      </g>
      <g
         id="use791"
         transform="translate(294.18146,381.32889)">
        <path
           d="m 2.921875,-2.875 c 0.609375,-0.296875 0.90625,-0.65625 0.90625,-1.203125 0,-0.90625 -0.8125,-1.359375 -1.625,-1.359375 -0.8125,0 -1.625,0.484375 -1.625,1.375 0,0.5625 0.265625,0.96875 0.84375,1.25 -0.65625,0.296875 -1.0625,0.703125 -1.0625,1.390625 0,0.890625 0.734375,1.515625 1.828125,1.515625 1.09375,0 1.859375,-0.625 1.859375,-1.53125 0,-0.671875 -0.390625,-1.140625 -1.125,-1.4375 z m -0.71875,-2 c 0.59375,0 0.90625,0.328125 0.90625,0.8125 0,0.46875 -0.203125,0.75 -0.671875,1.015625 L 2.296875,-3.09375 c -0.609375,-0.203125 -1,-0.40625 -1,-0.953125 0,-0.53125 0.359375,-0.828125 0.90625,-0.828125 z m 0,4.390625 C 1.53125,-0.484375 1.125,-0.828125 1.125,-1.421875 1.125,-2 1.390625,-2.375 1.90625,-2.625 l 0.203125,0.078125 C 2.96875,-2.25 3.28125,-2 3.28125,-1.421875 c 0,0.5625 -0.40625,0.9375 -1.078125,0.9375 z m 0,0"
           id="path38" />
      </g>
      <g
         id="use792"
         transform="translate(298.58945,381.32889)">
        <path
           d="M 3.3125,-5.359375 H 0.203125 V -4.75 H 2.5625 l -1.921875,4.609375 0.671875,0.21875 2,-4.875 z m 0,0"
           id="path33" />
      </g>
      <g
         id="use793"
         transform="translate(302.14145,381.32889)">
        <path
           d="m 2.234375,-5.4375 c -1.203125,0 -1.796875,0.984375 -1.796875,2.765625 0,1.78125 0.59375,2.765625 1.796875,2.765625 1.203125,0 1.796875,-0.984375 1.796875,-2.765625 C 4.03125,-4.4375 3.4375,-5.4375 2.234375,-5.4375 Z m 0,0.59375 c 0.65625,0 1.015625,0.609375 1.015625,2.171875 0,1.578125 -0.359375,2.1875 -1.015625,2.1875 -0.671875,0 -1.03125,-0.609375 -1.03125,-2.1875 0,-1.5625 0.359375,-2.171875 1.03125,-2.171875 z m 0,0"
           id="path71" />
      </g>
    </g>
    <g
       fill="#231f20"
       fill-opacity="1"
       id="g797"
       transform="matrix(0.35277777,0,0,0.35277777,-19.569518,43.754093)">
      <g
         id="use794"
         transform="translate(314.29224,381.32889)">
        <path
           d="M 2.578125,-5.359375 H 1.9375 l -1.65625,1.03125 0.3125,0.515625 1.25,-0.75 V 0 h 0.734375 z m 0,0"
           id="path42" />
      </g>
      <g
         id="use795"
         transform="translate(317.75623,381.32889)">
        <path
           d="m 2.921875,-2.875 c 0.609375,-0.296875 0.90625,-0.65625 0.90625,-1.203125 0,-0.90625 -0.8125,-1.359375 -1.625,-1.359375 -0.8125,0 -1.625,0.484375 -1.625,1.375 0,0.5625 0.265625,0.96875 0.84375,1.25 -0.65625,0.296875 -1.0625,0.703125 -1.0625,1.390625 0,0.890625 0.734375,1.515625 1.828125,1.515625 1.09375,0 1.859375,-0.625 1.859375,-1.53125 0,-0.671875 -0.390625,-1.140625 -1.125,-1.4375 z m -0.71875,-2 c 0.59375,0 0.90625,0.328125 0.90625,0.8125 0,0.46875 -0.203125,0.75 -0.671875,1.015625 L 2.296875,-3.09375 c -0.609375,-0.203125 -1,-0.40625 -1,-0.953125 0,-0.53125 0.359375,-0.828125 0.90625,-0.828125 z m 0,4.390625 C 1.53125,-0.484375 1.125,-0.828125 1.125,-1.421875 1.125,-2 1.390625,-2.375 1.90625,-2.625 l 0.203125,0.078125 C 2.96875,-2.25 3.28125,-2 3.28125,-1.421875 c 0,0.5625 -0.40625,0.9375 -1.078125,0.9375 z m 0,0"
           id="path39" />
      </g>
      <g
         id="use796"
         transform="translate(322.16422,381.32889)">
        <path
           d="m 2.078125,-5.4375 c -0.9375,0 -1.71875,0.65625 -1.71875,1.78125 0,1.0625 0.65625,1.71875 1.484375,1.71875 0.546875,0 0.96875,-0.28125 1.203125,-0.640625 C 2.984375,-1.375 2.125,-0.765625 0.78125,-0.375 l 0.171875,0.546875 c 1.96875,-0.5625 2.84375,-1.3125 2.84375,-3.53125 0,-1.25 -0.578125,-2.078125 -1.71875,-2.078125 z m -0.09375,2.921875 c -0.515625,0 -0.875,-0.359375 -0.875,-1.125 0,-0.78125 0.359375,-1.203125 0.984375,-1.203125 0.65625,0 0.984375,0.453125 0.96875,1.65625 -0.265625,0.40625 -0.609375,0.671875 -1.078125,0.671875 z m 0,0"
           id="path26" />
      </g>
      <g
         id="use797"
         transform="translate(326.36423,381.32889)">
        <path
           d="m 2.234375,-5.4375 c -1.203125,0 -1.796875,0.984375 -1.796875,2.765625 0,1.78125 0.59375,2.765625 1.796875,2.765625 1.203125,0 1.796875,-0.984375 1.796875,-2.765625 C 4.03125,-4.4375 3.4375,-5.4375 2.234375,-5.4375 Z m 0,0.59375 c 0.65625,0 1.015625,0.609375 1.015625,2.171875 0,1.578125 -0.359375,2.1875 -1.015625,2.1875 -0.671875,0 -1.03125,-0.609375 -1.03125,-2.1875 0,-1.5625 0.359375,-2.171875 1.03125,-2.171875 z m 0,0"
           id="path72" />
      </g>
    </g>
    <g
       fill="#231f20"
       fill-opacity="1"
       id="g801"
       transform="matrix(0.35277777,0,0,0.35277777,-19.569518,43.754093)">
      <g
         id="use798"
         transform="translate(338.66043,381.32889)">
        <path
           d="M 2.578125,-5.359375 H 1.9375 l -1.65625,1.03125 0.3125,0.515625 1.25,-0.75 V 0 h 0.734375 z m 0,0"
           id="path43" />
      </g>
      <g
         id="use799"
         transform="translate(342.12442,381.32889)">
        <path
           d="m 2.078125,-5.4375 c -0.9375,0 -1.71875,0.65625 -1.71875,1.78125 0,1.0625 0.65625,1.71875 1.484375,1.71875 0.546875,0 0.96875,-0.28125 1.203125,-0.640625 C 2.984375,-1.375 2.125,-0.765625 0.78125,-0.375 l 0.171875,0.546875 c 1.96875,-0.5625 2.84375,-1.3125 2.84375,-3.53125 0,-1.25 -0.578125,-2.078125 -1.71875,-2.078125 z m -0.09375,2.921875 c -0.515625,0 -0.875,-0.359375 -0.875,-1.125 0,-0.78125 0.359375,-1.203125 0.984375,-1.203125 0.65625,0 0.984375,0.453125 0.96875,1.65625 -0.265625,0.40625 -0.609375,0.671875 -1.078125,0.671875 z m 0,0"
           id="path27" />
      </g>
      <g
         id="use800"
         transform="translate(346.32443,381.32889)">
        <path
           d="M 2.578125,-5.359375 H 1.9375 l -1.65625,1.03125 0.3125,0.515625 1.25,-0.75 V 0 h 0.734375 z m 0,0"
           id="path44" />
      </g>
      <g
         id="use801"
         transform="translate(349.78842,381.32889)">
        <path
           d="m 2.234375,-5.4375 c -1.203125,0 -1.796875,0.984375 -1.796875,2.765625 0,1.78125 0.59375,2.765625 1.796875,2.765625 1.203125,0 1.796875,-0.984375 1.796875,-2.765625 C 4.03125,-4.4375 3.4375,-5.4375 2.234375,-5.4375 Z m 0,0.59375 c 0.65625,0 1.015625,0.609375 1.015625,2.171875 0,1.578125 -0.359375,2.1875 -1.015625,2.1875 -0.671875,0 -1.03125,-0.609375 -1.03125,-2.1875 0,-1.5625 0.359375,-2.171875 1.03125,-2.171875 z m 0,0"
           id="path73" />
      </g>
    </g>
    <g
       fill="#231f20"
       fill-opacity="1"
       id="g805"
       transform="matrix(0.35277777,0,0,0.35277777,-19.569518,43.754093)">
      <g
         id="use802"
         transform="translate(362.29169,381.32889)">
        <path
           d="M 2.578125,-5.359375 H 1.9375 l -1.65625,1.03125 0.3125,0.515625 1.25,-0.75 V 0 h 0.734375 z m 0,0"
           id="path45" />
      </g>
      <g
         id="use803"
         transform="translate(365.75571,381.32889)">
        <path
           d="m 2.078125,-5.4375 c -0.9375,0 -1.71875,0.65625 -1.71875,1.78125 0,1.0625 0.65625,1.71875 1.484375,1.71875 0.546875,0 0.96875,-0.28125 1.203125,-0.640625 C 2.984375,-1.375 2.125,-0.765625 0.78125,-0.375 l 0.171875,0.546875 c 1.96875,-0.5625 2.84375,-1.3125 2.84375,-3.53125 0,-1.25 -0.578125,-2.078125 -1.71875,-2.078125 z m -0.09375,2.921875 c -0.515625,0 -0.875,-0.359375 -0.875,-1.125 0,-0.78125 0.359375,-1.203125 0.984375,-1.203125 0.65625,0 0.984375,0.453125 0.96875,1.65625 -0.265625,0.40625 -0.609375,0.671875 -1.078125,0.671875 z m 0,0"
           id="path28" />
      </g>
      <g
         id="use804"
         transform="translate(369.95569,381.32889)">
        <path
           d="m 1.796875,-5.4375 c -0.578125,0 -1.0625,0.21875 -1.53125,0.640625 l 0.390625,0.4375 c 0.359375,-0.34375 0.6875,-0.484375 1.109375,-0.484375 0.53125,0 0.875,0.3125 0.875,0.8125 0,0.625 -0.4375,0.953125 -0.953125,0.953125 H 1.40625 l -0.09375,0.5625 h 0.40625 c 0.65625,0 1.0625,0.234375 1.0625,0.96875 C 2.78125,-0.921875 2.375,-0.5 1.703125,-0.5 1.265625,-0.5 0.90625,-0.65625 0.5625,-1.03125 L 0.125,-0.625 c 0.40625,0.484375 0.96875,0.71875 1.609375,0.71875 1.109375,0 1.8125,-0.703125 1.8125,-1.640625 0,-0.8125 -0.53125,-1.234375 -1.203125,-1.296875 0.59375,-0.140625 1.046875,-0.546875 1.046875,-1.234375 0,-0.71875 -0.5625,-1.359375 -1.59375,-1.359375 z m 0,0"
           id="path25" />
      </g>
      <g
         id="use805"
         transform="translate(373.94769,381.32889)">
        <path
           d="m 2.234375,-5.4375 c -1.203125,0 -1.796875,0.984375 -1.796875,2.765625 0,1.78125 0.59375,2.765625 1.796875,2.765625 1.203125,0 1.796875,-0.984375 1.796875,-2.765625 C 4.03125,-4.4375 3.4375,-5.4375 2.234375,-5.4375 Z m 0,0.59375 c 0.65625,0 1.015625,0.609375 1.015625,2.171875 0,1.578125 -0.359375,2.1875 -1.015625,2.1875 -0.671875,0 -1.03125,-0.609375 -1.03125,-2.1875 0,-1.5625 0.359375,-2.171875 1.03125,-2.171875 z m 0,0"
           id="path74" />
      </g>
    </g>
    <g
       fill="#231f20"
       fill-opacity="1"
       id="g809"
       transform="matrix(0.35277777,0,0,0.35277777,-19.569518,43.754093)">
      <g
         id="use806"
         transform="translate(386.17981,381.32889)">
        <path
           d="M 2.578125,-5.359375 H 1.9375 l -1.65625,1.03125 0.3125,0.515625 1.25,-0.75 V 0 h 0.734375 z m 0,0"
           id="path46" />
      </g>
      <g
         id="use807"
         transform="translate(389.64383,381.32889)">
        <path
           d="m 2.078125,-5.4375 c -0.9375,0 -1.71875,0.65625 -1.71875,1.78125 0,1.0625 0.65625,1.71875 1.484375,1.71875 0.546875,0 0.96875,-0.28125 1.203125,-0.640625 C 2.984375,-1.375 2.125,-0.765625 0.78125,-0.375 l 0.171875,0.546875 c 1.96875,-0.5625 2.84375,-1.3125 2.84375,-3.53125 0,-1.25 -0.578125,-2.078125 -1.71875,-2.078125 z m -0.09375,2.921875 c -0.515625,0 -0.875,-0.359375 -0.875,-1.125 0,-0.78125 0.359375,-1.203125 0.984375,-1.203125 0.65625,0 0.984375,0.453125 0.96875,1.65625 -0.265625,0.40625 -0.609375,0.671875 -1.078125,0.671875 z m 0,0"
           id="path29" />
      </g>
      <g
         id="use808"
         transform="translate(393.84381,381.32889)">
        <path
           d="M 3.46875,-5.359375 H 0.5625 v 2.703125 h 0.578125 c 0.265625,-0.125 0.46875,-0.1875 0.765625,-0.1875 0.546875,0 0.96875,0.296875 0.96875,1.109375 C 2.875,-0.9375 2.453125,-0.5 1.78125,-0.5 c -0.46875,0 -0.8125,-0.171875 -1.125,-0.515625 l -0.453125,0.4375 C 0.625,-0.15625 1.109375,0.09375 1.796875,0.09375 c 1.109375,0 1.84375,-0.734375 1.84375,-1.8125 0,-1.0625 -0.609375,-1.6875 -1.515625,-1.6875 -0.28125,0 -0.578125,0.0625 -0.859375,0.203125 V -4.78125 h 2.09375 z m 0,0"
           id="path36" />
      </g>
      <g
         id="use809"
         transform="translate(397.85181,381.32889)">
        <path
           d="m 2.234375,-5.4375 c -1.203125,0 -1.796875,0.984375 -1.796875,2.765625 0,1.78125 0.59375,2.765625 1.796875,2.765625 1.203125,0 1.796875,-0.984375 1.796875,-2.765625 C 4.03125,-4.4375 3.4375,-5.4375 2.234375,-5.4375 Z m 0,0.59375 c 0.65625,0 1.015625,0.609375 1.015625,2.171875 0,1.578125 -0.359375,2.1875 -1.015625,2.1875 -0.671875,0 -1.03125,-0.609375 -1.03125,-2.1875 0,-1.5625 0.359375,-2.171875 1.03125,-2.171875 z m 0,0"
           id="path75" />
      </g>
    </g>
    <g
       fill="#231f20"
       fill-opacity="1"
       id="g813"
       transform="matrix(0.35277777,0,0,0.35277777,-19.569518,43.754093)">
      <g
         id="use810"
         transform="translate(410.30768,381.32889)">
        <path
           d="M 2.578125,-5.359375 H 1.9375 l -1.65625,1.03125 0.3125,0.515625 1.25,-0.75 V 0 h 0.734375 z m 0,0"
           id="path47" />
      </g>
      <g
         id="use811"
         transform="translate(413.77167,381.32889)">
        <path
           d="m 2.078125,-5.4375 c -0.9375,0 -1.71875,0.65625 -1.71875,1.78125 0,1.0625 0.65625,1.71875 1.484375,1.71875 0.546875,0 0.96875,-0.28125 1.203125,-0.640625 C 2.984375,-1.375 2.125,-0.765625 0.78125,-0.375 l 0.171875,0.546875 c 1.96875,-0.5625 2.84375,-1.3125 2.84375,-3.53125 0,-1.25 -0.578125,-2.078125 -1.71875,-2.078125 z m -0.09375,2.921875 c -0.515625,0 -0.875,-0.359375 -0.875,-1.125 0,-0.78125 0.359375,-1.203125 0.984375,-1.203125 0.65625,0 0.984375,0.453125 0.96875,1.65625 -0.265625,0.40625 -0.609375,0.671875 -1.078125,0.671875 z m 0,0"
           id="path30" />
      </g>
      <g
         id="use812"
         transform="translate(417.97168,381.32889)">
        <path
           d="M 3.3125,-5.359375 H 0.203125 V -4.75 H 2.5625 l -1.921875,4.609375 0.671875,0.21875 2,-4.875 z m 0,0"
           id="path34" />
      </g>
      <g
         id="use813"
         transform="translate(421.52368,381.32889)">
        <path
           d="m 2.234375,-5.4375 c -1.203125,0 -1.796875,0.984375 -1.796875,2.765625 0,1.78125 0.59375,2.765625 1.796875,2.765625 1.203125,0 1.796875,-0.984375 1.796875,-2.765625 C 4.03125,-4.4375 3.4375,-5.4375 2.234375,-5.4375 Z m 0,0.59375 c 0.65625,0 1.015625,0.609375 1.015625,2.171875 0,1.578125 -0.359375,2.1875 -1.015625,2.1875 -0.671875,0 -1.03125,-0.609375 -1.03125,-2.1875 0,-1.5625 0.359375,-2.171875 1.03125,-2.171875 z m 0,0"
           id="path76" />
      </g>
    </g>
    <g
       fill="#231f20"
       fill-opacity="1"
       id="g817"
       transform="matrix(0.35277777,0,0,0.35277777,-19.569518,43.754093)">
      <g
         id="use814"
         transform="translate(433.87698,381.32889)">
        <path
           d="M 2.578125,-5.359375 H 1.9375 l -1.65625,1.03125 0.3125,0.515625 1.25,-0.75 V 0 h 0.734375 z m 0,0"
           id="path48" />
      </g>
      <g
         id="use815"
         transform="translate(437.34097,381.32889)">
        <path
           d="m 2.078125,-5.4375 c -0.9375,0 -1.71875,0.65625 -1.71875,1.78125 0,1.0625 0.65625,1.71875 1.484375,1.71875 0.546875,0 0.96875,-0.28125 1.203125,-0.640625 C 2.984375,-1.375 2.125,-0.765625 0.78125,-0.375 l 0.171875,0.546875 c 1.96875,-0.5625 2.84375,-1.3125 2.84375,-3.53125 0,-1.25 -0.578125,-2.078125 -1.71875,-2.078125 z m -0.09375,2.921875 c -0.515625,0 -0.875,-0.359375 -0.875,-1.125 0,-0.78125 0.359375,-1.203125 0.984375,-1.203125 0.65625,0 0.984375,0.453125 0.96875,1.65625 -0.265625,0.40625 -0.609375,0.671875 -1.078125,0.671875 z m 0,0"
           id="path31" />
      </g>
      <g
         id="use816"
         transform="translate(441.54099,381.32889)">
        <path
           d="m 2.078125,-5.4375 c -0.9375,0 -1.71875,0.65625 -1.71875,1.78125 0,1.0625 0.65625,1.71875 1.484375,1.71875 0.546875,0 0.96875,-0.28125 1.203125,-0.640625 C 2.984375,-1.375 2.125,-0.765625 0.78125,-0.375 l 0.171875,0.546875 c 1.96875,-0.5625 2.84375,-1.3125 2.84375,-3.53125 0,-1.25 -0.578125,-2.078125 -1.71875,-2.078125 z m -0.09375,2.921875 c -0.515625,0 -0.875,-0.359375 -0.875,-1.125 0,-0.78125 0.359375,-1.203125 0.984375,-1.203125 0.65625,0 0.984375,0.453125 0.96875,1.65625 -0.265625,0.40625 -0.609375,0.671875 -1.078125,0.671875 z m 0,0"
           id="path32" />
      </g>
      <g
         id="use817"
         transform="translate(445.741,381.32889)">
        <path
           d="m 2.234375,-5.4375 c -1.203125,0 -1.796875,0.984375 -1.796875,2.765625 0,1.78125 0.59375,2.765625 1.796875,2.765625 1.203125,0 1.796875,-0.984375 1.796875,-2.765625 C 4.03125,-4.4375 3.4375,-5.4375 2.234375,-5.4375 Z m 0,0.59375 c 0.65625,0 1.015625,0.609375 1.015625,2.171875 0,1.578125 -0.359375,2.1875 -1.015625,2.1875 -0.671875,0 -1.03125,-0.609375 -1.03125,-2.1875 0,-1.5625 0.359375,-2.171875 1.03125,-2.171875 z m 0,0"
           id="path77" />
      </g>
    </g>
    <g
       fill="#231f20"
       fill-opacity="1"
       id="g821"
       transform="matrix(0.35277777,0,0,0.35277777,-19.569518,43.754093)">
      <g
         id="use818"
         transform="translate(457.7612,381.32889)">
        <path
           d="m 1.828125,-5.4375 c -0.671875,0 -1.203125,0.28125 -1.625,0.8125 l 0.5,0.390625 c 0.34375,-0.40625 0.640625,-0.59375 1.078125,-0.59375 0.515625,0 0.875,0.328125 0.875,0.890625 0,0.875 -0.453125,1.390625 -2.34375,3.359375 V 0 H 3.46875 L 3.5625,-0.609375 H 1.15625 C 2.796875,-2.25 3.4375,-2.96875 3.4375,-3.96875 c 0,-0.828125 -0.625,-1.46875 -1.609375,-1.46875 z m 0,0"
           id="path53" />
      </g>
      <g
         id="use819"
         transform="translate(461.72122,381.32889)">
        <path
           d="m 2.234375,-5.4375 c -1.203125,0 -1.796875,0.984375 -1.796875,2.765625 0,1.78125 0.59375,2.765625 1.796875,2.765625 1.203125,0 1.796875,-0.984375 1.796875,-2.765625 C 4.03125,-4.4375 3.4375,-5.4375 2.234375,-5.4375 Z m 0,0.59375 c 0.65625,0 1.015625,0.609375 1.015625,2.171875 0,1.578125 -0.359375,2.1875 -1.015625,2.1875 -0.671875,0 -1.03125,-0.609375 -1.03125,-2.1875 0,-1.5625 0.359375,-2.171875 1.03125,-2.171875 z m 0,0"
           id="path78" />
      </g>
      <g
         id="use820"
         transform="translate(466.18521,381.32889)">
        <path
           d="M 2.578125,-5.359375 H 1.9375 l -1.65625,1.03125 0.3125,0.515625 1.25,-0.75 V 0 h 0.734375 z m 0,0"
           id="path49" />
      </g>
      <g
         id="use821"
         transform="translate(469.6492,381.32889)">
        <path
           d="m 2.234375,-5.4375 c -1.203125,0 -1.796875,0.984375 -1.796875,2.765625 0,1.78125 0.59375,2.765625 1.796875,2.765625 1.203125,0 1.796875,-0.984375 1.796875,-2.765625 C 4.03125,-4.4375 3.4375,-5.4375 2.234375,-5.4375 Z m 0,0.59375 c 0.65625,0 1.015625,0.609375 1.015625,2.171875 0,1.578125 -0.359375,2.1875 -1.015625,2.1875 -0.671875,0 -1.03125,-0.609375 -1.03125,-2.1875 0,-1.5625 0.359375,-2.171875 1.03125,-2.171875 z m 0,0"
           id="path79" />
      </g>
    </g>
    <g
       fill="#231f20"
       fill-opacity="1"
       id="g822"
       transform="matrix(0.35277777,0,0,0.35277777,-19.569518,43.754093)">
      <g
         id="use822"
         transform="translate(365.77899,393.61911)">
        <path
           d="M 4.359375,-5.515625 H 3.5625 L 2.21875,-2.78125 0.875,-5.515625 H 0.046875 L 1.8125,-2.109375 V 0 h 0.765625 v -2.125 z m 0,0"
           id="path24" />
      </g>
    </g>
    <g
       fill="#231f20"
       fill-opacity="1"
       id="g825"
       transform="matrix(0.35277777,0,0,0.35277777,-19.569518,43.754093)">
      <g
         id="use823"
         transform="translate(369.06689,393.61911)">
        <path
           d="m 3.9375,-2.234375 c 0,-1.28125 -0.59375,-2.078125 -1.734375,-2.078125 -1.078125,0 -1.75,0.9375 -1.75,2.25 0,1.328125 0.6875,2.15625 1.859375,2.15625 0.59375,0 1.0625,-0.203125 1.484375,-0.53125 L 3.46875,-0.875 C 3.109375,-0.609375 2.796875,-0.5 2.375,-0.5 1.765625,-0.5 1.3125,-0.875 1.234375,-1.859375 h 2.6875 C 3.9375,-1.953125 3.9375,-2.09375 3.9375,-2.234375 Z M 3.21875,-2.40625 H 1.234375 c 0.0625,-0.9375 0.421875,-1.328125 0.984375,-1.328125 0.671875,0 1,0.46875 1,1.28125 z m 0,0"
           id="path23" />
      </g>
      <g
         id="use824"
         transform="translate(373.46689,393.61911)">
        <path
           d="M 3.59375,-0.984375 V -2.90625 c 0,-0.890625 -0.453125,-1.40625 -1.46875,-1.40625 -0.484375,0 -0.9375,0.09375 -1.46875,0.28125 l 0.1875,0.546875 C 1.28125,-3.625 1.671875,-3.71875 1.984375,-3.71875 c 0.578125,0 0.875,0.234375 0.875,0.84375 v 0.3125 H 2.21875 c -1.171875,0 -1.859375,0.484375 -1.859375,1.390625 0,0.75 0.5,1.265625 1.34375,1.265625 0.515625,0 0.953125,-0.1875 1.25,-0.625 0.140625,0.40625 0.40625,0.578125 0.828125,0.625 L 3.953125,-0.421875 C 3.734375,-0.5 3.59375,-0.609375 3.59375,-0.984375 Z M 1.875,-0.453125 c -0.484375,0 -0.734375,-0.265625 -0.734375,-0.765625 0,-0.578125 0.390625,-0.859375 1.171875,-0.859375 h 0.546875 v 0.96875 c -0.234375,0.4375 -0.5625,0.65625 -0.984375,0.65625 z m 0,0"
           id="path22" />
      </g>
      <g
         id="use825"
         transform="translate(377.81888,393.61911)">
        <path
           d="m 2.59375,-4.3125 c -0.515625,0 -0.90625,0.328125 -1.125,0.953125 L 1.390625,-4.21875 h -0.625 V 0 H 1.5 v -2.40625 c 0.171875,-0.8125 0.46875,-1.1875 1,-1.1875 0.15625,0 0.25,0.015625 0.375,0.046875 l 0.140625,-0.71875 C 2.875,-4.296875 2.734375,-4.3125 2.59375,-4.3125 Z m 0,0"
           id="path21" />
      </g>
    </g>
    <g
       clip-path="url(#clip-10)"
       id="g848"
       transform="matrix(0.35277777,0,0,0.35277777,-19.569518,43.754093)">
      <g
         fill="#231f20"
         fill-opacity="1"
         id="g847">
        <g
           id="use826"
           transform="translate(229.19276,325.55389)">
          <path
             d="m -5.515625,-1.5625 v 0.765625 H 0 v -2.9375 l -0.65625,-0.09375 V -1.5625 Z m 0,0"
             id="path20" />
        </g>
        <g
           id="use827"
           transform="translate(229.19276,321.56989)">
          <path
             d="M -0.984375,-3.59375 H -2.90625 c -0.890625,0 -1.40625,0.453125 -1.40625,1.46875 0,0.484375 0.09375,0.9375 0.28125,1.46875 l 0.546875,-0.1875 C -3.625,-1.28125 -3.71875,-1.671875 -3.71875,-1.984375 c 0,-0.578125 0.234375,-0.875 0.84375,-0.875 h 0.3125 v 0.640625 c 0,1.171875 0.484375,1.859375 1.390625,1.859375 0.75,0 1.265625,-0.5 1.265625,-1.34375 0,-0.515625 -0.1875,-0.953125 -0.625,-1.25 0.40625,-0.140625 0.578125,-0.40625 0.625,-0.828125 l -0.515625,-0.171875 c -0.078125,0.21875 -0.1875,0.359375 -0.5625,0.359375 z m 0.53125,1.71875 c 0,0.484375 -0.265625,0.734375 -0.765625,0.734375 -0.578125,0 -0.859375,-0.390625 -0.859375,-1.171875 v -0.546875 h 0.96875 c 0.4375,0.234375 0.65625,0.5625 0.65625,0.984375 z m 0,0"
             id="path19" />
        </g>
        <g
           id="use828"
           transform="translate(229.19276,317.2179)">
          <path
             d="m -4.3125,-2.75 c 0,0.5625 0.28125,1 0.71875,1.296875 l -0.625,0.0625 v 0.625 H 0 V -1.5 h -2.984375 c -0.453125,-0.28125 -0.75,-0.59375 -0.75,-1.0625 0,-0.40625 0.1875,-0.671875 0.8125,-0.671875 H 0 V -3.96875 h -3.03125 c -0.796875,0 -1.28125,0.453125 -1.28125,1.21875 z m 0,0"
             id="path16" />
        </g>
        <g
           id="use829"
           transform="translate(229.19276,312.52991)">
          <path
             d="m -6,-3.28125 h 2.203125 c -0.296875,0.265625 -0.515625,0.640625 -0.515625,1.125 0,1.03125 0.9375,1.65625 2.21875,1.65625 1.3125,0 2.1875,-0.5625 2.1875,-1.59375 0,-0.515625 -0.25,-0.9375 -0.671875,-1.203125 L 0,-3.375 V -4.03125 H -5.90625 Z M -0.484375,-2.25 c 0,0.609375 -0.5,0.96875 -1.625,0.96875 -1.09375,0 -1.625,-0.40625 -1.625,-1.03125 0,-0.421875 0.21875,-0.71875 0.5625,-0.96875 h 2.0625 c 0.390625,0.265625 0.625,0.5625 0.625,1.03125 z m 0,0"
             id="path14" />
        </g>
        <g
           id="use830"
           transform="translate(229.19276,307.74591)">
          <path
             d="m -6.234375,-1.125 c 0,0.3125 0.203125,0.515625 0.5,0.515625 0.28125,0 0.5,-0.203125 0.5,-0.515625 0,-0.3125 -0.21875,-0.515625 -0.5,-0.515625 -0.296875,0 -0.5,0.203125 -0.5,0.515625 z M -4.21875,-1.5 v 0.734375 H 0 V -1.5 Z m 0,0"
             id="path13" />
        </g>
        <g
           id="use831"
           transform="translate(229.19276,305.4899)">
          <path
             d="m -4.3125,-2.75 c 0,0.5625 0.28125,1 0.71875,1.296875 l -0.625,0.0625 v 0.625 H 0 V -1.5 h -2.984375 c -0.453125,-0.28125 -0.75,-0.59375 -0.75,-1.0625 0,-0.40625 0.1875,-0.671875 0.8125,-0.671875 H 0 V -3.96875 h -3.03125 c -0.796875,0 -1.28125,0.453125 -1.28125,1.21875 z m 0,0"
             id="path17" />
        </g>
        <g
           id="use832"
           transform="translate(229.19276,300.80191)">
          <path
             d="m -4.6875,-3.9375 c 0.21875,0.484375 0.40625,0.875 0.375,1.921875 0,0.921875 0.609375,1.625 1.46875,1.625 0.546875,0 0.921875,-0.21875 1.171875,-0.71875 0.203125,0.3125 0.46875,0.46875 0.75,0.46875 0.421875,0 0.796875,-0.328125 0.796875,-1.09375 v -0.65625 c 0,-0.53125 0.203125,-0.84375 0.59375,-0.84375 0.421875,0 0.65625,0.3125 0.65625,1.21875 0,0.9375 -0.21875,1.15625 -0.703125,1.15625 v 0.65625 c 0.859375,0 1.28125,-0.421875 1.28125,-1.8125 0,-1.296875 -0.46875,-1.96875 -1.28125,-1.96875 -0.671875,0 -1.171875,0.578125 -1.171875,1.4375 V -1.875 c 0,0.4375 -0.140625,0.5625 -0.34375,0.5625 -0.140625,0 -0.296875,-0.09375 -0.390625,-0.21875 0.0625,-0.171875 0.078125,-0.34375 0.078125,-0.53125 0,-1.015625 -0.59375,-1.609375 -1.421875,-1.609375 -0.484375,0 -0.84375,0.25 -1.0625,0.75 0,-0.484375 -0.015625,-0.890625 -0.140625,-1.234375 z m 0.90625,1.921875 c 0,-0.59375 0.3125,-0.90625 0.9375,-0.90625 0.609375,0 0.953125,0.3125 0.953125,0.890625 0,0.578125 -0.390625,0.890625 -0.953125,0.890625 -0.546875,0 -0.9375,-0.3125 -0.9375,-0.875 z m 0,0"
             id="path12" />
        </g>
        <g
           id="use833"
           transform="translate(229.19276,296.64191)">
          <path
             d="m -4.3125,-1.90625 c 0,0.875 0.484375,1.515625 1.15625,1.515625 0.59375,0 0.984375,-0.359375 1.234375,-1.265625 0.203125,-0.8125 0.375,-1.03125 0.78125,-1.03125 0.40625,0 0.640625,0.359375 0.640625,0.90625 0,0.46875 -0.140625,0.859375 -0.40625,1.1875 l 0.453125,0.390625 c 0.3125,-0.359375 0.546875,-0.875 0.546875,-1.59375 0,-0.84375 -0.390625,-1.65625 -1.28125,-1.65625 -0.734375,0 -1.078125,0.515625 -1.3125,1.390625 -0.171875,0.6875 -0.328125,0.90625 -0.671875,0.90625 -0.34375,0 -0.5625,-0.296875 -0.5625,-0.765625 0,-0.390625 0.125,-0.71875 0.359375,-1.109375 l -0.453125,-0.3125 C -4.140625,-2.9375 -4.3125,-2.5 -4.3125,-1.90625 Z m 0,0"
             id="path10" />
        </g>
        <g
           id="use834"
           transform="translate(229.19276,292.90591)" />
        <g
           id="use835"
           transform="translate(229.19276,290.78589)">
          <path
             d="m -6.765625,-1.8125 c 1.125,0.78125 2.0625,1.5 3.96875,1.5 1.890625,0 2.84375,-0.71875 3.953125,-1.5 l -0.3125,-0.453125 c -1.0625,0.71875 -1.9375,1.171875 -3.640625,1.171875 -1.71875,0 -2.578125,-0.453125 -3.640625,-1.171875 z m 0,0"
             id="path9" />
        </g>
        <g
           id="use836"
           transform="translate(229.19276,288.19391)">
          <path
             d="m -0.703125,-2.609375 c 0.140625,0.203125 0.1875,0.375 0.1875,0.5625 0,0.359375 -0.203125,0.5 -0.625,0.5 h -2.5 V -2.46875 L -4.21875,-2.546875 v 1 H -5.25 l 0.078125,0.734375 h 0.953125 v 0.734375 h 0.578125 V -0.8125 h 2.53125 c 0.796875,0 1.203125,-0.421875 1.203125,-1.125 0,-0.359375 -0.09375,-0.671875 -0.28125,-0.953125 z m 0,0"
             id="path8" />
        </g>
        <g
           id="use837"
           transform="translate(229.19276,285.30591)">
          <path
             d="m -4.3125,-2.34375 c 0,1.203125 0.90625,1.890625 2.203125,1.890625 1.34375,0 2.203125,-0.6875 2.203125,-1.890625 0,-1.1875 -0.90625,-1.875 -2.203125,-1.875 -1.34375,0 -2.203125,0.671875 -2.203125,1.875 z m 0.59375,0 c 0,-0.703125 0.515625,-1.078125 1.609375,-1.078125 1.09375,0 1.609375,0.375 1.609375,1.078125 0,0.71875 -0.515625,1.09375 -1.609375,1.09375 -1.09375,0 -1.609375,-0.390625 -1.609375,-1.09375 z m 0,0"
             id="path5" />
        </g>
        <g
           id="use838"
           transform="translate(229.19276,280.63391)">
          <path
             d="m -4.3125,-2.75 c 0,0.5625 0.28125,1 0.71875,1.296875 l -0.625,0.0625 v 0.625 H 0 V -1.5 h -2.984375 c -0.453125,-0.28125 -0.75,-0.59375 -0.75,-1.0625 0,-0.40625 0.1875,-0.671875 0.8125,-0.671875 H 0 V -3.96875 h -3.03125 c -0.796875,0 -1.28125,0.453125 -1.28125,1.21875 z m 0,0"
             id="path18" />
        </g>
        <g
           id="use839"
           transform="translate(229.19276,275.94589)">
          <path
             d="m -4.3125,-1.90625 c 0,0.875 0.484375,1.515625 1.15625,1.515625 0.59375,0 0.984375,-0.359375 1.234375,-1.265625 0.203125,-0.8125 0.375,-1.03125 0.78125,-1.03125 0.40625,0 0.640625,0.359375 0.640625,0.90625 0,0.46875 -0.140625,0.859375 -0.40625,1.1875 l 0.453125,0.390625 c 0.3125,-0.359375 0.546875,-0.875 0.546875,-1.59375 0,-0.84375 -0.390625,-1.65625 -1.28125,-1.65625 -0.734375,0 -1.078125,0.515625 -1.3125,1.390625 -0.171875,0.6875 -0.328125,0.90625 -0.671875,0.90625 -0.34375,0 -0.5625,-0.296875 -0.5625,-0.765625 0,-0.390625 0.125,-0.71875 0.359375,-1.109375 l -0.453125,-0.3125 C -4.140625,-2.9375 -4.3125,-2.5 -4.3125,-1.90625 Z m 0,0"
             id="path11" />
        </g>
        <g
           id="use840"
           transform="translate(229.19276,272.2099)" />
        <g
           id="use841"
           transform="translate(229.19276,270.0899)">
          <path
             d="m -4.3125,-2.34375 c 0,1.203125 0.90625,1.890625 2.203125,1.890625 1.34375,0 2.203125,-0.6875 2.203125,-1.890625 0,-1.1875 -0.90625,-1.875 -2.203125,-1.875 -1.34375,0 -2.203125,0.671875 -2.203125,1.875 z m 0.59375,0 c 0,-0.703125 0.515625,-1.078125 1.609375,-1.078125 1.09375,0 1.609375,0.375 1.609375,1.078125 0,0.71875 -0.515625,1.09375 -1.609375,1.09375 -1.09375,0 -1.609375,-0.390625 -1.609375,-1.09375 z m 0,0"
             id="path6" />
        </g>
        <g
           id="use842"
           transform="translate(229.19276,265.41791)">
          <path
             d="m -5.40625,-2.1875 c 0,-0.21875 0.03125,-0.46875 0.15625,-0.734375 L -5.78125,-3.15625 C -5.921875,-2.828125 -6,-2.546875 -6,-2.15625 c 0,0.859375 0.5,1.328125 1.203125,1.328125 h 0.578125 v 0.75 h 0.578125 v -0.75 H 0 V -1.5625 H -3.640625 V -2.515625 L -4.21875,-2.59375 v 1.03125 h -0.578125 c -0.40625,0 -0.609375,-0.171875 -0.609375,-0.625 z m 0,0"
             id="path4" />
        </g>
        <g
           id="use843"
           transform="translate(229.19276,262.73792)" />
        <g
           id="use844"
           transform="translate(229.19276,260.61789)">
          <path
             d="m -4.3125,-2.296875 c 0,1.140625 0.890625,1.84375 2.234375,1.84375 1.359375,0 2.171875,-0.703125 2.171875,-1.84375 0,-0.484375 -0.15625,-0.90625 -0.46875,-1.28125 L -0.84375,-3.25 c 0.203125,0.328125 0.3125,0.5625 0.3125,0.921875 0,0.671875 -0.453125,1.078125 -1.5625,1.078125 -1.09375,0 -1.609375,-0.40625 -1.609375,-1.078125 0,-0.359375 0.109375,-0.609375 0.3125,-0.90625 l -0.46875,-0.34375 C -4.1875,-3.1875 -4.3125,-2.796875 -4.3125,-2.296875 Z m 0,0"
             id="path3" />
        </g>
        <g
           id="use845"
           transform="translate(229.19276,256.79391)">
          <path
             d="m -4.3125,-2.34375 c 0,1.203125 0.90625,1.890625 2.203125,1.890625 1.34375,0 2.203125,-0.6875 2.203125,-1.890625 0,-1.1875 -0.90625,-1.875 -2.203125,-1.875 -1.34375,0 -2.203125,0.671875 -2.203125,1.875 z m 0.59375,0 c 0,-0.703125 0.515625,-1.078125 1.609375,-1.078125 1.09375,0 1.609375,0.375 1.609375,1.078125 0,0.71875 -0.515625,1.09375 -1.609375,1.09375 -1.09375,0 -1.609375,-0.390625 -1.609375,-1.09375 z m 0,0"
             id="path7" />
        </g>
        <g
           id="use846"
           transform="translate(229.19276,252.1219)">
          <path
             d="m -6,-3.28125 h 2.203125 c -0.296875,0.265625 -0.515625,0.640625 -0.515625,1.125 0,1.03125 0.9375,1.65625 2.21875,1.65625 1.3125,0 2.1875,-0.5625 2.1875,-1.59375 0,-0.515625 -0.25,-0.9375 -0.671875,-1.203125 L 0,-3.375 V -4.03125 H -5.90625 Z M -0.484375,-2.25 c 0,0.609375 -0.5,0.96875 -1.625,0.96875 -1.09375,0 -1.625,-0.40625 -1.625,-1.03125 0,-0.421875 0.21875,-0.71875 0.5625,-0.96875 h 2.0625 c 0.390625,0.265625 0.625,0.5625 0.625,1.03125 z m 0,0"
             id="path15" />
        </g>
        <g
           id="use847"
           transform="translate(229.19276,247.33791)">
          <path
             d="M -6.765625,-0.78125 -6.4375,-0.3125 C -5.375,-1.046875 -4.515625,-1.5 -2.796875,-1.5 c 1.703125,0 2.578125,0.453125 3.640625,1.1875 l 0.3125,-0.46875 c -1.109375,-0.78125 -2.0625,-1.484375 -3.953125,-1.484375 -1.90625,0 -2.84375,0.703125 -3.96875,1.484375 z m 0,0"
             id="path1" />
        </g>
      </g>
    </g>
  </g>
</svg>
